<?xml version="1.0" encoding="UTF-8"?>
<svg width="300px" height="300px" viewBox="0 0 300 300" version="1.1" xmlns="http://www.w3.org/2000/svg" xmlns:xlink="http://www.w3.org/1999/xlink">
    <!-- Generator: Sketch 56.3 (81716) - https://sketch.com -->
    <title>Artboard Copy 2</title>
    <desc>Created with Sketch.</desc>
    <defs>
        <linearGradient x1="2.3127144%" y1="43.9132997%" x2="130.264468%" y2="60.1551453%" id="linearGradient-1">
            <stop stop-color="#FBE8FF" offset="0%"></stop>
            <stop stop-color="#ECD6FF" offset="24%"></stop>
            <stop stop-color="#D1B5FF" offset="73%"></stop>
            <stop stop-color="#C7A8FF" offset="100%"></stop>
        </linearGradient>
        <linearGradient x1="59.9557155%" y1="158.057406%" x2="34.8611462%" y2="-114.346639%" id="linearGradient-2">
            <stop stop-color="#E6DBFF" offset="0%"></stop>
            <stop stop-color="#EBD1FF" offset="21%"></stop>
            <stop stop-color="#F3C2FF" offset="64%"></stop>
            <stop stop-color="#F6BDFF" offset="100%"></stop>
        </linearGradient>
        <linearGradient x1="51.639902%" y1="199.439467%" x2="47.932478%" y2="-138.063527%" id="linearGradient-3">
            <stop stop-color="#1D5DCC" offset="1%"></stop>
            <stop stop-color="#AB83F5" offset="40%"></stop>
            <stop stop-color="#BD82F8" offset="72%"></stop>
            <stop stop-color="#D081FC" offset="100%"></stop>
        </linearGradient>
        <linearGradient x1="50.1271649%" y1="91.877905%" x2="49.9309676%" y2="26.719057%" id="linearGradient-4">
            <stop stop-color="#50488F" offset="0%"></stop>
            <stop stop-color="#746BA3" offset="14%"></stop>
            <stop stop-color="#AEA4C3" offset="40%"></stop>
            <stop stop-color="#D8CDDB" offset="61%"></stop>
            <stop stop-color="#F2E7EA" offset="78%"></stop>
            <stop stop-color="#FCF0EF" offset="88%"></stop>
        </linearGradient>
        <linearGradient x1="55.4568268%" y1="135.142971%" x2="43.3124045%" y2="-54.3124708%" id="linearGradient-5">
            <stop stop-color="#E6DBFF" offset="0%"></stop>
            <stop stop-color="#EBD1FF" offset="21%"></stop>
            <stop stop-color="#F3C2FF" offset="64%"></stop>
            <stop stop-color="#F6BDFF" offset="100%"></stop>
        </linearGradient>
        <linearGradient x1="0%" y1="50.0095877%" x2="100%" y2="50.0095877%" id="linearGradient-6">
            <stop stop-color="#FBE8FF" offset="0%"></stop>
            <stop stop-color="#ECD6FF" offset="24%"></stop>
            <stop stop-color="#D1B5FF" offset="73%"></stop>
            <stop stop-color="#C7A8FF" offset="100%"></stop>
        </linearGradient>
        <linearGradient x1="52.036344%" y1="200.05667%" x2="48.8628209%" y2="-34.1456097%" id="linearGradient-7">
            <stop stop-color="#2475FF" offset="1%"></stop>
            <stop stop-color="#AB83F5" offset="60%"></stop>
            <stop stop-color="#BD82F8" offset="81%"></stop>
            <stop stop-color="#D081FC" offset="100%"></stop>
        </linearGradient>
        <linearGradient x1="49.9889454%" y1="94.9910018%" x2="49.9889454%" y2="44.4811038%" id="linearGradient-8">
            <stop stop-color="#635C85" offset="0%"></stop>
            <stop stop-color="#E6E4FF" offset="71%"></stop>
        </linearGradient>
        <linearGradient x1="58.4532199%" y1="146.324856%" x2="35.8608332%" y2="-110.024351%" id="linearGradient-9">
            <stop stop-color="#E6DBFF" offset="0%"></stop>
            <stop stop-color="#EBD1FF" offset="21%"></stop>
            <stop stop-color="#F3C2FF" offset="64%"></stop>
            <stop stop-color="#F6BDFF" offset="100%"></stop>
        </linearGradient>
        <linearGradient x1="0%" y1="50%" x2="100%" y2="50%" id="linearGradient-10">
            <stop stop-color="#FBB6FD" offset="0%"></stop>
            <stop stop-color="#F6B8FD" offset="5%"></stop>
            <stop stop-color="#DBC6FD" offset="42%"></stop>
            <stop stop-color="#CBCFFD" offset="75%"></stop>
            <stop stop-color="#C5D2FD" offset="100%"></stop>
        </linearGradient>
        <linearGradient x1="53.1477475%" y1="199.219877%" x2="46.4727401%" y2="-117.167208%" id="linearGradient-11">
            <stop stop-color="#1D5CC9" offset="1%"></stop>
            <stop stop-color="#837FF8" offset="36%"></stop>
            <stop stop-color="#AB83F5" offset="51%"></stop>
            <stop stop-color="#BD82F8" offset="77%"></stop>
            <stop stop-color="#D081FC" offset="100%"></stop>
        </linearGradient>
        <linearGradient x1="50.0149532%" y1="91.9687951%" x2="49.9261687%" y2="18.9348846%" id="linearGradient-12">
            <stop stop-color="#635C85" offset="0%"></stop>
            <stop stop-color="#E6E4FF" offset="71%"></stop>
        </linearGradient>
        <linearGradient x1="252.99286%" y1="598.558524%" x2="-151.436975%" y2="-494.041899%" id="linearGradient-13">
            <stop stop-color="#E6DBFF" offset="0%"></stop>
            <stop stop-color="#EBD1FF" offset="21%"></stop>
            <stop stop-color="#F3C2FF" offset="64%"></stop>
            <stop stop-color="#F6BDFF" offset="100%"></stop>
        </linearGradient>
        <linearGradient x1="-36.473323%" y1="36.9536322%" x2="134.181979%" y2="62.7269953%" id="linearGradient-14">
            <stop stop-color="#FBE8FF" offset="0%"></stop>
            <stop stop-color="#ECD6FF" offset="24%"></stop>
            <stop stop-color="#D1B5FF" offset="73%"></stop>
            <stop stop-color="#C7A8FF" offset="100%"></stop>
        </linearGradient>
        <linearGradient x1="-28.9832901%" y1="-298.737325%" x2="130.966342%" y2="407.652573%" id="linearGradient-15">
            <stop stop-color="#D081FC" offset="0%"></stop>
            <stop stop-color="#BD82F8" offset="27%"></stop>
            <stop stop-color="#AB83F5" offset="57%"></stop>
            <stop stop-color="#1F63D9" offset="99%"></stop>
        </linearGradient>
        <linearGradient x1="57.9241085%" y1="-3.79076741%" x2="48.1441995%" y2="101.458557%" id="linearGradient-16">
            <stop stop-color="#508559" offset="0%"></stop>
            <stop stop-color="#28725C" offset="100%"></stop>
        </linearGradient>
        <linearGradient x1="66.3801984%" y1="-15.4851368%" x2="46.6264374%" y2="101.458557%" id="linearGradient-17">
            <stop stop-color="#92DD9F" offset="10%"></stop>
            <stop stop-color="#41C79F" offset="100%"></stop>
        </linearGradient>
        <linearGradient x1="66.7907658%" y1="-15.4851368%" x2="46.5418795%" y2="101.458557%" id="linearGradient-18">
            <stop stop-color="#92DD9F" offset="10%"></stop>
            <stop stop-color="#41C79F" offset="100%"></stop>
        </linearGradient>
        <linearGradient x1="0.100125156%" y1="49.8927039%" x2="100%" y2="49.8927039%" id="linearGradient-19">
            <stop stop-color="#50488F" offset="0%"></stop>
            <stop stop-color="#746BA3" offset="14%"></stop>
            <stop stop-color="#AEA4C3" offset="40%"></stop>
            <stop stop-color="#D8CDDB" offset="61%"></stop>
            <stop stop-color="#F2E7EA" offset="78%"></stop>
            <stop stop-color="#FCF0EF" offset="88%"></stop>
        </linearGradient>
        <linearGradient x1="-0.00914353644%" y1="49.9653019%" x2="100%" y2="49.9653019%" id="linearGradient-20">
            <stop stop-color="#50488F" offset="0%"></stop>
            <stop stop-color="#746BA3" offset="14%"></stop>
            <stop stop-color="#AEA4C3" offset="40%"></stop>
            <stop stop-color="#D8CDDB" offset="61%"></stop>
            <stop stop-color="#F2E7EA" offset="78%"></stop>
            <stop stop-color="#FCF0EF" offset="88%"></stop>
        </linearGradient>
        <linearGradient x1="42.8146594%" y1="87.1273799%" x2="66.8423065%" y2="-24.4172986%" id="linearGradient-21">
            <stop stop-color="#F07295" offset="0%"></stop>
            <stop stop-color="#F03295" offset="100%"></stop>
        </linearGradient>
        <linearGradient x1="49.9723346%" y1="1.87696993%" x2="49.9994522%" y2="95.3642384%" id="linearGradient-22">
            <stop stop-color="#50488F" offset="0%"></stop>
            <stop stop-color="#746BA3" offset="14%"></stop>
            <stop stop-color="#AEA4C3" offset="40%"></stop>
            <stop stop-color="#D8CDDB" offset="61%"></stop>
            <stop stop-color="#F2E7EA" offset="78%"></stop>
            <stop stop-color="#FCF0EF" offset="88%"></stop>
        </linearGradient>
        <linearGradient x1="6.53950954%" y1="65.2462636%" x2="92.3160763%" y2="35.4723103%" id="linearGradient-23">
            <stop stop-color="#A688DB" offset="0%"></stop>
            <stop stop-color="#EED6F2" offset="100%"></stop>
        </linearGradient>
        <linearGradient x1="6.48501362%" y1="65.2462636%" x2="92.2615804%" y2="35.4723103%" id="linearGradient-24">
            <stop stop-color="#A688DB" offset="0%"></stop>
            <stop stop-color="#EED6F2" offset="100%"></stop>
        </linearGradient>
        <linearGradient x1="6.48501362%" y1="65.2462636%" x2="92.3160763%" y2="35.4723103%" id="linearGradient-25">
            <stop stop-color="#A688DB" offset="0%"></stop>
            <stop stop-color="#EED6F2" offset="100%"></stop>
        </linearGradient>
        <linearGradient x1="6.48854962%" y1="65.2628944%" x2="92.3118866%" y2="35.4564633%" id="linearGradient-26">
            <stop stop-color="#A688DB" offset="0%"></stop>
            <stop stop-color="#EED6F2" offset="100%"></stop>
        </linearGradient>
        <linearGradient x1="6.48501362%" y1="65.2161646%" x2="92.3160763%" y2="35.4705136%" id="linearGradient-27">
            <stop stop-color="#A688DB" offset="0%"></stop>
            <stop stop-color="#EED6F2" offset="100%"></stop>
        </linearGradient>
        <linearGradient x1="6.48501362%" y1="65.2161646%" x2="92.2615804%" y2="35.4705136%" id="linearGradient-28">
            <stop stop-color="#A688DB" offset="0%"></stop>
            <stop stop-color="#EED6F2" offset="100%"></stop>
        </linearGradient>
        <linearGradient x1="6.48501362%" y1="65.2473773%" x2="92.3160763%" y2="35.4705136%" id="linearGradient-29">
            <stop stop-color="#A688DB" offset="0%"></stop>
            <stop stop-color="#EED6F2" offset="100%"></stop>
        </linearGradient>
        <linearGradient x1="6.48501362%" y1="65.2473773%" x2="92.2615804%" y2="35.4705136%" id="linearGradient-30">
            <stop stop-color="#A688DB" offset="0%"></stop>
            <stop stop-color="#EED6F2" offset="100%"></stop>
        </linearGradient>
        <linearGradient x1="50.0185148%" y1="1.89674237%" x2="49.9661626%" y2="95.3559582%" id="linearGradient-31">
            <stop stop-color="#50488F" offset="0%"></stop>
            <stop stop-color="#746BA3" offset="14%"></stop>
            <stop stop-color="#AEA4C3" offset="40%"></stop>
            <stop stop-color="#D8CDDB" offset="61%"></stop>
            <stop stop-color="#F2E7EA" offset="78%"></stop>
            <stop stop-color="#FCF0EF" offset="88%"></stop>
        </linearGradient>
        <linearGradient x1="93.5149864%" y1="65.2161646%" x2="7.73841962%" y2="35.4705136%" id="linearGradient-32">
            <stop stop-color="#A688DB" offset="0%"></stop>
            <stop stop-color="#EED6F2" offset="100%"></stop>
        </linearGradient>
        <linearGradient x1="93.5149864%" y1="65.2462636%" x2="7.68392371%" y2="35.4723103%" id="linearGradient-33">
            <stop stop-color="#A688DB" offset="0%"></stop>
            <stop stop-color="#EED6F2" offset="100%"></stop>
        </linearGradient>
        <linearGradient x1="93.5149864%" y1="65.2462636%" x2="7.73841962%" y2="35.4723103%" id="linearGradient-34">
            <stop stop-color="#A688DB" offset="0%"></stop>
            <stop stop-color="#EED6F2" offset="100%"></stop>
        </linearGradient>
        <linearGradient x1="93.5114504%" y1="65.2628944%" x2="7.68811341%" y2="35.4564633%" id="linearGradient-35">
            <stop stop-color="#A688DB" offset="0%"></stop>
            <stop stop-color="#EED6F2" offset="100%"></stop>
        </linearGradient>
        <linearGradient x1="-6.37543953e-14%" y1="50%" x2="100%" y2="50%" id="linearGradient-36">
            <stop stop-color="#50488F" offset="0%"></stop>
            <stop stop-color="#746BA3" offset="14%"></stop>
            <stop stop-color="#AEA4C3" offset="40%"></stop>
            <stop stop-color="#D8CDDB" offset="61%"></stop>
            <stop stop-color="#F2E7EA" offset="78%"></stop>
            <stop stop-color="#FCF0EF" offset="88%"></stop>
        </linearGradient>
        <linearGradient x1="0.00146121671%" y1="49.9947468%" x2="334.123991%" y2="49.9947468%" id="linearGradient-37">
            <stop stop-color="#4E50B8" offset="0%"></stop>
            <stop stop-color="#5051BA" offset="46%"></stop>
            <stop stop-color="#5754BF" offset="63%"></stop>
            <stop stop-color="#625AC9" offset="75%"></stop>
            <stop stop-color="#7362D6" offset="84%"></stop>
            <stop stop-color="#896DE8" offset="92%"></stop>
            <stop stop-color="#A47AFD" offset="99%"></stop>
            <stop stop-color="#A67BFF" offset="100%"></stop>
        </linearGradient>
        <linearGradient x1="0.000185595974%" y1="49.986983%" x2="99.9989258%" y2="49.986983%" id="linearGradient-38">
            <stop stop-color="#4E50B8" offset="0%"></stop>
            <stop stop-color="#A67BFF" offset="100%"></stop>
        </linearGradient>
        <linearGradient x1="0.00146121671%" y1="49.9947468%" x2="334.123991%" y2="49.9947468%" id="linearGradient-39">
            <stop stop-color="#4E50B8" offset="0%"></stop>
            <stop stop-color="#5051BA" offset="46%"></stop>
            <stop stop-color="#5754BF" offset="63%"></stop>
            <stop stop-color="#625AC9" offset="75%"></stop>
            <stop stop-color="#7362D6" offset="84%"></stop>
            <stop stop-color="#896DE8" offset="92%"></stop>
            <stop stop-color="#A47AFD" offset="99%"></stop>
            <stop stop-color="#A67BFF" offset="100%"></stop>
        </linearGradient>
        <linearGradient x1="47.7434826%" y1="7.32872161%" x2="58.3032568%" y2="148.537314%" id="linearGradient-40">
            <stop stop-color="#280482" offset="0%"></stop>
            <stop stop-color="#270D88" offset="20%"></stop>
            <stop stop-color="#232598" offset="52%"></stop>
            <stop stop-color="#1C4DB3" offset="93%"></stop>
            <stop stop-color="#1B54B8" offset="100%"></stop>
        </linearGradient>
        <linearGradient x1="48.8046589%" y1="9.88508347%" x2="53.0240806%" y2="114.30165%" id="linearGradient-41">
            <stop stop-color="#230470" offset="0%"></stop>
            <stop stop-color="#1F0D77" offset="28%"></stop>
            <stop stop-color="#152589" offset="73%"></stop>
            <stop stop-color="#0E3796" offset="100%"></stop>
        </linearGradient>
        <linearGradient x1="75.1695928%" y1="103.705167%" x2="34.4133729%" y2="-3.39428278%" id="linearGradient-42">
            <stop stop-color="#2D0591" offset="0%"></stop>
            <stop stop-color="#270E92" offset="28%"></stop>
            <stop stop-color="#182694" offset="74%"></stop>
            <stop stop-color="#0E3796" offset="100%"></stop>
        </linearGradient>
        <linearGradient x1="49.9799246%" y1="-65.6145251%" x2="49.9799246%" y2="160.22905%" id="linearGradient-43">
            <stop stop-color="#BA5B8A" offset="0%"></stop>
            <stop stop-color="#F06995" offset="99%"></stop>
        </linearGradient>
        <linearGradient x1="93.7047669%" y1="3.86084318%" x2="7.16241533%" y2="98.3283179%" id="linearGradient-44">
            <stop stop-color="#F09376" offset="0%"></stop>
            <stop stop-color="#F07295" offset="100%"></stop>
        </linearGradient>
        <linearGradient x1="49.9799246%" y1="-65.6145251%" x2="49.9799246%" y2="160.22905%" id="linearGradient-45">
            <stop stop-color="#BA5B8A" offset="0%"></stop>
            <stop stop-color="#F06995" offset="99%"></stop>
        </linearGradient>
    </defs>
    <g id="Artboard-Copy-2" stroke="none" stroke-width="1" fill="none" fill-rule="evenodd">
        <g id="10" transform="translate(64.000000, 26.000000)" fill-rule="nonzero">
            <g id="Group" opacity="0.3" style="mix-blend-mode: color-dodge;" transform="translate(136.654000, 219.730000)" fill="#FFFFFF">
                <path d="M16.59112,10.79386 C16.09146,10.63734 15.60384,10.4748 15.10418,10.3243 C14.0868,10.0233 13.29818,10.24604 12.99718,10.87212 C12.817786,11.3078519 12.6002189,11.7268699 12.34702,12.12428 C12.153453,12.2995048 11.9036733,12.3998436 11.64268,12.40722 C9.50558,12.40722 9.9932,12.66608 9.23468,11.42596 C9.12590886,11.2315111 9.02940062,11.0304523 8.94572,10.82396 C8.6387,10.22196 7.81396,10.0233 6.8628,10.3243 L4.816,10.98048 C4.53027902,11.0977386 4.2056575,11.0708734 3.9431,10.90824 C2.48626,10.01126 2.51636,10.3845 3.43742,9.20458 C3.59394,9.00592 3.8227,8.83134 3.98524,8.63268 C4.46082,8.06078 4.06952,7.6153 3.01602,7.45878 C2.2876,7.35042 1.55316,7.23604 0.85484,7.0735 C0.62006,7.01932 0.34916,6.80862 0.34916,6.67016 C0.34916,5.43004 -0.11438,5.70094 2.02272,5.28556 C2.40198,5.2073 2.7993,5.16516 3.17856,5.09292 C4.13574,4.91232 4.4548,4.43072 3.96718,3.92504 C3.5819,3.5217 3.1605,3.12438 2.8294,2.72104 C2.73837357,2.56306067 2.79219816,2.36121846 2.9498,2.26954 C4.53306,1.37858 3.82872,1.42072 5.8695,1.93242 C6.21264,2.0167 6.52568,2.14914 6.8628,2.24546 C7.81396,2.51636 8.53636,2.36586 8.89154,1.79998 C9.1493802,1.3711283 9.38058387,0.926815174 9.58384,0.46956 C9.68618,0.25284 9.8427,0.15652 10.25808,0.14448 C12.06408,0.09632 12.06408,0.08428 12.60588,1.07758 C12.7382503,1.34612608 12.8849483,1.60736899 13.04534,1.86018 C13.5529485,2.39291705 14.3393777,2.55164588 15.01388,2.2575 C15.70016,2.04479333 16.38042,1.82807333 17.05466,1.60734 C17.3784917,1.46854485 17.7498597,1.49780414 18.04796,1.6856 C19.54694,2.60064 19.46868,2.24546 18.53558,3.33508 C18.37906,3.5217 18.20448,3.69628 18.0299,3.87688 C17.50616,4.41266 17.759,4.88222 18.7523,5.08088 C19.48072,5.2374 20.2272,5.36984 20.98572,5.47218 C21.47334,5.5384 21.63588,5.66482 21.58772,5.94776 C21.51548,7.15176 21.973,6.85678 19.93222,7.27818 C19.57704,7.35042 19.2038,7.39858 18.8426,7.45878 C17.759,7.6454 17.4279,8.13302 17.98776,8.69288 C18.36702,9.07214 18.71618,9.45742 19.08942,9.83668 C19.28206,10.02932 19.27604,10.19186 18.95096,10.33634 C18.8125601,10.4054024 18.677924,10.4817632 18.54762,10.5651 C17.6988,11.07078 17.6988,11.07078 16.59112,10.79386 Z M12.92494,3.56986 C10.28818,2.96786 7.26012,3.64812 6.19458,5.1471 C5.12904,6.64608 6.37518,8.3979 8.99388,9.01796 C11.61258,9.63802 14.6286,8.90358 15.7122,7.4046 C16.7958,5.90562 15.51956,4.214 12.92494,3.612 L12.92494,3.56986 Z" id="Shape"></path>
                <path d="M4.3344,19.11952 C3.7324,19.01116 3.3411,18.19244 3.7023,17.98174 C4.0635,17.77104 4.46082,17.5784 4.85814,17.37974 C5.64074,16.98844 5.62268,16.63326 4.79794,16.2841 C4.55112,16.18176 4.29828,16.07942 4.05748,15.97106 C3.15448,15.57374 3.17856,15.57976 3.5518,14.97174 C3.7324,14.68278 3.99728,14.55034 4.53908,14.58044 C5.08088,14.61054 5.52636,14.6286 6.02,14.64064 C6.87484,14.64064 7.3444,14.36974 7.224,13.88212 C7.12796784,13.593236 7.06535281,13.2942997 7.03738,12.99116 C7.0917393,12.7838269 7.25223879,12.6210346 7.45878,12.56374 C8.59054,12.19652 8.60258,12.20856 9.49956,12.77444 C10.92028,13.67142 11.15506,13.6654 12.41324,12.7022 L12.5818,12.56976 C13.1903797,12.1414186 13.9904586,12.0993092 14.64064,12.4614 C14.7412679,12.5251649 14.8007707,12.6373048 14.79716,12.75638 C14.79716,13.05136 14.749,13.35838 14.72492,13.65336 C14.67676,14.25536 15.16438,14.51422 16.18778,14.4179 L16.95834,14.34566 C18.16234,14.25536 18.11418,14.26138 18.6319,14.88746 C18.8426,15.1403 18.81852,15.31488 18.43926,15.48946 C18.06,15.66404 17.69278,15.86872 17.32556,16.05534 C16.6754,16.39246 16.6754,16.77774 17.32556,17.0968 C17.74696,17.2974667 18.1804,17.4840867 18.62588,17.65666 C18.94494,17.7891 19.02922,17.92154 18.89678,18.14428 C18.48742,18.8426 18.49946,18.84862 17.2172,18.8125 C16.86202,18.8125 16.51286,18.7824 16.15768,18.77638 C15.42324,18.77638 15.01388,19.0232 15.09214,19.45062 C15.1526436,19.7658535 15.2310302,20.0773901 15.32692,20.38372 C15.39916,20.62452 15.25468,20.75094 14.86338,20.8593 C13.6955,21.16632 13.65938,21.20846 12.8226,20.60044 C11.70288,19.76366 10.9564,19.75764 10.01126,20.66064 C9.95106,20.71482 9.8728,20.769 9.80056,20.82318 C9.16552675,21.2641872 8.3358059,21.30847 7.65744,20.93756 C7.55426355,20.8768209 7.48863122,20.7681881 7.48286,20.6486 C7.48572824,20.3622571 7.50987475,20.0765234 7.5551,19.79376 C7.6454,19.14962 7.15778,18.89678 6.02602,18.9931 C5.46014,19.04728 4.8461,19.0834 4.3344,19.11952 Z M9.92698,18.4814 C11.73298,18.8727 13.61122,18.39712 14.28546,17.37974 C14.9597,16.36236 14.09282,15.19448 12.34702,14.82124 C10.60122,14.448 8.63268,14.96572 7.96446,15.95902 C7.29624,16.95232 8.19322,18.09612 9.92698,18.4814 Z" id="Shape"></path>
                <path d="M19.82988,12.1002 C19.22788,11.99184 18.83658,11.17312 19.19778,10.96242 C19.55898,10.75172 19.96232,10.55908 20.35362,10.36042 C21.13622,9.96912 21.12418,9.61394 20.29342,9.26478 L19.55296,8.95174 C18.64996,8.55442 18.68006,8.56044 19.0533,7.95242 C19.22788,7.66346 19.49878,7.53102 20.03456,7.56112 C20.57034,7.59122 21.02184,7.60928 21.51548,7.62132 C22.37634,7.62132 22.8459,7.35042 22.71948,6.8628 C22.6216046,6.57410248 22.5569737,6.27518436 22.52684,5.97184 C22.5811993,5.76450692 22.7416988,5.60171458 22.94824,5.54442 C24.08602,5.1772 24.09806,5.18924 24.99504,5.75512 C26.41576,6.6521 26.64452,6.64608 27.9027,5.68288 L28.07126,5.55044 C28.6817101,5.12103019 29.4840774,5.07892345 30.13612,5.44208 C30.2367479,5.50584487 30.2962507,5.61798481 30.29264,5.73706 C30.29264,6.03204 30.23846,6.33906 30.2204,6.63404 C30.17224,7.23604 30.65986,7.4949 31.68326,7.39858 L32.4478,7.32634 C33.6518,7.23604 33.60966,7.24206 34.12738,7.86814 C34.33206,8.12098 34.314,8.29556 33.92872,8.47014 C33.54344,8.64472 33.18826,8.8494 32.81502,9.03602 C32.16486,9.37314 32.16486,9.75842 32.81502,10.07748 C33.23642,10.27614 33.67588,10.46276 34.12136,10.63734 C34.4344,10.76978 34.51868,10.90222 34.39226,11.12496 C33.97688,11.82328 33.99494,11.8293 32.70666,11.79318 C32.3575,11.79318 32.00232,11.79318 31.64714,11.75706 C30.9127,11.75706 30.50936,12.00388 30.58762,12.4313 C30.6460691,12.74643 30.7224465,13.0579694 30.81638,13.3644 C30.88862,13.6052 30.74414,13.73162 30.35284,13.83998 C29.18496,14.147 29.14884,14.18914 28.31808,13.58112 C27.19836,12.74434 26.44586,12.73832 25.50674,13.64132 L25.29002,13.80386 C24.655914,14.2410436 23.830067,14.2852438 23.15292,13.91824 C23.0466153,13.8598281 22.9782421,13.750431 22.97232,13.62928 C22.9781966,13.343087 23.0023256,13.0575605 23.04456,12.77444 C23.13486,12.1303 22.64724,11.87746 21.5215,11.97378 C20.95562,12.04 20.3476,12.04 19.82988,12.1002 Z M25.42246,11.46208 C27.22846,11.85338 29.1067,11.3778 29.78696,10.36042 C30.46722,9.34304 29.5883,8.17516 27.8425,7.80192 C26.0967,7.42868 24.12816,7.9464 23.45994,8.9397 C22.79172,9.933 23.69472,11.0768 25.42246,11.438 L25.42246,11.46208 Z" id="Shape"></path>
            </g>
            <polygon id="Path" fill="url(#linearGradient-1)" points="109.31116 90.98026 82.07668 75.26806 109.53992 59.57994 136.47942 75.26806"></polygon>
            <polygon id="Path" fill="url(#linearGradient-2)" points="109.27504 200.91148 136.2326 185.16316 136.47942 75.2801 109.263 90.98628"></polygon>
            <polygon id="Path" fill="url(#linearGradient-3)" points="109.25698 90.9622 109.01016 90.8117 82.06464 75.26204 82.0526 185.2053 109.27504 200.9175"></polygon>
            <polygon id="Path" fill="url(#linearGradient-4)" opacity="0.5" style="mix-blend-mode: multiply;" points="109.27504 200.91148 136.2326 185.16316 136.47942 75.2801 109.263 90.98628"></polygon>
            <polygon id="Path" fill="url(#linearGradient-5)" points="68.4474 59.52576 68.4474 224.46774 95.67586 208.76758 95.64576 43.83162"></polygon>
            <polygon id="Path" fill="url(#linearGradient-6)" points="68.24874 59.61004 41.27312 43.8557 68.4775 28.21574 95.70596 43.8557"></polygon>
            <polygon id="Path" fill="url(#linearGradient-7)" points="41.18884 43.83162 68.4775 59.55586 68.4775 224.41958 41.27312 208.77962"></polygon>
            <polygon id="Path" fill="url(#linearGradient-8)" opacity="0.5" style="mix-blend-mode: multiply;" points="68.4474 59.52576 68.4474 224.46774 95.67586 208.76758 95.64576 43.83162"></polygon>
            <polygon id="Path" fill="url(#linearGradient-9)" points="27.64986 130.2126 27.64986 248.01196 55.31778 231.9807 54.85424 114.51244"></polygon>
            <polygon id="Path" fill="url(#linearGradient-10)" points="54.89638 114.5305 27.67394 98.82432 0.5117 114.51244 27.67394 130.2126"></polygon>
            <polygon id="Path" fill="url(#linearGradient-11)" points="27.67394 130.26076 0.46956 114.51244 0.46956 232.30578 27.67394 248.01196"></polygon>
            <polygon id="Path" fill="url(#linearGradient-12)" opacity="0.5" style="mix-blend-mode: multiply;" points="27.64986 130.2126 27.64986 248.01196 55.31778 231.9807 54.85424 114.51244"></polygon>
            <polygon id="Path" fill="url(#linearGradient-13)" points="27.67394 145.87664 54.91444 130.14036 54.85424 114.55458 27.67394 130.2126 27.6619 130.20658 27.64986 130.2126 27.64986 130.24872 27.67394 130.26076"></polygon>
            <polygon id="Path" fill="url(#linearGradient-14)" points="54.85424 114.55458 54.89638 114.5305 27.67394 98.82432 0.5117 114.51244 27.6619 130.20658 54.85424 114.51244"></polygon>
            <polygon id="Path" fill="url(#linearGradient-15)" points="27.64986 145.88868 27.64986 130.24872 0.46956 114.51244 0.46956 130.31494 27.49936 145.97898"></polygon>
            <path d="M48.71986,43.344 L48.71986,0.602 L47.87104,0.602 L47.87104,43.344 C47.87104,43.42226 47.87104,43.50654 47.99144,43.57276 C48.1813989,43.6654681 48.4034811,43.6654681 48.59344,43.57276 C48.71986,43.48848 48.762,43.39818 48.71986,43.344 Z" id="Path" fill="#5C5B61"></path>
            <path d="M47.99144,0.43946 C48.1813989,0.346751902 48.4034811,0.346751902 48.59344,0.43946 C48.6704948,0.464342911 48.7227118,0.536077124 48.7227118,0.61705 C48.7227118,0.698022876 48.6704948,0.769757089 48.59344,0.79464 C48.4034811,0.887348098 48.1813989,0.887348098 47.99144,0.79464 C47.9143851,0.769757089 47.8621682,0.698022876 47.8621682,0.61705 C47.8621682,0.536077124 47.9143851,0.464342911 47.99144,0.43946 L47.99144,0.43946 Z" id="Path" fill="#858489"></path>
            <polygon id="Path" fill="url(#linearGradient-16)" points="28.81774 13.01524 28.81774 23.42984 33.9227 22.3643 36.04776 18.7523 34.314 14.97174"></polygon>
            <path d="M48.81618,3.44946 C48.41284,3.89494 48.1299,3.7324 45.52324,3.96116 C42.91658,4.18992 29.82308,10.19788 28.896,12.69016 C27.96892,15.18244 33.94076,16.90416 34.50664,19.08942 C34.5641651,19.285964 34.5641651,19.494876 34.50664,19.69142 C35.62636,21.44324 34.78356,23.19506 35.4277,24.94688 C35.4277,24.42314 35.88522,22.62918 39.96076,19.39644 C44.89114,15.48344 48.5212,16.7055 48.83424,16.17574 C48.9426,9.44538 48.96066,8.89154 48.81618,3.44946 Z" id="Path" fill="url(#linearGradient-17)"></path>
            <path d="M21.83454,25.60908 C15.21254,27.9328 10.9564,32.83308 8.74706,36.6016 C6.53772,40.37012 6.47752,40.8156 6.47752,40.8156 C6.47752,40.8156 12.70822,35.88522 16.62122,37.07718 C11.69084,41.15272 11.20322,46.19748 11.69084,49.37002 C13.05136,46.70918 15.94096,42.68782 22.28604,40.47246 C26.364224,39.1306168 30.2922228,37.3693724 34.00698,35.217 C34.9069745,34.6674501 35.4906982,33.7214151 35.5782,32.67054 L35.43372,25.11544 C35.43372,25.11544 35.47586,19.264 34.314,18.662 C34.62704,19.21584 34.53072,19.46266 34.48256,19.57704 C33.45314,21.70812 27.58966,23.59238 21.83454,25.60908 Z" id="Path" fill="url(#linearGradient-18)"></path>
            <path d="M86.54954,43.946 C86.54954,45.49916 81.17368,46.75132 74.53964,46.75132 C67.9056,46.75132 62.49964,45.49916 62.49964,43.946 C62.49964,42.39284 67.88152,41.14068 74.53964,41.14068 C81.19776,41.14068 86.54954,42.39284 86.54954,43.946 Z" id="Path" fill="url(#linearGradient-19)" opacity="0.3" style="mix-blend-mode: multiply;"></path>
            <path d="M82.66062,51.3807 L90.40234,46.91386 C87.1920511,45.6907473 83.8857458,44.7363083 80.5175,44.06038 C71.77646,42.25438 64.37186,42.25438 63.98658,44.06038 C63.6013,45.86638 70.37982,48.87638 79.12688,50.68238 C80.3389066,50.9673266 81.51682,51.2001 82.66062,51.3807 Z" id="Path" fill="url(#linearGradient-20)" opacity="0.3" style="mix-blend-mode: multiply;"></path>
            <path d="M79.14494,50.3573 C79.1500197,50.8573987 79.1922762,51.3564277 79.27136,51.85026 C79.7388791,52.3110785 80.2853342,52.6842176 80.88472,52.95192 C81.4919093,53.0201822 82.1066501,52.9628064 82.69072,52.78336 C82.8324762,52.4933621 82.7974792,52.1480585 82.60042,51.8924 C82.2633,51.50712 80.79442,50.82686 80.79442,50.6884 C80.7618125,50.4818661 80.7052442,50.2798364 80.62586,50.0864 L79.14494,50.3573 Z" id="Path" fill="#26252B"></path>
            <path d="M62.95114,43.28982 C62.1276,43.3403891 61.3011123,43.3121676 60.48294,43.20554 C60.48294,43.20554 58.86958,42.69384 58.82744,42.35672 C58.7853,42.0196 58.74316,41.75472 59.33914,41.46576 C59.93512,41.1768 60.54314,41.76074 60.91036,41.4176 C61.2202419,41.1569321 61.5459432,40.9156719 61.8856,40.6952 C61.8856,40.6952 62.73442,40.82764 62.73442,40.95406 C62.73442,41.08048 62.909,42.15806 62.909,42.15806 L62.95114,43.28982 Z" id="Path" fill="#26252B"></path>
            <path d="M74.59382,42.01358 C73.10688,44.6082 69.4106,46.73326 69.4106,46.73326 C69.4106,46.73326 63.54712,45.58344 62.1866,43.75938 C60.82608,41.93532 62.7886,41.5079 62.7886,41.5079 C62.7886,41.5079 66.10562,42.6517 67.08688,42.60956 C68.06814,42.56742 69.97648,39.50926 69.97648,39.50926 L74.59382,42.01358 Z" id="Path" fill="#4947D7"></path>
            <path d="M88.02444,41.84502 C88.45186,42.73598 88.36758,42.99484 88.62644,43.24768 C88.9590791,43.4991367 89.3184385,43.7131372 89.698,43.8858 C89.5602226,43.5445432 89.3888105,43.2178519 89.1863,42.91056 C88.92744,42.56742 90.6311,43.51256 90.6311,43.51256 C90.9178414,43.3743052 91.1883847,43.2047109 91.43778,43.00688 C91.6074294,42.8044374 91.6405509,42.5205389 91.52206,42.28448 C91.2235549,41.8955026 90.7970577,41.6246769 90.31806,41.51994 C89.5999574,41.4097682 88.8765589,41.3374284 88.15086,41.30322 L88.02444,41.84502 Z" id="Path" fill="#EFB2B1"></path>
            <path d="M80.84258,32.508 C82.25728,34.916 84.07532,37.926 84.07532,37.926 L88.77694,41.09854 C89.28864,41.43566 88.17494,42.62762 88.17494,42.62762 C88.17494,42.62762 82.75694,40.35808 81.82986,39.45508 C80.90278,38.55208 79.95764,37.4143 79.95764,37.4143 L76.454,40.334 L72.3303,39.48518 C72.3303,39.48518 75.78578,31.77356 76.29748,31.49062 C77.061903,31.0234984 77.8562547,30.607218 78.67538,30.24448 C79.0580849,30.3844711 79.4204588,30.574768 79.75296,30.81036 L80.84258,32.508 Z" id="Path" fill="#BA4595"></path>
            <path d="M80.10814,30.50936 C78.4541871,29.8639621 76.5959055,30.0103184 75.06338,30.90668 C74.38312,31.41838 70.0728,34.42236 69.1698,37.48052 C68.2668,40.53868 69.52498,41.237 72.13164,42.6517 C73.5274833,43.4570176 75.0502139,44.0188808 76.6346,44.31322 C76.6346,44.31322 77.72422,50.67034 78.97036,51.23622 C80.2165,51.8021 81.27,50.63422 81.27,50.63422 C81.27,50.63422 80.7884,42.7119 80.50546,42.08582 C80.22252,41.45974 79.86734,40.8156 77.60984,39.96076 C77.47138,39.9126 76.95968,39.56344 76.95968,39.39488 C76.98978,37.82366 80.10814,30.50936 80.10814,30.50936 Z" id="Path" fill="url(#linearGradient-21)"></path>
            <path d="M69.1698,37.48052 C68.2668,40.53868 69.52498,41.237 72.13164,42.6517 C73.5274833,43.4570176 75.0502139,44.0188808 76.6346,44.31322 C76.6346,44.31322 77.72422,50.67034 78.97036,51.23622 C80.2165,51.8021 81.27,50.63422 81.27,50.63422 C81.27,50.63422 80.7884,42.7119 80.50546,42.08582 C80.22252,41.45974 79.86734,40.8156 77.60984,39.96076 C77.47138,39.9126 76.95968,39.56344 76.95968,39.39488 C76.98978,37.82366 70.0728,34.42236 69.1698,37.48052 Z" id="Path" fill="#6362D7"></path>
            <path d="M78.40448,30.56956 C77.15834,30.7923 76.67674,31.304 77.01988,31.98426 C77.36302,32.66452 76.92958,39.40692 76.92958,39.40692 C76.92958,39.40692 79.2533,36.91464 79.87938,35.49994 C80.50546,34.08524 79.765,31.53276 79.765,31.53276 L78.40448,30.56956 Z" id="Path" fill="#FFFFFF"></path>
            <path d="M79.14494,29.77492 L77.44128,31.38828 C77.3068204,31.9791076 77.4317219,32.5992324 77.78442,33.09194 C78.38642,33.94076 79.05464,33.51334 79.05464,33.51334 L79.90948,32.2371 L79.14494,29.77492 Z" id="Path" fill="#B38584"></path>
            <path d="M83.45526,30.65384 C82.7148,32.36954 80.55362,33.45916 79.84326,33.24846 C78.561,32.84512 78.22388,31.0331 78.7717,29.23312 C79.31952,27.43314 80.80646,26.30138 82.09474,26.69268 C83.38302,27.08398 84.20776,28.93212 83.45526,30.65384 Z" id="Path" fill="#EFB2B1"></path>
            <path d="M79.2533,34.013 C79.2533,34.23574 79.15096,34.42236 79.0125,34.42236 C78.87404,34.42236 78.7717,34.23574 78.7717,34.013 C78.7717,33.79026 78.88006,33.59762 79.0125,33.59762 C79.14494,33.59762 79.2533,33.78424 79.2533,34.013 Z" id="Path" fill="#26252B"></path>
            <polygon id="Path" fill="#26252B" points="79.163 34.1936 79.22922 40.73734 78.86802 40.52664 78.88608 34.06718"></polygon>
            <path d="M79.464,41.03834 C78.36234,40.4845 74.83462,38.43168 73.97978,38.38954 C73.12494,38.3474 73.64266,38.94338 74.06406,39.19622 C74.48546,39.44906 76.76704,41.31526 77.82656,41.91124 C78.88608,42.50722 79.57838,42.6517 79.80714,43.59082 C80.4874,46.39614 80.52954,42.86842 80.31282,42.27244 C80.1067648,41.8131685 79.8191772,41.3950447 79.464,41.03834 L79.464,41.03834 Z" id="Path" fill="#4A48D8"></path>
            <path d="M71.5778,38.57014 C71.61994,39.63568 71.63198,39.51528 71.83064,39.59354 C72.46876,39.84638 73.31758,39.89454 73.5343,39.46712 C73.91356,38.70258 74.89482,39.0397 75.14766,38.86512 C75.30418,38.75676 74.59382,38.14272 74.13028,38.14272 C73.66674,38.14272 71.5778,38.57014 71.5778,38.57014 Z" id="Path" fill="#EFB2B1"></path>
            <path d="M76.55032,31.00902 C75.80986,29.77492 68.51964,30.83444 68.34506,32.36954 C68.17048,33.90464 69.832,36.95678 70.68684,38.38954 C70.8836706,38.7723595 71.2447315,39.0441735 71.6670532,39.1274647 C72.0893749,39.2107559 72.5266006,39.0963818 72.85404,38.81696 C72.5897806,37.6833822 72.4047203,36.5327901 72.3002,35.37352 C72.3002,34.39828 73.5042,35.4578 74.42526,35.03038 C75.34632,34.60296 76.16504,33.92872 76.29748,33.41702 C76.4908661,32.629585 76.5759303,31.8194496 76.55032,31.00902 L76.55032,31.00902 Z" id="Path" fill="#BA4595"></path>
            <path d="M82.474,30.401 C83.678,30.78628 83.79238,30.17224 84.14154,29.43178 C84.4907,28.69132 84.83384,27.23448 83.5877,26.28934 C82.34156,25.3442 80.61382,25.0131 79.3737,26.20506 C78.5911,26.97562 78.04328,27.77628 78.12756,28.79968 C78.1750612,29.3961772 78.2696696,29.9879827 78.4105,30.56956 C78.4105,30.56956 79.1931,29.56422 79.44594,29.30536 C79.69878,29.0465 79.23524,30.41304 79.23524,30.41304 C79.23524,30.41304 80.29476,30.20234 80.37904,29.73278 C80.46332,29.26322 80.21048,28.28798 80.59576,28.02912 C80.98104,27.77026 81.25796,28.46256 81.31816,29.09466 C81.39642,29.98562 82.474,30.401 82.474,30.401 Z" id="Path" fill="#26252B"></path>
            <path d="M83.40108,26.187 C84.32816,26.89736 84.55692,27.3308 84.42448,28.22176 C84.2499,29.38362 82.61848,28.82376 81.90812,27.7522 C81.19776,26.68064 80.43924,25.9462 80.70412,25.59704 C80.969,25.24788 82.474,25.47664 83.40108,26.187 Z" id="Path" fill="#323038"></path>
            <path d="M79.59644,29.23914 C79.54828,29.70268 79.30748,30.06388 79.06668,30.0398 C78.82588,30.01572 78.65732,29.6184 78.70548,29.14884 C78.75364,28.67928 78.98842,28.3241 79.23524,28.34818 C79.48206,28.37226 79.63858,28.76958 79.59644,29.23914 Z" id="Path" fill="#B38584"></path>
            <path d="M79.12688,53.37934 L79.12688,217.72534 L92.27456,210.61572 L89.7281,47.7386 C89.7281,47.7386 79.464,53.71646 79.12688,53.37934 Z" id="Path" fill="url(#linearGradient-22)" opacity="0.2" style="mix-blend-mode: multiply;"></path>
            <polygon id="Path" fill="#ACA8C4" points="87.30204 45.0597 89.4271 46.33594 132.75906 234.02148 130.37514 232.66096"></polygon>
            <polygon id="Path" fill="#C4BDDE" points="132.75304 234.02148 133.24668 233.70242 89.7582 46.13126 89.4271 46.33594"></polygon>
            <polygon id="Path" fill="#E4DDF5" points="89.7582 46.13126 89.4271 46.33594 87.30204 45.0597 87.64518 44.9092"></polygon>
            <polygon id="Path" fill="url(#linearGradient-23)" points="89.18028 52.57266 80.17436 57.76792 82.21514 58.9057 91.22106 53.76462"></polygon>
            <polygon id="Path" fill="#B9B4C9" points="91.21504 53.77064 91.21504 54.32448 82.34156 59.49566 82.21514 58.9057"></polygon>
            <polygon id="Path" fill="url(#linearGradient-24)" points="90.601 58.91774 81.59508 64.11902 83.63586 65.25078 92.64178 60.1097"></polygon>
            <polygon id="Path" fill="#B9B4C9" points="92.62974 60.11572 92.62974 60.66956 83.75626 65.84676 83.62984 65.25078"></polygon>
            <polygon id="Path" fill="url(#linearGradient-25)" points="92.0157 65.04008 83.00978 70.23534 85.05056 71.37312 94.05648 66.22602"></polygon>
            <polygon id="Path" fill="#B9B4C9" points="94.05046 66.23806 94.05046 66.7919 85.17698 71.96308 85.05056 71.37312"></polygon>
            <polygon id="Path" fill="url(#linearGradient-26)" points="93.32204 70.81928 84.31612 76.02056 86.35088 77.15232 95.3568 72.01124"></polygon>
            <polygon id="Path" fill="#B9B4C9" points="95.35078 72.01726 95.35078 72.5711 86.4773 77.7483 86.35088 77.15232"></polygon>
            <polygon id="Path" fill="url(#linearGradient-27)" points="94.73674 76.77306 85.73082 81.96832 87.7716 83.10008 96.77752 77.959"></polygon>
            <polygon id="Path" fill="#B9B4C9" points="96.7715 77.96502 96.7715 78.51886 87.89802 83.69606 87.7716 83.10008"></polygon>
            <polygon id="Path" fill="url(#linearGradient-25)" points="96.15144 83.11814 87.14552 88.3134 89.1863 89.45118 98.19222 84.30408"></polygon>
            <polygon id="Path" fill="#B9B4C9" points="98.1862 84.31612 98.1862 84.86394 89.31272 90.04114 89.1863 89.45118"></polygon>
            <polygon id="Path" fill="url(#linearGradient-28)" points="97.57216 89.24048 88.56624 94.43574 90.601 95.5675 99.61294 90.42642"></polygon>
            <polygon id="Path" fill="#B9B4C9" points="99.6009 90.43244 99.6009 90.98628 90.72742 96.16348 90.601 95.5675"></polygon>
            <polygon id="Path" fill="url(#linearGradient-27)" points="98.87248 95.01968 89.86656 100.21494 91.90734 101.3467 100.91326 96.20562"></polygon>
            <polygon id="Path" fill="#B9B4C9" points="100.90724 96.21766 100.90724 96.76548 92.03376 101.94268 91.90734 101.3467"></polygon>
            <polygon id="Path" fill="url(#linearGradient-26)" points="100.57614 102.1293 91.57022 107.32456 93.60498 108.46234 102.6109 103.32126"></polygon>
            <polygon id="Path" fill="#B9B4C9" points="102.60488 103.32728 102.60488 103.88112 93.7314 109.05832 93.60498 108.46234"></polygon>
            <polygon id="Path" fill="url(#linearGradient-24)" points="101.99084 108.47438 92.98492 113.67566 95.0257 114.80742 104.03162 109.66634"></polygon>
            <polygon id="Path" fill="#B9B4C9" points="104.0256 109.67236 104.0256 110.2262 95.15212 115.4034 95.0257 114.80742"></polygon>
            <polygon id="Path" fill="url(#linearGradient-25)" points="103.40554 114.59672 94.39962 119.798 96.4404 120.92976 105.44632 115.78868"></polygon>
            <polygon id="Path" fill="#B9B4C9" points="105.4403 115.7947 105.4403 116.34854 96.56682 121.52574 96.4404 120.92976"></polygon>
            <polygon id="Path" fill="url(#linearGradient-24)" points="104.71188 120.37592 95.70596 125.5772 97.74674 126.70896 106.75266 121.56788"></polygon>
            <polygon id="Path" fill="#B9B4C9" points="106.74062 121.5739 106.74062 122.12774 97.86714 127.30494 97.74072 126.70896"></polygon>
            <polygon id="Path" fill="url(#linearGradient-29)" points="106.12658 126.3297 97.12066 131.52496 99.16144 132.65672 108.16736 127.51564"></polygon>
            <polygon id="Path" fill="#B9B4C9" points="108.16134 127.52768 108.16134 128.0755 99.28786 133.2527 99.16144 132.65672"></polygon>
            <polygon id="Path" fill="url(#linearGradient-23)" points="98.53536 137.87004 100.57614 139.00782 109.58206 133.86674 107.54128 132.67478"></polygon>
            <polygon id="Path" fill="#B9B4C9" points="109.57604 133.87276 109.57604 134.4266 100.70256 139.6038 100.57614 139.00782"></polygon>
            <polygon id="Path" fill="url(#linearGradient-30)" points="108.962 138.79712 99.95608 143.99238 101.99686 145.12414 111.00278 139.98306"></polygon>
            <polygon id="Path" fill="#B9B4C9" points="110.99074 139.9951 110.99074 140.54292 102.11726 145.72012 101.99084 145.12414"></polygon>
            <polygon id="Path" fill="url(#linearGradient-25)" points="110.26232 144.57632 101.2564 149.77158 103.29718 150.90936 112.3031 145.76226"></polygon>
            <polygon id="Path" fill="#B9B4C9" points="112.29708 145.7743 112.29708 146.32814 103.4236 151.49932 103.29718 150.90936"></polygon>
            <polygon id="Path" fill="url(#linearGradient-25)" points="111.90578 151.15016 102.89986 156.34542 104.94064 157.4832 113.94656 152.34212"></polygon>
            <polygon id="Path" fill="#B9B4C9" points="113.94054 152.34814 113.94054 152.90198 105.06706 158.07316 104.94064 157.4832"></polygon>
            <polygon id="Path" fill="url(#linearGradient-24)" points="113.21212 156.92936 104.2062 162.12462 106.24698 163.2624 115.2529 158.12132"></polygon>
            <polygon id="Path" fill="#B9B4C9" points="115.24086 158.12734 115.24086 158.68118 106.3734 163.85838 106.24096 163.2624"></polygon>
            <polygon id="Path" fill="url(#linearGradient-25)" points="114.62682 162.87712 105.6209 168.0784 107.66168 169.21016 116.6676 164.06908"></polygon>
            <polygon id="Path" fill="#B9B4C9" points="116.66158 164.0751 116.66158 164.62894 107.7881 169.80614 107.66168 169.21016"></polygon>
            <polygon id="Path" fill="url(#linearGradient-26)" points="116.04152 169.22822 107.04162 174.42348 109.07638 175.56126 118.0823 170.41416"></polygon>
            <polygon id="Path" fill="#B9B4C9" points="118.07628 170.4262 118.07628 170.97402 109.2028 176.15122 109.07638 175.56126"></polygon>
            <polygon id="Path" fill="url(#linearGradient-24)" points="117.46224 175.34454 108.45632 180.54582 110.4971 181.67758 119.50302 176.5365"></polygon>
            <polygon id="Path" fill="#B9B4C9" points="119.49098 176.54252 119.49098 177.09636 110.62352 182.27356 110.49108 181.67758"></polygon>
            <polygon id="Path" fill="url(#linearGradient-27)" points="118.76256 181.12976 109.75664 186.32502 111.79742 187.45678 120.80334 182.3157"></polygon>
            <polygon id="Path" fill="#B9B4C9" points="120.79732 182.32774 120.79732 182.87556 111.92384 188.05276 111.79742 187.45678"></polygon>
            <polygon id="Path" fill="url(#linearGradient-23)" points="120.4903 188.125 111.48438 193.32628 113.52516 194.45804 122.53108 189.31696"></polygon>
            <polygon id="Path" fill="#B9B4C9" points="122.52506 189.32298 122.52506 189.87682 113.65158 195.05402 113.52516 194.45804"></polygon>
            <polygon id="Path" fill="url(#linearGradient-28)" points="121.91102 194.4761 112.9051 199.67136 114.94588 200.80312 123.9518 195.66204"></polygon>
            <polygon id="Path" fill="#B9B4C9" points="123.93976 195.67408 123.93976 196.2219 115.06628 201.3991 114.93986 200.80312"></polygon>
            <polygon id="Path" fill="url(#linearGradient-25)" points="123.32572 200.59242 114.3198 205.7937 116.36058 206.92546 125.3665 201.78438"></polygon>
            <polygon id="Path" fill="#B9B4C9" points="125.36048 201.7904 125.36048 202.34424 116.487 207.52144 116.36058 206.92546"></polygon>
            <polygon id="Path" fill="url(#linearGradient-24)" points="124.83072 206.85322 115.8248 212.0545 117.86558 213.18626 126.8715 208.04518"></polygon>
            <polygon id="Path" fill="#B9B4C9" points="126.85946 208.0512 126.85946 208.60504 117.98598 213.78224 117.85956 213.18626"></polygon>
            <polygon id="Path" fill="url(#linearGradient-24)" points="126.24542 212.97556 117.2395 218.17684 119.28028 219.3086 128.2862 214.16752"></polygon>
            <polygon id="Path" fill="#B9B4C9" points="128.27416 214.17354 128.27416 214.72738 119.4067 219.90458 119.27426 219.3086"></polygon>
            <polygon id="Path" fill="url(#linearGradient-23)" points="127.55176 218.75476 118.53982 223.95604 120.5806 225.0878 129.58652 219.94672"></polygon>
            <polygon id="Path" fill="#B9B4C9" points="129.5805 219.95274 129.5805 220.50658 120.70702 225.68378 120.5806 225.0878"></polygon>
            <polygon id="Path" fill="url(#linearGradient-26)" points="129.2795 225.75602 120.27358 230.95128 122.30834 232.08906 131.31426 226.94798"></polygon>
            <polygon id="Path" fill="#B9B4C9" points="131.30824 226.954 131.30824 227.50784 122.43476 232.67902 122.30834 232.08906"></polygon>
            <polygon id="Path" fill="#ACA8C4" points="78.42254 50.37536 80.5476 51.6516 124.03006 238.83748 121.65216 237.47696"></polygon>
            <polygon id="Path" fill="#C4BDDE" points="124.03006 238.83748 124.5237 238.51842 80.87268 51.44692 80.5476 51.6516"></polygon>
            <polygon id="Path" fill="#E4DDF5" points="80.87268 51.44692 80.5476 51.6516 78.42254 50.37536 78.75966 50.22486"></polygon>
            <path d="M54.86628,51.5613 L54.782,116.70372 L44.24098,110.50312 L44.29516,45.92658 C44.29516,45.92658 54.52916,51.90444 54.86628,51.5613 Z" id="Path" fill="url(#linearGradient-31)" opacity="0.2" style="mix-blend-mode: multiply;"></path>
            <polygon id="Path" fill="#ACA8C4" points="29.90736 107.98676 29.93746 108.00482 32.07456 106.90918 46.69112 43.24768 44.56606 44.52392"></polygon>
            <polygon id="Path" fill="#C4BDDE" points="44.56606 44.52392 44.24098 44.31924 29.51004 107.74596 29.90736 107.98676"></polygon>
            <polygon id="Path" fill="#E4DDF5" points="46.69112 43.24768 46.354 43.09718 44.24098 44.31924 44.56606 44.52392"></polygon>
            <polygon id="Path" fill="url(#linearGradient-32)" points="44.81288 50.76064 53.8188 55.9559 51.77802 57.08766 42.7721 51.94658"></polygon>
            <polygon id="Path" fill="#B9B4C9" points="42.78414 51.95862 42.78414 52.50644 51.6516 57.68364 51.78404 57.08766"></polygon>
            <polygon id="Path" fill="url(#linearGradient-33)" points="43.39818 57.10572 52.4041 62.30098 50.36332 63.43876 41.3574 58.29768"></polygon>
            <polygon id="Path" fill="#B9B4C9" points="41.36342 58.3037 41.36342 58.85754 50.2369 64.03474 50.36332 63.43876"></polygon>
            <polygon id="Path" fill="url(#linearGradient-32)" points="41.97746 63.22806 50.98338 68.42332 48.94862 69.55508 39.93668 64.414"></polygon>
            <polygon id="Path" fill="#B9B4C9" points="39.94872 64.42002 39.94872 64.97386 48.8222 70.15106 48.94862 69.55508"></polygon>
            <polygon id="Path" fill="url(#linearGradient-34)" points="40.67714 69.00726 49.68306 74.20252 47.64228 75.3403 38.63636 70.1932"></polygon>
            <polygon id="Path" fill="#B9B4C9" points="38.64238 70.20524 38.64238 70.75306 47.51586 75.93026 47.64228 75.3403"></polygon>
            <polygon id="Path" fill="url(#linearGradient-33)" points="39.26244 74.95502 48.26836 80.1563 46.22758 81.28806 37.22166 76.14698"></polygon>
            <polygon id="Path" fill="#B9B4C9" points="37.22768 76.153 37.22768 76.70684 46.10116 81.88404 46.22758 81.28806"></polygon>
            <polygon id="Path" fill="url(#linearGradient-32)" points="37.84172 81.30612 46.84764 86.50138 44.80686 87.63314 35.80094 82.49206"></polygon>
            <polygon id="Path" fill="#B9B4C9" points="35.81298 82.49808 35.81298 83.05192 44.68044 88.22912 44.81288 87.63314"></polygon>
            <polygon id="Path" fill="url(#linearGradient-34)" points="36.42702 87.42244 45.43294 92.62372 43.39216 93.75548 34.38624 88.6144"></polygon>
            <polygon id="Path" fill="#B9B4C9" points="34.39226 88.62042 34.39226 89.17426 43.26574 94.35146 43.39216 93.75548"></polygon>
            <polygon id="Path" fill="url(#linearGradient-35)" points="35.12068 93.20164 44.1266 98.40292 42.08582 99.53468 33.08592 94.3936"></polygon>
            <polygon id="Path" fill="#B9B4C9" points="33.09194 94.39962 33.09194 94.95346 41.96542 100.13066 42.09184 99.53468"></polygon>
            <polygon id="Path" fill="url(#linearGradient-34)" points="33.42304 100.31728 42.42896 105.51254 40.38818 106.65032 31.38226 101.50924"></polygon>
            <polygon id="Path" fill="#B9B4C9" points="31.38828 101.51526 31.38828 102.06308 40.26176 107.24028 40.38818 106.65032"></polygon>
            <polygon id="Path" fill="#ACA8C4" points="38.829 113.13386 38.83502 113.13386 41.02028 111.95996 55.57664 48.56334 53.45158 49.83356"></polygon>
            <polygon id="Path" fill="#C4BDDE" points="53.45158 49.83356 53.12048 49.62888 38.43168 112.89306 38.829 113.13386"></polygon>
            <polygon id="Path" fill="#E4DDF5" points="55.57664 48.56334 55.2335 48.41284 53.12048 49.62888 53.45158 49.83356"></polygon>
            <path d="M47.08844,117.25154 C47.08844,119.05754 41.06844,120.56856 33.66986,120.56856 C26.27128,120.56856 20.25128,119.08764 20.25128,117.25154 C20.25128,115.41544 26.27128,113.93452 33.66986,113.93452 C41.06844,113.93452 47.08844,115.42146 47.08844,117.25154 Z" id="Path" fill="url(#linearGradient-36)" opacity="0.3" style="mix-blend-mode: multiply;"></path>
            <path d="M29.5883,118.46156 L29.20904,119.93646 L30.47324,120.53846 C31.0456885,120.207766 31.6509355,119.937423 32.27924,119.73178 C32.91134,119.59934 34.4946,118.66022 34.68724,118.25688 C34.87988,117.85354 34.36818,117.4502 33.79628,117.25154 C33.22438,117.05288 30.50936,118.19066 30.50936,118.19066 L29.5883,118.46156 Z" id="Path" fill="#26252B"></path>
            <path d="M23.00844,114.10308 C22.94222,115.77664 23.4479,115.3733 23.4479,115.3733 C23.4479,115.3733 23.70074,114.96996 24.45926,115.17464 C25.21778,115.37932 25.35022,116.2462 24.90474,116.31242 C24.45926,116.37864 23.06864,117.38398 22.7556,117.05288 C22.3226211,116.728492 21.826269,116.498775 21.29876,116.37864 C20.9107378,116.212608 20.5800053,115.9363 20.3476,115.584 L21.35896,113.70576 L23.00844,114.10308 Z" id="Path" fill="#26252B"></path>
            <path d="M27.56558,70.12096 C27.56558,70.12096 27.56558,68.51362 27.87862,68.24272 C28.3038896,67.6334505 28.6650042,66.9818304 28.9562,66.29826 L28.9562,65.69626 L28.13146,66.90026 C27.827902,65.9219786 27.6380243,64.9119907 27.56558,63.89026 C27.62578,63.02338 27.37294,63.15582 26.92746,63.02338 C26.48198,62.89094 25.60306,64.2936 25.60306,64.2936 C25.905296,65.0798634 26.1586194,65.8840648 26.36158,66.7016 C26.488,67.44206 26.80104,69.31428 26.80104,69.31428 L27.56558,70.12096 Z" id="Path" fill="#EFB2B1"></path>
            <path d="M37.625,85.484 C37.625,85.484 38.50994,83.81044 39.08184,83.53954 C39.65374,83.26864 39.27448,84.0091 39.27448,84.0091 L41.55004,83.53954 C41.6563901,83.9667989 41.6117265,84.4176889 41.42362,84.81578 C41.10456,85.35156 38.00426,86.15824 38.00426,86.15824 L37.625,85.484 Z" id="Path" fill="#EFB2B1"></path>
            <path d="M23.478,93.38224 C22.876,97.74072 23.85726,103.30922 23.22516,106.02424 C22.59306,108.73926 19.93222,114.40408 20.81716,115.05424 C21.7021,115.7044 23.22516,115.50574 23.5382,115.18668 C25.24788,113.38068 28.02912,104.95268 28.02912,104.95268 L26.44586,94.62838 L23.478,93.38224 Z" id="Path" fill="#353967"></path>
            <path d="M31.55082,95.5976 L32.18292,118.93112 C31.7176517,119.236182 31.2050192,119.461985 30.66588,119.59934 C30.2204,119.59934 29.14282,118.594 29.14282,118.594 L25.2238,92.6478 L31.55082,95.5976 Z" id="Path" fill="#42417D"></path>
            <path d="M24.77832,84.80374 C24.52548,80.37904 24.96494,74.0761 25.8559,71.32496 C26.74686,68.57382 26.22914,68.20058 27.24652,68.71228 C28.45052,69.31428 28.07126,74.00988 28.07126,74.00988 L27.56558,82.66062 L24.77832,84.80374 Z" id="Path" fill="url(#linearGradient-37)"></path>
            <path d="M27.37294,79.57236 C25.75958,80.52954 25.13952,82.34156 24.24254,85.35758 C23.34556,88.3736 22.29206,94.98958 22.29206,94.98958 C22.29206,94.98958 24.70006,96.59692 26.04252,97.39758 C27.38498,98.19824 30.74414,98.50526 31.6953,97.8551 C32.3642885,97.3268196 32.9279295,96.6774073 33.35682,95.94074 C33.35682,95.94074 33.11602,88.60236 32.59228,85.83316 C32.0590157,83.6362406 31.2963054,81.5014587 30.31672,79.464 L27.37294,79.57236 Z" id="Path" fill="url(#linearGradient-38)"></path>
            <path d="M27.34284,79.80714 C27.05388,80.40914 27.13214,81.01114 27.44518,81.15562 C27.835281,81.2717675 28.245072,81.3065997 28.64918,81.25796 C29.1477052,81.3628412 29.6595488,81.3892458 30.16622,81.33622 C30.44916,81.19776 31.89998,83.74422 31.89998,83.74422 C31.5308244,82.7338528 31.0964712,81.7485145 30.59966,80.79442 C29.81104,79.28942 29.30536,79.12086 29.30536,79.12086 L27.34284,79.80714 Z" id="Path" fill="#FFFFFF"></path>
            <path d="M27.692,79.16902 C27.45722,80.1262 27.09,81.10144 27.64384,80.8787 C28.09534,80.70412 29.14282,81.03522 29.8291,81.08338 C30.27458,81.11348 30.1602,79.87938 30.1602,79.87938 L27.692,79.16902 Z" id="Path" fill="#F9A3A1"></path>
            <path d="M30.5515,75.25 C30.9818648,75.2292885 31.4102956,75.1790031 31.83376,75.0995 C31.83376,75.0995 31.88192,75.75568 31.93008,76.65868 C31.97824,77.56168 32.16486,77.81452 31.93008,78.51886 C31.6953,79.2232 31.59898,79.8252 30.93076,80.22854 C30.26254,80.63188 28.70336,80.22854 28.70336,80.22854 L29.41372,76.3035 L30.5515,75.25 Z" id="Path" fill="#F2C1C0"></path>
            <path d="M30.59966,73.79316 C28.79366,72.54702 27.58966,73.54032 26.98766,74.347 C26.3363235,75.2919872 26.2115145,76.5037695 26.65656,77.56168 C26.9475391,78.3741235 27.1375897,79.2192421 27.22244,80.07804 L28.36624,80.68004 C28.36624,80.68004 29.93144,79.87336 30.11806,79.0727 C30.30468,78.27204 30.72006,77.11018 30.72006,77.11018 C30.72006,77.11018 31.09932,77.21252 31.09932,77.51352 C31.09932,77.81452 31.47858,77.21252 31.47858,76.50818 C31.47858,75.80384 31.47858,75.50284 32.42974,75.20184 C33.3809,74.90084 32.76084,73.28748 32.76084,73.28748 C32.76084,73.28748 31.40634,74.347 30.59966,73.79316 Z" id="Path" fill="#641360"></path>
            <path d="M31.0331,77.6881 C31.20768,78.1095 31.1535,78.53692 30.9127,78.6513 C30.6719,78.76568 30.3408,78.51284 30.16622,78.09144 C29.99164,77.67004 30.04582,77.24262 30.28662,77.12824 C30.52742,77.01386 30.86454,77.2667 31.0331,77.6881 Z" id="Path" fill="#F9A3A1"></path>
            <path d="M30.2204,82.11882 C28.6918078,82.3636685 27.5982066,83.7280661 27.692,85.2733 C27.87862,86.1462 28.13146,87.15154 28.9562,87.75354 C30.3719766,88.5647285 31.8287552,89.3021599 33.3207,89.96288 C35.0567277,89.2820913 36.6632413,88.3088169 38.07048,87.08532 C39.96678,85.27932 37.625,84.80374 37.625,84.80374 C37.625,84.80374 34.20564,86.81442 33.411,86.54954 C32.61636,86.28466 31.04514,81.98638 30.2204,82.11882 Z" id="Path" fill="url(#linearGradient-39)"></path>
            <path d="M120.82742,203.476 C121.105175,204.178197 121.283485,204.91575 121.35718,205.66728 C121.35718,206.13082 120.30368,206.49202 120.10502,206.38366 C119.618185,205.971143 119.098771,205.598695 118.55186,205.26996 C118.0221,205.05324 116.86024,204.51746 116.79402,204.06596 C116.7278,203.61446 116.76392,203.16898 116.96258,203.06062 C117.251995,202.95164 117.550022,202.867065 117.85354,202.80778 L120.82742,203.476 Z" id="Path" fill="#26252B"></path>
            <path d="M128.44272,216.03974 C128.71362,216.71398 129.01462,217.62902 129.1591,217.97818 C129.30358,218.32734 129.1591,218.4056 128.91228,218.62232 C128.633403,218.77333 128.320359,218.850036 128.00326,218.84506 L127.56982,219.87448 C127.250429,220.479213 126.594175,220.827624 125.91432,220.7534 C124.6742,220.70524 125.52904,219.71194 125.97452,219.47114 C126.42,219.23034 126.57652,218.03236 126.57652,218.03236 L126.90762,216.56348 L128.44272,216.03974 Z" id="Path" fill="#26252B"></path>
            <path d="M120.26756,193.80186 C118.84684,193.01324 117.88966,193.80186 117.82344,194.66272 C117.75722,195.52358 119.0756,203.76496 119.31038,204.09004 C119.54516,204.41512 119.77392,204.69204 120.69498,204.48134 C121.61604,204.27064 120.66488,200.32152 120.50234,197.88944 C120.3398,195.45736 120.26756,193.80186 120.26756,193.80186 Z" id="Path" fill="#323266"></path>
            <path d="M131.51894,189.18452 C132.4099,192.84468 131.48282,194.9577 131.0855,196.60718 C130.68818,198.25666 129.06278,216.84642 129.06278,216.84642 C128.736633,217.210418 128.339103,217.503443 127.8949,217.70728 C127.439229,217.910677 126.909067,217.850746 126.5103,217.55076 C126.37786,217.37016 125.216,194.446 125.216,194.446 L131.51894,189.18452 Z" id="Path" fill="#42417D"></path>
            <path d="M130.57982,192.1885 C130.64604,193.91022 129.42398,195.52358 127.93704,195.62592 C125.383641,195.672698 122.839183,195.310946 120.4,194.55436 C117.75722,193.62126 117.91976,195.23462 118.28698,196.41454 C118.6542,197.59446 119.53914,204.37298 119.53914,204.37298 L117.65488,203.51212 C117.65488,203.51212 116.20406,197.67874 115.84888,195.59582 C115.38534,192.97712 115.38534,191.29152 115.98132,190.39454 C116.35456,189.83468 117.67294,189.4193 118.29902,189.3892 C119.756969,189.509203 121.203837,189.738609 122.6274,190.07548 L130.57982,192.1885 Z" id="Path" fill="#42417D"></path>
            <path d="M115.23484,180.64816 C115.045553,180.226782 114.817837,179.823745 114.55458,179.44416 C114.2596,179.10704 113.83218,179.07092 113.35058,178.92644 C112.86898,178.78196 112.43554,179.31172 112.29106,179.52844 C112.273694,179.869618 112.397839,180.202848 112.6342,180.4495 C112.91714,180.64816 113.50108,180.61806 113.66964,180.77458 C113.8382,180.9311 114.57264,181.45484 114.57264,181.45484 L115.23484,180.64816 Z" id="Path" fill="#F9A3A1"></path>
            <path d="M115.90908,171.77468 C115.728379,171.635751 115.524591,171.529781 115.30708,171.46164 C115.17464,171.25696 114.42214,171.04024 114.42214,171.04024 L114.42214,171.2389 C114.587082,171.387144 114.740063,171.548178 114.87966,171.7205 C114.920989,171.892924 114.975324,172.061968 115.0422,172.22618 C115.25892,172.54524 115.59002,172.70778 115.77664,172.58136 C116.024576,172.388255 116.082258,172.036923 115.90908,171.77468 Z" id="Path" fill="#D6A09F"></path>
            <path d="M116.5472,172.01548 C116.45088,170.44426 115.9452,170.0951 115.72848,169.83624 C115.12648,169.05966 114.62682,169.92654 114.52448,170.08908 C114.42214,170.25162 114.84956,171.13656 114.84956,171.13656 C114.92165,171.358545 115.038428,171.563419 115.1927,171.73856 C115.435349,172.026507 115.69894,172.296134 115.98132,172.54524 L116.5472,172.01548 Z" id="Path" fill="#F9A3A1"></path>
            <path d="M126.74508,176.87964 C124.20464,176.0549 123.93976,176.39202 123.93976,176.39202 C123.93976,176.39202 120.44214,175.48902 119.35252,174.73652 C118.2629,173.98402 116.89636,171.72652 116.50506,171.72652 C116.11376,171.72652 115.16862,172.44892 115.39738,172.93052 C115.946761,174.237345 116.632845,175.482386 117.44418,176.64486 C118.70236,178.4027 122.1759,179.73914 122.70566,179.98596 C123.23542,180.23278 125.4267,180.96722 125.4267,180.96722 L126.74508,176.87964 Z" id="Path" fill="#42417D"></path>
            <path d="M126.87752,176.19938 C128.02132,177.1686 128.51496,178.30036 129.65876,180.23278 C130.80256,182.1652 132.58448,190.0213 132.58448,190.66544 C132.58448,191.30958 130.25474,193.19384 128.11764,193.94634 C125.98054,194.69884 124.00598,193.29618 123.21134,192.59786 C122.4167,191.89954 121.5739,189.96712 121.5739,189.96712 C121.5739,189.96712 121.5739,183.88692 122.32038,181.73778 C123.27756,178.96858 126.87752,176.19938 126.87752,176.19938 Z" id="Path" fill="#2A305B"></path>
            <path d="M124.54778,177.4094 L124.84878,178.27026 C125.367888,177.938759 125.91356,177.650822 126.4802,177.4094 C126.841181,177.293838 127.126671,177.015039 127.25076,176.6569 L125.6675,176.44018 L124.54778,177.4094 Z" id="Path" fill="#B38584"></path>
            <path d="M123.63876,179.44416 C124.146764,178.928075 124.72666,178.488084 125.36048,178.13782 C126.006765,177.891782 126.622799,177.572656 127.19658,177.18666 C127.255901,177.038161 127.294392,176.882169 127.31096,176.72312 L126.74508,176.87964 C126.614606,177.058842 126.446011,177.206877 126.25144,177.31308 C125.89024,177.5298 124.83072,178.21006 124.83072,178.21006 L124.78256,178.02946 L123.63876,179.44416 Z" id="Path" fill="#FFFFFF"></path>
            <path d="M124.4033,171.10646 C123.829102,171.184384 123.334311,171.549803 123.09094,172.07568 C122.864453,172.773084 122.69533,173.487829 122.58526,174.21278 C122.4468,175.23618 122.49496,176.7171 122.70566,177.06626 C122.91636,177.41542 123.8615,177.56592 124.51166,177.45154 C125.163875,177.226789 125.774193,176.895182 126.31766,176.47028 L124.4033,171.10646 Z" id="Path" fill="#F9A3A1"></path>
            <path d="M128.89422,173.57466 C129.2193,171.95528 128.29222,171.88906 127.61798,171.13656 C126.94374,170.38406 125.67352,170.31182 124.915,170.28774 C124.390108,170.252042 123.869937,170.165346 123.36184,170.02888 C123.075003,170.42915 123.092278,170.972054 123.40398,171.35328 C124.00598,172.06966 123.27756,171.8409 123.55448,173.05694 C123.707187,173.57477 123.78225,174.112386 123.77722,174.65224 L123.48826,175.41678 L124.62002,175.45892 C124.727101,175.656022 124.75302,175.887135 124.69226,176.10306 C124.700912,176.547622 124.805648,176.985049 124.99928,177.38532 L126.48622,177.8308 C126.48622,177.8308 127.75644,177.0181 128.06346,176.10908 C128.37048,175.20006 128.89422,173.57466 128.89422,173.57466 Z" id="Path" fill="#26252B"></path>
            <path d="M124.81868,175.47698 C124.54778,175.88634 124.14444,176.07898 123.9217,175.9044 C123.69896,175.72982 123.7411,175.26026 124.012,174.8509 C124.2829,174.44154 124.68624,174.2489 124.90898,174.42348 C125.13172,174.59806 125.08958,175.06762 124.81868,175.47698 Z" id="Path" fill="#B38584"></path>
            <path d="M124.69828,179.14316 C126.03472,179.79332 125.97452,182.406 125.39058,183.40532 C124.2829,185.31968 120.79732,186.04208 119.94248,186.12636 C119.21406,186.1986 115.4636,183.17054 114.80742,182.27356 C114.15124,181.37658 113.54924,181.34648 114.37398,180.8408 C115.19872,180.33512 115.16862,180.2388 115.63216,180.55786 C116.0957,180.87692 119.56322,182.59864 119.56322,182.59864 C119.56322,182.59864 120.59866,182.65282 121.79062,181.39464 C122.98258,180.13646 124.012,178.794 124.69828,179.14316 Z" id="Path" fill="#42417D"></path>
            <path d="M95.3267,92.106 C95.6037331,92.7896416 95.7821066,93.5092165 95.85646,94.2431 C95.85646,94.70062 94.79694,95.04978 94.6043,94.94744 C94.1163326,94.5407806 93.5947344,94.176266 93.04512,93.85782 C92.52138,93.64712 91.35952,93.12338 91.2933,92.70198 C91.22708,92.28058 91.2933,91.82306 91.46186,91.72072 C91.7521309,91.6158874 92.0499835,91.5333741 92.35282,91.4739 L95.3267,92.106 Z" id="Path" fill="#26252B"></path>
            <path d="M102.942,104.39282 C103.2129,105.049 103.50788,105.94598 103.65838,106.2831 C103.80888,106.62022 103.65838,106.7045 103.41156,106.8851 C103.131376,107.032039 102.818881,107.106541 102.50254,107.10182 L102.0691,108.11318 C101.741905,108.710804 101.084049,109.049267 100.40758,108.96802 C99.17348,108.92588 100.02832,107.95064 100.4738,107.71586 C100.91928,107.48108 101.0758,106.30718 101.0758,106.30718 L101.4069,104.87442 L102.942,104.39282 Z" id="Path" fill="#26252B"></path>
            <path d="M94.76684,82.64256 C93.34612,81.872 92.38894,82.64256 92.32272,83.48536 C92.2565,84.32816 93.57488,92.38894 93.80966,92.70198 C94.04444,93.01502 94.2732,93.26184 95.19426,93.08726 C96.11532,92.91268 95.16416,89.02376 94.9956,86.63984 C94.82704,84.25592 94.76684,82.64256 94.76684,82.64256 Z" id="Path" fill="url(#linearGradient-40)"></path>
            <path d="M98.126,54.52314 C98.126,54.52314 98.126,53.19272 97.83704,52.96998 C97.4608464,52.4692239 97.1380257,51.9305169 96.87384,51.36264 L96.87384,50.86298 L97.6143,51.8623 C97.885459,51.0533415 98.0572856,50.2144231 98.126,49.364 C98.0658,48.64762 98.29456,48.762 98.69188,48.64762 C99.0892,48.53324 99.89588,49.70112 99.89588,49.70112 C99.6134524,50.3449984 99.3858909,51.0115724 99.21562,51.69374 C99.1441113,52.4240135 99.0112013,53.1469638 98.8183,53.85492 L98.126,54.52314 Z" id="Path" fill="#EFB2B1"></path>
            <path d="M106.0122,78.12756 C106.90918,81.70344 105.9821,83.77432 105.58478,85.38166 C105.18746,86.989 103.544,105.18144 103.544,105.18144 C103.213319,105.535763 102.816594,105.822059 102.37612,106.02424 C101.917989,106.224807 101.387584,106.165108 100.9855,105.86772 C100.85908,105.68712 99.71528,83.24456 99.71528,83.24456 L106.0122,78.12756 Z" id="Path" fill="url(#linearGradient-41)"></path>
            <path d="M105.0791,81.06532 C105.14532,82.7449 103.92326,84.32214 102.43632,84.4305 C99.8846833,84.4700292 97.3422837,84.1146618 94.89928,83.377 C92.2565,82.46798 92.41904,84.04522 92.78024,85.183 C93.14144,86.32078 94.03842,92.96686 94.03842,92.96686 L92.15416,92.12406 C92.15416,92.12406 90.70334,86.4171 90.34816,84.37632 C89.88462,81.81782 89.88462,80.16232 90.4806,79.29544 C90.85384,78.7416 92.17222,78.33826 92.79228,78.31418 C94.2516771,78.425598 95.7005888,78.6469595 97.12668,78.97638 L105.0791,81.06532 Z" id="Path" fill="url(#linearGradient-42)"></path>
            <path d="M89.73412,69.77782 C89.5472013,69.3552487 89.3193613,68.951992 89.05386,68.57382 C88.75888,68.2367 88.32544,68.2066 87.84986,68.06212 C87.37428,67.91764 86.9288,68.44138 86.79034,68.66412 C86.7736626,68.9998213 86.8980709,69.3272115 87.13348,69.56712 C87.41642,69.75976 88.00036,69.72966 88.1629,69.88618 C88.32544,70.0427 89.07192,70.54838 89.07192,70.54838 L89.73412,69.77782 Z" id="Path" fill="#EFB2B1"></path>
            <path d="M104.34466,70.89754 C104.12192,66.02134 102.19552,58.20738 100.55206,55.15524 C100.215585,54.5024485 99.7967898,53.8954988 99.30592,53.34924 C99.30592,53.34924 98.05376,53.51178 97.8852,53.84288 C97.71664,54.17398 99.01696,58.27962 99.19154,59.86288 C99.36612,61.44614 99.3601,71.49954 99.58886,72.55304 C99.81762,73.60654 104.34466,70.89754 104.34466,70.89754 Z" id="Path" fill="url(#linearGradient-43)"></path>
            <path d="M100.12464,65.54576 C101.38884,66.32234 102.08114,65.41332 103.49584,67.62868 C104.69984,69.48886 107.70984,78.14562 107.79412,78.76568 C107.8784,79.38574 105.83762,81.53488 103.83296,82.55226 C101.8283,83.56964 99.66712,82.49206 98.78218,81.95026 C98.003416,81.2811561 97.333237,80.4952189 96.79558,79.62052 C96.79558,79.62052 95.94676,73.73898 96.3802,71.55372 C96.922,68.7183 100.12464,65.54576 100.12464,65.54576 Z" id="Path" fill="url(#linearGradient-44)"></path>
            <path d="M99.04706,66.6113 L99.34806,67.4541 C99.8668378,67.127158 100.412634,66.8451967 100.97948,66.6113 C101.336486,66.4994949 101.621237,66.2280915 101.75004,65.87686 L100.16076,65.66616 L99.04706,66.6113 Z" id="Path" fill="#B38584"></path>
            <path d="M98.126,68.628 C98.6349627,68.1196664 99.214894,67.6877595 99.84772,67.34574 C100.482426,67.1050676 101.088197,66.7941048 101.65372,66.41866 C101.717439,66.2733555 101.758062,66.1189869 101.77412,65.96114 L101.20824,66.11766 C101.076731,66.2927631 100.90817,66.4366572 100.7146,66.53906 C100.3534,66.74976 99.29388,67.41798 99.29388,67.41798 L99.24572,67.2434 L98.126,68.628 Z" id="Path" fill="#FFFFFF"></path>
            <path d="M98.90258,60.45284 C98.3326973,60.5192669 97.8369849,60.8739968 97.59022,61.39196 C97.3634705,62.0749383 97.1943193,62.7757074 97.08454,63.48692 C96.94608,64.48624 96.99424,65.93104 97.20494,66.27418 C97.41564,66.61732 98.36078,66.76782 99.01094,66.65344 C99.6618328,66.4366878 100.272155,66.1132168 100.81694,65.69626 L98.90258,60.45284 Z" id="Path" fill="#EFB2B1"></path>
            <path d="M103.3935,62.86084 C103.71256,61.27758 102.7915,61.21738 102.11726,60.45284 C101.44302,59.6883 100.16678,59.64616 99.41428,59.62208 C98.8893801,59.5901962 98.3690303,59.5054881 97.86112,59.36924 C97.5709178,59.7566441 97.5858837,60.2929235 97.89724,60.66354 C98.49924,61.36788 97.77684,61.13912 98.05376,62.33108 C98.2062665,62.8365877 98.281364,63.3622707 98.2765,63.89026 L97.98754,64.63674 L99.11328,64.67888 C99.2236142,64.8703803 99.2518395,65.0983536 99.19154,65.31098 C99.2008912,65.7458212 99.3057039,66.1732927 99.49856,66.56314 L100.9855,66.99658 C100.9855,66.99658 102.25572,66.20194 102.56274,65.317 C102.86976,64.43206 103.3935,62.86084 103.3935,62.86084 Z" id="Path" fill="#42252B"></path>
            <ellipse id="Oval" fill="#B38584" transform="translate(98.906826, 64.408484) rotate(-57.440000) translate(-98.906826, -64.408484) " cx="98.9068262" cy="64.4084837" rx="1" ry="1"></ellipse>
            <path d="M99.19756,68.30292 C100.534,68.94104 100.4738,71.49352 99.88986,72.47478 C98.77616,74.347 95.2966,75.05134 94.44176,75.13562 C93.71334,75.20786 89.96288,72.24602 89.30068,71.37312 C88.63848,70.50022 88.04852,70.45808 88.87326,69.97046 C89.698,69.48284 89.6679,69.36846 90.13144,69.68752 C90.59498,70.00658 94.0625,71.68616 94.0625,71.68616 C94.0625,71.68616 95.09794,71.74034 96.2899,70.48216 C97.48186,69.22398 98.53536,67.98988 99.19756,68.30292 Z" id="Path" fill="url(#linearGradient-45)"></path>
        </g>
    </g>
</svg>