<?xml version="1.0" encoding="UTF-8"?>
<svg width="300px" height="300px" viewBox="0 0 300 300" version="1.1" xmlns="http://www.w3.org/2000/svg" xmlns:xlink="http://www.w3.org/1999/xlink">
    <!-- Generator: Sketch 56.3 (81716) - https://sketch.com -->
    <title>Artboard</title>
    <desc>Created with Sketch.</desc>
    <defs>
        <linearGradient x1="11370.7269%" y1="11058.4493%" x2="13563.1343%" y2="13190.3004%" id="linearGradient-1">
            <stop stop-color="#FFF1BA" offset="0%"></stop>
            <stop stop-color="#FFE8B9" offset="9%"></stop>
            <stop stop-color="#FFD0B8" offset="23%"></stop>
            <stop stop-color="#FFA9B5" offset="41%"></stop>
            <stop stop-color="#FF72B2" offset="62%"></stop>
            <stop stop-color="#FF2DAD" offset="86%"></stop>
            <stop stop-color="#FF00AA" offset="100%"></stop>
        </linearGradient>
        <linearGradient x1="4706.61974%" y1="5636.58537%" x2="6390.14145%" y2="7655.28455%" id="linearGradient-2">
            <stop stop-color="#FFF1BA" offset="0%"></stop>
            <stop stop-color="#FFE8B9" offset="9%"></stop>
            <stop stop-color="#FFD0B8" offset="23%"></stop>
            <stop stop-color="#FFA9B5" offset="41%"></stop>
            <stop stop-color="#FF72B2" offset="62%"></stop>
            <stop stop-color="#FF2DAD" offset="86%"></stop>
            <stop stop-color="#FF00AA" offset="100%"></stop>
        </linearGradient>
        <linearGradient x1="4511.62998%" y1="5402.43902%" x2="6194.49071%" y2="7421.13821%" id="linearGradient-3">
            <stop stop-color="#FFF1BA" offset="0%"></stop>
            <stop stop-color="#FFE8B9" offset="9%"></stop>
            <stop stop-color="#FFD0B8" offset="23%"></stop>
            <stop stop-color="#FFA9B5" offset="41%"></stop>
            <stop stop-color="#FF72B2" offset="62%"></stop>
            <stop stop-color="#FF2DAD" offset="86%"></stop>
            <stop stop-color="#FF00AA" offset="100%"></stop>
        </linearGradient>
        <linearGradient x1="6184.34783%" y1="6014.52766%" x2="8382.28817%" y2="8151.30892%" id="linearGradient-4">
            <stop stop-color="#FFF1BA" offset="0%"></stop>
            <stop stop-color="#FFE8B9" offset="9%"></stop>
            <stop stop-color="#FFD0B8" offset="23%"></stop>
            <stop stop-color="#FFA9B5" offset="41%"></stop>
            <stop stop-color="#FF72B2" offset="62%"></stop>
            <stop stop-color="#FF2DAD" offset="86%"></stop>
            <stop stop-color="#FF00AA" offset="100%"></stop>
        </linearGradient>
        <linearGradient x1="5819.31889%" y1="5658.46286%" x2="8017.25925%" y2="7794.93864%" id="linearGradient-5">
            <stop stop-color="#FFF1BA" offset="0%"></stop>
            <stop stop-color="#FFE8B9" offset="9%"></stop>
            <stop stop-color="#FFD0B8" offset="23%"></stop>
            <stop stop-color="#FFA9B5" offset="41%"></stop>
            <stop stop-color="#FF72B2" offset="62%"></stop>
            <stop stop-color="#FF2DAD" offset="86%"></stop>
            <stop stop-color="#FF00AA" offset="100%"></stop>
        </linearGradient>
        <linearGradient x1="5780.4878%" y1="4594.25276%" x2="7851.21951%" y2="6236.13259%" id="linearGradient-6">
            <stop stop-color="#FFF1BA" offset="0%"></stop>
            <stop stop-color="#FFE8B9" offset="9%"></stop>
            <stop stop-color="#FFD0B8" offset="23%"></stop>
            <stop stop-color="#FFA9B5" offset="41%"></stop>
            <stop stop-color="#FF72B2" offset="62%"></stop>
            <stop stop-color="#FF2DAD" offset="86%"></stop>
            <stop stop-color="#FF00AA" offset="100%"></stop>
        </linearGradient>
        <linearGradient x1="5534.95935%" y1="4399.263%" x2="7604.87805%" y2="6040.48186%" id="linearGradient-7">
            <stop stop-color="#FFF1BA" offset="0%"></stop>
            <stop stop-color="#FFE8B9" offset="9%"></stop>
            <stop stop-color="#FFD0B8" offset="23%"></stop>
            <stop stop-color="#FFA9B5" offset="41%"></stop>
            <stop stop-color="#FF72B2" offset="62%"></stop>
            <stop stop-color="#FF2DAD" offset="86%"></stop>
            <stop stop-color="#FF00AA" offset="100%"></stop>
        </linearGradient>
        <linearGradient x1="5998.3564%" y1="5862.11406%" x2="8194.23392%" y2="8007.36185%" id="linearGradient-8">
            <stop stop-color="#FFF1BA" offset="0%"></stop>
            <stop stop-color="#FFE8B9" offset="9%"></stop>
            <stop stop-color="#FFD0B8" offset="23%"></stop>
            <stop stop-color="#FFA9B5" offset="41%"></stop>
            <stop stop-color="#FF72B2" offset="62%"></stop>
            <stop stop-color="#FF2DAD" offset="86%"></stop>
            <stop stop-color="#FF00AA" offset="100%"></stop>
        </linearGradient>
        <linearGradient x1="5989.51048%" y1="5830.55196%" x2="8183.63447%" y2="7965.74275%" id="linearGradient-9">
            <stop stop-color="#FFF1BA" offset="0%"></stop>
            <stop stop-color="#FFE8B9" offset="9%"></stop>
            <stop stop-color="#FFD0B8" offset="23%"></stop>
            <stop stop-color="#FFA9B5" offset="41%"></stop>
            <stop stop-color="#FF72B2" offset="62%"></stop>
            <stop stop-color="#FF2DAD" offset="86%"></stop>
            <stop stop-color="#FF00AA" offset="100%"></stop>
        </linearGradient>
        <linearGradient x1="49.9971073%" y1="3.40159667%" x2="49.9971073%" y2="118.199699%" id="linearGradient-10">
            <stop stop-color="#FEE6B6" offset="0%"></stop>
            <stop stop-color="#FFA2E8" offset="57%"></stop>
            <stop stop-color="#A98FFC" offset="100%"></stop>
        </linearGradient>
        <linearGradient x1="-54.1293249%" y1="102.516521%" x2="67.6016571%" y2="27.3324451%" id="linearGradient-11">
            <stop stop-color="#FCB0AA" offset="0%"></stop>
            <stop stop-color="#F8A0A2" offset="46%"></stop>
            <stop stop-color="#E57B85" offset="100%"></stop>
        </linearGradient>
        <linearGradient x1="0%" y1="49.983824%" x2="100%" y2="49.983824%" id="linearGradient-12">
            <stop stop-color="#FCB0AA" offset="0%"></stop>
            <stop stop-color="#F8A0A2" offset="46%"></stop>
            <stop stop-color="#F4919A" offset="100%"></stop>
        </linearGradient>
        <linearGradient x1="-54.6072539%" y1="127.593139%" x2="17.8238342%" y2="68.6101546%" id="linearGradient-13">
            <stop stop-color="#FCB0AA" offset="0%"></stop>
            <stop stop-color="#F8A0A2" offset="46%"></stop>
            <stop stop-color="#F4919A" offset="100%"></stop>
        </linearGradient>
        <linearGradient x1="-54.6072539%" y1="154.436338%" x2="17.8238342%" y2="75.0483022%" id="linearGradient-14">
            <stop stop-color="#FCB0AA" offset="0%"></stop>
            <stop stop-color="#F8A0A2" offset="46%"></stop>
            <stop stop-color="#F4919A" offset="100%"></stop>
        </linearGradient>
        <linearGradient x1="-54.6072539%" y1="210.21271%" x2="17.8238342%" y2="88.4258626%" id="linearGradient-15">
            <stop stop-color="#FCB0AA" offset="0%"></stop>
            <stop stop-color="#F8A0A2" offset="46%"></stop>
            <stop stop-color="#F4919A" offset="100%"></stop>
        </linearGradient>
        <linearGradient x1="60.2269463%" y1="4.54440022%" x2="25.2610388%" y2="178.881892%" id="linearGradient-16">
            <stop stop-color="#FCB0AA" offset="0%"></stop>
            <stop stop-color="#F8A0A2" offset="46%"></stop>
            <stop stop-color="#F4919A" offset="100%"></stop>
        </linearGradient>
        <linearGradient x1="-54.6072539%" y1="202.571231%" x2="17.8238342%" y2="86.5931091%" id="linearGradient-17">
            <stop stop-color="#FCB0AA" offset="0%"></stop>
            <stop stop-color="#F8A0A2" offset="46%"></stop>
            <stop stop-color="#F4919A" offset="100%"></stop>
        </linearGradient>
        <linearGradient x1="60.2269463%" y1="4.55293688%" x2="25.2610388%" y2="178.857688%" id="linearGradient-18">
            <stop stop-color="#FCB0AA" offset="0%"></stop>
            <stop stop-color="#F8A0A2" offset="46%"></stop>
            <stop stop-color="#F4919A" offset="100%"></stop>
        </linearGradient>
        <linearGradient x1="-54.1293249%" y1="260.066083%" x2="17.8238342%" y2="100.63682%" id="linearGradient-19">
            <stop stop-color="#FCB0AA" offset="0%"></stop>
            <stop stop-color="#F8A0A2" offset="46%"></stop>
            <stop stop-color="#E57B85" offset="100%"></stop>
        </linearGradient>
        <linearGradient x1="-26.1203223%" y1="261.125048%" x2="26.5861351%" y2="100.63682%" id="linearGradient-20">
            <stop stop-color="#FCB0AA" offset="0%"></stop>
            <stop stop-color="#F8A0A2" offset="46%"></stop>
            <stop stop-color="#F4919A" offset="100%"></stop>
        </linearGradient>
        <linearGradient x1="-54.6072539%" y1="180.466304%" x2="17.8238342%" y2="81.2914018%" id="linearGradient-21">
            <stop stop-color="#FCB0AA" offset="0%"></stop>
            <stop stop-color="#F8A0A2" offset="46%"></stop>
            <stop stop-color="#F4919A" offset="100%"></stop>
        </linearGradient>
        <linearGradient x1="53.0819172%" y1="0.715255979%" x2="47.8093248%" y2="99.0010597%" id="linearGradient-22">
            <stop stop-color="#FFD632" offset="0%"></stop>
            <stop stop-color="#F18960" offset="22%"></stop>
            <stop stop-color="#E5418B" offset="43%"></stop>
            <stop stop-color="#E0259C" offset="53%"></stop>
            <stop stop-color="#D92298" offset="56%"></stop>
            <stop stop-color="#B21385" offset="73%"></stop>
            <stop stop-color="#9A0A79" offset="87%"></stop>
            <stop stop-color="#910775" offset="96%"></stop>
        </linearGradient>
        <linearGradient x1="4286.58968%" y1="-5394.44967%" x2="4341.43244%" y2="-5394.44967%" id="linearGradient-23">
            <stop stop-color="#FFD632" offset="0%"></stop>
            <stop stop-color="#F18960" offset="22%"></stop>
            <stop stop-color="#E5418B" offset="43%"></stop>
            <stop stop-color="#E0259C" offset="53%"></stop>
            <stop stop-color="#D92298" offset="56%"></stop>
            <stop stop-color="#B21385" offset="73%"></stop>
            <stop stop-color="#9A0A79" offset="87%"></stop>
            <stop stop-color="#910775" offset="96%"></stop>
        </linearGradient>
        <radialGradient cx="32.4966411%" cy="10.4190045%" fx="32.4966411%" fy="10.4190045%" r="119.52881%" gradientTransform="translate(0.324966,0.104190),scale(1.000000,0.802260),translate(-0.324966,-0.104190)" id="radialGradient-24">
            <stop stop-color="#FFFF01" offset="0%"></stop>
            <stop stop-color="#FFFF01" offset="51%"></stop>
            <stop stop-color="#FF50D7" offset="100%"></stop>
        </radialGradient>
        <linearGradient x1="63.268373%" y1="-11.2816358%" x2="40.0351189%" y2="96.1219136%" id="linearGradient-25">
            <stop stop-color="#FFD632" offset="0%"></stop>
            <stop stop-color="#F18960" offset="22%"></stop>
            <stop stop-color="#E5418B" offset="43%"></stop>
            <stop stop-color="#E0259C" offset="53%"></stop>
            <stop stop-color="#D92298" offset="56%"></stop>
            <stop stop-color="#B21385" offset="73%"></stop>
            <stop stop-color="#9A0A79" offset="87%"></stop>
            <stop stop-color="#910775" offset="96%"></stop>
        </linearGradient>
        <linearGradient x1="57.7219181%" y1="39.5558531%" x2="45.5127992%" y2="60.8390707%" id="linearGradient-26">
            <stop stop-color="#FFD632" offset="0%"></stop>
            <stop stop-color="#F18960" offset="22%"></stop>
            <stop stop-color="#E5418B" offset="43%"></stop>
            <stop stop-color="#E0259C" offset="53%"></stop>
            <stop stop-color="#D92298" offset="56%"></stop>
            <stop stop-color="#B21385" offset="73%"></stop>
            <stop stop-color="#9A0A79" offset="87%"></stop>
            <stop stop-color="#910775" offset="96%"></stop>
        </linearGradient>
        <radialGradient cx="93.093197%" cy="-8.8560767%" fx="93.093197%" fy="-8.8560767%" r="152.315762%" gradientTransform="translate(0.930932,-0.088561),scale(0.890458,1.000000),translate(-0.930932,0.088561)" id="radialGradient-27">
            <stop stop-color="#FFFF01" offset="0%"></stop>
            <stop stop-color="#FFFF01" offset="51%"></stop>
            <stop stop-color="#FF50D7" offset="100%"></stop>
        </radialGradient>
        <linearGradient x1="50.0982747%" y1="158.774742%" x2="50.0982747%" y2="22.6345544%" id="linearGradient-28">
            <stop stop-color="#34006E" offset="0%"></stop>
            <stop stop-color="#4E0989" offset="100%"></stop>
        </linearGradient>
        <linearGradient x1="49.9288987%" y1="39.56664%" x2="49.9288987%" y2="98.5387443%" id="linearGradient-29">
            <stop stop-color="#3E0085" offset="0%"></stop>
            <stop stop-color="#B300AB" offset="100%"></stop>
        </linearGradient>
        <linearGradient x1="50.0982747%" y1="134.888077%" x2="50.0982747%" y2="4.48243456%" id="linearGradient-30">
            <stop stop-color="#34006E" offset="0%"></stop>
            <stop stop-color="#4E0989" offset="100%"></stop>
        </linearGradient>
        <linearGradient x1="50.0107544%" y1="33.5468041%" x2="50.0107544%" y2="95.0011536%" id="linearGradient-31">
            <stop stop-color="#3E0085" offset="0%"></stop>
            <stop stop-color="#B300AB" offset="100%"></stop>
        </linearGradient>
        <linearGradient x1="50.0982747%" y1="137.999231%" x2="50.0982747%" y2="-56.1479694%" id="linearGradient-32">
            <stop stop-color="#34006E" offset="0%"></stop>
            <stop stop-color="#4E0989" offset="100%"></stop>
        </linearGradient>
        <linearGradient x1="50.1894537%" y1="111.545079%" x2="50.1894537%" y2="50.9154715%" id="linearGradient-33">
            <stop stop-color="#3E0085" offset="0%"></stop>
            <stop stop-color="#B300AB" offset="100%"></stop>
        </linearGradient>
        <linearGradient x1="50%" y1="-2.18367987%" x2="50%" y2="90.100303%" id="linearGradient-34">
            <stop stop-color="#FFFD99" stop-opacity="0.3" offset="0%"></stop>
            <stop stop-color="#FFFD99" stop-opacity="0.28" offset="28%"></stop>
            <stop stop-color="#FFFD99" stop-opacity="0.24" offset="56%"></stop>
            <stop stop-color="#FFFD99" stop-opacity="0.16" offset="84%"></stop>
            <stop stop-color="#FFFD99" stop-opacity="0.1" offset="100%"></stop>
        </linearGradient>
        <radialGradient cx="49.7733612%" cy="17.7533705%" fx="49.7733612%" fy="17.7533705%" r="84.3503022%" id="radialGradient-35">
            <stop stop-color="#FFFFA2" offset="0%"></stop>
            <stop stop-color="#FFFE9F" offset="13%"></stop>
            <stop stop-color="#FFFB94" offset="25%"></stop>
            <stop stop-color="#FFF682" offset="36%"></stop>
            <stop stop-color="#FFEF69" offset="47%"></stop>
            <stop stop-color="#FFE648" offset="57%"></stop>
            <stop stop-color="#FFDC20" offset="68%"></stop>
            <stop stop-color="#FFD301" offset="74%"></stop>
            <stop stop-color="#FFCE06" offset="77%"></stop>
            <stop stop-color="#FFC115" offset="81%"></stop>
            <stop stop-color="#FFAB2E" offset="85%"></stop>
            <stop stop-color="#FF8B50" offset="89%"></stop>
            <stop stop-color="#FF637C" offset="93%"></stop>
            <stop stop-color="#FF33B1" offset="98%"></stop>
            <stop stop-color="#FF17D0" offset="100%"></stop>
        </radialGradient>
        <linearGradient x1="50.041478%" y1="-4.48080529%" x2="50.041478%" y2="94.5776111%" id="linearGradient-36">
            <stop stop-color="#FFFFFF" offset="0%"></stop>
            <stop stop-color="#FFFFFF" stop-opacity="0.98" offset="12%"></stop>
            <stop stop-color="#FFFFFF" stop-opacity="0.94" offset="25%"></stop>
            <stop stop-color="#FFFFFF" stop-opacity="0.86" offset="38%"></stop>
            <stop stop-color="#FFFFFF" stop-opacity="0.75" offset="50%"></stop>
            <stop stop-color="#FFFFFF" stop-opacity="0.6" offset="63%"></stop>
            <stop stop-color="#FFFFFF" stop-opacity="0.43" offset="76%"></stop>
            <stop stop-color="#FFFFFF" stop-opacity="0.22" offset="88%"></stop>
            <stop stop-color="#FFFFFF" stop-opacity="0" offset="100%"></stop>
        </linearGradient>
    </defs>
    <g id="Artboard" stroke="none" stroke-width="1" fill="none" fill-rule="evenodd">
        <g id="ghmg" transform="translate(60.000000, 7.000000)" fill-rule="nonzero">
            <path d="M67.4729971,1.36709994 C67.3904102,1.36975411 67.3104709,1.33777842 67.2524971,1.27889994 C67.1928636,1.21975347 67.1593206,1.13924077 67.1593206,1.05524995 C67.1593206,0.971259134 67.1928636,0.89074644 67.2524971,0.831599964 L67.3532971,0.730799968 C67.4124435,0.671166486 67.4929562,0.6376235 67.5769471,0.6376235 C67.6609379,0.6376235 67.7414506,0.671166486 67.800597,0.730799968 C67.9214205,0.855422579 67.9214205,1.05347734 67.800597,1.17809995 L67.6934971,1.27889994 C67.6359713,1.33844876 67.5557218,1.37054854 67.4729971,1.36709994 L67.4729971,1.36709994 Z" id="Path" fill="url(#linearGradient-1)"></path>
            <path d="M2.3498999,145.177194 C2.17593021,145.177194 2.03489991,145.036163 2.03489991,144.862194 L2.03489991,144.717294 C2.03825158,144.544731 2.17733758,144.405645 2.3498999,144.402294 C2.52386959,144.402294 2.66489988,144.543324 2.66489988,144.717294 L2.66489988,144.862194 C2.66489988,145.036163 2.52386959,145.177194 2.3498999,145.177194 Z" id="Path" fill="url(#linearGradient-2)"></path>
            <path d="M2.3498999,148.900494 C2.17593021,148.900494 2.03489991,148.759463 2.03489991,148.585494 L2.03489991,148.440594 C2.03825158,148.268031 2.17733758,148.128945 2.3498999,148.125594 C2.52386959,148.125594 2.66489988,148.266624 2.66489988,148.440594 L2.66489988,148.585494 C2.66489988,148.759463 2.52386959,148.900494 2.3498999,148.900494 L2.3498999,148.900494 Z" id="Path" fill="url(#linearGradient-3)"></path>
            <path d="M1.08359995,145.700094 C1.00127931,145.701273 0.92189801,145.669521 0.863099962,145.611894 L0.762299967,145.504794 C0.640521217,145.383015 0.640521232,145.185572 0.762300001,145.063794 C0.88407877,144.942015 1.08152116,144.942015 1.20329995,145.063794 L1.31039994,145.164594 C1.43122341,145.289216 1.43122341,145.487271 1.31039994,145.611894 C1.24966676,145.670487 1.16796243,145.702261 1.08359995,145.700094 Z" id="Path" fill="url(#linearGradient-4)"></path>
            <path d="M3.71699984,148.333494 C3.63505538,148.332707 3.55638132,148.301237 3.49649985,148.245294 L3.39569985,148.138194 C3.27392111,148.016415 3.27392112,147.818972 3.39569989,147.697194 C3.51747866,147.575415 3.71492104,147.575415 3.83669983,147.697194 L3.94379983,147.797994 C4.0646233,147.922616 4.0646233,148.120671 3.94379983,148.245294 C3.88166025,148.301651 3.80088865,148.333062 3.71699984,148.333494 L3.71699984,148.333494 Z" id="Path" fill="url(#linearGradient-5)"></path>
            <path d="M0.560699976,146.966394 L0.415799982,146.966394 C0.241830293,146.966394 0.100799996,146.825363 0.100799996,146.651394 C0.104151662,146.478831 0.243237664,146.339745 0.415799982,146.336394 L0.560699976,146.336394 C0.734669664,146.336394 0.875699962,146.477424 0.875699962,146.651394 C0.875699962,146.825363 0.734669664,146.966394 0.560699976,146.966394 Z" id="Path" fill="url(#linearGradient-6)"></path>
            <path d="M4.28399981,146.966394 L4.13909982,146.966394 C3.96513013,146.966394 3.82409983,146.825363 3.82409983,146.651394 C3.8274515,146.478831 3.9665375,146.339745 4.13909982,146.336394 L4.28399981,146.336394 C4.4579695,146.336394 4.5989998,146.477424 4.5989998,146.651394 C4.5989998,146.825363 4.4579695,146.966394 4.28399981,146.966394 Z" id="Path" fill="url(#linearGradient-7)"></path>
            <path d="M0.982799957,148.333499 C0.856776285,148.331723 0.743939123,148.255004 0.6959509,148.138461 C0.647962677,148.021918 0.674062259,147.887989 0.762299967,147.797994 L0.863099962,147.697194 C0.922246439,147.63756 1.00275913,147.604017 1.08674995,147.604017 C1.17074077,147.604017 1.25125347,147.63756 1.31039994,147.697194 C1.43045994,147.819679 1.43045994,148.015708 1.31039994,148.138194 L1.20329995,148.245294 C1.14412198,148.302335 1.06499215,148.333987 0.982799957,148.333499 L0.982799957,148.333499 Z" id="Path" fill="url(#linearGradient-8)"></path>
            <path d="M3.61619984,145.700094 C3.53347509,145.703542 3.45322564,145.671442 3.39569985,145.611894 C3.33606637,145.552747 3.30252338,145.472234 3.30252338,145.388244 C3.30252338,145.304253 3.33606637,145.22374 3.39569985,145.164594 L3.49649985,145.063794 C3.55564632,145.00416 3.63615902,144.970617 3.72014984,144.970617 C3.80414066,144.970617 3.88465335,145.00416 3.94379983,145.063794 C4.06385983,145.186279 4.06385983,145.382308 3.94379983,145.504794 L3.83669983,145.611894 C3.77917404,145.671442 3.6989246,145.703542 3.61619984,145.700094 L3.61619984,145.700094 Z" id="Path" fill="url(#linearGradient-9)"></path>
            <polygon id="Path" fill="#252A30" opacity="0.1" style="mix-blend-mode: multiply;" points="87.5321962 199.817091 21.6215991 232.77239 87.5321962 265.733988 153.442793 232.77239"></polygon>
            <polygon id="Path" fill="url(#linearGradient-10)" points="87.5321962 145.517394 33.0875986 172.739692 87.5321962 199.968291 141.983094 172.739692"></polygon>
            <polygon id="Path" fill="url(#linearGradient-11)" points="36.2060984 172.739692 87.5321962 147.079794 138.858294 172.739692 87.5321962 198.405891"></polygon>
            <polygon id="Path" fill="url(#linearGradient-12)" points="33.0875986 172.739692 33.0875986 232.77239 87.5321962 260.000989 87.5321962 199.968291"></polygon>
            <polygon id="Path" fill="#FCB0AA" points="141.983094 172.739692 141.983094 232.77239 87.5321962 260.000989 87.5321962 199.968291"></polygon>
            <polygon id="Path" fill="url(#linearGradient-13)" points="105.720295 245.473189 91.576796 252.548089 91.576796 254.047489 105.720295 246.978889"></polygon>
            <polygon id="Path" fill="url(#linearGradient-13)" points="105.720295 242.134189 91.576796 249.202789 91.576796 250.708489 105.720295 243.639889"></polygon>
            <polygon id="Path" fill="url(#linearGradient-14)" points="98.9666957 242.171989 91.576796 245.863789 91.576796 247.369489 98.9666957 243.677689"></polygon>
            <polygon id="Path" fill="url(#linearGradient-15)" points="22.5123745 202.157541 76.9569721 229.37984 87.5321962 199.968291 33.0875986 172.739692"></polygon>
            <polygon id="Path" fill="url(#linearGradient-16)" points="33.0875986 172.739692 20.4497991 198.405891 74.8943967 225.62819 87.5321962 199.968291"></polygon>
            <polygon id="Path" fill="url(#linearGradient-17)" points="151.585067 199.968291 97.1341694 227.19059 87.5321962 199.968291 141.983094 172.739692"></polygon>
            <polygon id="Path" fill="url(#linearGradient-18)" points="141.983094 172.739692 154.620893 198.405891 100.169996 225.62819 87.5321962 199.968291"></polygon>
            <polygon id="Path" fill="url(#linearGradient-19)" points="87.5321962 147.079794 87.5321962 198.405891 138.858294 172.739692"></polygon>
            <polygon id="Path" fill="url(#linearGradient-20)" points="53.7956977 227.86469 36.2060984 219.06989 36.2060984 230.89499 53.7956977 239.68979"></polygon>
            <polygon id="Path" fill="url(#linearGradient-21)" points="46.632598 218.005191 36.2060984 212.788791 36.2060984 215.774991 46.632598 220.98509"></polygon>
            <path d="M107.490595,180.381592 C107.39673,180.381036 107.304174,180.359511 107.219695,180.318592 C106.904859,180.170674 106.769487,179.79558 106.917295,179.480692 L107.055895,179.190892 C107.129183,179.040299 107.259417,178.925086 107.417823,178.870707 C107.576229,178.816329 107.749767,178.827263 107.900095,178.901092 C108.212529,179.051346 108.344853,179.425797 108.196195,179.738992 L108.057595,180.016192 C107.955212,180.237437 107.734374,180.379755 107.490595,180.381592 Z" id="Path" fill="#FFFFFF"></path>
            <path d="M109.525495,176.639392 C109.410285,176.640502 109.296976,176.609995 109.197895,176.551192 C109.053546,176.464894 108.949694,176.324464 108.909462,176.161169 C108.86923,175.997874 108.895958,175.825271 108.983695,175.681792 C109.103395,175.492792 109.223095,175.303792 109.336495,175.114792 C109.425872,174.973588 109.56769,174.873679 109.73074,174.837052 C109.89379,174.800425 110.064713,174.83008 110.205895,174.919492 C110.3471,175.008869 110.447008,175.150687 110.483636,175.313737 C110.520263,175.476788 110.490607,175.64771 110.401195,175.788892 L110.060995,176.336992 C109.94716,176.523986 109.744412,176.638479 109.525495,176.639392 L109.525495,176.639392 Z M112.139995,172.859407 C111.99864,172.860363 111.861065,172.813765 111.749395,172.727092 C111.47717,172.512599 111.429316,172.118504 111.642295,171.845093 C111.774595,171.668693 111.913195,171.492293 112.051795,171.322193 C112.155884,171.190534 112.308204,171.105851 112.474968,171.086928 C112.641732,171.068004 112.809153,171.116404 112.940095,171.221393 C113.070807,171.326397 113.154271,171.479173 113.172008,171.645898 C113.189744,171.812622 113.14029,171.979539 113.034595,172.109693 L112.637695,172.613692 C112.518756,172.768198 112.334978,172.858924 112.139995,172.859407 Z M115.145095,169.381793 C114.982889,169.381147 114.827183,169.317961 114.710395,169.205393 C114.466129,168.959669 114.466129,168.562816 114.710395,168.317093 C114.861595,168.153293 115.019095,167.995793 115.176595,167.838293 C115.335274,167.678488 115.567155,167.615477 115.78489,167.672995 C116.002625,167.730513 116.173135,167.899822 116.23219,168.117145 C116.291245,168.334467 116.229874,168.566788 116.071195,168.726593 L115.617595,169.186493 C115.494777,169.315448 115.323119,169.3864 115.145095,169.381793 Z M118.502995,166.231793 C118.317819,166.230236 118.142705,166.147288 118.024195,166.004993 C117.916324,165.877215 117.863679,165.711792 117.877859,165.545172 C117.89204,165.378551 117.971882,165.224404 118.099795,165.116693 L118.610095,164.694593 C118.781336,164.534457 119.027336,164.482658 119.248612,164.560143 C119.469888,164.637627 119.629834,164.831577 119.663767,165.063559 C119.6977,165.29554 119.600007,165.527176 119.410195,165.664793 L118.906195,166.080593 C118.795519,166.181355 118.652585,166.239422 118.502995,166.244393 L118.502995,166.231793 Z M122.175895,163.459793 C121.96634,163.460109 121.770345,163.356208 121.652995,163.182593 C121.559217,163.043975 121.524448,162.87374 121.556361,162.709452 C121.588273,162.545163 121.684243,162.400324 121.823095,162.306893 L122.377495,161.935193 C122.56656,161.812526 122.806705,161.800042 123.00747,161.902443 C123.208236,162.004845 123.33912,162.206574 123.35082,162.431643 C123.362521,162.656712 123.25326,162.870926 123.064195,162.993593 C122.887795,163.106993 122.705095,163.226693 122.528695,163.352693 C122.424674,163.424943 122.302404,163.466427 122.175895,163.472393 L122.175895,163.459793 Z M126.113395,161.090993 C125.825474,161.089567 125.575156,160.893126 125.505324,160.613798 C125.435492,160.334471 125.563918,160.043343 125.817295,159.906593 L126.409494,159.597893 C126.610679,159.487415 126.856027,159.495092 127.049911,159.617932 C127.243795,159.740771 127.355532,159.959334 127.341571,160.188431 C127.32761,160.417528 127.19016,160.620905 126.982794,160.719293 L126.409494,161.015393 C126.319645,161.068914 126.217885,161.099225 126.113395,161.103593 L126.113395,161.090993 Z M130.283994,159.163193 C130.025818,159.163443 129.79362,159.006147 129.698094,158.766293 C129.636115,158.610916 129.638477,158.437268 129.704658,158.283633 C129.770839,158.129998 129.895406,158.008992 130.050894,157.947293 L130.680894,157.701593 C130.837119,157.642256 131.010518,157.647419 131.162934,157.715948 C131.315351,157.784476 131.434296,157.910754 131.493594,158.066993 C131.552932,158.223217 131.547768,158.396617 131.47924,158.549033 C131.410711,158.70145 131.284433,158.820395 131.128194,158.879693 L130.498194,159.112793 C130.431115,159.146379 130.358576,159.167714 130.283994,159.175793 L130.283994,159.163193 Z" id="Shape" fill="#FFFFFF"></path>
            <path d="M134.649894,157.714193 C134.301955,157.759425 133.983226,157.514033 133.937994,157.166093 C133.892762,156.818154 134.138155,156.499425 134.486094,156.454193 L134.794794,156.372293 C135.130461,156.284267 135.474109,156.484259 135.563394,156.819593 C135.607583,156.981693 135.585191,157.154727 135.501197,157.300239 C135.417202,157.445751 135.278563,157.551684 135.116094,157.594493 L134.819994,157.670093 C134.766148,157.69417 134.708656,157.709075 134.649894,157.714193 Z" id="Path" fill="#FFFFFF"></path>
            <path d="M138.883494,150.960593 C138.839321,150.879609 138.80141,150.795363 138.770094,150.708593 L138.770094,150.708593 C138.770094,150.632993 138.725994,150.557393 138.707094,150.481793 C138.688194,150.406193 138.707094,150.450293 138.707094,150.431393 C138.704057,150.391551 138.704057,150.351536 138.707094,150.311693 C138.694376,150.192331 138.694376,150.071956 138.707094,149.952593 C138.738509,149.652409 138.908718,149.38427 139.166994,149.228094 L137.913294,149.939993 C137.656818,150.100961 137.487558,150.369922 137.453394,150.670793 C137.44079,150.788056 137.44079,150.906331 137.453394,151.023593 L137.453394,151.067693 C137.450817,151.094933 137.450817,151.122354 137.453394,151.149593 C137.456872,151.164088 137.456872,151.179199 137.453394,151.193693 C137.456341,151.206121 137.456341,151.219066 137.453394,151.231493 L137.491194,151.357493 C137.490143,151.37848 137.490143,151.399507 137.491194,151.420493 L137.491194,151.420493 L137.491194,151.420493 C137.503179,151.457252 137.517921,151.493053 137.535294,151.527593 C137.549608,151.560357 137.566459,151.591954 137.585694,151.622093 L137.585694,151.622093 L140.433294,156.624293 L141.649194,155.912393 L138.883494,150.960593 Z" id="Path" fill="url(#linearGradient-22)"></path>
            <path d="M145.529994,164.826893 L145.574094,164.826893 C145.653473,164.856721 145.735855,164.877845 145.819794,164.889893 L146.002494,164.889893 L146.115894,164.889893 L146.178894,164.889893 L146.178894,164.889893 L146.260794,164.889893 L146.342694,164.852093 L146.342694,164.852093 L146.342694,164.852093 L147.558594,164.146493 L147.558594,164.146493 C147.497659,164.182821 147.431914,164.210391 147.363294,164.228393 L147.363294,164.228393 C147.298545,164.237964 147.232742,164.237964 147.167994,164.228393 L147.130194,164.228393 L147.010494,164.228393 C146.924219,164.221609 146.839359,164.202516 146.758494,164.171693 L146.714394,164.171693 C146.618985,164.131046 146.528174,164.080361 146.443494,164.020493 L146.279694,163.894493 L146.279694,163.894493 C146.214112,163.836193 146.153037,163.773013 146.096994,163.705493 L146.096994,163.705493 C146.039481,163.6335 145.986862,163.55773 145.939494,163.478693 L143.104494,158.476493 L139.229994,160.593293 C139.166837,160.629646 139.09901,160.657201 139.028394,160.675193 L139.028394,160.675193 C138.963458,160.681719 138.89803,160.681719 138.833094,160.675193 L138.795294,160.675193 L138.675594,160.675193 C138.591656,160.663145 138.509273,160.642021 138.429894,160.612193 L138.385794,160.612193 C138.287715,160.572985 138.194659,160.522227 138.108594,160.460993 C138.04992,160.424573 137.995046,160.382362 137.944794,160.334993 L137.944794,160.334993 C137.879669,160.278208 137.820558,160.214875 137.768394,160.145993 L137.768394,160.145993 C137.710825,160.075426 137.660191,159.999475 137.617194,159.919193 C137.56974,159.841194 137.529666,159.758937 137.497494,159.673493 L137.497494,159.673493 C137.470681,159.59963 137.449618,159.523804 137.434494,159.446693 C137.434494,159.446693 137.434494,159.446693 137.434494,159.402593 C137.434494,159.358493 137.434494,159.320693 137.434494,159.276593 C137.42189,159.159331 137.42189,159.041055 137.434494,158.923793 C137.471275,158.623846 137.639884,158.35592 137.894394,158.192993 L136.678494,158.904893 C136.420218,159.06107 136.250009,159.329209 136.218594,159.629393 C136.205876,159.748755 136.205876,159.869131 136.218594,159.988493 C136.218594,159.988493 136.218594,159.988493 136.218594,160.032593 L136.218594,160.108193 C136.215514,160.124852 136.215514,160.141934 136.218594,160.158593 C136.218594,160.158593 136.218594,160.158593 136.218594,160.158593 L136.256394,160.290893 L136.256394,160.353893 L136.256394,160.353893 C136.256394,160.353893 136.256394,160.353893 136.256394,160.385393 L136.300494,160.486193 L136.350894,160.586993 L136.350894,160.586993 L136.394994,160.656293 C136.413782,160.689213 136.434833,160.720789 136.457994,160.750793 C136.474168,160.770722 136.488905,160.791775 136.502094,160.813793 L136.502094,160.813793 L136.502094,160.813793 C136.526034,160.846144 136.553503,160.875726 136.583994,160.901993 L136.665894,160.990193 L136.665894,160.990193 L136.798194,161.097293 L136.798194,161.097293 C136.886472,161.154907 136.97916,161.205464 137.075394,161.248493 L137.119494,161.248493 C137.198203,161.279233 137.280974,161.298333 137.365194,161.305193 L137.409294,161.305193 L137.554194,161.305193 L137.661294,161.305193 L137.724294,161.305193 L137.724294,161.305193 L137.812494,161.273693 L137.888094,161.235893 L137.888094,161.235893 L141.800394,159.043493 L144.641694,164.045693 C144.652603,164.070997 144.667491,164.094393 144.685794,164.114993 L144.742494,164.209493 L144.792894,164.272493 L144.792894,164.272493 L144.792894,164.272493 L144.868494,164.366993 L144.956694,164.448893 L144.956694,164.448893 L145.088994,164.555993 L145.088994,164.555993 C145.216825,164.674314 145.366665,164.766358 145.529994,164.826893 Z" id="Path" fill="url(#linearGradient-23)"></path>
            <path d="M148.081494,163.358993 C148.045826,163.666006 147.868693,163.938697 147.602694,164.096093 C146.957373,164.346518 146.229362,164.043643 145.952094,163.409393 L143.117094,158.407193 L139.229994,160.593293 C138.920158,160.72226 138.571673,160.722292 138.261813,160.593381 C137.951954,160.46447 137.706325,160.217269 137.579394,159.906593 C137.396491,159.599677 137.321118,159.240547 137.365194,158.885993 C137.397548,158.579496 137.572698,158.306261 137.837694,158.148893 L141.749994,155.956493 L138.908694,150.960593 C138.727946,150.650624 138.654847,150.289558 138.700794,149.933693 C138.733108,149.628812 138.908534,149.357486 139.173294,149.202894 C139.48313,149.073926 139.831615,149.073895 140.141475,149.202806 C140.451334,149.331717 140.696963,149.578917 140.823894,149.889593 L143.665194,154.891793 L147.571194,152.699393 C148.216469,152.452428 148.942103,152.754314 149.221794,153.386093 C149.406544,153.692285 149.482052,154.05206 149.435993,154.406693 C149.405605,154.713877 149.229934,154.987925 148.963494,155.143793 L145.051194,157.336193 L147.892494,162.338393 C148.066686,162.648309 148.133157,163.007252 148.081494,163.358993 L148.081494,163.358993 Z" id="Path" fill="url(#radialGradient-24)"></path>
            <path d="M37.5857984,147.369594 C37.4794739,147.369935 37.3750184,147.341645 37.2833984,147.287694 L37.0124984,147.142794 C36.8144303,147.030255 36.6914466,146.820597 36.6898586,146.592796 C36.6883012,146.364994 36.8083785,146.153658 37.0048739,146.038396 C37.2013692,145.923133 37.4444303,145.921455 37.6424984,146.033994 L37.9259983,146.185194 C38.0722524,146.266179 38.1803204,146.401975 38.2264041,146.562677 C38.2724878,146.723379 38.2528079,146.895808 38.1716983,147.041994 C38.0556805,147.254811 37.8278574,147.382196 37.5857984,147.369594 Z" id="Path" fill="#FFFFFF"></path>
            <path d="M56.4605975,166.58461 C56.2261237,166.586309 56.0100969,166.457664 55.8998976,166.250693 C55.8053976,166.055393 55.6982976,165.872693 55.5974976,165.683693 C55.4849589,165.485625 55.4866369,165.242564 55.6018995,165.046068 C55.7171622,164.849573 55.9284983,164.729496 56.1562995,164.731053 C56.3841008,164.732641 56.5937589,164.855625 56.7062975,165.053693 L57.0149975,165.633293 C57.1188317,165.828293 57.1129374,166.063434 56.9994636,166.252986 C56.8859898,166.442539 56.6815188,166.558804 56.4605975,166.559393 L56.4605975,166.58461 Z M54.1358976,162.672293 C53.9251506,162.671203 53.7289073,162.564806 53.6129977,162.388793 L53.2538977,161.853293 C53.1065683,161.66825 53.0753005,161.416275 53.1729336,161.200835 C53.2705667,160.985394 53.4806479,160.842794 53.716913,160.831588 C53.9531782,160.820383 54.1758126,160.94246 54.2933976,161.147693 C54.4193976,161.324093 54.5390976,161.506793 54.6587976,161.689493 C54.7519716,161.828879 54.7857428,161.999654 54.7526347,162.164012 C54.7195266,162.32837 54.6222704,162.472752 54.4823976,162.565193 C54.3798924,162.634085 54.2593987,162.671329 54.1358976,162.672293 L54.1358976,162.672293 Z M51.4457978,158.999397 C51.2551671,159.000041 51.0744947,158.914338 50.9543978,158.766293 L50.5511978,158.274893 C50.4440607,158.146321 50.3924844,157.980404 50.4078495,157.813751 C50.4232147,157.647099 50.5042583,157.493408 50.6330978,157.386593 C50.8999065,157.167715 51.2931521,157.20423 51.5150978,157.468493 C51.6599978,157.632293 51.7985977,157.802393 51.9371977,157.972493 C52.0905027,158.161468 52.1212689,158.421835 52.0162313,158.641337 C51.9111937,158.860839 51.6891354,159.000223 51.4457978,158.999397 L51.4457978,158.999397 Z M48.4154979,155.610004 C48.247133,155.609294 48.0860529,155.541232 47.9681979,155.420993 L47.5145979,154.967393 C47.267561,154.722096 47.2661507,154.32298 47.5114479,154.075943 C47.7567452,153.828906 48.1558609,153.827496 48.4028979,154.072793 L48.8690979,154.538993 C49.0471409,154.720625 49.0985049,154.991498 48.9993137,155.2257 C48.9001224,155.459902 48.6698344,155.611487 48.4154979,155.610004 L48.4154979,155.610004 Z M45.082798,152.516693 C44.9334366,152.518467 44.788304,152.467112 44.6732981,152.371793 L44.1818981,151.962293 C43.9122451,151.741352 43.8727566,151.343646 44.0936981,151.073993 C44.3146396,150.80434 44.712345,150.764852 44.981998,150.985793 L45.485998,151.407893 C45.6856193,151.578576 45.7584085,151.855192 45.6686522,152.102022 C45.5788958,152.348852 45.3454281,152.514102 45.082798,152.516693 L45.082798,152.516693 Z M41.4602982,149.763593 C41.3339889,149.762018 41.2110701,149.722508 41.1074982,149.650193 L40.5719982,149.309994 C40.371062,149.191204 40.2522754,148.97105 40.2633119,148.737887 C40.2743485,148.504725 40.4133991,148.296776 40.6246575,148.197497 C40.8359159,148.098218 41.0847519,148.123884 41.2712982,148.264194 L41.8193982,148.629594 C42.0506954,148.78498 42.152441,149.073854 42.0695763,149.339893 C41.9867116,149.605933 41.7389227,149.785935 41.4602982,149.782493 L41.4602982,149.763593 Z" id="Shape" fill="#FFFFFF"></path>
            <path d="M58.2623975,170.402393 C58.0080653,170.401123 57.7794418,170.247051 57.6827975,170.011793 L57.5630975,169.728293 C57.4648128,169.519355 57.4887025,169.27339 57.6253577,169.087271 C57.7620128,168.901152 57.9895353,168.804702 58.2183173,168.835908 C58.4470993,168.867114 58.6404798,169.020974 58.7222974,169.236893 L58.8419974,169.526693 C58.9774116,169.846799 58.8280005,170.216098 58.5080975,170.351993 C58.4299861,170.383734 58.3466971,170.400819 58.2623975,170.402393 Z" id="Path" fill="#FFFFFF"></path>
            <path d="M39.6899983,137.339994 C39.7759719,137.266616 39.8560204,137.186568 39.9293983,137.100594 L39.9293983,137.100594 C39.9917043,137.024929 40.0485478,136.944927 40.0994983,136.861194 L40.0994983,136.810794 C40.0994983,136.760394 40.1435983,136.716294 40.1687983,136.672194 C40.2310091,136.53884 40.2795567,136.39953 40.3136982,136.256394 C40.3917414,135.891539 40.3040694,135.510858 40.0742983,135.216894 L41.2082982,136.539894 C41.4448233,136.830598 41.5332412,137.214517 41.4476982,137.579394 C41.417413,137.72363 41.368714,137.863375 41.3027982,137.995194 C41.3027982,137.995194 41.3027982,138.032994 41.3027982,138.051894 L41.2523982,138.133794 C41.2535997,138.150573 41.2535997,138.167415 41.2523982,138.184194 L41.2523982,138.228294 L41.1578982,138.360594 L41.1011982,138.429894 L41.1011982,138.429894 L41.1011982,138.461394 L40.9499982,138.599994 L40.8491982,138.694494 L40.8491982,138.694494 L35.4815985,143.381694 L34.3412985,142.052394 L39.6899983,137.339994 Z" id="Path" fill="url(#linearGradient-25)"></path>
            <path d="M26.2268989,150.866093 L26.1701989,150.866093 C26.066394,150.868353 25.962708,150.857772 25.8614989,150.834593 L25.8299989,150.834593 L25.7354989,150.834593 L25.6913989,150.834593 L25.6598989,150.834593 L25.5401989,150.771593 L25.4708989,150.733793 L25.4708989,150.733793 L25.4708989,150.733793 L25.3259989,150.569993 L25.2440989,150.494393 L25.2440989,150.494393 L25.2440989,150.494393 L24.103799,149.165094 L24.103799,149.165094 C24.1633044,149.232147 24.2310404,149.291416 24.3053989,149.341494 L24.3053989,149.341494 C24.3748204,149.386747 24.4487085,149.424746 24.5258989,149.454893 L24.5699989,149.454893 L24.7148989,149.492693 C24.8187073,149.512855 24.9241538,149.5234 25.0298989,149.524193 L25.0865989,149.524193 C25.2163584,149.515011 25.3449994,149.493922 25.4708989,149.461193 L25.7102989,149.379293 L25.7102989,149.379293 C25.8084821,149.338567 25.9032795,149.290115 25.9937989,149.234394 L25.9937989,149.234394 C26.0895946,149.174912 26.1802144,149.107474 26.2646989,149.032794 L31.6322986,144.339294 L35.3114985,148.503594 C35.371155,148.568674 35.438907,148.62584 35.5130985,148.673694 L35.5130985,148.673694 C35.5810664,148.717648 35.6527379,148.755592 35.7272984,148.787094 L35.7776984,148.787094 C35.8249597,148.803384 35.8734021,148.816021 35.9225984,148.824894 C36.0273774,148.834529 36.1328195,148.834529 36.2375984,148.824894 L36.2942984,148.824894 C36.4240579,148.815711 36.5526989,148.794622 36.6785984,148.761894 L36.9179984,148.679994 L36.9179984,148.679994 C37.0161816,148.639267 37.110979,148.590815 37.2014984,148.535094 L37.2014984,148.535094 C37.2972942,148.475612 37.387914,148.408174 37.4723984,148.333494 C37.5568555,148.258491 37.6367955,148.178551 37.7117984,148.094094 L37.7117984,148.094094 C37.7741044,148.018429 37.8309479,147.938427 37.8818984,147.854694 L37.8818984,147.804294 C37.8818984,147.753894 37.9259983,147.709794 37.9511983,147.665694 C38.014264,147.533297 38.0608132,147.39365 38.0897983,147.249894 C38.176332,146.885019 38.0878132,146.500661 37.8503984,146.210394 L38.9906983,147.533394 C39.2272234,147.824097 39.3156413,148.208017 39.2300983,148.572894 C39.1998131,148.717129 39.1511141,148.856874 39.0851983,148.988694 C39.0851983,148.988694 39.0851983,149.026494 39.0851983,149.039094 L39.0410983,149.127294 C39.0320346,149.14495 39.0214972,149.161809 39.0095983,149.177694 C39.0116665,149.192321 39.0116665,149.207166 39.0095983,149.221794 L38.9213983,149.354093 L38.8646983,149.423393 L38.8646983,149.423393 L38.8646983,149.454893 L38.7701983,149.555693 L38.6693983,149.650193 L38.6693983,149.650193 L38.5874983,149.713193 L38.4803983,149.795093 L38.3921983,149.851793 L38.3921983,149.851793 L38.3921983,149.851793 L38.2598983,149.927393 L38.1275983,149.990393 L38.1275983,149.990393 L37.9259983,150.059693 L37.8881984,150.059693 C37.7633058,150.097976 37.6342963,150.12124 37.5038984,150.128993 L37.4471984,150.128993 C37.3446873,150.141646 37.2410094,150.141646 37.1384984,150.128993 L37.0817984,150.128993 L36.9872984,150.128993 L36.9431984,150.128993 L36.9431984,150.128993 L36.8234984,150.065993 L36.7541984,150.028193 L36.7541984,150.028193 L36.7541984,150.028193 L36.6722984,149.958893 L36.5903984,149.883293 L36.5903984,149.883293 L32.9048986,145.725294 L27.5435988,150.412493 L27.4616988,150.481793 L27.3545988,150.563693 L27.2663988,150.620393 L27.2663988,150.620393 L27.2663988,150.620393 L27.1340988,150.695993 L27.0017988,150.758993 L27.0017988,150.758993 L26.8001988,150.828293 L26.7623988,150.828293 C26.5881797,150.876327 26.406138,150.889177 26.2268989,150.866093 Z" id="Path" fill="url(#linearGradient-26)"></path>
            <path d="M23.839199,148.106694 C23.7508836,148.477513 23.8444672,148.868225 24.091199,149.158794 C24.7429817,149.716111 25.7182412,149.660541 26.3024989,149.032794 L31.6700986,144.339294 L35.3492985,148.503594 C36.0038184,149.056001 36.9766117,148.997799 37.5605984,148.371294 C37.8883716,148.08229 38.1101235,147.692007 38.1905983,147.262494 C38.2785715,146.892669 38.1875714,146.503002 37.9448983,146.210394 L34.2593985,142.046094 L39.6899983,137.339994 C40.0134398,137.055286 40.2347209,136.672469 40.3199982,136.250094 C40.3984925,135.879343 40.3059438,135.492952 40.0679983,135.197994 C39.4162155,134.640676 38.440956,134.696247 37.8566984,135.323994 L32.4827986,140.017494 L28.8098987,135.853194 C28.1553788,135.300787 27.1825855,135.358988 26.5985988,135.985494 C26.2587063,136.270391 26.023678,136.660627 25.9307989,137.094294 C25.8503043,137.467051 25.9429606,137.856207 26.1827989,138.152694 L29.8619987,142.304394 L24.5006989,146.997894 C24.163142,147.283742 23.930396,147.673869 23.839199,148.106694 L23.839199,148.106694 Z" id="Path" fill="url(#radialGradient-27)"></path>
            <path d="M73.0799968,173.659492 C73.0799968,174.869092 74.4155968,176.078692 77.1119966,177.023692 C82.6370964,178.957792 91.772096,179.027092 97.5176958,177.174892 C100.466096,176.223592 101.927696,174.957292 101.927696,173.684692 L101.927696,176.399992 C101.927696,177.659992 100.440896,178.919992 97.5176958,179.890192 C91.772096,181.736092 82.6370964,181.666792 77.1056966,179.732692 C74.4155968,178.793992 73.0799968,177.578092 73.0799968,176.374792 L73.0799968,173.659492 Z" id="Path" fill="url(#linearGradient-28)"></path>
            <path d="M107.452795,169.205393 C107.452795,169.236893 107.452795,169.268393 107.452795,169.299893 C107.452795,169.117193 107.452795,168.934493 107.402395,168.745493 C107.399428,168.722488 107.399428,168.699197 107.402395,168.676193 C107.368691,168.463101 107.320275,168.252597 107.257495,168.046193 C107.257495,168.002093 107.257495,167.964293 107.225995,167.920193 C107.169295,167.750093 107.099995,167.561093 107.018095,167.359493 C107.016421,167.336423 107.016421,167.313262 107.018095,167.290193 L107.018095,167.246093 C106.857017,166.887359 106.660757,166.545486 106.432195,166.225493 L106.432195,166.225493 C106.240505,165.950844 106.03,165.689818 105.802195,165.444293 C105.802195,165.444293 105.802195,165.444293 105.770695,165.412793 L105.650995,165.293093 C105.066908,164.720609 104.415318,164.221339 103.710595,163.806293 C102.713204,163.221311 101.657486,162.742015 100.560596,162.376193 C99.0143657,161.846182 97.4279284,161.441672 95.8166958,161.166593 C93.6544726,160.8027 91.4692217,160.592175 89.2772961,160.536593 C87.040747,160.465971 84.8019703,160.535407 82.5740964,160.744493 C80.8796578,160.910553 79.1966578,161.17773 77.5340966,161.544593 C76.0676771,161.874535 74.632303,162.329808 73.2437968,162.905393 C72.1073088,163.37853 71.0460892,164.015262 70.0937969,164.795393 C69.308914,165.422791 68.6649428,166.208436 68.203797,167.101193 C67.8225212,167.871386 67.6200867,168.717734 67.6115971,169.577093 C67.6115971,169.759793 67.6115971,170.005493 67.6682971,170.295293 C67.6682971,170.402393 67.6997971,170.496893 67.7186971,170.597693 C67.7375971,170.698493 67.7690971,170.824493 67.800597,170.944193 C67.832097,171.063893 67.844697,171.145793 67.876197,171.233993 C67.907697,171.322193 67.932897,171.385193 67.958097,171.460793 C68.1564647,172.011552 68.4322314,172.531266 68.777097,173.004292 L68.840097,173.079892 C68.9898484,173.284785 69.1518436,173.480441 69.325197,173.665792 L69.325197,173.665792 L69.356697,173.697292 L69.470097,173.816992 C69.514197,173.867392 69.570897,173.905192 69.614997,173.955592 L69.955197,174.264292 L70.2764969,174.535192 L70.5347969,174.724192 C70.7237969,174.862792 70.9064969,174.988792 71.0954969,175.114792 L71.4293969,175.322692 L71.7128969,175.486492 L72.1790969,175.738492 L72.3995968,175.851892 L72.9413968,176.110192 C73.5087983,176.368851 74.08917,176.598056 74.6801967,176.796892 C75.0959967,176.941792 75.7007967,177.137092 76.5071967,177.344992 L76.6646967,177.389092 L76.7780967,177.389092 C77.4962966,177.578092 78.0002966,177.678892 78.0380966,177.691492 L78.4349966,177.767092 L78.5042966,177.767092 L79.2476966,177.911992 L79.8776965,178.019092 L80.1548965,178.063192 L80.5769965,178.132492 C80.8667965,178.176592 81.2069965,178.214392 81.4967965,178.252192 C82.7252964,178.409692 83.7458964,178.491592 84.5018963,178.529392 L84.5018963,178.529392 L85.8437963,178.586092 C86.2469962,178.586092 86.7887962,178.586092 87.1919962,178.617592 C87.1919962,178.617592 88.2251962,178.617592 89.7119961,178.573492 L90.4742961,178.535692 L90.5372961,178.535692 C91.167296,178.497892 91.860296,178.453792 92.540696,178.378192 L92.540696,178.378192 L92.786396,178.346692 L92.912396,178.346692 C94.4684959,178.182892 95.5520958,178.000192 96.4718958,177.817492 L96.5663958,177.817492 L97.1585958,177.691492 L97.3349958,177.653692 L97.5932958,177.596992 C97.9208957,177.527692 98.3618957,177.414292 98.8532957,177.281992 L98.9414957,177.281992 L99.6344957,177.080392 L99.7667957,177.036292 C100.340096,176.859892 100.881896,176.677192 101.240996,176.525992 C101.757596,176.311792 102.450596,176.028292 102.941996,175.769992 C103.067996,175.700692 103.307396,175.568392 103.571995,175.410892 L103.685395,175.354192 L103.823995,175.259692 C103.968895,175.177792 104.107495,175.089592 104.246095,174.995092 L104.296495,174.957292 C104.428795,174.869092 104.561095,174.774592 104.674495,174.686392 L104.731195,174.635992 L105.121795,174.314692 L105.209995,174.232792 C105.342295,174.113092 105.474595,173.993392 105.606895,173.861092 C105.739195,173.728792 105.833695,173.621692 105.947095,173.495692 L106.148695,173.262592 C106.262095,173.117692 106.369195,172.960192 106.476295,172.802692 C106.583395,172.645192 106.621195,172.588492 106.690495,172.468792 L106.747195,172.386892 C106.863582,172.183774 106.966698,171.973334 107.055895,171.756893 L107.099995,171.662393 C107.219292,171.36023 107.312042,171.048251 107.377195,170.729993 L107.377195,170.729993 C107.438594,170.373913 107.474386,170.013891 107.484295,169.652693 C107.477995,169.432193 107.459095,169.325093 107.452795,169.205393 Z" id="Path" fill="url(#linearGradient-29)"></path>
            <path d="M73.0799968,164.858393 C73.0799968,166.067993 74.4155968,167.277593 77.1119966,168.222593 C82.6370964,170.156693 91.772096,170.225993 97.5176958,168.373793 C100.466096,167.422493 101.927696,166.156193 101.927696,164.883593 L101.927696,167.617793 C101.927696,168.877793 100.440896,170.137793 97.5176958,171.107993 C91.772096,172.953892 82.6370964,172.884592 77.1056966,170.950493 C74.4155968,170.011793 73.0799968,168.795893 73.0799968,167.592593 L73.0799968,164.858393 Z" id="Path" fill="url(#linearGradient-30)"></path>
            <path d="M107.452795,160.366493 C107.452795,160.397993 107.452795,160.429493 107.452795,160.460993 C107.452795,160.278293 107.452795,160.095593 107.402395,159.906593 C107.399428,159.883588 107.399428,159.860298 107.402395,159.837293 C107.368691,159.624201 107.320275,159.413698 107.257495,159.207293 C107.257495,159.169493 107.257495,159.125393 107.225995,159.081293 C107.169295,158.911193 107.099995,158.722193 107.018095,158.520593 C107.016421,158.497523 107.016421,158.474363 107.018095,158.451293 L107.018095,158.407193 C106.855466,158.049253 106.659289,157.707526 106.432195,157.386593 L106.432195,157.386593 C106.240505,157.111944 106.03,156.850918 105.802195,156.605393 L105.770695,156.605393 L105.650995,156.479393 C105.066908,155.906909 104.415318,155.407639 103.710595,154.992593 C102.713204,154.407612 101.657486,153.928316 100.560596,153.562493 C99.0143657,153.032482 97.4279284,152.627972 95.8166958,152.352893 C93.6552251,151.978441 91.4699691,151.757389 89.2772961,151.691393 C87.027517,151.595884 84.7739556,151.642175 82.5299964,151.829993 C80.8348897,151.993941 79.151634,152.263262 77.4899966,152.636393 C76.0225974,152.959916 74.5868507,153.413199 73.1996968,153.990893 C72.0616312,154.4609 70.999969,155.097897 70.049697,155.880893 C69.2647034,156.505653 68.6206272,157.289279 68.159697,158.180393 C67.7784212,158.950586 67.5759867,159.796935 67.5674971,160.656293 C67.5674971,160.838993 67.5674971,161.084693 67.6241971,161.374493 C67.6241971,161.481593 67.6556971,161.576093 67.6745971,161.676893 C67.6934971,161.777693 67.7249971,161.903693 67.7564971,162.023393 C67.787997,162.143093 67.800597,162.224993 67.832097,162.313193 C67.863597,162.401393 67.888797,162.464393 67.913997,162.539993 C68.1123647,163.090753 68.3881314,163.610467 68.732997,164.083493 L68.795997,164.165393 C68.947188,164.367151 69.1091219,164.56063 69.281097,164.744993 L69.281097,164.744993 L69.312597,164.776493 L69.425997,164.902493 C69.470097,164.946593 69.526797,164.984393 69.570897,165.034793 L69.911097,165.343493 L70.2323969,165.614393 L70.4906969,165.803393 C70.6796969,165.941993 70.8623969,166.067993 71.0513969,166.193993 L71.3852969,166.401893 L71.6687969,166.565693 L72.1349969,166.817693 L72.3554969,166.931093 L72.8972968,167.189393 C73.4646983,167.448051 74.04507,167.677256 74.6360968,167.876093 C75.0518967,168.020993 75.6566967,168.216293 76.4630967,168.424193 L76.6205967,168.468293 L76.7339967,168.468293 C77.4521966,168.650993 77.9561966,168.758093 77.9939966,168.764393 L78.3908966,168.839993 L78.4601966,168.839993 L79.2035966,168.984893 L79.8335965,169.091993 L80.1107965,169.136093 L80.5328965,169.205393 L81.4526965,169.331393 C82.6811964,169.482593 83.7017964,169.564493 84.4577963,169.602293 L84.4577963,169.602293 L85.7996963,169.665293 L87.1478962,169.665293 C87.1478962,169.665293 88.1810962,169.665293 89.6678961,169.621193 L90.4301961,169.583393 L90.4931961,169.583393 C91.123196,169.545593 91.816196,169.501493 92.496596,169.425893 L92.496596,169.425893 L92.742296,169.425893 L92.868296,169.425893 C94.4243959,169.262093 95.5079958,169.079393 96.4277958,168.896693 L96.5222958,168.896693 L97.1144958,168.770693 L97.2908958,168.732893 L97.5491958,168.676193 C97.8767957,168.606893 98.3177957,168.493493 98.8091957,168.361193 L98.8973957,168.361193 L99.5903957,168.159593 L99.7226957,168.115493 C100.295996,167.939093 100.837796,167.762693 101.196896,167.611493 C101.713496,167.397293 102.406496,167.113793 102.897896,166.849193 C103.023896,166.779893 103.263296,166.647593 103.527895,166.490093 L103.641295,166.433393 L103.779895,166.345193 L104.201995,166.074293 L104.252395,166.036493 C104.384695,165.948293 104.516995,165.853793 104.630395,165.765593 L104.687095,165.721493 L105.077695,165.393893 L105.165895,165.311993 L105.562795,164.946593 C105.676195,164.833193 105.789595,164.700893 105.902995,164.574893 L106.104595,164.341793 C106.217995,164.203193 106.325095,164.039393 106.432195,163.881893 C106.539295,163.724393 106.577095,163.667693 106.646395,163.547993 L106.703095,163.466093 C106.819482,163.262974 106.922598,163.052534 107.011795,162.836093 L107.055895,162.741593 C107.175192,162.439431 107.267942,162.127452 107.333095,161.809193 L107.333095,161.809193 C107.394494,161.453114 107.430286,161.093091 107.440195,160.731893 C107.477995,160.593293 107.459095,160.486193 107.452795,160.366493 Z" id="Path" fill="url(#linearGradient-31)"></path>
            <path d="M73.0799968,156.019493 C73.0799968,157.229093 74.4155968,158.438693 77.1119966,159.383693 C82.6370964,161.317793 91.772096,161.387093 97.5176958,159.534893 C100.466096,158.589893 101.927696,157.317293 101.927696,156.044693 L101.927696,158.759993 C101.927696,160.019993 100.440896,161.279993 97.5176958,162.250193 C91.772096,164.096093 82.6370964,164.033093 77.1056966,162.098993 C74.4155968,161.153993 73.0799968,159.944393 73.0799968,158.734793 L73.0799968,156.019493 Z" id="Path" fill="url(#linearGradient-32)"></path>
            <path d="M67.5737971,140.666394 C67.5737971,140.426994 67.5737971,140.181294 67.6367971,139.922994 C67.6337322,139.876845 67.6337322,139.830543 67.6367971,139.784394 C67.6720258,139.5716 67.7204187,139.361196 67.7816971,139.154394 C67.853607,138.9052 67.9420018,138.661062 68.046297,138.423594 L68.046297,138.392094 C68.1276224,138.211242 68.2180378,138.034617 68.317197,137.862894 L68.317197,137.862894 C68.4236222,137.68131 68.5414588,137.506659 68.669997,137.339994 L68.669997,137.302194 C68.8415552,137.053736 69.0333046,136.819843 69.243297,136.602894 L69.243297,136.602894 L69.306297,136.533594 L69.337797,136.533594 L69.457497,136.401294 C69.8271331,136.035693 70.2276176,135.702658 70.6544969,135.405894 L70.6922969,135.405894 C70.9505969,135.223194 71.1962969,135.059394 71.3726969,134.958594 L71.3726969,134.958594 L71.3726969,134.958594 L71.8577969,134.693994 L72.1916969,134.511294 L72.7145968,134.252994 L72.7523968,134.252994 C72.9539968,134.158494 73.1492968,134.070294 73.3823968,133.988394 L73.5587968,133.919094 L73.7540968,133.843494 L74.5352968,133.541094 L75.7952967,133.144194 L76.3496967,132.986694 C77.3093711,132.72199 78.2832194,132.511655 79.2665966,132.356694 L79.4114965,132.356694 L79.9280965,132.274794 L80.8730965,132.129894 L81.5849964,132.041694 C81.9125964,131.997594 82.2590964,131.959794 82.6370964,131.921994 L83.3111964,131.865294 L83.8781963,131.821194 L84.6341963,131.770794 L85.8122963,131.720394 C86.2658962,131.720394 86.7068962,131.720394 87.1415962,131.720394 L88.0613962,131.720394 C89.2205961,131.720394 90.6695961,131.783394 92.269796,131.934594 L92.509196,131.934594 C93.4667959,132.016494 94.3991959,132.148794 95.1992959,132.281094 C95.9993958,132.413394 96.6545958,132.539394 97.3916958,132.703194 L97.5491958,132.734694 C97.8011957,132.791394 98.7713957,133.011894 99.9368957,133.364694 L99.9368957,133.364694 C100.340096,133.490694 100.762196,133.635594 101.196896,133.805694 L101.196896,133.805694 L101.826896,134.051394 L102.204896,134.227794 L102.337196,134.284494 C102.658496,134.435694 102.935696,134.580594 103.187696,134.719194 L103.187696,134.719194 C103.826009,135.06316 104.429438,135.468259 104.989495,135.928794 C105.364328,136.236938 105.708252,136.580862 106.016395,136.955694 L106.047895,136.993494 C106.148695,137.119494 106.243195,137.251794 106.343995,137.390394 L106.451095,137.547894 L106.595995,137.774694 C106.703889,137.949022 106.800681,138.129981 106.885795,138.316494 C107.108149,138.785835 107.262983,139.284274 107.345695,139.796994 C107.345695,139.796994 107.345695,139.834794 107.345695,139.847394 C107.38533,140.131536 107.410562,140.417502 107.421295,140.704194 L107.421295,148.616994 C107.421295,150.059693 107.421295,151.458293 107.421295,152.711993 C107.39925,154.253011 106.780471,155.725435 105.695095,156.819593 C103.408195,159.263993 99.2438957,160.410593 96.9695958,160.876793 C94.8351812,161.322317 92.670271,161.606619 90.4931961,161.727293 C87.8115033,161.878943 85.1221972,161.8284 82.4480964,161.576093 C80.6588965,161.387093 75.2219967,160.807493 71.2970969,158.489093 C69.892197,157.657493 67.5170971,155.805293 67.5170971,152.749793 L67.5170971,152.749793 L67.5737971,140.666394 Z" id="Path" fill="url(#linearGradient-33)"></path>
            <circle id="Oval" fill="url(#linearGradient-34)" cx="87.5321962" cy="95.1677959" r="60.2972974"></circle>
            <circle id="Oval" fill="url(#radialGradient-35)" cx="87.5321962" cy="95.1677959" r="54.2051976"></circle>
            <path d="M105.682495,101.700896 C102.98049,100.364021 99.8230827,100.301658 97.0703958,101.530796 C96.2581364,101.905666 95.4979013,102.384254 94.8086959,102.954596 C90.5847345,99.4929091 84.5048579,99.4929091 80.2808965,102.954596 C79.5885076,102.385497 78.8263578,101.907036 78.0128966,101.530796 C75.2612959,100.296314 72.1015055,100.358331 69.400797,101.700896 C65.2805972,103.590895 62.7731973,106.980295 62.5274973,111.031195 C62.2565973,115.541995 64.9151972,120.077995 69.457497,122.862595 C71.1718349,123.86972 72.9477301,124.768189 74.7746967,125.552695 C79.3547965,127.612794 82.3850964,128.967294 82.3850964,135.204294 L82.3850964,149.120994 C83.0150964,149.183994 83.6954964,149.234394 84.3569963,149.272194 L84.3569963,135.204294 C84.3569963,127.694694 80.2934965,125.867695 75.5873967,123.750895 C73.8325319,123.005499 72.1279428,122.146891 70.4843969,121.180495 C66.5531971,118.773895 64.2473972,114.930895 64.4804972,111.150895 C64.6820972,107.849695 66.7610971,105.058795 70.1945969,103.496395 C72.376774,102.400931 74.933929,102.336251 77.1686966,103.319996 C77.7579637,103.596167 78.3138482,103.938575 78.8255966,104.340595 C77.3260853,106.044006 76.2968066,108.109078 75.8393967,110.331895 C75.1715967,113.759095 76.1921967,116.474395 78.5168966,117.425695 C80.2871965,118.150195 81.9062964,117.967495 83.0843964,116.915395 C84.7601963,115.403395 85.1570963,112.410895 84.1427963,108.901795 C83.6569201,107.2229 82.8169686,105.667593 81.6794964,104.340595 C85.1142972,101.661302 89.9311952,101.661302 93.3659959,104.340595 C92.2285238,105.667593 91.3885723,107.2229 90.902696,108.901795 C89.8883961,112.410895 90.2726961,115.403395 91.967396,116.915395 C93.1391959,117.967495 94.7582959,118.175395 96.5285958,117.425695 C98.8532957,116.474395 99.8801957,113.759095 99.2060957,110.331895 C98.7511927,108.108212 97.7216072,106.042525 96.2198958,104.340595 C96.7316442,103.938575 97.2875287,103.596167 97.8767957,103.319996 C100.111563,102.336251 102.668718,102.400931 104.850895,103.496395 C108.284395,105.058795 110.369695,107.849695 110.564995,111.150895 C110.798095,114.930895 108.498595,118.773895 104.561095,121.180495 C102.919001,122.14557 101.216594,123.004138 99.4643957,123.750895 C94.7582959,125.867695 90.6947961,127.694694 90.6947961,135.204294 L90.6947961,149.272194 C91.324796,149.234394 92.011496,149.183994 92.666696,149.120994 L92.666696,135.204294 C92.666696,128.967294 95.6906958,127.612794 100.270796,125.552695 C102.098366,124.769481 103.874341,123.870972 105.587995,122.862595 C110.149195,120.077995 112.807795,115.541995 112.517995,111.031195 C112.310095,106.980295 109.802695,103.578295 105.682495,101.700896 Z M82.2653964,109.449895 C83.0402964,112.127395 82.8512964,114.489895 81.7802964,115.447495 C81.0368965,116.115295 80.0099965,115.901095 79.2602966,115.598695 C77.5844966,114.918295 77.4143966,112.536895 77.7734966,110.709895 C78.1469044,108.858967 78.9958586,107.137175 80.2367965,105.713995 C81.1686696,106.802453 81.8599758,108.075573 82.2653964,109.449895 L82.2653964,109.449895 Z M97.2908958,110.709895 C97.6499958,112.536895 97.4735958,114.918295 95.7977958,115.598695 C95.0732959,115.901095 94.0463959,116.115295 93.2777959,115.447495 C92.206796,114.483595 92.017796,112.127395 92.792696,109.449895 C93.1928395,108.077294 93.8776026,106.804365 94.8023959,105.713995 C96.0500124,107.136048 96.9074329,108.857401 97.2908958,110.709895 L97.2908958,110.709895 Z" id="Shape" fill="url(#linearGradient-36)"></path>
            <path d="M32.2559986,128.690094 L32.2559986,128.690094 L31.4999986,128.658594 C31.0987187,128.638208 30.7891623,128.297696 30.8069987,127.896294 C30.8339013,127.49813 31.1703798,127.192241 31.5692986,127.203294 L32.2937986,127.234794 C32.6695218,127.269793 32.9568186,127.585095 32.9568186,127.962444 C32.9568186,128.339794 32.6695218,128.655096 32.2937986,128.690094 L32.2559986,128.690094 Z M36.6659984,128.633395 C36.2778537,128.633761 35.9583741,128.328172 35.9414984,127.940394 C35.9294768,127.747752 35.9955023,127.558379 36.1246896,127.414969 C36.2538768,127.271559 36.4353508,127.186185 36.6281984,127.178094 L37.3526984,127.133994 C37.6237535,127.098276 37.8920769,127.21684 38.0481659,127.441301 C38.2042548,127.665763 38.2220011,127.958577 38.0941625,128.200246 C37.9663239,128.441915 37.7142833,128.592017 37.4408984,128.589294 L36.7037984,128.633395 L36.6659984,128.633395 Z M41.7752982,128.198694 C41.5164593,128.213324 41.2694772,128.088754 41.1273878,127.871908 C40.9852984,127.655062 40.9696883,127.378884 41.0864378,127.147408 C41.2031873,126.915932 41.4345593,126.764325 41.6933982,126.749694 L42.4178982,126.661494 C42.6756117,126.629984 42.9305596,126.738355 43.0867055,126.945786 C43.2428515,127.153217 43.2764731,127.428194 43.1749055,127.667136 C43.073338,127.906078 42.8520117,128.072684 42.5942981,128.104194 L41.8634982,128.192394 L41.7752982,128.198694 Z M27.1718988,128.167194 C27.1259035,128.173344 27.0792942,128.173344 27.0332988,128.167194 C26.7812988,128.123094 26.5292988,128.066394 26.2898989,128.009694 C25.8984671,127.91923 25.6544847,127.528576 25.7449489,127.137144 C25.8354132,126.745713 26.2260671,126.50173 26.6174988,126.592194 L27.3104988,126.737094 C27.6819921,126.806962 27.9388965,127.148599 27.9029036,127.524888 C27.8669108,127.901177 27.5499006,128.187918 27.1718988,128.186103 L27.1718988,128.167194 Z M46.859398,127.480494 C46.4717018,127.495904 46.1406876,127.203145 46.1086055,126.816472 C46.0765234,126.429798 46.3547635,126.08649 46.739698,126.037795 L47.4578979,125.918095 C47.8543373,125.849454 48.2316908,126.114165 48.3020979,126.510294 C48.3326642,126.706112 48.2830871,126.905989 48.1645534,127.064824 C48.0460198,127.223659 47.8685172,127.328069 47.6720979,127.354494 L46.947598,127.474194 L46.859398,127.480494 Z M51.8993977,126.554394 C51.5315055,126.544755 51.2281761,126.263053 51.1913986,125.896877 C51.1546211,125.530701 51.3958707,125.194304 51.7544977,125.111695 L52.4663977,124.966795 C52.7207351,124.913901 52.9839707,125.000713 53.1569462,125.194529 C53.3299217,125.388346 53.386358,125.65972 53.3049962,125.906429 C53.2236343,126.153139 53.0168351,126.337701 52.7624977,126.390594 L52.0442977,126.541794 L51.8993977,126.554394 Z M22.390199,126.377994 C22.2468655,126.379224 22.1064428,126.337536 21.986999,126.258295 C21.7686351,126.107757 21.5583444,125.945834 21.3569991,125.773195 C21.0780368,125.508109 21.0524434,125.07211 21.2984752,124.776207 C21.544507,124.480304 21.9778539,124.425896 22.289399,124.651795 C22.4580907,124.794072 22.6347791,124.926588 22.818599,125.048695 C23.087382,125.225893 23.206995,125.5592 23.1122153,125.86687 C23.0174356,126.174539 22.7310011,126.38276 22.409099,126.377994 L22.390199,126.377994 Z M56.9078975,125.451895 C56.5460046,125.439568 56.2477078,125.16409 56.2066813,124.804318 C56.1656548,124.444547 56.3942711,124.108982 56.7440975,124.015495 L57.4496975,123.845395 C57.7088784,123.766176 57.9906159,123.836896 58.1816602,124.029126 C58.3727045,124.221356 58.4416793,124.503525 58.3608589,124.762211 C58.2800385,125.020897 58.0626964,125.213613 57.7961975,125.262895 L57.0779975,125.432995 C57.020106,125.445972 56.9609244,125.452313 56.9015975,125.451895 L56.9078975,125.451895 Z M61.8848973,124.191895 C61.5550339,124.193318 61.2666141,123.969857 61.1855973,123.650095 C61.0814085,123.260428 61.3126237,122.860031 61.7021973,122.755495 L62.4077973,122.566495 C62.7923374,122.475708 63.1794017,122.706999 63.2816314,123.088657 C63.3838611,123.470314 63.1642316,123.864113 62.7857973,123.977695 L62.0738973,124.166695 C62.0102644,124.185953 61.9448205,124.198619 61.8785973,124.204495 L61.8848973,124.191895 Z M66.8303971,122.812195 C66.4647753,122.818546 66.1517338,122.55144 66.1004678,122.189375 C66.0492019,121.827309 66.2757841,121.483797 66.6287971,121.388395 L67.3280971,121.180495 C67.5848316,121.083446 67.8742962,121.138431 68.0775636,121.322858 C68.280831,121.507285 68.3636238,121.790054 68.2919263,122.054989 C68.2202288,122.319924 68.0061316,122.522348 67.7375971,122.579095 L67.0319971,122.786995 C66.9661889,122.818147 66.8961283,122.839378 66.8240971,122.849995 L66.8303971,122.812195 Z M19.9079991,122.119195 C19.515135,122.119328 19.1937478,121.806325 19.1834992,121.413595 L19.1834992,121.224595 C19.1834992,121.016695 19.1834992,120.808795 19.1834992,120.594595 C19.2071323,120.335756 19.3670591,120.109187 19.6030367,120.000234 C19.8390144,119.891282 20.1151922,119.916498 20.3275367,120.066384 C20.5398812,120.216271 20.6561322,120.468056 20.6324991,120.726895 C20.6324991,120.896995 20.6324991,121.060795 20.6324991,121.224595 L20.6324991,121.369495 C20.6431145,121.770771 20.3280814,122.105493 19.9268991,122.119195 L19.9079991,122.119195 Z M71.7380969,121.325395 C71.3830758,121.317043 71.0854457,121.054684 71.0326152,120.703517 C70.9797847,120.352349 71.1870477,120.014033 71.5238969,119.901595 L72.2168969,119.681095 C72.4713289,119.574532 72.7640844,119.620312 72.9738376,119.799463 C73.1835908,119.978613 73.2745972,120.260605 73.2091414,120.528573 C73.1436857,120.796541 72.9329221,121.004821 72.6641968,121.067095 L71.9585969,121.293895 C71.8853753,121.31892 71.8090607,121.333759 71.7317969,121.337995 L71.7380969,121.325395 Z M76.6205967,119.731495 C76.2572984,119.74303 75.9416866,119.483585 75.8827063,119.124921 C75.8237259,118.766257 76.0396358,118.419406 76.3874967,118.313995 L77.0804966,118.080895 C77.2625562,118.017104 77.4626243,118.029236 77.6356413,118.11456 C77.8086583,118.199883 77.9400761,118.351223 78.0002966,118.534495 C78.0642666,118.717409 78.0522959,118.918327 77.9670594,119.092351 C77.8818229,119.266376 77.7304251,119.399002 77.5466966,119.460595 L76.8599967,119.699995 C76.7809899,119.72777 76.698031,119.74266 76.6142967,119.744095 L76.6205967,119.731495 Z M81.4652965,118.043095 C81.1074342,118.050611 80.7977168,117.795662 80.7363203,117.443026 C80.6749238,117.09039 80.8802516,116.745767 81.2195965,116.631895 L81.9062964,116.379895 C82.2811466,116.257936 82.6851726,116.455245 82.8194751,116.825852 C82.9537776,117.196459 82.7699535,117.606796 82.4039964,117.753295 L81.7109964,117.998995 C81.6314366,118.033962 81.545866,118.053215 81.4589965,118.055695 L81.4652965,118.043095 Z M21.3695991,117.280795 C21.2438325,117.280178 21.1202782,117.247664 21.0104991,117.186295 C20.6620795,116.985632 20.5387495,116.542765 20.7332991,116.190895 C20.8592991,115.976695 20.9852991,115.756195 21.1238991,115.560895 C21.3361421,115.212956 21.7902596,115.102952 22.138199,115.315195 C22.4861384,115.527438 22.596142,115.981556 22.383899,116.329495 C22.257899,116.531095 22.144499,116.732695 22.031099,116.959495 C21.8855011,117.183639 21.6299733,117.311403 21.3632991,117.293395 L21.3695991,117.280795 Z M86.2595962,116.260195 C85.9051564,116.268115 85.5970475,116.018374 85.5314291,115.669971 C85.4658106,115.321568 85.6619594,114.976855 85.9949963,114.855295 L86.6816962,114.590695 C87.0483593,114.479357 87.4387545,114.670142 87.5762023,115.027837 C87.7136501,115.385533 87.5514676,115.788651 87.2045962,115.951495 L86.5178962,116.216095 C86.4396762,116.248392 86.3566592,116.26755 86.2721962,116.272795 L86.2595962,116.260195 Z M91.034996,114.370195 C90.6889641,114.364922 90.3940736,114.11766 90.3285492,113.777848 C90.2630248,113.438035 90.4448342,113.098853 90.764096,112.965295 L91.444496,112.688095 C91.8111876,112.566962 92.2088321,112.752041 92.3522562,113.110601 C92.4956803,113.469161 92.3353714,113.877421 91.986296,114.042595 L91.305896,114.313495 C91.2272056,114.362412 91.1392756,114.394582 91.047596,114.407995 L91.034996,114.370195 Z M24.3557989,113.110195 C24.178942,113.111454 24.0080614,113.046249 23.876999,112.927495 C23.7308554,112.800994 23.6413196,112.62134 23.6283052,112.42849 C23.6152907,112.23564 23.6798769,112.045585 23.807699,111.900595 L24.2990989,111.346195 C24.5670123,111.046967 25.026771,111.021582 25.3259989,111.289495 C25.6252268,111.557408 25.6506122,112.017167 25.3826989,112.316395 L24.9038989,112.858195 C24.7766248,113.028755 24.5807983,113.134732 24.3683989,113.147995 L24.3557989,113.110195 Z M95.7788958,112.417195 C95.4362105,112.411064 95.1438249,112.167603 95.0757353,111.831695 C95.0076457,111.495786 95.1821474,111.157686 95.4953958,111.018595 L96.1694958,110.728795 C96.5338869,110.597073 96.9377454,110.772643 97.0899727,111.128955 C97.2421999,111.485267 97.0898764,111.898455 96.7427958,112.070695 L96.0623958,112.360495 C95.9789557,112.408998 95.8870001,112.441076 95.7914958,112.454995 L95.7788958,112.417195 Z M100.491296,110.375995 C100.14349,110.383451 99.8394831,110.142646 99.7671169,109.80237 C99.6947506,109.462095 99.8744562,109.118419 100.195196,108.983695 L100.862996,108.687595 C101.230072,108.524064 101.660214,108.689069 101.823746,109.056145 C101.987277,109.423221 101.822272,109.853364 101.455196,110.016895 L100.787396,110.319295 C100.699669,110.36832 100.603492,110.400379 100.503896,110.413795 L100.491296,110.375995 Z M27.9467988,109.475095 C27.745692,109.474211 27.554001,109.389776 27.4175988,109.241995 C27.1358341,108.955225 27.1358341,108.495565 27.4175988,108.208795 L27.9656988,107.711095 C28.1074458,107.58019 28.2955541,107.511233 28.4883232,107.519512 C28.6810923,107.52779 28.8625963,107.61262 28.9925987,107.755195 C29.2624895,108.05386 29.2428573,108.513815 28.9484987,108.788395 L28.4129988,109.279795 C28.284891,109.396898 28.1201208,109.465923 27.9467988,109.475095 L27.9467988,109.475095 Z M105.209995,108.296995 C104.868058,108.296098 104.572456,108.05822 104.498439,107.724389 C104.424422,107.390558 104.591781,107.050032 104.901295,106.904695 L105.531295,106.595995 C105.767627,106.483457 106.046044,106.505548 106.261671,106.653947 C106.477298,106.802347 106.597375,107.054509 106.576671,107.315447 C106.555967,107.576385 106.397627,107.806457 106.161295,107.918995 L105.499795,108.227695 C105.408536,108.269175 105.310147,108.292703 105.209995,108.296995 L105.209995,108.296995 Z M31.8275986,106.110895 C31.607442,106.110611 31.3991454,106.011091 31.2605986,105.839995 C31.1391681,105.690571 31.0822115,105.498957 31.1023063,105.307465 C31.1224011,105.115973 31.2178943,104.940357 31.3676986,104.819395 L31.9409986,104.353195 C32.0912105,104.232475 32.2833279,104.176574 32.4748586,104.197855 C32.6663894,104.219136 32.8415499,104.315847 32.9615986,104.466595 C33.2137066,104.781524 33.1629486,105.241165 32.8481986,105.493495 L32.2811986,105.947095 C32.1544864,106.054242 31.9935332,106.112364 31.8275986,106.110895 Z M109.808995,106.110895 C109.538645,106.103897 109.295147,105.945623 109.178995,105.701395 C109.094335,105.528506 109.081962,105.329031 109.144607,105.147004 C109.207253,104.964977 109.339766,104.815365 109.512895,104.731195 L110.174395,104.409895 C110.531916,104.250676 110.95126,104.404174 111.121504,104.756579 C111.291748,105.108983 111.151344,105.532892 110.804395,105.713995 L110.142895,106.041595 C110.036664,106.082554 109.922217,106.097669 109.808995,106.085695 L109.808995,106.110895 Z M114.401695,103.817695 C114.065139,103.816662 113.772808,103.585911 113.693644,103.258797 C113.614479,102.931683 113.768954,102.592801 114.067795,102.437996 L114.697795,102.104096 C114.931288,101.967791 115.220957,101.971535 115.450849,102.113829 C115.68074,102.256123 115.813288,102.513715 115.795432,102.783491 C115.777576,103.053266 115.612235,103.291142 115.365595,103.401895 L114.735595,103.735795 C114.631016,103.783074 114.516018,103.802602 114.401695,103.792495 L114.401695,103.817695 Z M118.943995,101.423696 C118.68169,101.41879 118.441761,101.274833 118.313995,101.045696 C118.220564,100.875577 118.199296,100.675085 118.254957,100.489151 C118.310619,100.303218 118.438556,100.147392 118.610095,100.056596 L119.240095,99.7100957 C119.408491,99.6164531 119.607452,99.5944025 119.792267,99.6488991 C119.977081,99.7033957 120.132247,99.8298683 120.222895,99.9998956 C120.414819,100.353181 120.285327,100.795144 119.933095,100.988996 L119.303095,101.335496 C119.194736,101.400311 119.070222,101.433077 118.943995,101.429996 L118.943995,101.423696 Z M123.429595,98.9351957 C123.170228,98.9316486 122.931464,98.793166 122.799595,98.5697957 C122.601366,98.2183652 122.725453,97.7727812 123.076795,97.5743958 L123.706795,97.2152958 C124.05031,97.052398 124.461344,97.1800886 124.652088,97.5089577 C124.842832,97.8378268 124.749566,98.2580117 124.437595,98.4752957 L123.807595,98.8406957 C123.690033,98.8971046 123.559521,98.9210319 123.429595,98.9099957 L123.429595,98.9351957 Z" id="Shape" fill="#FF7A63"></path>
            <polygon id="Path" fill="#FEF2E5" points="122.106595 97.1522958 122.774395 101.077196 138.858294 87.1856962"></polygon>
            <polygon id="Path" fill="#E8B68E" points="123.574495 98.5571957 122.774395 101.077196 138.858294 87.1856962"></polygon>
            <polygon id="Path" fill="#FFFFFF" points="123.574495 98.5571957 127.896294 102.715196 138.858294 87.1856962"></polygon>
            <polygon id="Path" fill="#FFFFFF" points="122.106595 97.1522958 138.858294 87.1856962 118.061995 93.2651959"></polygon>
        </g>
    </g>
</svg>