<?xml version="1.0" encoding="UTF-8"?>
<svg width="160px" height="140px" viewBox="0 0 160 140" version="1.1" xmlns="http://www.w3.org/2000/svg" xmlns:xlink="http://www.w3.org/1999/xlink">
    <!-- Generator: Sketch 56.3 (81716) - https://sketch.com -->
    <title>cloud</title>
    <desc>Created with Sketch.</desc>
    <g id="cloud" stroke="none" stroke-width="1" fill="none" fill-rule="evenodd">
        <g id="Group-56" transform="translate(25.000000, 12.000000)" fill-rule="nonzero">
            <g id="Group-58">
                <g id="Group-57" transform="translate(3.118400, 3.088800)">
                    <g id="iconfinder_45_4233376" transform="translate(27.561601, 64.231204)">
                        <g id="Group" transform="translate(18.160001, 34.320002)">
                            <circle id="Oval" fill="#1EB975" cx="5.60000041" cy="5.67600035" r="4.22400026"></circle>
                            <path d="M5.60000041,11.2200007 C2.56400022,11.2200007 0.0560000649,8.71200054 0.0560000649,5.67600035 C0.0560000649,2.64000016 2.56400022,0.132000008 5.60000041,0.132000008 C8.63600059,0.132000008 11.1440007,2.64000016 11.1440007,5.67600035 C11.1440007,8.71200054 8.63600059,11.2200007 5.60000041,11.2200007 Z M5.60000041,2.77200017 C4.01600031,2.77200017 2.69600023,4.09200025 2.69600023,5.67600035 C2.69600023,7.26000045 4.01600031,8.58000053 5.60000041,8.58000053 C7.1840005,8.58000053 8.50400058,7.26000045 8.50400058,5.67600035 C8.50400058,4.09200025 7.1840005,2.77200017 5.60000041,2.77200017 Z" id="Shape" fill="#000000"></path>
                        </g>
                        <rect id="Rectangle" fill="#000000" x="22.4400014" y="13.9920009" width="2.64000016" height="21.7800013"></rect>
                        <g id="Group" transform="translate(35.640002, 25.080002)">
                            <circle id="Oval" fill="#F86868" cx="5.80800036" cy="5.67600035" r="4.22400026"></circle>
                            <path d="M5.80800036,11.2200007 C2.77200017,11.2200007 0.264000016,8.71200054 0.264000016,5.67600035 C0.264000016,2.64000016 2.77200017,0.132000008 5.80800036,0.132000008 C8.84400054,0.132000008 11.3520007,2.64000016 11.3520007,5.67600035 C11.3520007,8.71200054 8.97600055,11.2200007 5.80800036,11.2200007 Z M5.80800036,2.77200017 C4.22400026,2.77200017 2.90400018,4.09200025 2.90400018,5.67600035 C2.90400018,7.26000045 4.22400026,8.58000053 5.80800036,8.58000053 C7.39200045,8.58000053 8.71200054,7.26000045 8.71200054,5.67600035 C8.71200054,4.09200025 7.52400046,2.77200017 5.80800036,2.77200017 Z" id="Shape" fill="#000000"></path>
                        </g>
                        <polygon id="Path" fill="#000000" points="37.2240023 32.076002 29.3040018 32.076002 29.3040018 13.9920009 31.944002 13.9920009 31.944002 29.4360018 37.2240023 29.4360018"></polygon>
                        <g id="Group" transform="translate(0.000000, 25.080002)">
                            <circle id="Oval" fill="#F9AE5B" cx="6.07200037" cy="5.67600035" r="4.22400026"></circle>
                            <path d="M6.07200037,11.2200007 C3.03600019,11.2200007 0.528000032,8.71200054 0.528000032,5.67600035 C0.528000032,2.64000016 3.03600019,0.132000008 6.07200037,0.132000008 C9.10800056,0.132000008 11.6160007,2.64000016 11.6160007,5.67600035 C11.6160007,8.71200054 9.10800056,11.2200007 6.07200037,11.2200007 Z M6.07200037,2.77200017 C4.48800028,2.77200017 3.16800019,4.09200025 3.16800019,5.67600035 C3.16800019,7.26000045 4.48800028,8.58000053 6.07200037,8.58000053 C7.65600047,8.58000053 8.97600055,7.26000045 8.97600055,5.67600035 C8.97600055,4.09200025 7.65600047,2.77200017 6.07200037,2.77200017 Z" id="Shape" fill="#000000"></path>
                        </g>
                        <polygon id="Path" fill="#000000" points="18.2160011 32.076002 10.2960006 32.076002 10.2960006 29.4360018 15.576001 29.4360018 15.576001 13.9920009 18.2160011 13.9920009"></polygon>
                        <rect id="Rectangle" fill="#000000" x="22.4400014" y="9.37200058" width="2.64000016" height="2.64000016"></rect>
                        <rect id="Rectangle" fill="#000000" x="22.4400014" y="4.8840003" width="2.64000016" height="2.64000016"></rect>
                        <rect id="Rectangle" fill="#000000" x="22.4400014" y="0.264000016" width="2.64000016" height="2.64000016"></rect>
                        <rect id="Rectangle" fill="#000000" x="29.3040018" y="9.37200058" width="2.64000016" height="2.64000016"></rect>
                        <rect id="Rectangle" fill="#000000" x="29.3040018" y="4.8840003" width="2.64000016" height="2.64000016"></rect>
                        <rect id="Rectangle" fill="#000000" x="15.576001" y="9.37200058" width="2.64000016" height="2.64000016"></rect>
                        <rect id="Rectangle" fill="#000000" x="15.576001" y="4.8840003" width="2.64000016" height="2.64000016"></rect>
                    </g>
                    <path d="M89.9184105,31.9176037 C89.9184105,31.2312036 90.0900105,30.7164036 90.0900105,30.0300035 C90.0900105,21.1068025 82.8828097,14.0712016 74.1312086,14.0712016 C72.7584085,14.0712016 71.3856083,14.2428017 70.0128082,14.5860017 C65.8944077,6.0060007 57.1428067,-7.31859018e-13 47.0184055,-7.31859018e-13 C38.6100045,-7.31859018e-13 31.0596036,4.11840048 26.4264031,10.4676012 L24.3672028,13.8996016 C23.3376027,16.1304019 22.4796026,18.3612021 21.9648026,20.9352024 C21.7932025,20.9352024 21.6216025,20.9352024 21.4500025,20.9352024 C9.60960112,20.7636024 8.17124146e-13,30.5448036 8.17124146e-13,42.3852049 C8.17124146e-13,54.2256063 9.60960112,64.0068075 21.4500025,64.0068075 L88.5456103,64.0068075 C97.4688113,64.0068075 104.504412,56.7996066 104.504412,48.0480056 C104.676012,39.4680046 98.1552114,32.6040038 89.9184105,31.9176037 Z" id="Path" fill="#FFFFFF"></path>
                    <path d="M92.7278758,32.4042243 C96.0991487,33.3023278 99.0376478,35.265851 101.136548,37.9300536 C98.7379627,36.0391007 95.7793904,34.8260189 92.5584106,34.5576039 C92.5584106,33.8712038 92.7300107,33.3564037 92.7300107,32.6700037 C92.7300107,32.581222 92.7292972,32.4926272 92.7278758,32.4042243 Z M7.74538682,58.9841057 C3.01378729,55.001119 3.62376795e-13,49.0160678 3.62376795e-13,42.3852049 C3.62376795e-13,30.5448036 9.60960112,20.7636024 21.4500025,20.9352024 C21.6216025,20.9352024 21.7932025,20.9352024 21.9648026,20.9352024 C22.4796026,18.3612021 23.3376027,16.1304019 24.3672028,13.8996016 L26.4264031,10.4676012 C31.0596036,4.11840048 38.6100045,3.48165941e-13 47.0184055,3.48165941e-13 C54.6894661,3.48165941e-13 61.57243,3.44792263 66.2491247,8.85095447 C61.7882341,4.99038103 55.9919348,2.64000016 49.6584056,2.64000016 C41.2500047,2.64000016 33.6996038,6.75840064 29.0664032,13.1076014 L27.007203,16.5396018 C25.9776029,18.770402 25.1196028,21.0012023 24.6048027,23.5752026 C24.4332027,23.5752026 24.2616027,23.5752026 24.0900027,23.5752026 C12.2496013,23.4036026 2.64000016,33.1848037 2.64000016,45.0252051 C2.64000016,50.3201751 4.56176183,55.2033391 7.74538682,58.9841057 Z M71.0447385,14.3603399 C72.0735618,14.1675811 73.1023852,14.0712016 74.1312086,14.0712016 C79.1963125,14.0712016 83.7440937,16.427894 86.6767255,20.1432543 C83.9469388,17.9878603 80.4991948,16.7112018 76.7712088,16.7112018 C75.3984086,16.7112018 74.0256085,16.8828018 72.6528083,17.2260019 C72.1769614,16.234654 71.6392617,15.2776688 71.0447385,14.3603399 Z" id="Combined-Shape" fill="#D3D6DD"></path>
                </g>
                <g id="iconfinder_73_5107692" fill="#000000">
                    <path d="M80.6816095,66.5808078 L22.8524028,66.5808078 C10.3256013,66.5808078 0.0296001199,56.2848066 0.0296001199,43.7580051 C0.0296001199,31.4028037 9.98240128,21.2784025 22.3376027,20.9352024 C22.8524028,18.7044022 23.5388029,16.6452019 24.568403,14.7576017 L26.7992032,15.9588019 C25.7696031,18.0180021 24.911603,20.2488024 24.568403,22.4796026 L24.396803,23.5092027 L23.3672028,23.5092027 C23.1956028,23.5092027 23.1956028,23.5092027 23.0240028,23.5092027 C23.0240028,23.5092027 23.0240028,23.5092027 23.0240028,23.5092027 C11.6984015,23.5092027 2.60360042,32.6040038 2.60360042,43.7580051 C2.60360042,54.9120064 11.6984015,64.0068075 22.8524028,64.0068075 L80.5100095,64.0068075 L80.5100095,66.5808078 L80.6816095,66.5808078 Z" id="Path"></path>
                    <path d="M89.9480106,66.5808078 L85.14321,66.5808078 L85.14321,64.0068075 L89.9480106,64.0068075 C98.0132115,64.0068075 104.705612,57.3144067 104.705612,49.2492057 C104.705612,41.6988049 98.8712116,35.1780041 91.3208107,34.491604 L89.9480106,34.491604 L90.1196106,33.1188039 C90.1196106,32.6040038 90.2912106,31.9176037 90.2912106,31.4028037 C90.2912106,22.1364026 81.5396096,14.5860017 71.7584085,17.160002 L70.7288084,17.503202 L70.2140083,16.4736019 C66.2672078,8.06520094 57.6872068,2.74560032 48.4208058,2.74560032 C40.6988049,2.74560032 33.320004,6.52080076 28.8584035,12.6984015 L26.7992032,11.1540013 C31.7756038,4.2900005 40.0124048,0.17160002 48.4208058,0.17160002 C58.3736069,0.17160002 67.468408,5.83440068 72.1016085,14.4144017 C73.3028087,14.2428017 74.3324088,14.0712016 75.5336089,14.0712016 C85.14321,14.0712016 92.8652109,21.7932025 92.8652109,31.4028037 C92.8652109,31.5744037 92.8652109,31.9176037 92.8652109,32.2608038 C101.273612,33.6336039 107.451213,40.6692047 107.451213,49.4208058 C107.279613,58.8588069 99.5576117,66.5808078 89.9480106,66.5808078 Z" id="Path"></path>
                </g>
            </g>
        </g>
    </g>
</svg>