<?xml version="1.0" encoding="UTF-8"?>
<svg width="100px" height="100px" viewBox="0 0 100 100" version="1.1" xmlns="http://www.w3.org/2000/svg" xmlns:xlink="http://www.w3.org/1999/xlink">
    <!-- Generator: Sketch 56.3 (81716) - https://sketch.com -->
    <title>vr copy 4</title>
    <desc>Created with Sketch.</desc>
    <g id="vr-copy-4" stroke="none" stroke-width="1" fill="none" fill-rule="evenodd">
        <path d="M7,17 L59,17 L59,84.0080529 C51.9583985,87.2035241 47.0085237,89.0994794 44.1503755,89.6959188 C38.8605665,90.7997982 34.6225985,90.4274358 31.2617811,90.4274358 C28.1375115,90.4274358 23.8865685,90.6498758 19.7063299,89.6959188 C17.0656894,89.0933079 12.8302461,87.5280016 7,85 L7,17 Z" id="Rectangle" fill="#FFFFFF"></path>
        <g id="iconfinder_66_3078638" transform="translate(5.000000, 7.000000)" fill-rule="nonzero">
            <ellipse id="Oval" fill="#1EB975" cx="28.277747" cy="7.56499988" rx="25.8099996" ry="6.67499989"></ellipse>
            <rect id="Rectangle" fill="#D3D6DD" x="72.7777463" y="9.78999984" width="15.1299998" height="15.1299998"></rect>
            <rect id="Rectangle" fill="#D3D6DD" x="72.7777463" y="63.189999" width="15.1299998" height="15.1299998"></rect>
            <rect id="Rectangle" fill="#D3D6DD" x="72.7777463" y="36.4899994" width="15.1299998" height="15.1299998"></rect>
            <path d="M73.5907076,26.1096478 L88.6740786,26.1096478 C89.2417324,26.1096478 89.6877475,25.6534669 89.6877475,25.1033664 L89.6877475,10.1298993 C89.6877475,9.57979884 89.2417324,9.12361794 88.6740786,9.12361794 L73.5907076,9.12361794 C73.0365694,9.12361794 72.5770402,9.57979884 72.5770402,10.1298993 L72.5770402,16.6103515 L63.8324693,16.6103515 C63.2648156,16.6103515 62.8188019,17.0665324 62.8188019,17.6166329 L62.8188019,43.6323611 L54.8311027,43.6323611 C54.8311027,36.4783713 54.8311027,14.7547686 54.8311027,7.63432149 C54.7635249,2.6297487 41.166866,0 27.7594251,0 C20.1731382,0 0.687747489,1.39537686 0.687747489,7.66115566 L0.687747489,7.67457274 L0.687747489,74.786833 C0.687747489,80.7574359 12.5679295,85.4399986 27.7459095,85.4399986 C42.9374051,85.4399986 54.8311027,80.7574359 54.8311027,74.786833 L54.8311027,45.6449239 L62.8188019,45.6449239 L62.8188019,71.6606521 C62.8188019,72.2107526 63.2648156,72.6669335 63.8324693,72.6669335 L72.5770402,72.6669335 L72.5770402,79.1473857 C72.5770402,79.6974862 73.0365694,80.1536671 73.5907076,80.1536671 L88.6740786,80.1536671 C89.2417324,80.1536671 89.6877475,79.6974862 89.6877475,79.1473857 L89.6877475,64.1739186 C89.6877475,63.610401 89.2417324,63.1676372 88.6740786,63.1676372 L73.5907076,63.1676372 C73.0365694,63.1676372 72.5770402,63.610401 72.5770402,64.1739186 L72.5770402,70.6543707 L64.8461367,70.6543707 L64.8461367,45.6449239 L72.5770402,45.6449239 L72.5770402,52.125376 C72.5770402,52.6754765 73.0365694,53.1316574 73.5907076,53.1316574 L88.6740786,53.1316574 C89.2417324,53.1316574 89.6877475,52.6754765 89.6877475,52.125376 L89.6877475,37.151909 C89.6877475,36.5883914 89.2417324,36.1456276 88.6740786,36.1456276 L73.5907076,36.1456276 C73.0365694,36.1456276 72.5770402,36.5883914 72.5770402,37.151909 L72.5770402,43.6323611 L64.8461367,43.6323611 L64.8461367,18.6229143 L72.5770402,18.6229143 L72.5770402,25.1033664 C72.5770402,25.6534669 73.0365694,26.1096478 73.5907076,26.1096478 Z M27.7472611,15.3384118 C37.7325609,15.3384118 48.5585288,13.8008138 52.8037679,10.7873365 L52.8037679,25.6642006 C52.8037679,25.6695674 52.8010648,25.6735926 52.8010648,25.6803011 C52.8010648,28.0403664 43.2739427,31.3302357 27.7594251,31.3302357 C12.2449075,31.3302357 2.71778542,28.0390247 2.71778542,25.6803011 C2.71778542,25.676276 2.71643386,25.6735926 2.71643386,25.6709091 L2.71643386,10.7873365 C7.91046567,14.4730098 21.3341253,15.3384118 27.7472611,15.3384118 Z M2.71508231,28.7836729 C6.99275878,31.7864166 17.4200175,33.3427985 27.7580736,33.3427985 C38.0974811,33.3427985 48.5260914,31.7864166 52.8037679,28.7823312 L52.8037679,43.6752958 C52.8037679,43.6806626 52.8010648,43.6846877 52.8010648,43.6913963 C52.8010648,46.0514616 43.2739427,49.3413309 27.7594251,49.3413309 C12.2449075,49.3413309 2.71778542,46.0501199 2.71778542,43.6913963 C2.71778542,43.6873712 2.71643386,43.6846877 2.71643386,43.6820043 L2.71643386,28.7836729 L2.71508231,28.7836729 Z M2.71508231,46.7947681 C6.99275878,49.7975118 17.4200175,51.3538936 27.7580736,51.3538936 C38.0974811,51.3538936 48.5260914,49.7975118 52.8037679,46.7934264 L52.8037679,61.686391 C52.8037679,61.6917578 52.8010648,61.6971246 52.8010648,61.7024915 C52.8010648,64.0625568 43.2739427,67.3524261 27.7594251,67.3524261 C12.2449075,67.3524261 2.71778542,64.0612151 2.71778542,61.7024915 C2.71778542,61.6998081 2.71643386,61.6957829 2.71643386,61.6930995 L2.71643386,46.7947681 L2.71508231,46.7947681 Z M27.7594251,2.01256278 C38.8489466,2.01256278 56.9949448,4.95761299 51.9320139,8.93041192 C47.5786503,12.3490852 34.4428722,13.2668139 28.5798199,13.3137737 C28.3000477,13.3164571 28.0283849,13.3231656 27.7459095,13.3231656 C12.5827967,13.3231656 2.67048094,9.97023602 2.71493241,7.65847224 C2.76103523,5.29840695 12.2746418,2.01256278 27.7594251,2.01256278 Z M27.7459095,83.4274358 C13.0004276,83.4274358 2.71508231,78.879044 2.71508231,74.786833 L2.71508231,64.8058633 C6.99275878,67.8099487 17.4200175,69.3663305 27.7580736,69.3663305 C38.0974811,69.3663305 48.5260914,67.8099487 52.8037679,64.8058633 L52.8037679,74.786833 C52.8037679,78.9595465 42.7346716,83.4274358 27.7459095,83.4274358 Z M74.604375,65.1802 L87.6604112,65.1802 L87.6604112,78.1411043 L74.604375,78.1411043 L74.604375,72.6669335 L74.604375,70.6543707 L74.604375,65.1802 Z M74.604375,38.1581903 L87.6604112,38.1581903 L87.6604112,51.1190947 L74.604375,51.1190947 L74.604375,45.6449239 L74.604375,43.6323611 L74.604375,38.1581903 Z M74.604375,11.1361807 L87.6604112,11.1361807 L87.6604112,24.097085 L74.604375,24.097085 L74.604375,18.6229143 L74.604375,16.6103515 L74.604375,11.1361807 Z" id="Shape" fill="#000000"></path>
        </g>
    </g>
</svg>