<?xml version="1.0" encoding="UTF-8"?>
<svg width="80px" height="110px" viewBox="0 0 80 110" version="1.1" xmlns="http://www.w3.org/2000/svg" xmlns:xlink="http://www.w3.org/1999/xlink">
    <!-- Generator: Sketch 56.3 (81716) - https://sketch.com -->
    <title>ios</title>
    <desc>Created with Sketch.</desc>
    <g id="ios" stroke="none" stroke-width="1" fill="none" fill-rule="evenodd">
        <g id="Group-13" transform="translate(4.000000, 1.000000)" fill-rule="nonzero">
            <path d="M64.751,104.661 L7.914,104.661 C4.648,104.661 2,102.013 2,98.747 L2,7.914 C2,4.648 4.648,2 7.914,2 L64.752,2 C68.018,2 70.666,4.648 70.666,7.914 L70.666,98.747 C70.665,102.013 68.017,104.661 64.751,104.661 Z" id="Path" fill="#FFFFFF"></path>
            <path d="M64.751,2.001 L58.837,2.001 C62.103,2.001 64.751,4.649 64.751,7.915 L64.751,98.748 C64.751,102.014 62.103,104.662 58.837,104.662 L64.751,104.662 C68.017,104.662 70.665,102.014 70.665,98.748 L70.665,7.915 C70.665,4.649 68.017,2.001 64.751,2.001 Z" id="Path" fill="#D6D1CF"></path>
            <path d="M7.914,104.661 L13.828,104.661 C10.562,104.661 7.914,102.013 7.914,98.747 L7.914,7.914 C7.914,4.648 10.562,2 13.828,2 L7.914,2 C4.648,2 2,4.648 2,7.914 L2,98.747 C2,102.013 4.648,104.661 7.914,104.661 Z" id="Path" fill="#FFFFFF"></path>
            <path d="M49.518,11.775 L23.147,11.775 C21.485,11.775 19.984,10.781 19.335,9.25 L16.265,2.001 L56.4,2.001 L53.33,9.25 C52.681,10.78 51.18,11.775 49.518,11.775 Z" id="Path" fill="#1EB975"></path>
            <path d="M64.751,107.66 L7.914,107.66 C3.55,107.66 4.33431069e-13,104.11 4.33431069e-13,99.747 L4.33431069e-13,8.914 C4.33431069e-13,4.55 3.55,1 7.914,1 L64.751,1 C69.115,1 72.665,4.55 72.665,8.914 L72.665,99.747 C72.665,104.11 69.115,107.66 64.751,107.66 Z M7.914,5 C5.756,5 4,6.756 4,8.914 L4,99.747 C4,101.904 5.756,103.66 7.914,103.66 L64.751,103.66 C66.909,103.66 68.665,101.904 68.665,99.747 L68.665,8.914 C68.665,6.756 66.909,5 64.751,5 L7.914,5 Z" id="Shape" fill="#000000"></path>
            <path d="M49.518,13.775 L23.147,13.775 C20.676,13.775 18.457,12.304 17.494,10.03 L14.424,2.781 C14.163,2.163 14.228,1.456 14.598,0.896 C14.969,0.336 15.595,-1.86517468e-13 16.265,-1.86517468e-13 L56.399,-1.86517468e-13 C57.07,-1.86517468e-13 57.696,0.336 58.066,0.896 C58.436,1.456 58.502,2.163 58.24,2.781 L55.17,10.03 C54.207,12.305 51.988,13.775 49.518,13.775 Z M19.284,4.001 L21.177,8.47 C21.512,9.263 22.286,9.776 23.147,9.776 L49.518,9.776 C50.379,9.776 51.152,9.263 51.489,8.47 L53.381,4.001 L19.284,4.001 Z" id="Shape" fill="#000000"></path>
            <path d="M47.099,57.109 C47.099,53.54 49.291,50.486 52.4,49.211 C50.016,45.265 45.433,43.473 37.811,46.67 C36.867,47.066 35.793,47.066 34.849,46.67 C16.335,38.906 15.72,60.533 21.113,71.127 C25.398,79.544 32.172,77.176 35.01,75.679 C35.836,75.243 36.822,75.243 37.648,75.679 C40.486,77.176 47.26,79.544 51.545,71.127 C52.403,69.442 53.107,67.476 53.613,65.395 C49.877,64.485 47.099,61.126 47.099,57.109 Z" id="Path" fill="#D3D6DD"></path>
            <path d="M37.986,32.736 C35.92,34.802 35.112,37.642 35.543,40.322 C38.223,40.753 41.063,39.945 43.129,37.879 C45.195,35.813 46.003,32.973 45.572,30.293 C42.892,29.862 40.051,30.67 37.986,32.736 Z" id="Path" fill="#D3D6DD"></path>
            <path d="M43.161,79.166 C40.468,79.166 38.096,78.177 36.716,77.449 C36.474,77.32 36.185,77.321 35.944,77.448 C34.054,78.446 30.303,79.932 26.418,78.698 C23.494,77.769 21.109,75.527 19.331,72.034 C15.349,64.211 14.649,51.998 19.955,46.285 C22.405,43.648 27.111,41.258 35.623,44.825 C36.073,45.014 36.588,45.014 37.039,44.825 C47.486,40.443 52.221,45.043 54.113,48.177 C54.415,48.677 54.484,49.283 54.3,49.838 C54.117,50.393 53.7,50.84 53.16,51.062 C50.694,52.074 49.1,54.448 49.1,57.11 C49.1,60.13 51.151,62.738 54.087,63.453 C55.16,63.715 55.818,64.796 55.557,65.869 C55.013,68.108 54.242,70.241 53.328,72.035 C51.55,75.529 49.165,77.771 46.241,78.699 C45.193,79.031 44.155,79.166 43.161,79.166 Z M36.33,73.352 C37.103,73.352 37.877,73.539 38.582,73.91 C39.918,74.616 42.533,75.679 45.031,74.886 C46.897,74.294 48.489,72.724 49.764,70.22 C50.304,69.16 50.787,67.95 51.19,66.658 C47.523,64.961 45.1,61.278 45.1,57.109 C45.1,53.701 46.719,50.587 49.374,48.632 C47.034,46.53 43.416,46.489 38.584,48.514 C37.149,49.115 35.505,49.114 34.074,48.513 C28.95,46.363 25.184,46.529 22.885,49.007 C18.896,53.301 19.6,63.747 22.895,70.219 C24.17,72.723 25.762,74.292 27.628,74.885 C30.127,75.68 32.742,74.615 34.078,73.909 C34.783,73.539 35.556,73.352 36.33,73.352 Z" id="Shape"></path>
            <path d="M36.934,42.433 C36.366,42.433 35.794,42.388 35.225,42.296 C34.373,42.158 33.705,41.491 33.568,40.639 C33.02,37.234 34.143,33.75 36.571,31.322 L36.571,31.322 C39,28.893 42.488,27.774 45.889,28.319 C46.741,28.457 47.409,29.124 47.546,29.975 C48.094,33.38 46.972,36.864 44.543,39.293 C42.52,41.316 39.766,42.433 36.934,42.433 Z M39.4,34.15 C38.254,35.296 37.572,36.819 37.451,38.414 C39.046,38.294 40.568,37.611 41.715,36.466 C42.861,35.32 43.543,33.797 43.664,32.202 C42.068,32.322 40.546,33.005 39.4,34.15 L39.4,34.15 Z" id="Shape"></path>
        </g>
    </g>
</svg>