<?xml version="1.0" encoding="UTF-8"?>
<svg width="160px" height="140px" viewBox="0 0 160 140" version="1.1" xmlns="http://www.w3.org/2000/svg" xmlns:xlink="http://www.w3.org/1999/xlink">
    <!-- Generator: Sketch 56.3 (81716) - https://sketch.com -->
    <title>server</title>
    <desc>Created with Sketch.</desc>
    <g id="server" stroke="none" stroke-width="1" fill="none" fill-rule="evenodd">
        <g id="iconfinder_017_049_data_base_database_rack_server_backup_network_connect_2328923" transform="translate(33.000000, 17.000000)" fill-rule="nonzero">
            <path d="M46.8000019,90.0000036 C46.3225741,90.0000036 45.8646649,89.8105253 45.5270725,89.4729329 C45.1894801,89.1353405 44.9998776,88.6774313 45.0000017,88.2000035 L45.0000017,66.6000026 C45.0000017,65.6058901 45.8058893,64.8000026 46.8000019,64.8000026 C47.7941144,64.8000026 48.600002,65.6058901 48.600002,66.6000026 L48.600002,88.2000035 C48.6001261,88.6774313 48.4105237,89.1353405 48.0729313,89.4729329 C47.7353388,89.8105253 47.2774296,90.0000036 46.8000019,90.0000036 L46.8000019,90.0000036 Z" id="Path" fill="#000000"></path>
            <path d="M39.6000016,97.2000039 L1.80000007,97.2000039 C0.805887482,97.2000039 0,96.3941164 0,95.4000038 C0,94.4058912 0.805887482,93.6000037 1.80000007,93.6000037 L39.6000016,93.6000037 C40.5941142,93.6000037 41.4000016,94.4058912 41.4000016,95.4000038 C41.4000016,96.3941164 40.5941142,97.2000039 39.6000016,97.2000039 Z" id="Path" fill="#000000"></path>
            <path d="M84.6000034,36 L9,36 C4.03185932,35.9941593 0.00584215312,31.9681421 0,27 L0,9 C0.00584215312,4.03185932 4.03185932,0.00584215312 9,0 L84.6000034,0 C89.5681444,0.00584215312 93.5941616,4.03185932 93.6000037,9 L93.6000037,27 C93.5941616,31.9681421 89.5681444,35.9941593 84.6000034,36 Z" id="Shape" stroke="#000000" stroke-width="2.5" fill="#FFFFFF"></path>
            <path d="M91.8000036,97.2000039 L54.0000021,97.2000039 C53.0058896,97.2000039 52.2000021,96.3941164 52.2000021,95.4000038 C52.2000021,94.4058912 53.0058896,93.6000037 54.0000021,93.6000037 L91.8000036,93.6000037 C92.7941162,93.6000037 93.6000037,94.4058912 93.6000037,95.4000038 C93.6000037,96.3941164 92.7941162,97.2000039 91.8000036,97.2000039 Z" id="Path" fill="#000000"></path>
            <rect id="Rectangle" fill="#FFFFFF" x="1.79922607" y="1.80000007" width="90.0000036" height="32.4000013" rx="7.20000029"></rect>
            <path d="M84.5992294,1.80000007 L8.99922636,1.80000007 C5.022776,1.80000007 1.79922607,5.02355 1.79922607,9.00000036 L1.79922607,14.4000006 C1.79922607,10.4235502 5.022776,7.20000029 8.99922636,7.20000029 L84.5992294,7.20000029 C88.5756797,7.20000029 91.7992261,10.4235502 91.7992261,14.4000006 L91.7992261,9.00000036 C91.7992261,5.02355 88.5756797,1.80000007 84.5992294,1.80000007 Z" id="Path" fill="#FFFFFF" opacity="0.75"></path>
            <path d="M84.5992294,28.8000011 L8.99922636,28.8000011 C5.022776,28.8000011 1.79922607,25.5764512 1.79922607,21.6000009 L1.79922607,27.0000011 C1.79922607,30.9764514 5.022776,34.2000014 8.99922636,34.2000014 L84.5992294,34.2000014 C88.5756797,34.2000014 91.7992261,30.9764514 91.7992261,27.0000011 L91.7992261,21.6000009 C91.7992261,25.5764512 88.5756797,28.8000011 84.5992294,28.8000011 Z" id="Path" fill="#D3D6DD"></path>
            <path d="M84.6000034,68.4000013 L9,68.4000013 C4.03185932,68.3941606 0.00584215312,64.3681434 0,59.4000013 L0,41.4000013 C0.00584215312,36.4318606 4.03185932,32.4058434 9,32.4000013 L84.6000034,32.4000013 C89.5681444,32.4058434 93.5941616,36.4318606 93.6000037,41.4000013 L93.6000037,59.4000013 C93.5941616,64.3681434 89.5681444,68.3941606 84.6000034,68.4000013 Z" id="Shape" stroke="#000000" stroke-width="2.5" fill="#FFFFFF"></path>
            <path d="M81.0000032,19.8000008 C80.5235075,19.7929542 80.0671749,19.6065648 79.7220032,19.2780008 C79.5631026,19.1029126 79.4352655,18.901977 79.3440032,18.6838567 C79.2427178,18.4704597 79.1933731,18.2361216 79.2000031,18.0000007 C79.2000031,17.0058881 80.0058906,16.2000006 81.0000032,16.2000006 C81.9941158,16.2000006 82.8000033,17.0058881 82.8000033,18.0000007 C82.7971074,18.235159 82.7481358,18.4674682 82.6558593,18.6837847 C82.5645969,18.901905 82.4367599,19.1028406 82.2778593,19.2779288 C81.9325513,19.6062016 81.4763911,19.7925673 81.0000032,19.8000008 L81.0000032,19.8000008 Z" id="Path" fill="#000000"></path>
            <path d="M73.8000029,19.8000008 C73.3235072,19.7929542 72.8671746,19.6065648 72.5220029,19.2780008 C72.1899034,18.9351274 72.002916,18.4773305 72.0000029,18.0000007 C72.0000029,17.0058881 72.8058903,16.2000006 73.8000029,16.2000006 C74.7941155,16.2000006 75.600003,17.0058881 75.600003,18.0000007 C75.5972841,18.1206183 75.5849389,18.2408263 75.563085,18.3594787 C75.5442046,18.4724503 75.5080387,18.5818404 75.455859,18.6838027 C75.416277,18.7984784 75.361915,18.907505 75.294147,19.0081268 C75.222147,19.0977668 75.150003,19.1874248 75.077931,19.2779468 C74.7326021,19.6062298 74.2764133,19.7925901 73.8000029,19.8000008 Z" id="Path" fill="#000000"></path>
            <path d="M66.6000026,19.8000296 C66.1227684,19.7966095 65.6651425,19.6096919 65.3220026,19.2780008 C64.6259064,18.5682369 64.6259064,17.4319086 65.3220026,16.7221447 C65.7467224,16.3001134 66.3540045,16.1178093 66.9409407,16.2361446 C67.0603337,16.2527226 67.1761581,16.2889545 67.2837147,16.3433706 C67.3943035,16.3794704 67.4977903,16.4344843 67.5895707,16.5059647 C67.6967967,16.5779647 67.7882007,16.6501087 67.8778587,16.7221807 C68.396937,17.2371429 68.5529261,18.0149403 68.2725563,18.6902337 C67.9921865,19.3655271 67.3311739,19.8041199 66.6000026,19.8000296 Z" id="Path" fill="#000000"></path>
            <path d="M12.6000005,25.2000011 C12.1225727,25.2000011 11.6646635,25.0105227 11.3270711,24.6729303 C10.9894787,24.3353379 10.7998762,23.8774287 10.8000004,23.4000009 L10.8000004,12.6000005 C10.8000004,11.6058879 11.6058879,10.8000004 12.6000005,10.8000004 C13.5941131,10.8000004 14.4000006,11.6058879 14.4000006,12.6000005 L14.4000006,23.4000009 C14.4001248,23.8774287 14.2105223,24.3353379 13.8729299,24.6729303 C13.5353375,25.0105227 13.0774283,25.2000011 12.6000005,25.2000011 Z" id="Path" fill="#000000"></path>
            <rect id="Rectangle" fill="#FFFFFF" x="1.79922607" y="34.2000014" width="90.0000036" height="32.4000013" rx="7.20000029"></rect>
            <path d="M84.5992294,34.2000014 L8.99922636,34.2000014 C5.022776,34.2000014 1.79922607,37.4235513 1.79922607,41.4000016 L1.79922607,46.8000019 C1.79922607,42.8235515 5.022776,39.6000016 8.99922636,39.6000016 L84.5992294,39.6000016 C88.5756797,39.6000016 91.7992261,42.8235515 91.7992261,46.8000019 L91.7992261,41.4000016 C91.7992261,37.4235513 88.5756797,34.2000014 84.5992294,34.2000014 Z" id="Path" fill="#FFFFFF" opacity="0.75"></path>
            <path d="M84.5992294,61.2000024 L8.99922636,61.2000024 C5.022776,61.2000024 1.79922607,57.9764525 1.79922607,54.0000021 L1.79922607,59.4000024 C1.79922607,63.3764527 5.022776,66.6000026 8.99922636,66.6000026 L84.5992294,66.6000026 C88.5756797,66.6000026 91.7992261,63.3764527 91.7992261,59.4000024 L91.7992261,54.0000021 C91.7992261,57.9764525 88.5756797,61.2000024 84.5992294,61.2000024 Z" id="Path" fill="#D3D6DD"></path>
            <path d="M81.0000032,52.2000021 C80.5235075,52.1929555 80.0671749,52.0065661 79.7220032,51.6780021 C79.5631026,51.5029139 79.4352655,51.3019783 79.3440032,51.083858 C79.2427178,50.870461 79.1933731,50.6361229 79.2000031,50.400002 C79.2000031,49.4058894 80.0058906,48.6000019 81.0000032,48.6000019 C81.9941158,48.6000019 82.8000033,49.4058894 82.8000033,50.400002 C82.7971074,50.6351603 82.7481358,50.8674695 82.6558593,51.083786 C82.5645969,51.3019063 82.4367599,51.5028419 82.2778593,51.6779301 C81.9325513,52.0062029 81.4763911,52.1925686 81.0000032,52.2000021 L81.0000032,52.2000021 Z" id="Path" fill="#000000"></path>
            <path d="M73.8000029,52.2000168 C73.0677039,52.20295 72.4060069,51.7637021 72.1244047,51.087706 C71.8428026,50.4117099 71.9969627,49.6325974 72.5147805,49.1147796 C73.0325983,48.5969618 73.8117108,48.4428016 74.4877069,48.7244038 C75.163703,49.006006 75.6029509,49.667703 75.6000178,50.400002 C75.5972841,50.5206196 75.5849389,50.6408276 75.563085,50.75948 C75.5442046,50.8724516 75.5080387,50.9818417 75.455859,51.083804 C75.4199049,51.19428 75.3652022,51.2977427 75.294147,51.38966 C75.222147,51.497768 75.150003,51.587408 75.077931,51.6779481 C74.7326021,52.006231 74.2764133,52.1925914 73.8000029,52.2000168 L73.8000029,52.2000168 Z" id="Path" fill="#000000"></path>
            <path d="M66.6000026,52.2000317 C65.8721781,52.1971309 65.2170963,51.7579495 64.9379992,51.0857578 C64.6589021,50.4135661 64.8102577,49.6395481 65.3220026,49.122002 C65.7513493,48.7078092 66.3544598,48.5267574 66.9409407,48.6360019 C67.0603337,48.6525799 67.1761581,48.6888118 67.2837147,48.7432279 C67.3943035,48.7793277 67.4977903,48.8343416 67.5895707,48.9058219 C67.6967967,48.9778219 67.7882007,49.0499659 67.8778587,49.122038 C68.3970413,49.636986 68.5530969,50.4148511 68.2727138,51.0902082 C67.9923306,51.7655654 67.3312376,52.2041809 66.6000026,52.2000317 L66.6000026,52.2000317 Z" id="Path" fill="#000000"></path>
            <path d="M12.6000005,57.6000023 C12.1225727,57.6000023 11.6646635,57.410524 11.3270711,57.0729316 C10.9894787,56.7353392 10.7998762,56.27743 10.8000004,55.8000022 L10.8000004,45.0000018 C10.8000004,44.0058892 11.6058879,43.2000017 12.6000005,43.2000017 C13.5941131,43.2000017 14.4000006,44.0058892 14.4000006,45.0000018 L14.4000006,55.8000022 C14.4001248,56.27743 14.2105223,56.7353392 13.8729299,57.0729316 C13.5353375,57.410524 13.0774283,57.6000023 12.6000005,57.6000023 Z" id="Path" fill="#000000"></path>
            <circle id="Oval" fill="#1EB975" cx="46.7992279" cy="95.4000038" r="7.20000029"></circle>
            <path d="M46.7992279,93.6000037 C49.7305282,93.6018304 52.3675787,95.3819999 53.4652941,98.1000039 C54.6933315,95.0914293 53.7539196,91.6331417 51.1724758,89.6593775 C48.591032,87.6856133 45.0074238,87.6856133 42.4259799,89.6593775 C39.8445361,91.6331417 38.9051242,95.0914293 40.1331616,98.1000039 C41.230877,95.3819999 43.8679275,93.6018304 46.7992279,93.6000037 L46.7992279,93.6000037 Z" id="Path" fill="#1EB975" opacity="0.5"></path>
            <path d="M46.8000015,104.400003 C41.8294389,104.400003 37.8000015,100.370567 37.8000015,95.4000034 C37.8000015,90.4294408 41.8294389,86.4000034 46.8000015,86.4000034 C51.7705648,86.4000034 55.8000015,90.4294408 55.8000015,95.4000034 C55.7941601,100.368145 51.7681429,104.394162 46.8000015,104.400003 L46.8000015,104.400003 Z M46.8000019,90.0000036 C43.8176641,90.0000036 41.4000016,92.417666 41.4000016,95.4000038 C41.4000016,98.3823416 43.8176641,100.800004 46.8000019,100.800004 C49.7823396,100.800004 52.2000021,98.3823416 52.2000021,95.4000038 C52.1967482,92.4190149 49.7809908,90.0032575 46.8000019,90.0000036 L46.8000019,90.0000036 Z" id="Shape" fill="#000000"></path>
        </g>
    </g>
</svg>