<?xml version="1.0" encoding="UTF-8"?>
<svg width="220px" height="200px" viewBox="0 0 220 200" version="1.1" xmlns="http://www.w3.org/2000/svg" xmlns:xlink="http://www.w3.org/1999/xlink">
    <!-- Generator: Sketch 56.3 (81716) - https://sketch.com -->
    <title>ios</title>
    <desc>Created with Sketch.</desc>
    <defs>
        <linearGradient x1="50.3642394%" y1="-213.186233%" x2="49.6597442%" y2="346.615221%" id="linearGradient-1">
            <stop stop-color="#7BA5FF" offset="0%"></stop>
            <stop stop-color="#8588FF" offset="40%"></stop>
            <stop stop-color="#9555FF" offset="100%"></stop>
        </linearGradient>
        <linearGradient x1="50.2824363%" y1="-254.642552%" x2="49.7361609%" y2="393.337176%" id="linearGradient-2">
            <stop stop-color="#7BA5FF" offset="0%"></stop>
            <stop stop-color="#8588FF" offset="40%"></stop>
            <stop stop-color="#9555FF" offset="100%"></stop>
        </linearGradient>
        <linearGradient x1="50%" y1="27.3093326%" x2="14%" y2="89.5717333%" id="linearGradient-3">
            <stop stop-color="#1D5DCC" offset="0%"></stop>
            <stop stop-color="#AB83F5" offset="40%"></stop>
            <stop stop-color="#BD82F8" stop-opacity="0.282943619" offset="72%"></stop>
            <stop stop-color="#D081FC" stop-opacity="0" offset="100%"></stop>
        </linearGradient>
        <linearGradient x1="0%" y1="49.983824%" x2="100%" y2="49.983824%" id="linearGradient-4">
            <stop stop-color="#FCB0AA" offset="0%"></stop>
            <stop stop-color="#F8A0A2" offset="46%"></stop>
            <stop stop-color="#F4919A" offset="100%"></stop>
        </linearGradient>
        <linearGradient x1="0%" y1="49.983824%" x2="100%" y2="49.983824%" id="linearGradient-5">
            <stop stop-color="#FCB0AA" offset="0%"></stop>
            <stop stop-color="#F8A0A2" offset="46%"></stop>
            <stop stop-color="#F4919A" offset="100%"></stop>
        </linearGradient>
        <linearGradient x1="0%" y1="49.983824%" x2="100%" y2="49.983824%" id="linearGradient-6">
            <stop stop-color="#FCB0AA" offset="0%"></stop>
            <stop stop-color="#F8A0A2" offset="46%"></stop>
            <stop stop-color="#F4919A" offset="100%"></stop>
        </linearGradient>
        <linearGradient x1="47.677966%" y1="37.7849623%" x2="34.2949875%" y2="73.6458292%" id="linearGradient-7">
            <stop stop-color="#6D9BDD" offset="0%"></stop>
            <stop stop-color="#85B2E4" offset="17%"></stop>
            <stop stop-color="#A9CDEF" offset="38%"></stop>
            <stop stop-color="#C3D6F7" offset="57%"></stop>
            <stop stop-color="#D3EAFB" offset="74%"></stop>
            <stop stop-color="#D9F4FD" stop-opacity="0.123033217" offset="100%"></stop>
        </linearGradient>
    </defs>
    <g id="ios" stroke="none" stroke-width="1" fill="none" fill-rule="evenodd">
        <g id="Group-91" transform="translate(37.000000, 24.000000)">
            <g id="Group-88" fill-rule="nonzero">
                <g id="iconfinder_Apple_378091" transform="translate(73.111888, 17.000000)">
                    <g id="Group">
                        <path d="M60.825,47.2195385 C60.7027778,36.0041538 69.9861111,30.6055385 70.4041667,30.3438462 C65.1694444,22.734 57.0375,21.7010769 54.1402778,21.5792308 C47.2166667,20.8896923 40.6402778,25.6610769 37.1305556,25.6652308 C33.6236111,25.6707692 28.1958333,21.7190769 22.4597222,21.8353846 C14.9125,21.9530769 7.96666667,26.2246154 4.08472222,32.9621538 C-3.73055556,46.5341538 2.12777778,66.6096923 9.77916667,77.598 C13.5194444,82.9689231 17.9763889,89.0169231 23.8236111,88.7898462 C29.4527778,88.5627692 31.5763889,85.1524615 38.3777778,85.1441538 C45.1805556,85.1358462 47.1013889,88.7593846 53.0527778,88.6389231 C59.1097222,88.524 62.9402778,83.1433846 66.6388889,77.742 C70.9180556,71.4918462 72.6722222,65.4438462 72.7777778,65.1309231 C72.6458333,65.0713846 60.9625,60.624 60.825,47.2195385" id="Path" fill="url(#linearGradient-1)"></path>
                        <path d="M49.65,14.328 C52.7555556,10.5798462 54.8430556,5.37092308 54.2722222,0.18 C49.8027778,0.361384615 44.3902778,3.15 41.1805556,6.894 C38.3055556,10.2115385 35.7875,15.5118462 36.4680556,20.5989231 C41.4513889,20.9838462 46.5444444,18.0706154 49.65,14.328" id="Path" fill="url(#linearGradient-2)"></path>
                        <path d="M37.1319444,25.6652308 C33.625,25.6693846 28.1972222,21.7190769 22.4611111,21.8353846 C14.9138889,21.9530769 7.96805556,26.2246154 4.0875,32.9621538 C-3.72777778,46.5341538 2.13055556,66.6096923 9.78194444,77.598 C9.79722222,77.6187692 9.81111111,77.6395385 9.82638889,77.6603077 L63.5055556,24.1463077 C59.6666667,22.0790769 55.9208333,21.654 54.1430556,21.5792308 C47.2166667,20.8896923 40.6402778,25.6610769 37.1319444,25.6652308 Z" id="Path" fill="url(#linearGradient-3)" opacity="0.371303013"></path>
                    </g>
                </g>
                <g id="jlhhi">
                    <path d="M92.9564376,132.122546 L70.2693895,7.34101787 C69.8865107,5.24037524 68.7992086,3.3340229 67.1877322,1.9379891 C66.4343972,1.28197775 65.5678132,0.769588799 64.6307128,0.426088938 C63.7096915,0.0854321523 62.7266119,-0.0535480673 61.7475671,0.01849203 L7.67676915,4.24138557 C6.64346254,4.31836059 5.63973893,4.62257325 4.73690583,5.13241137 C3.86781039,5.62433853 3.11616595,6.30041916 2.53437158,7.11352192 C1.938953,7.9501407 1.52073148,8.90018532 1.30548981,9.90508679 C1.06999822,10.9964346 1.04912691,12.1233728 1.24404572,13.222736 L24.1059731,145.796 C24.3006974,146.946004 24.7095664,148.048974 25.3112226,149.047296 C25.8716608,149.981988 26.6066658,150.799481 27.4759451,151.454962 C28.3195766,152.093249 29.2847352,152.551351 30.3118261,152.800979 C31.3495893,153.049265 32.4291334,153.065446 33.4738334,152.848374 L87.3744785,141.734249 C88.3349102,141.534035 89.2379872,141.119321 90.0165743,140.520938 C90.7984377,139.917675 91.4537779,139.1655 91.9449734,138.307592 C92.4590209,137.410033 92.8095271,136.427836 92.98007,135.407018 C93.1634383,134.319204 93.15544,133.207594 92.9564376,132.122546 Z" id="Path" fill="#FFCAC5"></path>
                    <path d="M30.1333174,152.440492 C29.1727059,152.085032 28.2842343,151.556585 27.511237,150.880926 C26.7061774,150.181742 26.0297529,149.345047 25.5130148,148.409249 C24.9607016,147.414654 24.5800373,146.332783 24.3872558,145.209774 L1.72666505,13.2278959 C1.5826428,12.4043706 1.54950956,11.5650375 1.62816114,10.7325892 C1.69949835,9.95177676 1.8795075,9.18495823 2.16289667,8.45467658 C2.43704889,7.76318745 2.80655385,7.1140743 3.2605117,6.526485 C3.7082348,5.94209636 4.23934413,5.42769393 4.83657431,5 L3.34963429,6.05388902 C2.75396077,6.47996988 2.22439372,6.99281692 1.77826234,7.57564806 C1.32720083,8.1669669 0.960872728,8.81922868 0.690028627,9.51329156 C0.40937357,10.2329798 0.229405195,10.9884908 0.155293098,11.7581224 C0.0739217561,12.5857705 0.107073299,13.4207957 0.253797011,14.2392513 L22.7126893,145.337375 C22.8992025,146.454023 23.2752649,147.529949 23.8243763,148.517946 C24.340707,149.44722 25.0137067,150.278808 25.8132172,150.975445 C26.5818256,151.646386 27.4656873,152.170122 28.4212256,152.520834 C29.3766379,152.874935 30.3920306,153.035537 31.4091776,152.99343 L33.1118881,152.913088 C32.0979807,152.952111 31.0862485,152.791584 30.1333174,152.440492 Z" id="Path" fill="url(#linearGradient-4)"></path>
                    <path d="M62.1603538,0.0186453912 C63.2104499,-0.0555317415 64.2644301,0.0921567321 65.2532278,0.452032884 C66.259076,0.821924482 67.1898161,1.36925604 68.0008728,2.06781451 C69.7309568,3.55653883 70.8988598,5.58907951 71.3112884,7.82904173 L93.945073,131.518774 C94.1575199,132.675066 94.1671204,133.859291 93.973448,135.018849 C93.7896971,136.106374 93.413396,137.152721 92.8620942,138.109091 C92.3363686,139.022628 91.6339289,139.823202 90.795449,140.464457 C89.9603362,141.104793 88.9900827,141.54776 87.9579499,141.759909 L34.1495084,152.839555 C33.0273967,153.07112 31.8676843,153.051813 30.7539678,152.783026 C29.6574669,152.522395 28.625935,152.041501 27.7225729,151.369806 C26.7885928,150.668999 25.9986594,149.795782 25.3958236,148.797745 C24.7485923,147.735323 24.3089347,146.560546 24.1000324,145.335356 L1.25343537,13.7645661 C1.04455644,12.5953857 1.0670473,11.3968148 1.31964369,10.2362266 C1.55414137,9.16394249 2.00637744,8.15077785 2.6485391,7.25904296 C3.93744014,5.46932438 5.9613499,4.34643311 8.16747487,4.19706611 L62.1603538,0.0186453912 Z M93.1978649,131.448113 L70.5640803,7.71127339 C70.1780576,5.63483697 69.0919256,3.75190074 67.4853938,2.3740122 C66.7333563,1.72204277 65.8678366,1.21273776 64.9316446,0.871288176 C64.012605,0.528372321 63.0309134,0.383860165 62.051583,0.44732215 L8.03978741,4.62574287 C7.00733508,4.69855505 6.00411754,4.99947376 5.10297583,5.50665005 C4.24769056,6.00084214 3.50902503,6.67236793 2.93701818,7.4757367 C2.33107879,8.3013877 1.90281838,9.24277527 1.67906024,10.2409373 C1.44209529,11.3255059 1.4212072,12.445866 1.61758109,13.5384509 L24.4405323,145.024448 C24.6344524,146.163338 25.0402377,147.256126 25.6370111,148.246589 C26.1988202,149.173379 26.9322245,149.985452 27.7982396,150.639642 C28.6420252,151.272559 29.6080844,151.724837 30.6357387,151.968069 C31.6718365,152.218813 32.7509969,152.236515 33.794821,152.019887 L87.6363666,141.001481 C88.5959472,140.80524 89.4982603,140.3945 90.2752408,139.800244 C91.0548615,139.201023 91.7088148,138.455189 92.2000111,137.605042 C92.7135522,136.71425 93.0642242,135.739705 93.2356982,134.726784 C93.424626,133.649905 93.424626,132.548546 93.2356982,131.471667 L93.1978649,131.448113 Z" id="Shape" fill="url(#linearGradient-5)"></path>
                    <path d="M61.8642515,1.01540809 C62.6279993,0.957357122 63.3952999,1.06376097 64.1146258,1.32747412 C64.8452591,1.59603308 65.521361,1.99490857 66.1102407,2.50481418 C66.7240463,3.03261157 67.244085,3.66092569 67.6482323,4.36302558 C68.0702867,5.09555259 68.3638967,5.89518303 68.5163012,6.72716223 L90.9775836,130.42352 C91.1566563,131.436943 91.1566563,132.474019 90.9775836,133.487441 C90.8243732,134.437604 90.504951,135.353186 90.0340305,136.192013 C89.57276,136.990093 88.9606026,137.690342 88.231844,138.253541 C87.502474,138.81073 86.6577091,139.196891 85.7597348,139.383598 L34.553106,149.861452 C33.5800309,150.062337 32.5746261,150.044574 31.6092202,149.809441 C30.6586148,149.575812 29.7658822,149.149371 28.9861425,148.556448 C28.1777611,147.943542 27.493954,147.181172 26.9716565,146.310518 C26.4118333,145.383242 26.032435,144.358029 25.853546,143.289152 L3.2129885,12.2545137 C3.06382887,11.4099595 3.07985176,10.5444023 3.26016616,9.70597441 C3.42391647,8.9256924 3.74499947,8.18716569 4.2037193,7.53569697 C4.6542249,6.90214503 5.23700853,6.37453538 5.91155048,5.9895516 C6.61299283,5.5890086 7.39459798,5.34996694 8.19966684,5.28976715 L61.8642515,1.01540809 Z" id="Path" fill="url(#linearGradient-6)"></path>
                    <path d="M89.9442413,130.162781 L67.6422752,7.29575837 C67.5001404,6.48067924 67.2260651,5.69430121 66.8308632,4.96765161 C66.4697089,4.31313093 65.9864589,3.73409358 65.4073335,3.26195706 C64.8499106,2.79897481 64.2040831,2.45462671 63.5092938,2.2499433 C62.7736619,2.03500676 62.0047615,1.95769511 61.2411364,2.02188387 L53.5540757,2.63954484 L53.4354483,3.79409575 C53.3596385,4.3412929 53.1995678,4.87341523 52.9609383,5.37150686 C52.7386401,5.83931144 52.4439806,6.2690447 52.0878401,6.64483873 C51.7433207,7.00647308 51.3387276,7.30548765 50.8920751,7.52856905 C50.4464099,7.74889994 49.9636779,7.8842398 49.4685453,7.92767306 L24.4903433,10.0372229 C23.9551473,10.0747533 23.417487,10.0201142 22.9007351,9.87568077 C22.3583221,9.73104423 21.8402488,9.50689579 21.3633229,9.2105074 C20.863449,8.90406501 20.4069938,8.53171652 20.0062246,8.10346888 C19.5915152,7.66069638 19.23874,7.1636148 18.9575577,6.62583377 L18.3596752,5.45227791 L10.0984575,6.11745127 C9.20353137,6.18516797 8.3278169,6.41202209 7.51237845,6.78737587 C6.76111159,7.12699025 6.08393265,7.61131529 5.51943679,8.21274736 C4.97935348,8.79226783 4.57564432,9.485468 4.3379071,10.2415261 C4.09640196,11.0308857 4.0475844,11.866746 4.19555412,12.6789114 L26.677834,142.577766 C26.8554273,143.554546 27.224764,144.486349 27.7644617,145.319231 C28.3009283,146.14839 28.9768209,146.878205 29.7621485,147.476293 C30.5147163,148.058707 31.369227,148.495378 32.2817961,148.763879 C33.1470199,149.022079 34.0613716,149.069322 34.9485419,148.901664 L85.9488678,138.529711 C86.6836374,138.371443 87.3632225,138.020553 87.918084,137.512946 C88.5178801,136.967281 89.0019831,136.306433 89.3416137,135.56969 C89.712206,134.758956 89.9524276,133.894643 90.0533786,133.008772 C90.158562,132.059953 90.1217779,131.10073 89.9442413,130.162781 Z" id="Path" fill="#353967"></path>
                </g>
                <path d="M57.1927524,6.48964324 C52.6954593,5.9215005 49.3204446,5.63742914 47.0677083,5.63742914 C46.6775065,5.63742914 44.3357287,10.0342078 42.4522894,9.87568077 C35.5879627,9.29791775 18.8543755,8.62597397 14.4609494,7.52856905 C11.9371899,6.89817581 11.9371899,2.67472028 11.8681521,2.67472028 C10.206374,2.67472028 7.62095265,2.45710814 4.11188811,2.02188387 L48.639549,99.6679948 L61.1649484,14.9214107 C61.637971,11.7326911 59.8592867,7.95385123 57.1927524,6.48964324 Z" id="Path" fill="url(#linearGradient-7)" opacity="0.227841332" style="mix-blend-mode: multiply;" transform="translate(32.676512, 50.844939) scale(-1, 1) translate(-32.676512, -50.844939) "></path>
            </g>
            <g id="Group-90" transform="translate(36.680000, 50.000000)" fill="#525898" fill-rule="nonzero">
                <path d="M8.18571609,23.4539902 C4.03250205,20.949977 1.39604495,14.4640918 2.29815798,8.96671903 C3.20027101,3.46934623 7.30107356,1.04389029 11.4542876,3.5462669 C15.6075017,6.0486435 18.2439587,12.5345287 17.3402575,18.0335381 C16.4365562,23.5325475 12.3484595,25.9580035 8.18571609,23.4539902 Z M7.80295334,25.7828862 C12.9297506,28.8728058 17.9882542,25.876173 19.1016014,19.0940614 C20.2149487,12.3119498 16.9622594,4.30729052 11.8354621,1.21737095 C6.70866482,-1.87254863 1.65174952,1.12244757 0.538402275,7.90619578 C-0.57494497,14.689944 2.67774427,22.6978764 7.80295334,25.7828862 Z" id="Shape" transform="translate(9.820000, 13.500000) scale(-1, -1) translate(-9.820000, -13.500000) "></path>
            </g>
            <polyline id="Path-4" stroke="#525898" stroke-width="1.4" points="37 65.4599986 24.1095193 66.5857025 31.5857672 104.463486 74.7070748 98.3887924 67.6993023 61.5 56 62.5639753"></polyline>
        </g>
    </g>
</svg>