<?xml version="1.0" encoding="UTF-8"?>
<svg width="220px" height="200px" viewBox="0 0 220 200" version="1.1" xmlns="http://www.w3.org/2000/svg" xmlns:xlink="http://www.w3.org/1999/xlink">
    <!-- Generator: Sketch 56.3 (81716) - https://sketch.com -->
    <title>android</title>
    <desc>Created with Sketch.</desc>
    <defs>
        <radialGradient cx="43.2402825%" cy="6.66528426%" fx="43.2402825%" fy="6.66528426%" r="77.71657%" gradientTransform="translate(0.432403,0.066653),scale(0.653846,1.000000),rotate(19.136192),translate(-0.432403,-0.066653)" id="radialGradient-1">
            <stop stop-color="#B7CB4F" offset="0%"></stop>
            <stop stop-color="#A8C54A" offset="13%"></stop>
            <stop stop-color="#9AC045" offset="33%"></stop>
            <stop stop-color="#92BD42" offset="57%"></stop>
            <stop stop-color="#90BC41" offset="100%"></stop>
        </radialGradient>
        <linearGradient x1="45.3774936%" y1="27.1723332%" x2="65.4670151%" y2="50.3335954%" id="linearGradient-2">
            <stop stop-color="#95BC49" offset="0%"></stop>
            <stop stop-color="#B7CB4F" offset="23%"></stop>
            <stop stop-color="#A8C54A" offset="33%"></stop>
            <stop stop-color="#9AC045" offset="48%"></stop>
            <stop stop-color="#92BD42" offset="66%"></stop>
            <stop stop-color="#90BC41" offset="100%"></stop>
        </linearGradient>
        <linearGradient x1="45.5561456%" y1="42.4317283%" x2="61.9109287%" y2="31.1672607%" id="linearGradient-3">
            <stop stop-color="#95BC49" offset="0%"></stop>
            <stop stop-color="#B7CB4F" offset="23%"></stop>
            <stop stop-color="#A8C54A" offset="33%"></stop>
            <stop stop-color="#9AC045" offset="48%"></stop>
            <stop stop-color="#92BD42" offset="66%"></stop>
            <stop stop-color="#90BC41" offset="100%"></stop>
        </linearGradient>
        <linearGradient x1="32.2173731%" y1="31.9358302%" x2="56.3142311%" y2="49.3194529%" id="linearGradient-4">
            <stop stop-color="#95BC49" offset="0%"></stop>
            <stop stop-color="#B7CB4F" offset="23%"></stop>
            <stop stop-color="#A8C54A" offset="33%"></stop>
            <stop stop-color="#9AC045" offset="48%"></stop>
            <stop stop-color="#92BD42" offset="66%"></stop>
            <stop stop-color="#90BC41" offset="100%"></stop>
        </linearGradient>
        <linearGradient x1="40.1755369%" y1="39.5088605%" x2="60.3321565%" y2="50.0978638%" id="linearGradient-5">
            <stop stop-color="#95BC49" offset="0%"></stop>
            <stop stop-color="#B7CB4F" offset="23%"></stop>
            <stop stop-color="#A8C54A" offset="33%"></stop>
            <stop stop-color="#9AC045" offset="48%"></stop>
            <stop stop-color="#92BD42" offset="66%"></stop>
            <stop stop-color="#90BC41" offset="100%"></stop>
        </linearGradient>
        <linearGradient x1="0%" y1="70.3764655%" x2="114.266954%" y2="13.462539%" id="linearGradient-6">
            <stop stop-color="#95BC49" offset="0%"></stop>
            <stop stop-color="#B7CB4F" offset="23%"></stop>
            <stop stop-color="#A8C54A" offset="33%"></stop>
            <stop stop-color="#9AC045" offset="48%"></stop>
            <stop stop-color="#92BD42" offset="66%"></stop>
            <stop stop-color="#90BC41" offset="100%"></stop>
        </linearGradient>
        <linearGradient x1="52.2104462%" y1="-62.9203316%" x2="49.9182134%" y2="54.178883%" id="linearGradient-7">
            <stop stop-color="#FFFFFF" offset="0%"></stop>
            <stop stop-color="#AAD7FF" offset="100%"></stop>
        </linearGradient>
        <linearGradient x1="51.6607604%" y1="107.409794%" x2="50.3761057%" y2="32.2242268%" id="linearGradient-8">
            <stop stop-color="#6DA9DD" offset="0%"></stop>
            <stop stop-color="#88ACE5" offset="27%"></stop>
            <stop stop-color="#CDDFFA" offset="86%"></stop>
            <stop stop-color="#D9EDFD" offset="100%"></stop>
        </linearGradient>
        <linearGradient x1="51.8320369%" y1="25.699292%" x2="47.0287792%" y2="89.3949305%" id="linearGradient-9">
            <stop stop-color="#161A83" offset="0%"></stop>
            <stop stop-color="#151981" offset="100%"></stop>
        </linearGradient>
        <linearGradient x1="51.8326276%" y1="25.7009164%" x2="47.0293938%" y2="89.397137%" id="linearGradient-10">
            <stop stop-color="#161A86" offset="0%"></stop>
            <stop stop-color="#161981" offset="100%"></stop>
        </linearGradient>
        <linearGradient x1="51.8325513%" y1="25.6966531%" x2="47.0292678%" y2="89.3958893%" id="linearGradient-11">
            <stop stop-color="#171B88" offset="0%"></stop>
            <stop stop-color="#161981" offset="100%"></stop>
        </linearGradient>
        <linearGradient x1="51.832791%" y1="25.6987321%" x2="47.0295002%" y2="89.3946316%" id="linearGradient-12">
            <stop stop-color="#171B8A" offset="0%"></stop>
            <stop stop-color="#161981" offset="100%"></stop>
        </linearGradient>
        <linearGradient x1="51.8326529%" y1="25.6990801%" x2="47.0290814%" y2="89.3946144%" id="linearGradient-13">
            <stop stop-color="#181C8D" offset="0%"></stop>
            <stop stop-color="#161981" offset="100%"></stop>
        </linearGradient>
        <linearGradient x1="51.8327139%" y1="25.6994957%" x2="47.0286216%" y2="89.394488%" id="linearGradient-14">
            <stop stop-color="#181D8F" offset="0%"></stop>
            <stop stop-color="#171981" offset="100%"></stop>
        </linearGradient>
        <linearGradient x1="53.6509311%" y1="-62.9203316%" x2="49.8649153%" y2="54.178883%" id="linearGradient-15">
            <stop stop-color="#FFFFFF" offset="0%"></stop>
            <stop stop-color="#AAD7FF" offset="100%"></stop>
        </linearGradient>
        <linearGradient x1="51.832626%" y1="25.6996469%" x2="47.0293646%" y2="89.3971756%" id="linearGradient-16">
            <stop stop-color="#191E94" offset="0%"></stop>
            <stop stop-color="#171981" offset="100%"></stop>
        </linearGradient>
        <linearGradient x1="51.8524424%" y1="25.6973625%" x2="46.9967396%" y2="89.3942193%" id="linearGradient-17">
            <stop stop-color="#1A1E96" offset="0%"></stop>
            <stop stop-color="#181981" offset="100%"></stop>
        </linearGradient>
        <linearGradient x1="51.8527341%" y1="25.6998399%" x2="46.9970003%" y2="89.3946796%" id="linearGradient-18">
            <stop stop-color="#1A1F99" offset="0%"></stop>
            <stop stop-color="#181981" offset="100%"></stop>
        </linearGradient>
        <linearGradient x1="51.8518361%" y1="25.6992551%" x2="46.9962373%" y2="89.3979552%" id="linearGradient-19">
            <stop stop-color="#1B1F9B" offset="0%"></stop>
            <stop stop-color="#181981" offset="100%"></stop>
        </linearGradient>
        <linearGradient x1="51.852306%" y1="25.6985303%" x2="46.9969267%" y2="89.3959679%" id="linearGradient-20">
            <stop stop-color="#1B209D" offset="0%"></stop>
            <stop stop-color="#181981" offset="100%"></stop>
        </linearGradient>
        <linearGradient x1="51.8111601%" y1="25.6971249%" x2="47.0641132%" y2="89.392136%" id="linearGradient-21">
            <stop stop-color="#1C21A0" offset="0%"></stop>
            <stop stop-color="#191981" offset="100%"></stop>
        </linearGradient>
        <linearGradient x1="51.8106086%" y1="25.6984422%" x2="47.0636155%" y2="89.3958123%" id="linearGradient-22">
            <stop stop-color="#1C21A2" offset="0%"></stop>
            <stop stop-color="#191981" offset="100%"></stop>
        </linearGradient>
        <linearGradient x1="51.8114711%" y1="25.6990431%" x2="47.0642416%" y2="89.3953881%" id="linearGradient-23">
            <stop stop-color="#1D22A4" offset="0%"></stop>
            <stop stop-color="#191981" offset="100%"></stop>
        </linearGradient>
        <linearGradient x1="51.8114301%" y1="25.6991782%" x2="47.064168%" y2="89.396392%" id="linearGradient-24">
            <stop stop-color="#1D22A7" offset="0%"></stop>
            <stop stop-color="#191981" offset="100%"></stop>
        </linearGradient>
        <linearGradient x1="51.8114321%" y1="25.6989384%" x2="47.0639722%" y2="89.3952145%" id="linearGradient-25">
            <stop stop-color="#1E23A9" offset="0%"></stop>
            <stop stop-color="#1A1981" offset="100%"></stop>
        </linearGradient>
        <linearGradient x1="51.8111645%" y1="25.6995406%" x2="47.0640588%" y2="89.3947892%" id="linearGradient-26">
            <stop stop-color="#373E82" offset="0%"></stop>
            <stop stop-color="#36358C" offset="100%"></stop>
        </linearGradient>
        <linearGradient x1="51.8310128%" y1="25.6995406%" x2="47.0318844%" y2="89.3947892%" id="linearGradient-27">
            <stop stop-color="#373E82" offset="0%"></stop>
            <stop stop-color="#36358C" offset="100%"></stop>
        </linearGradient>
        <linearGradient x1="51.8511891%" y1="25.6995406%" x2="46.9991781%" y2="89.3947892%" id="linearGradient-28">
            <stop stop-color="#373E82" offset="0%"></stop>
            <stop stop-color="#36358C" offset="100%"></stop>
        </linearGradient>
        <linearGradient x1="51.8093556%" y1="25.6995406%" x2="47.0669911%" y2="89.3947892%" id="linearGradient-29">
            <stop stop-color="#373E82" offset="0%"></stop>
            <stop stop-color="#36358C" offset="100%"></stop>
        </linearGradient>
        <linearGradient x1="48.9740823%" y1="37.7849623%" x2="43.061234%" y2="73.6458292%" id="linearGradient-30">
            <stop stop-color="#6D9BDD" offset="0%"></stop>
            <stop stop-color="#85B2E4" offset="17%"></stop>
            <stop stop-color="#A9CDEF" offset="38%"></stop>
            <stop stop-color="#C3D6F7" offset="57%"></stop>
            <stop stop-color="#D3EAFB" offset="74%"></stop>
            <stop stop-color="#D9F4FD" stop-opacity="0.123033217" offset="100%"></stop>
        </linearGradient>
    </defs>
    <g id="android" stroke="none" stroke-width="1" fill="none" fill-rule="evenodd">
        <g id="Group-87" transform="translate(23.000000, 14.000000)">
            <g id="Group-27" transform="translate(55.139998, 90.799999) scale(-1, 1) translate(-55.139998, -90.799999) translate(0.139998, 40.799999)" fill-rule="nonzero">
                <path d="M47.9208078,29.4071279 C48.0302017,29.9487152 47.6608501,30.4728564 47.0950384,30.578965 L47.0950384,30.578965 C46.8247431,30.6332027 46.5430018,30.5815529 46.3128116,30.4355645 C46.0826215,30.2895761 45.9231831,30.0614262 45.870147,29.8021292 L40.8191905,5.27255078 C40.7097967,4.73096354 41.0791482,4.20682227 41.64496,4.1007137 L41.64496,4.1007137 C41.918903,4.04654989 42.2041096,4.09961955 42.4368609,4.24806629 C42.6696123,4.39651303 42.8305124,4.62796616 42.8836141,4.89071623 L47.9208078,29.4071279 Z" id="Path" fill="#92BD41"></path>
                <path d="M54.4183711,31.8574041 C53.9921276,32.2203913 53.9384821,32.8620459 54.2984681,33.2915657 L54.2984681,33.2915657 C54.6553603,33.7245411 55.2935246,33.7845444 55.7239818,33.4255995 L75.1216265,17.1002827 C75.54787,16.7372955 75.6015155,16.0956409 75.2415295,15.666121 L75.2415295,15.666121 C75.070301,15.4569877 74.82241,15.3262495 74.5540436,15.3035397 C74.2856772,15.2808299 74.019562,15.3680716 73.8160158,15.5454906 L54.4183711,31.8574041 Z" id="Path" fill="#92BD41"></path>
                <path d="M74.3248118,47.9399991 C78.5196707,34.1733492 70.9510523,19.6050794 57.1136807,14.8115747 C43.2763091,10.01807 28.0285105,16.6823387 22.4399996,29.9662034 L74.3248118,47.9399991 Z" id="Path" fill="url(#radialGradient-1)"></path>
                <path d="M86.6622387,58.1547398 C84.9867494,59.6202496 82.4557131,59.4656689 80.9681184,57.8069767 L79.1098974,55.2255041 C78.557791,54.300714 78.3986356,53.190791 78.6683647,52.1463283 C78.9380937,51.1018655 79.6139646,50.2109286 80.5433822,49.6746692 L100.997087,34.6673517 C102.961492,33.2227971 105.509909,33.3298011 106.677934,35.0017394 L108.549428,37.583212 C109.730726,39.2150237 109.080349,41.7028677 107.129216,43.1474224 L86.6622387,58.1547398 Z" id="Path" fill="url(#linearGradient-2)"></path>
                <path d="M18.950873,26.9113107 C19.4304649,27.8751185 19.5116876,28.9959818 19.1762708,30.0217707 C18.8408539,31.0475595 18.1169625,31.8921384 17.1674305,32.3655256 L14.2431092,33.5208519 C12.1272548,34.0975247 9.9507326,32.8302343 9.35175567,30.6728382 L0.408315729,6.7468365 C-0.553268435,4.73108579 0.240425298,2.29779259 2.1917583,1.27918759 L5.11607957,0.137295314 C7.23979887,-0.437403309 9.41987271,0.843930052 10.0074331,3.01217705 L18.950873,26.9113107 Z" id="Path" fill="url(#linearGradient-3)"></path>
                <path d="M25.6772167,90.4676379 C24.5923488,92.5889149 22.0012765,93.4298901 19.883435,92.3481052 L16.5670849,90.6122892 C15.5579938,90.0761078 14.8029665,89.1592426 14.4685344,88.0639204 C14.1341023,86.9685981 14.2477399,85.7848025 14.7843828,84.7736353 L26.3326219,62.5367803 C26.8536661,61.5144877 27.75841,60.741904 28.8475797,60.389194 C29.9367494,60.036484 31.121006,60.1325787 32.1395117,60.6563129 L35.4558618,62.3921289 C37.5530691,63.5190238 38.3495231,66.1334218 37.2385639,68.2439329 L25.6772167,90.4676379 Z" id="Path" fill="url(#linearGradient-4)"></path>
                <path d="M50.704649,96.8632297 C50.0288686,99.1470402 47.6356924,100.453531 45.3523375,99.7851826 L41.7797678,98.6976396 C39.5156666,97.9821096 38.2530634,95.5707575 38.9531192,93.2992333 L46.2029494,69.3863901 C46.5243847,68.2908421 47.268022,67.3684032 48.2697351,66.8226624 C49.2714482,66.2769216 50.4488842,66.1527453 51.5421745,66.4775401 L55.1147443,67.5650831 C56.2064768,67.9028157 57.1186573,68.662463 57.6492231,69.6757513 C58.1797889,70.6890395 58.2849433,71.8723244 57.9413929,72.9634894 L50.704649,96.8632297 Z" id="Path" fill="url(#linearGradient-5)"></path>
                <path d="M21.0170376,34.6799994 L10.3907617,69.6627003 C10.0496359,70.7865556 10.1693007,71.9999378 10.7233894,73.0354918 C11.2774781,74.0710457 12.2205223,74.8437941 13.3447327,75.1834705 L57.3468714,88.5509527 C59.6897674,89.2542209 62.1610818,87.9348844 62.8805547,85.5967391 L73.4399986,50.5739357 L21.0170376,34.6799994 Z" id="Path" fill="url(#linearGradient-6)"></path>
            </g>
            <g id="hk;j" transform="translate(87.699998, 0.000000)">
                <path d="M83.3084962,39.9090593 L62.2378942,171.665992 L65.685621,170.322324 C67.1458172,169.748373 67.9137942,168.229702 68.1262134,166.75404 L86.9082284,38.7511287 C86.9087929,38.7462012 86.9087929,38.7412255 86.9082284,38.7362979 C87.2053182,36.5843529 86.5650897,34.3434232 85.3797016,32.5444506 C84.7409586,31.5760011 83.90168,30.6876379 82.8707785,30.1285178 L29.4882038,0.590068772 C28.4736423,0.0146348108 27.2823123,-0.200411386 26.1682257,0.219299467 L22.720499,1.56445051 C23.299824,1.33160738 83.7660145,36.8020125 83.3084962,39.9090593 Z" id="Path" fill="url(#linearGradient-7)" fill-rule="nonzero"></path>
                <path d="M83.3084962,39.9090593 L62.2378942,171.665992 L65.685621,170.322324 C67.1458172,169.748373 67.9137942,168.229702 68.1262134,166.75404 L86.9082284,38.7511287 C86.9087929,38.7462012 86.9087929,38.7412255 86.9082284,38.7362979 C87.2053182,36.5843529 86.5650897,34.3434232 85.3797016,32.5444506 C84.7409586,31.5760011 83.90168,30.6876379 82.8707785,30.1285178 L29.4882038,0.590068772 C28.4736423,0.0146348108 27.2823123,-0.200411386 26.1682257,0.219299467 L22.720499,1.56445051 C23.299824,1.33160738 83.7660145,36.8020125 83.3084962,39.9090593 Z" id="Path" fill="url(#linearGradient-8)" fill-rule="nonzero" opacity="0.6" style="mix-blend-mode: multiply;"></path>
                <path d="M79.2174794,31.8437704 L26.1041084,2.41915299 C23.4111942,0.942310119 20.846866,2.36598665 20.3665164,5.61208728 L1.68313137,133.078396 C1.2072157,136.32745 2.99707245,140.167241 5.68998658,141.66033 L58.8048356,171.074609 C61.4977497,172.56622 64.0679899,171.138113 64.5439056,167.89349 L83.2317246,40.428658 C83.7091182,37.1840342 81.9103935,33.3353817 79.2174794,31.8437704 Z" id="Path" fill="#B2DAFE"></path>
                <path d="M79.2132663,31.8442496 L26.1040191,2.42652634 C23.4112933,0.935618577 20.8457364,2.36594436 20.3710714,5.61225196 L1.68316998,133.075262 C1.20702627,136.326002 2.99774067,140.167786 5.69046645,141.657216 L58.8011924,171.074939 C61.4939182,172.565847 64.0653899,171.138477 64.540055,167.892169 L83.2338712,40.4291595 C83.7041001,37.1828519 81.9030347,33.3351573 79.2132663,31.8442496 Z" id="Path" fill="url(#linearGradient-9)"></path>
                <path d="M79.2174259,31.8470071 L26.0996764,2.42664086 C23.4067989,0.934924803 20.8426468,2.36750445 20.3662146,5.6126152 L1.68326689,133.079678 C1.20683471,136.332181 2.9971544,140.176048 5.69003195,141.654459 L58.8077815,171.074825 C61.500659,172.566541 64.0707295,171.136918 64.5471617,167.891807 L83.231589,40.4321361 C83.7095008,37.1870254 81.9103035,33.3387232 79.2174259,31.8470071 Z" id="Path" fill="url(#linearGradient-10)"></path>
                <path d="M79.2185338,31.8390582 L26.1049775,2.42635414 C23.4121418,0.935230778 20.8466199,2.36718257 20.3714137,5.61422203 L1.68292671,133.075683 C1.20772041,136.322723 2.9975161,140.167395 5.69035179,141.65556 L58.8039081,171.074181 C61.4982241,172.566784 64.0681872,171.13779 64.5433935,167.89223 L83.2318804,40.4218933 C83.7085671,37.1792917 81.9113694,33.3301816 79.2185338,31.8390582 Z" id="Path" fill="url(#linearGradient-11)"></path>
                <path d="M79.2190093,31.8404669 L26.1056774,2.42693029 C23.4129075,0.935089445 20.8489995,2.36625025 20.3735434,5.61337209 L1.68412035,133.072524 C1.20422076,136.328526 2.99940072,140.166168 5.69217066,141.656529 L58.8055025,171.074506 C61.4982725,172.566347 64.0695863,171.138146 64.5450424,167.892504 L83.2329843,40.4244718 C83.705478,37.18327 81.9117792,33.3352678 79.2190093,31.8404669 Z" id="Path" fill="url(#linearGradient-12)"></path>
                <path d="M79.2183927,31.8440333 L26.1111545,2.42640605 C23.4182971,0.935237687 20.8528947,2.36717394 20.3771615,5.61309354 L1.68129136,133.076151 C1.21296833,136.322071 2.9914102,140.166234 5.6887137,141.657403 L58.8048441,171.07503 C61.4977015,172.566198 64.06755,171.137224 64.5432832,167.892785 L83.2317432,40.4282468 C83.7089584,37.183808 81.9112501,33.3352016 79.2183927,31.8440333 Z" id="Path" fill="url(#linearGradient-13)"></path>
                <path d="M79.225923,31.8447921 L26.1013734,2.42611448 C23.408294,0.935623465 20.8442334,2.36685043 20.3681989,5.61303912 L1.68273639,133.075208 C1.20818496,136.321397 2.99813363,140.166153 5.68676408,141.656644 L58.8068648,171.075321 C61.4999442,172.565812 64.0714197,171.137549 64.5474541,167.892842 L83.2299507,40.4291907 C83.7134,37.183002 81.9145535,33.3352831 79.225923,31.8447921 Z" id="Path" fill="url(#linearGradient-14)"></path>
                <path d="M79.2153552,31.8436996 L26.1030088,2.42672963 C23.4103019,0.935423859 20.8451833,2.36595077 20.3763704,5.61243153 L1.6831982,133.076085 C1.20696739,136.322566 2.99765459,140.166459 5.68887795,141.657764 L58.8012243,171.074734 C61.4939313,172.56604 64.0649842,171.138478 64.5397314,167.891997 L83.2329036,40.4283435 C83.7061673,37.1833451 81.9080621,33.3350054 79.2153552,31.8436996 Z" id="Path" fill="url(#linearGradient-15)" fill-rule="nonzero"></path>
                <path d="M78.2997375,31.8447536 L25.1862733,2.42607213 C22.4935642,0.935410894 19.9285139,2.36674233 19.4535046,5.61949863 L0.764856604,133.077709 C0.289847283,136.324532 2.08003866,140.169103 4.77274775,141.659764 L57.8862119,171.078446 C60.5804054,172.561691 63.1499089,171.140742 63.6264026,167.895402 L82.3135662,40.4297757 C82.7915444,37.1844357 80.9924466,33.3354149 78.2997375,31.8447536 Z" id="Path" fill="url(#linearGradient-16)"></path>
                <path d="M78.2993322,31.6789521 L25.1866714,2.42018071 C22.4939823,0.944179528 19.9290215,2.36114066 19.4537537,5.58915524 L0.765333016,132.364372 C0.288580013,135.589435 2.0797455,139.416706 4.77243458,140.903039 L57.8865806,170.163287 C60.5792697,171.639288 63.1501714,170.225279 63.6254392,166.997264 L82.3138599,40.2176189 C82.7906129,36.9925563 80.9935065,33.1623332 78.2993322,31.6789521 Z" id="Path" fill="url(#linearGradient-17)"></path>
                <path d="M78.2986391,31.6835036 L25.1859466,2.42583932 C22.5007405,0.937260404 19.9284706,2.36529197 19.4529499,5.59497659 L0.764985527,132.369328 C0.289464806,135.599012 2.08009752,139.422356 4.77719161,140.905028 L57.8913701,170.162693 C60.5840062,171.639457 63.1547901,170.226193 63.6303109,166.997986 L82.3138172,40.2192041 C82.7908239,36.9939498 80.9927612,33.1661754 78.2986391,31.6835036 Z" id="Path" fill="url(#linearGradient-18)"></path>
                <path d="M78.2957281,31.6816311 L25.1848191,2.42089674 C22.4923281,0.943231134 19.9276969,2.36179012 19.4519393,5.59048947 L0.76507043,132.369766 C0.289312771,135.598465 2.07935097,139.422664 4.77927568,140.904762 L57.8901847,170.162541 C60.5841624,171.640207 63.1532538,170.224603 63.6290115,166.997381 L82.3158803,40.2136723 C82.785691,36.9908836 80.9882191,33.1637297 78.2957281,31.6816311 Z" id="Path" fill="url(#linearGradient-19)"></path>
                <path d="M78.2982364,31.6807994 L25.1913281,2.42122725 C22.4973053,0.942799069 19.9327028,2.36209012 19.4581621,5.59097727 L0.765125397,132.367672 C0.289097087,135.595081 2.0801536,139.419775 4.77268873,140.902638 L57.8795971,170.16221 C60.5721322,171.640638 63.1426851,170.224304 63.6187134,166.996896 L82.3117501,40.2187221 C82.7967039,36.9913134 80.9907715,33.1636628 78.2982364,31.6807994 Z" id="Path" fill="url(#linearGradient-20)"></path>
                <path d="M78.345706,31.6788795 L25.829576,2.42208176 C23.1672713,0.942896883 20.6315328,2.359956 20.1561739,5.58901659 L1.68192826,132.361077 C1.21245607,135.590138 2.98291074,139.413831 5.64521539,140.895974 L58.1613454,170.161647 C60.8251218,171.640832 63.366747,170.225252 63.8362192,166.996191 L82.3148799,40.2300473 C82.7858238,36.9891532 81.0080106,33.1610227 78.345706,31.6788795 Z" id="Path" fill="url(#linearGradient-21)"></path>
                <path d="M78.3400596,31.683686 L25.8292449,2.42194873 C23.1655675,0.941915482 20.6299939,2.3627474 20.1602797,5.59069991 L1.68239809,132.367388 C1.21121137,135.59534 2.98257893,139.419746 5.64478389,140.91014 L58.1673783,170.161517 C60.8295832,171.64155 63.3710466,170.223678 63.8422333,166.995726 L82.3156975,40.2190378 C82.7839393,36.9910853 81.0052095,33.1637193 78.3400596,31.683686 Z" id="Path" fill="url(#linearGradient-22)"></path>
                <path d="M78.3456532,31.6818966 L25.8295835,2.42229062 C23.1673156,0.941466387 20.6317523,2.36305765 20.1602937,5.59125447 L1.6820626,132.366098 C1.2120773,135.595775 2.98299372,139.419263 5.64526158,140.901569 L58.1628046,170.161174 C60.8250725,171.641999 63.3665291,170.223369 63.8365144,166.995172 L82.3147454,40.2203291 C82.7862041,36.986209 81.0079211,33.1642016 78.3456532,31.6818966 Z" id="Path" fill="url(#linearGradient-23)"></path>
                <path d="M78.3452984,31.6820638 L25.8262237,2.42264225 C23.1625331,0.941002516 20.6270888,2.36337666 20.1568524,5.59186965 L1.6834875,132.368374 C1.20882875,135.596867 2.97774335,139.419497 5.64585622,140.902619 L58.1619827,170.160558 C60.8256733,171.642198 63.367014,170.224269 63.8372504,166.995776 L82.3150376,40.2207536 C82.7852741,36.9937422 81.008989,33.1666668 78.3452984,31.6820638 Z" id="Path" fill="url(#linearGradient-24)"></path>
                <path d="M78.3461368,31.6817955 L25.829602,2.42298571 C23.1747191,0.94055121 20.6319312,2.36368833 20.1614269,5.59243068 L1.6819666,132.365782 C1.21146234,135.594524 2.99023393,139.417723 5.64511688,140.90164 L58.1631266,170.16045 C60.8253842,171.642884 63.3666972,170.222712 63.8372015,166.995452 L82.3151868,40.2191358 C82.7842162,36.9918759 81.0142942,33.1657125 78.3461368,31.6817955 Z" id="Path" fill="url(#linearGradient-25)"></path>
                <path d="M78.3466522,31.6814854 L25.829719,2.42332873 C23.1660197,0.940100676 20.6307093,2.36399961 20.1599503,5.59298709 L1.68228931,132.365972 C1.21153028,135.59496 2.98241065,139.417238 5.64463415,140.900467 L58.1615674,170.160106 C60.8252666,171.643334 63.36648,170.222402 63.837239,166.994898 L82.3149,40.2204293 C82.785659,36.992925 81.0088757,33.1661967 78.3466522,31.6814854 Z" id="Path" fill="url(#linearGradient-26)"></path>
                <path d="M78.3456688,32.4446084 L25.8248676,3.33848325 C23.1669323,1.86251341 20.6271275,3.27944445 20.1560823,6.49115481 L1.6819554,132.575878 C1.21238683,135.786112 2.98286706,139.588211 5.64523224,141.06418 L58.1660335,170.162926 C60.8239688,171.638896 63.3711567,170.224916 63.8407253,167.016158 L82.3148522,40.929959 C82.7858974,37.7197246 81.008034,33.9205782 78.3456688,32.4446084 Z" id="Path" fill="url(#linearGradient-27)"></path>
                <path d="M78.3456074,32.4339112 L25.8294453,3.33891041 C23.1702495,1.86200682 20.6307175,3.27983426 20.1609263,6.49062267 L1.68247025,132.578313 C1.21120166,135.793532 2.98104419,139.592128 5.64467197,141.067555 L58.1623114,170.162556 C60.8215072,171.639459 63.3654711,170.224586 63.8367397,167.013797 L82.3151958,40.9261068 C82.784987,37.7153184 81.0077578,33.9093379 78.3456074,32.4339112 Z" id="Path" fill="url(#linearGradient-27)"></path>
                <path d="M78.3469091,32.4383776 L25.8293566,3.33920129 C23.1686683,1.86163572 20.6306673,3.28009867 20.1606124,6.49084866 L1.68213215,132.574474 C1.21207721,135.785224 2.98143493,139.587 5.64507955,141.063088 L58.162632,170.162264 C60.8233203,171.63983 63.367234,170.224322 63.8372889,167.013572 L82.314291,40.929947 C82.7873022,37.7206745 81.0090755,33.9144656 78.3469091,32.4383776 Z" id="Path" fill="url(#linearGradient-27)"></path>
                <path d="M77.4275545,32.4398035 L24.914411,3.33954903 C22.2522976,1.86117804 19.7158952,3.28041419 19.2455885,6.49143596 L0.764606098,132.574305 C0.292820455,135.785327 2.06312583,139.587697 4.72671812,141.063111 L57.2442986,170.161888 C59.9064119,171.640259 62.4487301,170.223979 62.9190368,167.014436 L81.3970613,40.9330448 C81.867368,37.7205446 80.0896679,33.9152177 77.4275545,32.4398035 Z" id="Path" fill="url(#linearGradient-27)"></path>
                <path d="M77.4268207,32.4407368 L24.9107212,3.3399156 C22.2471827,1.86076437 19.712382,3.28074955 19.2418235,6.49050771 L0.764265488,132.574838 C0.293707031,135.786075 2.06348035,139.587493 4.72701879,141.062207 L57.2431183,170.161549 C59.9066568,171.640701 62.4473765,170.223674 62.9179349,167.013916 L81.3969727,40.932544 C81.8675312,37.7227859 80.0903592,33.9169298 77.4268207,32.4407368 Z" id="Path" fill="url(#linearGradient-27)"></path>
                <path d="M77.4284874,32.4394485 L24.9122274,3.34024068 C22.247179,1.86026877 19.7139024,3.28104181 19.2430772,6.49258086 L0.763927419,132.572868 C0.294582778,135.784407 2.06387882,139.586455 4.72744668,141.061987 L57.2437067,170.161195 C59.9087551,171.641167 62.4479541,170.223354 62.9187793,167.013295 L81.3964484,40.9300474 C81.8687542,37.7199883 80.0920553,33.9149805 77.4284874,32.4394485 Z" id="Path" fill="url(#linearGradient-27)"></path>
                <path d="M77.4326851,32.4393965 L24.9107257,3.34058957 C22.2442604,1.85980961 19.7125998,3.28135837 19.2430056,6.49317009 L0.764401158,132.574179 C0.293325623,135.778587 2.0635623,139.587153 4.72706485,141.06201 L57.2430987,170.160817 C59.909564,171.641597 62.4486315,170.22301 62.9182257,167.01416 L81.3968301,40.9316695 C81.8679057,37.7213386 80.0902621,33.9157341 77.4326851,32.4393965 Z" id="Path" fill="url(#linearGradient-27)"></path>
                <path d="M77.4279192,32.4393783 L24.911605,3.34096778 C22.2436956,1.85937865 19.7136282,3.28170421 19.2422975,6.49230786 L0.764060632,132.574061 C0.294212145,135.784665 2.06392538,139.586423 4.72738825,141.062086 L57.2437025,170.160496 C59.9116119,171.642085 62.447608,170.222723 62.9189386,167.012119 L81.3971755,40.9288841 C81.867024,37.7242068 80.0898999,33.9150411 77.4279192,32.4393783 Z" id="Path" fill="url(#linearGradient-27)"></path>
                <path d="M77.4271849,32.4405518 L24.9102812,3.34131238 C22.2483253,1.85892627 19.719838,3.28201694 19.2423173,6.49286526 L0.764339662,132.571286 C0.294233812,135.783617 2.0575015,139.585938 4.72687226,141.060912 L57.243776,170.160151 C59.9057318,171.642537 62.447566,170.222411 62.9176718,167.011563 L81.3971324,40.9316594 C81.8672383,37.7208111 80.0891407,33.9155259 77.4271849,32.4405518 Z" id="Path" fill="url(#linearGradient-27)"></path>
                <path d="M77.4278932,32.4378038 L24.9119867,3.33784759 C22.2411583,1.86349332 19.7187092,3.27851744 19.2438952,6.48976191 L0.76472988,132.575234 C0.291399725,135.786479 2.07195203,139.588058 4.72794256,141.063896 L57.243849,170.163852 C59.9072585,171.638206 62.448997,170.224665 62.9193595,167.014904 L81.3970411,40.9338815 C81.8674037,37.7196706 80.0898189,33.9136413 77.4278932,32.4378038 Z" id="Path" fill="url(#linearGradient-27)" fill-rule="nonzero" opacity="0.6" style="mix-blend-mode: multiply;"></path>
                <path d="M77.4270778,32.2757875 L24.911627,3.33503646 C22.2482193,1.86792577 19.7154582,3.2759978 19.2418645,6.46851333 L0.764288395,131.865151 C0.293663967,135.059142 2.06333059,138.840568 4.72673823,140.307679 L57.2436736,169.24843 C59.9070813,170.715541 62.4398424,169.310421 62.9178899,166.117905 L81.3969507,40.7212677 C81.8675751,37.5272763 80.0904854,33.7428982 77.4270778,32.2757875 Z" id="Path" fill="url(#linearGradient-28)"></path>
                <path d="M77.4282823,32.2784323 L24.9138015,3.33532103 C22.2504971,1.86749181 19.7149362,3.27625345 19.245553,6.47033252 L0.764329626,131.863409 C0.293460972,135.056011 2.06404594,138.837813 4.72735035,140.305642 L57.2418312,169.248753 C59.9051356,170.715106 62.4406964,169.310774 62.9175067,166.118172 L81.3972446,40.7236187 C81.8666279,37.5310164 80.0915867,33.7462616 77.4282823,32.2784323 Z" id="Path" fill="url(#linearGradient-28)"></path>
                <path d="M77.4270239,32.2762535 L24.9116348,3.33505995 C22.248263,1.86783142 19.7097369,3.27595709 19.241566,6.47046673 L0.764424561,131.864574 C0.293281234,135.059084 2.06341279,138.84019 4.72678453,140.307418 L57.2510912,169.248612 C59.9144629,170.71584 62.4529891,169.309192 62.9256187,166.117638 L81.3968151,40.7205748 C81.8679585,37.5290203 80.0903956,33.743482 77.4270239,32.2762535 Z" id="Path" fill="url(#linearGradient-28)"></path>
                <path d="M77.4266951,32.275447 L24.9110287,3.33453779 C22.247697,1.86797762 19.7063046,3.27688069 19.2423406,6.47019719 L0.764082873,131.865527 C0.294170638,135.058843 2.06377684,138.840558 4.72710853,140.307118 L57.244262,169.248027 C59.9061066,170.716066 62.4489861,169.31012 62.9188983,166.116803 L81.397156,40.7214734 C81.8670683,37.5237218 80.0900268,33.7434855 77.4266951,32.275447 Z" id="Path" fill="url(#linearGradient-28)"></path>
                <path d="M77.4255365,32.2767739 L24.9034539,3.33517 C22.2401528,1.86775006 19.7048092,3.27599984 19.2346398,6.46970917 L0.764126126,131.874944 C0.293956775,135.064215 2.06453123,138.845188 4.72783231,140.306691 L57.249915,169.248295 C59.913216,170.715715 62.4574869,169.310424 62.9246805,166.116715 L81.3966821,40.7218348 C81.8683393,37.5296048 80.0903255,33.7441939 77.4255365,32.2767739 Z" id="Path" fill="url(#linearGradient-28)"></path>
                <path d="M77.4740864,32.2751296 L25.5537791,3.33371233 C22.92222,1.86695645 20.4201784,3.28190965 19.9492059,6.46851451 L1.68135842,131.869482 C1.21627304,135.063488 2.96623039,138.845083 5.59926125,140.305919 L57.5195686,169.248816 C60.1525994,170.715572 62.6708307,169.309499 63.130029,166.116974 L81.3978764,40.727847 C81.8629618,37.5294015 80.1056455,33.7433656 77.4740864,32.2751296 Z" id="Path" fill="url(#linearGradient-29)" fill-rule="nonzero" opacity="0.6" style="mix-blend-mode: multiply;"></path>
                <path d="M76.5554194,32.2759769 L24.636804,3.33434105 C22.003838,1.86830444 19.4975135,3.2765881 19.0321794,6.46929005 L0.763400371,131.86725 C0.298066325,135.059952 2.0489593,138.84203 4.68192536,140.308067 L56.6005407,169.248222 C59.2335068,170.715739 61.7457216,169.310417 62.2110557,166.117715 L80.4798347,40.7197555 C80.9451688,37.5285344 79.1869129,33.7434944 76.5554194,32.2759769 Z" id="Path" fill="url(#linearGradient-29)"></path>
                <path d="M76.5540039,32.2705943 L24.6351454,3.33495874 C22.0036941,1.86810027 19.4960064,3.27569173 19.0363128,6.46870185 L0.763491319,131.861395 C0.297904189,135.055886 2.04827606,138.837122 4.68120075,140.306943 L56.6000593,169.248506 C59.232984,170.715364 61.7450918,169.310736 62.2106789,166.117726 L80.4805536,40.7191064 C80.943194,37.5231329 79.1869286,33.7374527 76.5540039,32.2705943 Z" id="Path" fill="#353967" fill-rule="nonzero"></path>
                <g id="Group-75" transform="translate(26.902499, 65.789998)" fill="#525898" fill-rule="nonzero">
                    <path d="M13.6467268,21.5307621 C9.83407643,19.232078 7.41380893,13.2780357 8.24194865,8.23144769 C9.07008838,3.18485969 12.8346249,0.958291245 16.6472753,3.25547286 C20.4599256,5.55265448 22.8801931,11.5066968 22.0505954,16.5547872 C21.2209977,21.6028776 17.468125,23.8294461 13.6467268,21.5307621 Z M13.2953506,23.6686885 C18.0017503,26.5052345 22.6454563,23.7543257 23.667509,17.5283475 C24.6895618,11.3023694 21.7035932,3.95409252 16.9971935,1.11754648 C12.2907938,-1.71899956 7.64854571,1.03040682 6.62649299,7.2578874 C5.60444026,13.485368 8.59040885,20.8366496 13.2953506,23.6686885 Z" id="Shape"></path>
                    <path d="M6.63410205,26.3627306 C6.73003874,25.7899867 7.16987155,25.5434707 7.61413222,25.813605 L17.7110997,31.5705666 C18.1538844,31.8392248 18.4372666,32.5226795 18.3413299,33.0939472 L18.1524084,34.2261497 C18.0549958,34.7974174 17.6166389,35.0439334 17.1723783,34.7752752 L7.07393486,29.0183137 C6.63115015,28.7496554 6.34776793,28.0662008 6.44518057,27.4949331 L6.63410205,26.3627306 Z" id="Path"></path>
                    <path d="M0.18774446,29.0314282 C0.273734238,28.5340409 0.668985497,28.318166 1.06876253,28.5530028 C6.9205932,31.7765398 16.5212765,37.0377606 22.3655642,40.2612976 C22.7653412,40.4946758 23.0202933,41.0897903 22.932795,41.5871777 L22.7638326,42.5732008 C22.6763342,43.0705882 22.281083,43.2850044 21.8813059,43.0516262 C16.0294753,39.8280892 6.43482638,34.5668684 0.584504312,31.3433315 C0.183218682,31.1084946 -0.070224873,30.5148387 0.0172734974,30.0159927 L0.18774446,29.0314282 Z" id="Path"></path>
                </g>
                <path d="M77.4241123,32.5876428 L36.4904984,10.0979995 L68.8709089,125.765994 L81.3963083,41.0194102 C81.8693309,37.8306906 80.0906466,34.0518508 77.4241123,32.5876428 Z" id="Path" fill="url(#linearGradient-30)" fill-rule="nonzero" opacity="0.227841332" style="mix-blend-mode: multiply;"></path>
                <path d="M75.9367578,39.2263832 C77.174578,39.8556289 78.3965694,39.244283 78.6656607,37.8604934 C78.9347521,36.4767037 78.1496385,34.8450711 76.9102353,34.2144486 C75.6708322,33.5838261 74.4504237,34.1951719 74.1813324,35.5789616 C73.912241,36.9627512 74.6973546,38.5957607 75.9367578,39.2263832 Z" id="Path" fill="#4B5190" fill-rule="nonzero"></path>
                <path d="M42.1481104,16.9900089 C42.2173546,16.5850137 42.5334694,16.4105997 42.8541002,16.6012726 C47.5356103,19.2204389 55.2111794,23.4950602 59.8926895,26.1142264 C60.2371132,26.3618143 60.4114699,26.7778384 60.3442821,27.1917503 L60.2088044,27.9928722 C60.1395602,28.3963894 59.82194,28.5708034 59.5028146,28.3816085 C54.8213045,25.7624423 47.1457353,21.487821 42.4642252,18.8686547 C42.1435945,18.6779818 41.9418831,18.1946481 42.0126326,17.7911309 L42.1481104,16.9900089 Z" id="Path" fill="#4B5190" fill-rule="nonzero"></path>
            </g>
        </g>
    </g>
</svg>