<?xml version="1.0" encoding="UTF-8"?>
<svg width="220px" height="200px" viewBox="0 0 220 200" version="1.1" xmlns="http://www.w3.org/2000/svg" xmlns:xlink="http://www.w3.org/1999/xlink">
    <!-- Generator: Sketch 56.3 (81716) - https://sketch.com -->
    <title>ai</title>
    <desc>Created with Sketch.</desc>
    <defs>
        <linearGradient x1="67.5929795%" y1="26.4262585%" x2="55.554594%" y2="41.2938264%" id="linearGradient-1">
            <stop stop-color="#FFFFFF" offset="0%"></stop>
            <stop stop-color="#AAD7FF" offset="100%"></stop>
        </linearGradient>
        <linearGradient x1="47.5210158%" y1="-166.423656%" x2="55.8730298%" y2="577.193956%" id="linearGradient-2">
            <stop stop-color="#FFFFFF" offset="0%"></stop>
            <stop stop-color="#AAD7FF" offset="100%"></stop>
        </linearGradient>
        <linearGradient x1="68.2720936%" y1="38.9285471%" x2="43.3403972%" y2="54.0351494%" id="linearGradient-3">
            <stop stop-color="#FFFFFF" offset="0%"></stop>
            <stop stop-color="#AAD7FF" offset="100%"></stop>
        </linearGradient>
        <linearGradient x1="0%" y1="49.9909633%" x2="100%" y2="49.9909633%" id="linearGradient-4">
            <stop stop-color="#42E8E0" offset="0%"></stop>
            <stop stop-color="#43E3E0" offset="15%"></stop>
            <stop stop-color="#45D5DF" offset="33%"></stop>
            <stop stop-color="#49BDDD" offset="52%"></stop>
            <stop stop-color="#4E9CDB" offset="72%"></stop>
            <stop stop-color="#5472D8" offset="93%"></stop>
            <stop stop-color="#5761D7" offset="100%"></stop>
        </linearGradient>
        <linearGradient x1="0%" y1="50%" x2="100%" y2="50%" id="linearGradient-5">
            <stop stop-color="#42E8E0" offset="0%"></stop>
            <stop stop-color="#43E3E0" offset="15%"></stop>
            <stop stop-color="#45D5DF" offset="33%"></stop>
            <stop stop-color="#49BDDD" offset="52%"></stop>
            <stop stop-color="#4E9CDB" offset="72%"></stop>
            <stop stop-color="#5472D8" offset="93%"></stop>
            <stop stop-color="#5761D7" offset="100%"></stop>
        </linearGradient>
        <linearGradient x1="-54.6047107%" y1="121.84606%" x2="17.8190107%" y2="67.2324673%" id="linearGradient-6">
            <stop stop-color="#FCB0AA" offset="0%"></stop>
            <stop stop-color="#F8A0A2" offset="46%"></stop>
            <stop stop-color="#F4919A" offset="100%"></stop>
        </linearGradient>
        <linearGradient x1="-54.6047107%" y1="163.546099%" x2="17.8190107%" y2="77.234332%" id="linearGradient-7">
            <stop stop-color="#FCB0AA" offset="0%"></stop>
            <stop stop-color="#F8A0A2" offset="46%"></stop>
            <stop stop-color="#F4919A" offset="100%"></stop>
        </linearGradient>
        <linearGradient x1="-0.016%" y1="50.0089198%" x2="100%" y2="50.0089198%" id="linearGradient-8">
            <stop stop-color="#FCB0AA" offset="0%"></stop>
            <stop stop-color="#F8A0A2" offset="46%"></stop>
            <stop stop-color="#F4919A" offset="100%"></stop>
        </linearGradient>
        <linearGradient x1="-292.026493%" y1="50.0031492%" x2="-114.418545%" y2="50.0031492%" id="linearGradient-9">
            <stop stop-color="#856DD7" offset="0%"></stop>
            <stop stop-color="#D1C4F8" offset="100%"></stop>
        </linearGradient>
        <radialGradient cx="337.591588%" cy="51.2518074%" fx="337.591588%" fy="51.2518074%" r="288.592375%" id="radialGradient-10">
            <stop stop-color="#C0BFF6" offset="0%"></stop>
            <stop stop-color="#393091" offset="100%"></stop>
        </radialGradient>
        <radialGradient cx="81.1084091%" cy="33.2811893%" fx="81.1084091%" fy="33.2811893%" r="86.1722727%" gradientTransform="translate(0.811084,0.332812),scale(1.000000,0.852459),translate(-0.811084,-0.332812)" id="radialGradient-11">
            <stop stop-color="#C0BFF6" offset="0%"></stop>
            <stop stop-color="#393091" offset="100%"></stop>
        </radialGradient>
        <linearGradient x1="105.084403%" y1="199.219877%" x2="-11.725728%" y2="-117.167208%" id="linearGradient-12">
            <stop stop-color="#1D5CC9" offset="1%"></stop>
            <stop stop-color="#837FF8" offset="36%"></stop>
            <stop stop-color="#AB83F5" offset="51%"></stop>
            <stop stop-color="#BD82F8" offset="77%"></stop>
            <stop stop-color="#D081FC" offset="100%"></stop>
        </linearGradient>
        <radialGradient cx="7.79003678%" cy="-90.8362099%" fx="7.79003678%" fy="-90.8362099%" r="178.10097%" gradientTransform="translate(0.077900,-0.908362),scale(1.000000,0.818182),translate(-0.077900,0.908362)" id="radialGradient-13">
            <stop stop-color="#C0BFF6" offset="0%"></stop>
            <stop stop-color="#393091" offset="100%"></stop>
        </radialGradient>
        <radialGradient cx="81.7387236%" cy="54.7344774%" fx="81.7387236%" fy="54.7344774%" r="84.51771%" id="radialGradient-14">
            <stop stop-color="#C0BFF6" offset="0%"></stop>
            <stop stop-color="#393091" offset="100%"></stop>
        </radialGradient>
        <linearGradient x1="125.802169%" y1="199.219877%" x2="-34.9413587%" y2="-117.167208%" id="linearGradient-15">
            <stop stop-color="#1D5CC9" offset="1%"></stop>
            <stop stop-color="#837FF8" offset="36%"></stop>
            <stop stop-color="#AB83F5" offset="51%"></stop>
            <stop stop-color="#BD82F8" offset="77%"></stop>
            <stop stop-color="#D081FC" offset="100%"></stop>
        </linearGradient>
        <radialGradient cx="47.5091942%" cy="-3.29791697%" fx="47.5091942%" fy="-3.29791697%" r="120.494818%" gradientTransform="translate(0.475092,-0.032979),scale(1.000000,0.818182),translate(-0.475092,0.032979)" id="radialGradient-16">
            <stop stop-color="#C0BFF6" offset="0%"></stop>
            <stop stop-color="#393091" offset="100%"></stop>
        </radialGradient>
        <linearGradient x1="-292.026493%" y1="50.0031492%" x2="-114.418545%" y2="50.0031492%" id="linearGradient-17">
            <stop stop-color="#856DD7" offset="0%"></stop>
            <stop stop-color="#D1C4F8" offset="100%"></stop>
        </linearGradient>
        <linearGradient x1="32.5413223%" y1="85.6529448%" x2="49.154313%" y2="12.0198054%" id="linearGradient-18">
            <stop stop-color="#6362D7" offset="0%"></stop>
            <stop stop-color="#A67BFF" offset="100%"></stop>
        </linearGradient>
        <radialGradient cx="92.9054452%" cy="40.0600183%" fx="92.9054452%" fy="40.0600183%" r="104.31085%" id="radialGradient-19">
            <stop stop-color="#C0BFF6" offset="0%"></stop>
            <stop stop-color="#393091" offset="100%"></stop>
        </radialGradient>
        <radialGradient cx="123.981823%" cy="11.8677067%" fx="123.981823%" fy="11.8677067%" r="127.203434%" gradientTransform="translate(1.239818,0.118677),scale(1.000000,0.608696),rotate(6.922886),translate(-1.239818,-0.118677)" id="radialGradient-20">
            <stop stop-color="#C0BFF6" offset="0%"></stop>
            <stop stop-color="#393091" offset="100%"></stop>
        </radialGradient>
        <linearGradient x1="-4.81546363%" y1="-37.139022%" x2="63.8758042%" y2="84.2856967%" id="linearGradient-21">
            <stop stop-color="#42E8E0" offset="0%"></stop>
            <stop stop-color="#40B6CB" offset="7.44852172%"></stop>
            <stop stop-color="#42E6DF" offset="21.7162538%"></stop>
            <stop stop-color="#3E8DB9" offset="27%"></stop>
            <stop stop-color="#3C6BAA" offset="41%"></stop>
            <stop stop-color="#3B519F" offset="55%"></stop>
            <stop stop-color="#3A3F97" offset="69%"></stop>
            <stop stop-color="#393493" offset="84%"></stop>
            <stop stop-color="#393292" offset="93.66014%"></stop>
            <stop stop-color="#393091" offset="100%"></stop>
        </linearGradient>
        <linearGradient x1="-292.026493%" y1="50.0031492%" x2="-114.418545%" y2="50.0031492%" id="linearGradient-22">
            <stop stop-color="#856DD7" offset="0%"></stop>
            <stop stop-color="#D1C4F8" offset="100%"></stop>
        </linearGradient>
        <radialGradient cx="170.576281%" cy="22.3549977%" fx="170.576281%" fy="22.3549977%" r="110.036502%" gradientTransform="translate(1.705763,0.223550),scale(0.761905,1.000000),rotate(61.227277),translate(-1.705763,-0.223550)" id="radialGradient-23">
            <stop stop-color="#C0BFF6" offset="0%"></stop>
            <stop stop-color="#393091" offset="100%"></stop>
        </radialGradient>
        <linearGradient x1="141.718114%" y1="74.0553074%" x2="29.7621583%" y2="78.4787602%" id="linearGradient-24">
            <stop stop-color="#42E8E0" offset="0%"></stop>
            <stop stop-color="#42E6DF" offset="2.58883868%"></stop>
            <stop stop-color="#40B6CB" offset="14%"></stop>
            <stop stop-color="#3E8DB9" offset="27%"></stop>
            <stop stop-color="#3C6BAA" offset="41%"></stop>
            <stop stop-color="#3B519F" offset="55%"></stop>
            <stop stop-color="#3A3F97" offset="69%"></stop>
            <stop stop-color="#393493" offset="84%"></stop>
            <stop stop-color="#393091" offset="100%"></stop>
        </linearGradient>
    </defs>
    <g id="ai" stroke="none" stroke-width="1" fill="none" fill-rule="evenodd">
        <g id="hi;oij" transform="translate(22.000000, 21.000000)" fill-rule="nonzero">
            <path d="M75.895866,88.9998968 C75.463168,88.9862372 75.0418888,88.8579043 74.6752102,88.6280525 L66.7714644,84.0744835 C66.6711618,84.0167712 66.6091954,83.9099975 66.6091954,83.7943831 C66.6091954,83.6787686 66.6707396,83.571878 66.7709324,83.5139759 C66.8711253,83.4560737 66.9946356,83.4559568 67.0949382,83.5136691 L74.998684,88.0733339 C75.3696648,88.427057 75.9299257,88.4936513 76.373663,88.2367681 C76.8174002,87.9798848 77.0380244,87.4612296 76.9151135,86.9638967 L76.9151135,85.0620045 C76.7949612,84.332952 77.1398459,83.6058633 77.7808036,83.2369499 C78.4217613,82.8680366 79.2245457,82.934566 79.795861,83.4039445 L81.4498495,84.3487949 C81.6030166,84.4411097 81.654483,84.6386069 81.5658118,84.7937889 C81.5236882,84.8681768 81.4532754,84.9224248 81.3705417,84.9442306 C81.287808,84.9660364 81.1997638,84.9535522 81.1263757,84.9096092 L79.4784905,83.9586631 C79.1110444,83.5967484 78.5468966,83.524368 78.0997963,83.781776 C77.6526959,84.039184 77.4326601,84.5630406 77.562061,85.0620045 L77.562061,86.9638967 C77.627407,87.6854913 77.2955797,88.3856769 76.6953955,88.7926393 C76.4520998,88.9315548 76.1760932,89.0031024 75.895866,88.9998968 Z" id="Path" fill="#E8F4FF"></path>
            <path d="M72.8811703,89.9990735 C72.4503403,89.9834246 72.0310622,89.8553484 71.6648462,89.6275251 L63.7952296,85.0775794 C63.685438,85.0262712 63.6136472,84.9176351 63.6093949,84.7963683 C63.6051426,84.6751015 63.669147,84.561689 63.7750742,84.5027933 C63.8810014,84.4438975 64.0109577,84.4494674 64.1114738,84.5172113 L72.0175802,89.0671569 C72.3837224,89.4287837 72.9458682,89.5011065 73.3913819,89.2439033 C73.8368957,88.9867001 74.0561507,88.4632604 73.927209,87.9646935 L73.927209,86.0643146 C73.808629,85.3347019 74.1530201,84.6076913 74.7922686,84.2381717 C75.4315171,83.868652 76.2323392,83.9336684 76.8038154,84.4014831 L78.4458528,85.3516725 C78.6006804,85.4418664 78.6547924,85.6396784 78.5674852,85.7963125 C78.4753853,85.9491704 78.2783478,86.0005328 78.123527,85.9120407 L76.4814895,84.9618512 C76.1153473,84.6002245 75.5532015,84.5279016 75.1076877,84.7851048 C74.662174,85.042308 74.442919,85.5657478 74.5718607,86.0643146 L74.5718607,87.9646935 C74.6383089,88.6859508 74.3073537,89.3862254 73.7082706,89.7919809 C73.457426,89.9373516 73.1708086,90.009116 72.8811703,89.9990735 L72.8811703,89.9990735 Z" id="Path" fill="#E8F4FF"></path>
            <path d="M69.9375638,91.9997229 C69.5064569,91.9821536 69.0870727,91.8542763 68.7195391,91.6283267 L60.8023788,87.0741569 C60.6886789,87.0243264 60.6136419,86.9137202 60.6093861,86.7896815 C60.6051302,86.6656428 60.6724099,86.5501563 60.7824272,86.4926541 C60.8924445,86.4351519 61.0256997,86.4458258 61.1251554,86.5201069 L69.0423157,91.0681882 C69.4089698,91.4296667 69.9719015,91.5019599 70.4180382,91.2448621 C70.8641749,90.9877643 71.0837364,90.4645391 70.9546144,89.9661765 L70.9546144,88.0665763 C70.8315166,87.3373267 71.1744587,86.6083513 71.8148232,86.238072 C72.4551877,85.8677927 73.2582466,85.9341136 73.8291526,86.4044261 L75.479576,87.3542262 C75.6109831,87.4523711 75.6478648,87.633439 75.5653122,87.7751416 C75.4827596,87.9168442 75.3070271,87.9741156 75.1567995,87.9082763 L73.5063761,86.9584762 C73.1361949,86.6051794 72.5771416,86.5386653 72.1343608,86.795239 C71.69158,87.0518126 71.4714314,87.5698428 71.5940773,88.0665763 L71.5940773,89.9661765 C71.6632781,90.6861636 71.3340159,91.3865304 70.73537,91.7927152 C70.4934103,91.9334454 70.2174421,92.0050512 69.9375638,91.9997229 Z" id="Path" fill="#E8F4FF"></path>
            <path d="M39.9020603,108.998731 C39.4696477,108.980974 39.0489933,108.851724 38.6803466,108.62335 L30.7392074,104.020308 C30.6074023,103.92111 30.5704089,103.738099 30.6532115,103.594876 C30.7360141,103.451653 30.9122789,103.393767 31.0629615,103.460313 L39.0041007,108.0572 C39.3664155,108.431906 39.9332364,108.515079 40.3866013,108.260064 C40.8399663,108.005049 41.0670699,107.475298 40.940517,106.967978 L40.940517,105.047993 C40.875115,104.320985 41.2044637,103.615055 41.8018251,103.201853 C42.4559828,102.880384 43.2325035,102.946558 43.8237613,103.374159 L45.4791834,104.334152 C45.6109885,104.43335 45.6479819,104.616361 45.5651793,104.759584 C45.4823767,104.902808 45.3061119,104.960693 45.1554293,104.894148 L43.5000072,103.934155 C43.1346769,103.547276 42.5547807,103.460701 42.0937729,103.724212 C41.6327651,103.987724 41.4090931,104.533618 41.5513738,105.047993 L41.5513738,106.967978 C41.6207841,107.695691 41.2905247,108.403574 40.6900656,108.814117 C40.4487572,108.946191 40.1764558,109.009986 39.9020603,108.998731 L39.9020603,108.998731 Z" id="Path" fill="#E8F4FF"></path>
            <path d="M36.9244464,110.999624 C36.4916826,110.985979 36.0703391,110.857776 35.7036047,110.628159 L27.7681336,106.079229 C27.6157337,105.989353 27.56405,105.793968 27.6521536,105.640778 C27.7401651,105.486529 27.9365083,105.43212 28.0916566,105.518986 L36.0271278,110.074005 C36.3975279,110.425132 36.9553221,110.491377 37.398001,110.236813 C37.8406799,109.982249 38.06278,109.467523 37.9438493,108.971788 L37.9438493,107.065744 C37.8207824,106.335117 38.1663154,105.605229 38.8101066,105.235901 C39.4538979,104.866573 40.2600481,104.935767 40.8311399,105.409373 L42.4792762,106.35935 C42.6109872,106.457513 42.6479542,106.638615 42.5652107,106.780344 C42.4824672,106.922073 42.3063282,106.979355 42.1557532,106.913504 L40.5076169,105.963526 C40.1391523,105.608144 39.5791418,105.53958 39.1354701,105.79553 C38.6917985,106.05148 38.472034,106.569889 38.5969996,107.065744 L38.5969996,108.971788 C38.6623555,109.692648 38.3304777,110.39212 37.730202,110.798668 C37.4844798,110.936372 37.2062177,111.005771 36.9244464,110.999624 L36.9244464,110.999624 Z" id="Path" fill="#E8F4FF"></path>
            <path d="M33.9263823,113 C33.4936844,112.986349 33.0724052,112.858099 32.7057266,112.628394 L24.7714644,108.077746 C24.6711618,108.020071 24.6091954,107.913365 24.6091954,107.797825 C24.6091954,107.682285 24.6707396,107.575463 24.7709324,107.517598 C24.8711253,107.459733 24.9946356,107.459616 25.0949382,107.517291 L32.9925807,112.074031 C33.3915175,112.366834 33.9151066,112.42927 34.3719217,112.238513 C34.7657232,111.940161 34.9704003,111.454959 34.9090102,110.965306 L34.9090102,109.064633 C34.7900079,108.334908 35.1356255,107.607785 35.7771506,107.238208 C36.4186756,106.868632 37.2223497,106.933658 37.795861,107.401545 L39.4498495,108.351881 C39.6030166,108.444137 39.654483,108.641507 39.5658118,108.79659 C39.475734,108.948682 39.27991,109.000262 39.1263757,108.912336 L37.4723872,107.962 C37.1049411,107.600317 36.5407934,107.527983 36.093693,107.785226 C35.6465926,108.042469 35.4265568,108.56599 35.5559577,109.064633 L35.5559577,110.965306 C35.621303,111.685 35.2922395,112.38383 34.6953955,112.792875 C34.4607663,112.925803 34.1961566,112.997073 33.9263823,113 L33.9263823,113 Z" id="Path" fill="#E8F4FF"></path>
            <path d="M30.9195935,114 C30.489317,113.982309 30.0707408,113.853543 29.7039152,113.626024 L21.8020067,109.040215 C21.6885258,108.990038 21.6136333,108.878664 21.6093857,108.753763 C21.6051381,108.628863 21.6722881,108.512574 21.7820935,108.454672 C21.8918989,108.396771 22.0248974,108.407519 22.1241614,108.482316 L30.02607,113.061994 C30.3920177,113.425984 30.953865,113.498779 31.3991423,113.239895 C31.8444195,112.981011 32.0635581,112.454151 31.9346848,111.952326 L31.9346848,110.039529 C31.8682719,109.313559 32.1990513,108.608708 32.7978163,108.200301 C33.4468632,107.881124 34.2172339,107.947052 34.8036854,108.371962 L36.4509294,109.328361 C36.6026848,109.418844 36.6541498,109.61555 36.5664189,109.769776 C36.4766548,109.922291 36.2836682,109.976361 36.1287747,109.892391 L34.4511387,108.923731 C34.0816707,108.567979 33.5236944,108.501003 33.0817665,108.759359 C32.6398387,109.017716 32.4201142,109.539345 32.5425239,110.039529 L32.5425239,111.952326 C32.610281,112.678536 32.2791929,113.384044 31.6793924,113.791554 C31.448795,113.927431 31.1866574,113.999347 30.9195935,114 L30.9195935,114 Z" id="Path" fill="#E8F4FF"></path>
            <path d="M27.8850331,116 C27.4515229,115.981965 27.0301875,115.851932 26.6624501,115.622679 L18.752338,111.076651 C18.6119982,110.982633 18.5679321,110.796952 18.6511668,110.650346 C18.7344015,110.50374 18.9169193,110.445558 19.0702096,110.516766 L26.9864346,115.068879 C27.3815412,115.365882 27.905666,115.430816 28.3618405,115.239279 C28.7575323,114.941831 28.964702,114.457496 28.9058899,113.967365 L28.9058899,112.062537 C28.7866997,111.333552 29.1328631,110.607168 29.775401,110.237967 C30.4179389,109.868765 31.2228819,109.933725 31.7972987,110.401137 L33.4477858,111.356594 C33.5471548,111.413124 33.6086826,111.518136 33.6091954,111.632074 C33.6097018,111.746012 33.5491158,111.851566 33.4502564,111.908974 C33.351397,111.966382 33.2292832,111.966924 33.1299142,111.910394 L31.4549755,110.961023 C31.0602007,110.662386 30.5341075,110.599536 30.0795696,110.796709 C29.6848869,111.092211 29.4776969,111.574276 29.5355202,112.062537 L29.5355202,113.967365 C29.6050251,114.688476 29.2717424,115.389461 28.6674862,115.793078 C28.4295252,115.929452 28.1596037,116.000831 27.8850331,116 L27.8850331,116 Z" id="Path" fill="#E8F4FF"></path>
            <path d="M24.9056784,117.999801 C24.4739445,117.986157 24.0536038,117.857977 23.6877422,117.6284 L15.7711572,113.080259 C15.6164482,112.99115 15.5632826,112.79352 15.6524084,112.63884 C15.7415342,112.48416 15.9392013,112.431005 16.0939103,112.520114 L24.0104953,117.074342 C24.4061935,117.367075 24.926938,117.429553 25.3806735,117.238733 C25.7748613,116.941147 25.9812436,116.456587 25.9226551,115.966228 L25.9226551,114.066603 C25.7995662,113.337344 26.1424834,112.608359 26.7828014,112.238075 C27.4231193,111.867791 28.2261199,111.934113 28.7969844,112.404431 L30.4472879,113.354244 C30.547367,113.411887 30.6091954,113.518534 30.6091954,113.63401 C30.6091954,113.749487 30.5477884,113.85625 30.4478187,113.914083 C30.3478491,113.971916 30.2246139,113.972033 30.1245348,113.91439 L28.4864107,112.964577 C28.0928058,112.667436 27.5706731,112.602472 27.1162325,112.794098 C26.7220447,113.091684 26.5156623,113.576244 26.5742509,114.066603 L26.5742509,115.966228 C26.6394506,116.685526 26.3111203,117.38397 25.7156059,117.79279 C25.468942,117.932815 25.1892929,118.004291 24.9056784,117.999801 Z" id="Path" fill="#E8F4FF"></path>
            <path d="M21.9174863,118.99824 C21.4874442,118.979813 21.0691603,118.851633 20.7020832,118.625788 L12.801963,114.058677 C12.6885078,114.008705 12.6136323,113.897785 12.6093856,113.773393 C12.605139,113.649002 12.6722739,113.533188 12.7820544,113.475522 C12.8918349,113.417856 13.0248033,113.42856 13.1240449,113.503053 L21.0241651,118.064058 C21.4169513,118.362039 21.937998,118.427188 22.3914935,118.235019 C22.7869084,117.938203 22.9933892,117.451027 22.9323479,116.958915 L22.9323479,115.07834 C22.8065979,114.344693 23.1493851,113.610069 23.7911097,113.237935 C24.4328342,112.8658 25.2374168,112.935068 25.8067763,113.411466 L27.4475705,114.363965 C27.6019576,114.453326 27.6550127,114.651516 27.5660723,114.806633 C27.4771318,114.961751 27.2798758,115.015057 27.1254886,114.925695 L25.4846945,113.967091 C25.0898192,113.67353 24.5701577,113.610875 24.117366,113.802235 C23.7219511,114.099052 23.5154703,114.586227 23.5765116,115.07834 L23.5765116,116.983338 C23.6442534,117.706586 23.3132401,118.409218 22.7135754,118.815067 C22.4699375,118.94828 22.1945432,119.011646 21.9174863,118.99824 Z" id="Path" fill="#E8F4FF"></path>
            <path d="M18.9149583,120.999526 C18.4834092,120.981818 18.0635949,120.852926 17.6956844,120.625185 L9.77040469,116.034908 C9.61874433,115.944282 9.56497838,115.749443 9.6484773,115.593063 C9.74082283,115.439568 9.93634199,115.385646 10.0935122,115.470328 L17.9822138,120.060606 C18.3786243,120.359981 18.9029887,120.425377 19.3599932,120.232434 C19.756476,119.938245 19.9696124,119.455513 19.9208591,118.96213 L19.9208591,117.041332 C19.8529317,116.315872 20.1822252,115.610609 20.7804472,115.200312 C21.4335518,114.881103 22.2077901,114.947031 22.7983453,115.372141 L24.4504613,116.329471 C24.6026655,116.420043 24.6542828,116.61694 24.5662924,116.771316 C24.4763166,116.924528 24.2807143,116.976487 24.1273538,116.887914 L22.4752378,115.893763 C22.0805397,115.595098 21.5572441,115.531887 21.1035547,115.728071 C20.7099403,116.026051 20.5033112,116.512157 20.5609779,117.004512 L20.5609779,118.96213 C20.6289053,119.68759 20.2996118,120.392854 19.7013899,120.803151 C19.461538,120.938554 19.1898693,121.006391 18.9149583,120.999526 Z" id="Path" fill="#E8F4FF"></path>
            <path d="M87.3126979,88.9999122 C87.0371386,89.0028198 86.7656402,88.9334308 86.5253289,88.7986782 C85.9240771,88.3924536 85.5919239,87.6913692 85.6586126,86.9692779 L85.6586126,85.0667016 C85.7880211,84.5675582 85.5679724,84.0435133 85.1208459,83.7860127 C84.6737194,83.5285121 84.1095387,83.6009185 83.7420711,83.9629634 L82.0940895,84.9142516 C81.9367319,84.998399 81.7409797,84.9448177 81.6485241,84.7922915 C81.5649257,84.6368984 81.6187557,84.4432891 81.7705968,84.3532355 L83.4185784,83.4019473 C83.9921232,82.9335917 84.7958443,82.8685001 85.4374069,83.2384471 C86.0789694,83.608394 86.4246073,84.3362452 86.305598,85.0667016 L86.305598,86.9692779 C86.1761895,87.4684212 86.3962382,87.9924662 86.8433647,88.2499668 C87.2904912,88.5074674 87.8546719,88.435061 88.2221395,88.0730161 L96.1263475,83.5178093 C96.2798908,83.4297953 96.4757262,83.4814264 96.5658092,83.6336713 C96.6544856,83.7889092 96.6030162,83.9864774 96.4498402,84.0788254 L88.515114,88.6340322 C88.1531402,88.8587479 87.7385962,88.9848884 87.3126979,88.9999122 Z" id="Path" fill="#E8F4FF"></path>
            <path d="M90.2981672,89.9999024 C90.0223806,90.0030266 89.7508894,89.9311305 89.5124628,89.7918327 C88.913757,89.3835643 88.5844619,88.6796046 88.6536696,87.9559241 L88.6536696,86.0771776 C88.7763278,85.5778959 88.5561572,85.0572083 88.1133321,84.7993185 C87.6705071,84.5414286 87.1113979,84.6082839 86.7411798,84.963393 L85.0905915,85.9180655 C84.9373728,86.0063926 84.7419514,85.9545779 84.6520588,85.8017913 C84.5641497,85.647844 84.6157192,85.4514933 84.7677827,85.3611732 L86.418371,84.4065008 C86.9893341,83.9337756 87.7924732,83.8671145 88.4329017,84.2392933 C89.0733301,84.611472 89.4163065,85.3441871 89.2931964,86.0771776 L89.2931964,87.9865226 C89.1703185,88.4872891 89.3922829,89.0092895 89.8373601,89.2662484 C90.2824372,89.5232073 90.8430622,89.4530236 91.2117769,89.0941874 L99.0931839,84.522775 C99.1926494,84.4481128 99.325918,84.4373842 99.4359463,84.4951814 C99.5459746,84.5529786 99.613261,84.6690574 99.6090047,84.7937325 C99.6047485,84.9184075 99.529704,85.0295811 99.4159927,85.0796672 L91.4980413,89.6571994 C91.1329612,89.8705992 90.7203789,89.9884392 90.2981672,89.9999024 Z" id="Path" fill="#E8F4FF"></path>
            <path d="M93.2933016,91.9999123 C93.0171546,92.0028169 92.7450771,91.9334984 92.5042532,91.7988826 C91.9027536,91.3921871 91.5701991,90.6924609 91.6356883,89.9713397 L91.6356883,88.0646033 C91.7548615,87.5686878 91.5323086,87.0537751 91.0887271,86.7991186 C90.6451456,86.5444622 90.0862141,86.6107311 89.7150588,86.9619857 L88.0635621,87.912308 C87.9126801,87.9781835 87.736182,87.9208806 87.6532698,87.7791001 C87.5703576,87.6373197 87.6073999,87.4561522 87.7393795,87.3579533 L89.3908761,86.4015392 C89.9656443,85.9336591 90.7710797,85.8686337 91.4140107,86.238205 C92.0569417,86.6077763 92.4033167,87.3348885 92.2840536,88.0646033 L92.2840536,89.9896151 C92.1648805,90.4855306 92.3874333,91.0004433 92.8310148,91.2550997 C93.2745963,91.5097562 93.8335278,91.4434873 94.2046831,91.0922327 L102.12575,86.535559 C102.281619,86.4521225 102.47582,86.5058483 102.56615,86.6573952 C102.654433,86.810641 102.602644,87.006097 102.449933,87.0960055 L94.5288658,91.6465874 C94.1559944,91.871939 93.7294155,91.9939245 93.2933016,91.9999123 L93.2933016,91.9999123 Z" id="Path" fill="#E8F4FF"></path>
            <path d="M96.2957005,93.9999076 C96.0217009,94.0028929 95.7517912,93.9334638 95.5133921,93.7986738 C94.9113375,93.3924494 94.5787408,92.6913656 94.6455186,91.9692749 L94.6455186,90.0667 C94.7750999,89.567557 94.5547574,89.0435125 94.1070339,88.7860121 C93.6593104,88.5285117 93.0943763,88.600918 92.7264181,88.9629627 L91.0701244,89.9142501 C90.9168625,89.9856018 90.7343783,89.9273024 90.651159,89.7804005 C90.5679397,89.6334985 90.6119976,89.4474425 90.7523116,89.3532344 L92.4024935,88.401947 C92.9768041,87.9335917 93.7815983,87.8685002 94.4240175,88.2384469 C95.0664366,88.6083935 95.412536,89.3362441 95.2933678,90.0667 L95.2933678,91.9692749 C95.2318922,92.4594186 95.4368545,92.945106 95.8312049,93.2437561 C96.2886566,93.4347043 96.8129755,93.3722057 97.2124683,93.0791102 L105.12723,88.5178089 C105.280978,88.429795 105.477075,88.481426 105.567278,88.6336708 C105.655019,88.7904859 105.600638,88.9885264 105.445043,89.0788246 L97.5363929,93.6340279 C97.1620573,93.8622415 96.7342339,93.9884065 96.2957005,93.9999076 L96.2957005,93.9999076 Z" id="Path" fill="#E8F4FF"></path>
            <path d="M108.298167,100.999862 C108.022305,101.003579 107.750653,100.932075 107.512463,100.793052 C106.911444,100.38874 106.579684,99.6887682 106.647579,98.9682577 L106.647579,97.0704715 C106.776714,96.5725848 106.55713,96.0498592 106.110949,95.7930069 C105.664768,95.5361546 105.10178,95.6083788 104.735089,95.9695121 L103.090591,96.9184053 C102.935786,97.0051719 102.739876,96.9508247 102.652059,96.7967523 C102.56415,96.643737 102.615719,96.4485749 102.767783,96.3588016 L104.41228,95.4099085 C104.982925,94.9353138 105.789323,94.8663084 106.432496,95.2370339 C107.075669,95.6077595 107.41923,96.3396027 107.293196,97.0704715 L107.293196,98.9682577 C107.164061,99.4661443 107.383645,99.9888699 107.829826,100.245722 C108.276007,100.502575 108.838995,100.43035 109.205686,100.069217 L117.093184,95.5254788 C117.192649,95.4512686 117.325918,95.440605 117.435946,95.4980523 C117.545975,95.5554996 117.613261,95.6708757 117.609005,95.794796 C117.604748,95.9187163 117.529704,96.0292168 117.415993,96.0789998 L109.498041,100.628821 C109.135826,100.851598 108.723062,100.979239 108.298167,100.999862 L108.298167,100.999862 Z" id="Path" fill="#E8F4FF"></path>
            <path d="M111.307218,101.999852 C111.032644,102.003711 110.762308,101.93193 110.525842,101.792377 C109.922418,101.387665 109.589594,100.684779 109.659003,99.9617116 L109.659003,98.0517176 C109.716747,97.5621321 109.509842,97.0787603 109.115703,96.7824563 C108.661791,96.5847486 108.136422,96.6477693 107.742191,96.9472162 L106.087871,97.9174688 C105.934472,98.005093 105.739057,97.9518179 105.6514,97.7984755 C105.563743,97.6451332 105.617038,97.4497912 105.770437,97.362167 L107.418652,96.4102211 C107.989771,95.9356342 108.79596,95.8662962 109.439781,96.2363895 C110.083603,96.6064827 110.429153,97.3378834 110.30608,98.0700242 L110.30608,99.9800183 C110.176653,100.479507 110.396733,101.003914 110.843923,101.261593 C111.291112,101.519271 111.855373,101.446815 112.222893,101.08452 L120.122114,96.520061 C120.279494,96.4358554 120.475274,96.4894737 120.567742,96.6421053 C120.65482,96.7972031 120.600278,96.9934822 120.445652,97.081465 L112.546431,101.645924 C112.170461,101.867952 111.74378,101.989815 111.307218,101.999852 Z" id="Path" fill="#E8F4FF"></path>
            <path d="M114.311594,103.999912 C114.035989,104.002818 113.764446,103.933465 113.524095,103.798783 C112.927117,103.389539 112.59798,102.690373 112.66334,101.970331 L112.66334,100.068741 C112.79277,99.5698563 112.572685,99.046083 112.125484,98.7887159 C111.678284,98.5313488 111.11401,98.6037177 110.746482,98.9655749 L109.092123,99.9163699 C109.018719,99.9603059 108.930655,99.9727881 108.847902,99.9509857 C108.76515,99.9291834 108.694722,99.874944 108.652589,99.8005679 C108.563898,99.6454106 108.615376,99.4479448 108.768577,99.3556446 L110.422936,98.4048497 C110.995203,97.9340446 111.800176,97.8676542 112.442068,98.2383214 C113.083959,98.6089885 113.427719,99.3387275 113.304327,100.068741 L113.304327,101.970331 C113.181389,102.467585 113.402063,102.986157 113.845899,103.243 C114.289736,103.499842 114.850122,103.433258 115.221186,103.079592 L123.1267,98.5206516 C123.200854,98.4772007 123.289492,98.465641 123.372337,98.4886167 C123.455183,98.5115925 123.52515,98.567138 123.566234,98.6425484 C123.654344,98.7958704 123.602657,98.9914237 123.450246,99.0813769 L115.544732,103.646412 C115.172593,103.871875 114.746851,103.993922 114.311594,103.999912 L114.311594,103.999912 Z" id="Path" fill="#E8F4FF"></path>
            <path d="M117.324461,105.999862 C117.047487,106.003577 116.77474,105.932112 116.53559,105.793162 C115.930042,105.390869 115.596313,104.689942 115.667219,103.969338 L115.667219,102.060402 C115.796875,101.56278 115.576406,101.040333 115.128426,100.783617 C114.680447,100.526901 114.115189,100.599087 113.74702,100.960028 L112.095894,101.908417 C111.995394,101.965974 111.871641,101.965857 111.771251,101.908111 C111.670861,101.850364 111.609195,101.743761 111.609195,101.628458 C111.609195,101.513154 111.671284,101.406668 111.771784,101.349111 L113.42291,100.400722 C113.99755,99.9337941 114.802804,99.868901 115.445591,100.23772 C116.088378,100.60654 116.434676,101.332172 116.315439,102.060402 L116.315439,103.957179 C116.185784,104.454801 116.406252,104.977249 116.854232,105.233964 C117.302212,105.49068 117.867469,105.418494 118.235638,105.057553 L126.15493,100.516231 C126.305779,100.45049 126.482237,100.507676 126.565131,100.649168 C126.648025,100.79066 126.61099,100.971459 126.479041,101.069458 L118.559748,105.616859 C118.189154,105.850563 117.762989,105.982697 117.324461,105.999862 L117.324461,105.999862 Z" id="Path" fill="#E8F4FF"></path>
            <path d="M120.924665,107.999903 C120.665667,108.003011 120.410703,107.93148 120.18679,107.792889 C119.625503,107.385807 119.316541,106.686071 119.380275,105.966295 L119.380275,104.066638 C119.495466,103.56989 119.288698,103.051844 118.87283,102.795263 C118.456961,102.538681 117.931887,102.605198 117.584205,102.958505 L116.034095,103.908334 C115.892998,103.974175 115.727946,103.916902 115.650411,103.775195 C115.572876,103.633488 115.607516,103.452415 115.730937,103.354267 L117.281047,102.404438 C117.817254,101.934112 118.571503,101.867789 119.172946,102.238079 C119.774389,102.60837 120.096487,103.337367 119.980871,104.066638 L119.980871,105.941941 C119.865473,106.440167 120.073926,106.959518 120.491909,107.215174 C120.909893,107.470829 121.436391,107.401001 121.78266,107.043986 L129.184296,102.495768 C129.325393,102.429927 129.490444,102.4872 129.567979,102.628907 C129.645514,102.770613 129.610874,102.951687 129.487454,103.049835 L122.080099,107.604141 C121.733796,107.840673 121.33557,107.977074 120.924665,107.999903 L120.924665,107.999903 Z" id="Path" fill="#E8F4FF"></path>
            <path d="M123.289025,108.999912 C123.013034,109.002817 122.74111,108.933498 122.500422,108.798883 C121.899261,108.392187 121.566894,107.692461 121.632347,106.97134 L121.632347,105.070695 C121.745256,104.583612 121.528079,104.079829 121.095821,103.826121 C120.663563,103.572414 120.116111,103.627409 119.743366,103.961986 L118.0928,104.912308 C118.019293,104.956222 117.931106,104.968698 117.848237,104.946907 C117.765369,104.925115 117.694842,104.870903 117.65265,104.796564 C117.563834,104.641483 117.615384,104.444116 117.768801,104.351862 L119.419366,103.401539 C119.99381,102.933659 120.798792,102.868634 121.44136,103.238205 C122.083929,103.607776 122.430108,104.334888 122.310913,105.064603 L122.310913,106.965248 C122.243799,107.441615 122.428816,107.918671 122.799969,108.226252 C123.254529,108.423623 123.780647,108.36071 124.17544,108.061774 L132.122608,103.5051 C132.277915,103.415943 132.476345,103.469127 132.565815,103.62389 C132.655286,103.778653 132.601915,103.976389 132.446608,104.065546 L124.49944,108.616128 C124.136938,108.848071 123.719378,108.980466 123.289025,108.999912 Z" id="Path" fill="#E8F4FF"></path>
            <path d="M126.303248,110.999908 C126.029603,111.00289 125.760043,110.933531 125.521952,110.798878 C124.920677,110.393066 124.58851,109.692694 124.655202,108.971337 L124.655202,107.070693 C124.784306,106.573566 124.566042,106.051446 124.121204,105.793298 C123.676367,105.53515 123.113733,105.604099 122.744688,105.961985 L121.096641,106.912307 C120.941254,107.000811 120.743495,106.949441 120.651058,106.796562 C120.563432,106.639906 120.617742,106.442067 120.773136,106.35186 L122.421183,105.401539 C122.99475,104.933659 123.798503,104.868634 124.440091,105.238205 C125.081679,105.607776 125.42733,106.334887 125.308316,107.064602 L125.308316,108.965245 C125.178903,109.463881 125.39896,109.987394 125.846104,110.244632 C126.293249,110.501871 126.857452,110.429539 127.224934,110.067862 L135.123351,105.517283 C135.27842,105.428126 135.476548,105.48131 135.565882,105.636073 C135.655215,105.790836 135.601926,105.988572 135.446856,106.077729 L127.548439,110.628308 C127.173408,110.859454 126.743859,110.987644 126.303248,110.999908 Z" id="Path" fill="#E8F4FF"></path>
            <path d="M129.343852,112.999861 C129.067457,113.003603 128.79528,112.931619 128.556628,112.791661 C127.956765,112.383135 127.626833,111.678732 127.696174,110.954596 L127.696174,109.044049 C127.81907,108.544453 127.598473,108.023437 127.154792,107.765385 C126.71111,107.507333 126.15092,107.57423 125.779986,107.929563 L124.126205,108.884837 C124.026547,108.959546 123.893021,108.970281 123.78278,108.912448 C123.672539,108.854614 123.605122,108.738462 123.609386,108.613709 C123.613651,108.488955 123.688841,108.377711 123.802772,108.327594 L125.456552,107.37232 C126.047224,106.946821 126.822975,106.880972 127.476484,107.200861 C128.073253,107.612032 128.402275,108.314492 128.336938,109.037925 L128.336938,110.948472 C128.207553,111.449707 128.427561,111.975947 128.874606,112.234527 C129.32165,112.493106 129.885727,112.420396 130.253127,112.056835 L138.155879,107.482544 C138.306412,107.416325 138.482502,107.473927 138.565223,107.616446 C138.647943,107.758965 138.610987,107.941076 138.479312,108.039787 L130.546047,112.620201 C130.183713,112.846631 129.770112,112.977249 129.343852,112.999861 Z" id="Path" fill="#E8F4FF"></path>
            <path d="M132.332783,113.999913 C132.057806,114.002806 131.786881,113.933767 131.547078,113.799696 C130.948128,113.394646 130.616983,112.69775 130.682194,111.979545 L130.682194,110.056252 C130.800862,109.562343 130.579253,109.049513 130.137551,108.795886 C129.69585,108.54226 129.139287,108.608261 128.769705,108.958095 L127.125207,109.904573 C127.025741,109.978594 126.892473,109.989231 126.782445,109.93193 C126.672416,109.874629 126.60513,109.759546 126.609386,109.635941 C126.613642,109.512336 126.688687,109.402117 126.802398,109.352461 L128.446896,108.399915 C129.019228,107.933927 129.82125,107.869165 130.461456,108.237241 C131.101662,108.605318 131.44657,109.329489 131.327812,110.056252 L131.327812,111.955277 C131.209144,112.449186 131.430753,112.962016 131.872455,113.215643 C132.314157,113.469269 132.870719,113.403268 133.240302,113.053434 L141.127799,108.53946 C141.282605,108.452914 141.478515,108.507123 141.566332,108.660803 C141.654241,108.813429 141.602672,109.008095 141.450608,109.09764 L133.56311,113.629815 C133.192794,113.858777 132.768423,113.986433 132.332783,113.999913 Z" id="Path" fill="#E8F4FF"></path>
            <path d="M135.312463,116 C135.037061,116.002014 134.765829,115.932785 134.525248,115.799028 C133.928485,115.390198 133.599467,114.691735 133.664803,113.972419 L133.664803,112.066656 C133.794186,111.568274 133.57418,111.045029 133.127141,110.787921 C132.680102,110.530813 132.116031,110.603109 131.748635,110.964602 L130.094872,111.914439 C129.994583,111.972084 129.87109,111.971967 129.77091,111.914132 C129.670731,111.856298 129.609195,111.749532 129.609195,111.634052 C129.609195,111.518573 129.671153,111.411924 129.771442,111.354279 L131.425205,110.404442 C131.997266,109.934111 132.80195,109.867788 133.44361,110.238081 C134.085271,110.608375 134.428907,111.337379 134.30556,112.066656 L134.30556,113.96633 C134.182666,114.463083 134.40326,114.981133 134.846937,115.237717 C135.290613,115.4943 135.850798,115.427784 136.221728,115.074473 L144.124396,110.520127 C144.199456,110.476462 144.288968,110.464765 144.372766,110.487671 C144.456565,110.510578 144.527602,110.566162 144.569874,110.641901 C144.653457,110.797057 144.599637,110.990371 144.447825,111.080287 L136.569567,115.628545 C136.19232,115.864412 135.757604,115.992848 135.312463,116 Z" id="Path" fill="#E8F4FF"></path>
            <path d="M138.32238,117.999862 C138.045344,118.003579 137.772536,117.932075 137.533331,117.793052 C136.929755,117.38874 136.596583,116.688768 136.664766,115.968258 L136.664766,114.070471 C136.726291,113.581561 136.521165,113.097096 136.126501,112.799198 C135.668685,112.60873 135.143948,112.671072 134.744137,112.963429 L133.09264,113.918405 C132.937176,114.005172 132.740432,113.950825 132.652241,113.796752 C132.563958,113.643737 132.615747,113.448575 132.768458,113.358802 L134.419954,112.409909 C134.993028,111.935314 135.802858,111.866308 136.448769,112.237034 C137.094679,112.607759 137.439702,113.339603 137.313132,114.070471 L137.313132,115.968258 C137.183447,116.466144 137.403965,116.98887 137.852046,117.245722 C138.300126,117.502575 138.86551,117.43035 139.233761,117.069217 L147.154829,112.525479 C147.305711,112.459702 147.482209,112.516919 147.565121,112.658486 C147.648033,112.800054 147.610991,112.980949 147.479011,113.079 L139.545711,117.628821 C139.176576,117.854554 138.755365,117.98231 138.32238,117.999862 Z" id="Path" fill="#E8F4FF"></path>
            <path d="M141.295613,120 C141.021976,120.00083 140.752973,119.929474 140.515821,119.793144 C139.91362,119.389653 139.581471,118.688889 139.650739,117.968004 L139.650739,116.063776 C139.708366,115.575668 139.501881,115.093755 139.10854,114.798346 C138.655548,114.601235 138.131244,114.664065 137.737812,114.962608 L136.086846,115.911681 C135.987815,115.968193 135.866117,115.967651 135.767594,115.910261 C135.669071,115.852871 135.608691,115.747351 135.609195,115.633448 C135.609706,115.519546 135.671025,115.414567 135.770056,115.358055 L137.41493,114.408983 C137.984891,113.935829 138.789445,113.8667 139.431962,114.235676 C140.074479,114.604652 140.419328,115.333845 140.296504,116.063776 L140.296504,117.968004 C140.16734,118.465985 140.386974,118.988809 140.833257,119.24571 C141.27954,119.502611 141.842657,119.430373 142.209432,119.069172 L150.129193,114.518491 C150.284437,114.435164 150.477859,114.488819 150.567826,114.640167 C150.654728,114.794797 150.600296,114.990483 150.445984,115.078201 L142.514038,119.628881 C142.14561,119.852939 141.726543,119.98058 141.295613,120 Z" id="Path" fill="#E8F4FF"></path>
            <path d="M144.29985,120.999912 C144.024813,121.002818 143.753829,120.933465 143.513973,120.798783 C142.918225,120.389539 142.589765,119.690373 142.654991,118.970331 L142.654991,117.068741 C142.784154,116.569856 142.564522,116.046083 142.118243,115.788716 C141.671963,115.531349 141.108851,115.603718 140.74208,115.965575 L139.091129,116.91637 C139.017875,116.960306 138.929993,116.972788 138.847411,116.950986 C138.764829,116.929183 138.694546,116.874944 138.652499,116.800568 C138.563991,116.645411 138.615363,116.447945 138.768249,116.355645 L140.4192,115.40485 C140.990289,114.934045 141.793605,114.867654 142.434174,115.238321 C143.074743,115.608988 143.417795,116.338727 143.294658,117.068741 L143.294658,118.970331 C143.171973,119.467585 143.392192,119.986157 143.835114,120.243 C144.278037,120.499842 144.837269,120.433258 145.207569,120.079592 L153.127262,115.520652 C153.200516,115.476716 153.288398,115.464233 153.37098,115.486036 C153.453562,115.507838 153.523845,115.562078 153.565891,115.636454 C153.6544,115.791611 153.603028,115.989077 153.450142,116.081377 L145.560909,120.634222 C145.181915,120.869251 144.745728,120.99574 144.29985,120.999912 Z" id="Path" fill="#E8F4FF"></path>
            <polygon id="Path" fill="url(#linearGradient-1)" points="140.609195 117 140.609195 123.839281 81.6091954 158 22.6091954 123.839281 22.6091954 117"></polygon>
            <polygon id="Path" fill="url(#linearGradient-2)" points="81.6091954 152 22.6091954 118 81.6091954 84 140.609195 118"></polygon>
            <polygon id="Path" fill="url(#linearGradient-3)" points="81.6091954 150.21597 23.2971037 117 22.6091954 117.392015 81.6091954 151 140.609195 117.392015 139.921287 117"></polygon>
            <polygon id="Path" fill="#0F054C" points="82.1091954 144 36.6091954 117.997058 82.1091954 92 127.609195 118.002942"></polygon>
            <polygon id="Path" fill="#FCB0AA" points="82.1091954 144 36.6091954 117.997058 82.1091954 92 127.609195 118.002942"></polygon>
            <polygon id="Path" fill="url(#linearGradient-4)" opacity="0.5" points="81.6091954 85 126.609195 111.355865 126.609195 118 81.6091954 91.6441352"></polygon>
            <polygon id="Path" fill="url(#linearGradient-5)" opacity="0.5" points="81.6091954 91.6453362 36.6091954 118 36.6091954 111.354664 81.6091954 85"></polygon>
            <polygon id="Path" fill="#FCB0AA" points="82.1091954 137 36.6091954 110.997058 82.1091954 85 127.609195 111.002942"></polygon>
            <polygon id="Path" fill="url(#linearGradient-6)" points="81.6091954 121 63.6091954 110.497026 81.6091954 100 99.6091954 110.502974"></polygon>
            <polygon id="Path" fill="#42E8E0" opacity="0.5" points="81.6091954 101.964808 98.7792412 112 99.6091954 111.517596 81.6091954 101 63.6091954 111.51164 64.4391496 112"></polygon>
            <polygon id="Path" fill="url(#linearGradient-7)" points="81.6091954 137.354664 81.6091954 144 126.609195 117.645336 126.609195 111"></polygon>
            <polygon id="Path" fill="url(#linearGradient-8)" points="36.6091954 111 36.6091954 117.644135 81.6091954 144 81.6091954 137.355865"></polygon>
            <polygon id="Path" fill="#ED8981" opacity="0.8" points="82.1091954 136.264568 37.2394058 110 36.6091954 110.361688 82.1091954 137 127.609195 110.367716 126.978985 110"></polygon>
            <path d="M96.2815384,167 C96.2257599,167.001096 96.1708059,166.986646 96.1231635,166.958293 L88.2348751,162.50848 C86.7159567,161.555892 85.7627548,159.944516 85.6765113,158.183596 L85.6765113,156.327525 C85.5983276,154.788372 84.7692521,153.37915 83.44708,152.538046 L81.8024175,151.604061 C81.6886948,151.555372 81.6136428,151.447301 81.6093861,151.326104 C81.6051294,151.204908 81.6724226,151.092068 81.7824619,151.035883 C81.8925012,150.979699 82.0257831,150.990128 82.1252586,151.062707 L83.7699211,151.990743 C85.2888395,152.943331 86.2420414,154.554707 86.3282849,156.315627 L86.3282849,158.171698 C86.4155922,159.70813 87.2454196,161.112578 88.5638076,161.955228 L96.4460047,166.399092 C96.6002974,166.484865 96.6547222,166.676214 96.5678315,166.827416 C96.5120062,166.931836 96.4021393,166.998042 96.2815384,167 L96.2815384,167 Z" id="Path" fill="#E8F4FF"></path>
            <path d="M99.246737,164.993905 C99.1891754,164.99433 99.1325092,164.979947 99.0824096,164.952193 L91.2068654,160.494937 C89.6877136,159.542172 88.7348215,157.927261 88.650661,156.162818 L88.650661,154.303642 C88.5634274,152.764641 87.7343004,151.357843 86.4170252,150.513783 L84.7676647,149.584195 C84.6157144,149.496248 84.5641832,149.305057 84.6520269,149.155155 C84.7418526,149.006383 84.9371287,148.955929 85.0902334,149.041936 L86.7395938,149.971524 C88.2556652,150.926348 89.2059069,152.54061 89.2897121,154.303642 L89.2897121,156.162818 C89.3769456,157.70182 90.2060726,159.108618 91.5233479,159.952677 L99.4354092,164.403974 C99.5688519,164.471912 99.6366292,164.621127 99.5987821,164.763648 C99.560935,164.906169 99.4275093,165.004166 99.277168,165 L99.246737,164.993905 Z" id="Path" fill="#E8F4FF"></path>
            <path d="M102.269902,162.969821 C102.213556,162.968555 102.158672,162.952059 102.111344,162.922164 L94.213957,158.496016 C92.6932866,157.542117 91.7389853,155.928524 91.6526423,154.165181 L91.6526423,152.306556 C91.5681425,150.767167 90.7366535,149.359593 89.414541,148.517821 L87.7679815,147.588509 C87.6157274,147.500588 87.5640932,147.309453 87.6521125,147.159595 C87.7400398,147.008702 87.9361951,146.955476 88.0911951,147.040452 L89.7377546,147.975722 C91.2599434,148.928205 92.2147406,150.542637 92.2990693,152.306556 L92.2990693,154.165181 C92.3864413,155.702146 93.2174693,157.106728 94.5371706,157.94796 L102.434558,162.403894 C102.569581,162.472186 102.63762,162.623175 102.597986,162.766568 C102.558352,162.90996 102.421763,163.00698 102.269902,162.999607 L102.269902,162.969821 Z" id="Path" fill="#E8F4FF"></path>
            <path d="M105.22953,161.985005 C105.171878,161.98543 105.115122,161.971043 105.064943,161.943284 L97.1952286,157.491051 C95.6736737,156.538086 94.7192742,154.922835 94.6349806,153.158021 L94.6349806,151.292494 C94.5466792,149.755032 93.7162313,148.350134 92.3978116,147.507798 L90.7519379,146.578015 C90.6119903,146.485936 90.5680474,146.304086 90.6510495,146.160505 C90.7340515,146.016923 90.9160592,145.959942 91.068921,146.029681 L92.7208905,146.959464 C94.239417,147.915255 95.192829,149.528834 95.2811385,151.292494 L95.2811385,153.158021 C95.3675051,154.696048 96.1984221,156.101738 97.5183075,156.942717 L105.40631,161.40091 C105.556612,161.457636 105.639485,161.615576 105.598944,161.768033 C105.558403,161.92049 105.407345,162.018961 105.247818,161.996925 L105.22953,161.985005 Z" id="Path" fill="#E8F4FF"></path>
            <path d="M108.269912,159.987695 C108.21407,159.988857 108.159054,159.974391 108.111359,159.946005 L100.214199,155.497039 C98.6966543,154.541307 97.7450323,152.928723 97.6590557,151.167188 L97.6590557,149.30303 C97.57072,147.766695 96.73995,146.362829 95.4210189,145.521111 L93.7684085,144.59201 C93.6153691,144.501815 93.5639456,144.308855 93.6525429,144.157238 C93.6946314,144.084559 93.7649854,144.031557 93.8476502,144.010252 C93.930315,143.988947 94.0182859,144.001144 94.0916128,144.044078 L95.7381249,144.973179 C97.2595098,145.926154 98.2140312,147.5398 98.299366,149.30303 L98.299366,151.167188 C98.3877017,152.703523 99.2184717,154.107389 100.537403,154.949107 L108.434563,159.404029 C108.569582,159.472306 108.637619,159.623261 108.597986,159.766621 C108.558353,159.909981 108.421769,160.006978 108.269912,159.999607 L108.269912,159.987695 Z" id="Path" fill="#E8F4FF"></path>
            <path d="M111.287565,158 C111.231776,158.001096 111.17681,157.98664 111.129159,157.958272 L103.208825,153.506285 C101.689602,152.553231 100.736209,150.941067 100.649948,149.179287 L100.649948,147.322308 C100.566551,145.785573 99.7353679,144.380638 98.4139768,143.54288 L96.7689845,142.608439 C96.6666813,142.546774 96.6058251,142.436475 96.6091954,142.319091 C96.6128545,142.201708 96.6802062,142.095073 96.7860242,142.039354 C96.8918421,141.983636 97.02005,141.9873 97.1223532,142.048965 L98.7673456,142.977454 C100.286569,143.930508 101.239962,145.542672 101.326223,147.304453 L101.326223,149.19119 C101.410642,150.729216 102.24134,152.135543 103.562194,152.97657 L111.445972,157.422605 C111.600296,157.50842 111.654731,157.699863 111.567823,157.851139 C111.506909,157.94462 111.400996,158.000852 111.287565,158 L111.287565,158 Z" id="Path" fill="#E8F4FF"></path>
            <path d="M114.246036,156 C114.188364,156.000416 114.131588,155.986035 114.081391,155.958285 L106.190627,151.501707 C104.668539,150.549087 103.713805,148.934422 103.629482,147.170247 L103.629482,145.335186 C103.54208,143.796419 102.711351,142.389835 101.39153,141.545903 L99.7389817,140.568793 C99.6074054,140.472751 99.5704762,140.295563 99.6531351,140.156897 C99.735794,140.018231 99.9117527,139.962187 100.062174,140.026616 L101.714722,140.956062 C103.233723,141.910741 104.185801,143.524758 104.269768,145.287522 L104.269768,147.146415 C104.357171,148.685183 105.1879,150.091767 106.507721,150.935698 L114.435073,155.386318 C114.568774,155.454245 114.636682,155.603438 114.598762,155.745937 C114.560842,155.888437 114.427158,155.986419 114.276526,155.982117 L114.246036,156 Z" id="Path" fill="#E8F4FF"></path>
            <path d="M117.255607,154.999048 C117.200224,154.997271 117.146012,154.982995 117.097204,154.957334 L109.207517,150.499896 C107.688329,149.545675 106.734958,147.931537 106.6487,146.1676 L106.6487,144.308347 C106.564282,142.768438 105.733604,141.36039 104.412781,140.518333 L102.767827,139.588707 C102.615721,139.500757 102.564137,139.309557 102.652071,139.159649 C102.739912,139.008705 102.935876,138.955461 103.090725,139.040466 L104.735679,139.976051 C106.256384,140.928855 107.21025,142.543832 107.294496,144.308347 L107.294496,146.1676 C107.379843,147.705649 108.210532,149.111501 109.530415,149.951655 L117.450564,154.409093 C117.60267,154.497043 117.654254,154.688243 117.56632,154.838151 C117.503187,154.945954 117.382248,155.00858 117.255607,154.999048 L117.255607,154.999048 Z" id="Path" fill="#E8F4FF"></path>
            <path d="M120.248313,152.985013 C120.19257,152.986175 120.13765,152.971707 120.090038,152.943316 L112.20675,148.493632 C110.688038,147.540503 109.735193,145.926597 109.650008,144.163082 L109.650008,142.298623 C109.561828,140.76204 108.732517,139.357947 107.415903,138.516093 L105.772283,137.586842 C105.618088,137.500956 105.563698,137.309357 105.650533,137.157956 C105.742744,137.008963 105.937978,136.956623 106.094919,137.038822 L107.738539,137.968073 C109.254986,138.923316 110.207093,140.535972 110.295281,142.298623 L110.295281,144.163082 C110.38153,145.700228 111.211309,147.105114 112.529387,147.945612 L120.406587,152.401253 C120.556684,152.457947 120.639444,152.615796 120.598958,152.768166 C120.558473,152.920535 120.407622,153.01895 120.248313,152.996927 L120.248313,152.985013 Z" id="Path" fill="#E8F4FF"></path>
            <path d="M123.269912,150.987695 C123.214191,150.987921 123.159431,150.973523 123.111359,150.946005 L115.214199,146.497039 C113.696654,145.541307 112.745032,143.928723 112.659056,142.167188 L112.659056,140.30303 C112.571686,138.766414 111.740682,137.362152 110.421019,136.521111 L108.768409,135.59201 C108.615369,135.501815 108.563946,135.308855 108.652543,135.157238 C108.694631,135.084559 108.764985,135.031557 108.84765,135.010252 C108.930315,134.988947 109.018286,135.001144 109.091613,135.044078 L110.738125,135.973179 C112.26027,136.925445 113.21504,138.539511 113.299366,140.30303 L113.299366,142.167188 C113.387702,143.703523 114.218472,145.107389 115.537403,145.949107 L123.434563,150.404029 C123.569582,150.472306 123.637619,150.623261 123.597986,150.766621 C123.558353,150.909981 123.421769,151.006978 123.269912,150.999607 L123.269912,150.987695 Z" id="Path" fill="#E8F4FF"></path>
            <path d="M126.285737,149 C126.229965,149.001096 126.175018,148.986636 126.127382,148.958262 L118.240111,144.505138 C116.721389,143.551841 115.76831,141.939265 115.682077,140.177035 L115.682077,138.319583 C115.594817,136.783587 114.764854,135.379892 113.446843,134.53919 L111.802393,133.604511 C111.688685,133.555786 111.613642,133.447634 111.609386,133.326347 C111.60513,133.20506 111.672414,133.092136 111.78244,133.03591 C111.892465,132.979684 112.025729,132.990121 112.125192,133.062754 L113.769642,133.99148 C115.288365,134.944777 116.241444,136.557353 116.327676,138.319583 L116.327676,140.177035 C116.412068,141.715454 117.242492,143.12214 118.562911,143.963381 L126.450182,148.410551 C126.603029,148.500709 126.654389,148.693591 126.565902,148.845147 C126.505646,148.940086 126.400025,148.998439 126.285737,149 L126.285737,149 Z" id="Path" fill="#E8F4FF"></path>
            <path d="M129.292249,148 C129.235075,147.997365 129.179081,147.983175 129.127799,147.958326 L121.246392,143.505185 C119.72611,142.553299 118.772508,140.939879 118.688285,139.177064 L118.688285,137.319604 C118.600987,135.782023 117.771242,134.376524 116.452986,133.533243 L114.802398,132.604513 C114.688687,132.555788 114.613642,132.447635 114.609386,132.326348 C114.60513,132.205061 114.672416,132.092137 114.782445,132.03591 C114.892473,131.979683 115.025741,131.990121 115.125207,132.062754 L116.775795,132.991484 C118.292995,133.945427 119.243944,135.558199 119.327812,137.319604 L119.327812,139.177064 C119.41511,140.714645 120.244855,142.120145 121.56311,142.963425 L129.450608,147.410614 C129.602672,147.498479 129.654241,147.689494 129.566332,147.839258 C129.512347,147.938198 129.406967,148 129.292249,148 L129.292249,148 Z" id="Path" fill="#E8F4FF"></path>
            <path d="M132.286069,146 C132.230686,145.998223 132.176474,145.983946 132.127666,145.958284 L124.207517,141.50058 C122.688329,140.546303 121.734958,138.932069 121.6487,137.168026 L121.6487,135.308663 C121.564282,133.768663 120.733604,132.36053 119.412781,131.518424 L117.767827,130.588742 C117.615721,130.500787 117.564137,130.309576 117.652071,130.159658 C117.739912,130.008705 117.935876,129.955459 118.090725,130.040469 L119.735679,130.976109 C121.257908,131.927545 122.212273,133.543463 122.294496,135.308663 L122.294496,137.168026 C122.379843,138.706167 123.210532,140.112102 124.530415,140.952307 L132.450564,145.41001 C132.60267,145.497966 132.654254,145.689176 132.56632,145.839094 C132.508392,145.937265 132.401937,145.998387 132.286069,146 L132.286069,146 Z" id="Path" fill="#E8F4FF"></path>
            <path d="M135.248313,144 C135.190739,144.000416 135.134061,143.986045 135.083951,143.958316 L127.20675,139.487154 C125.687279,138.535235 124.734186,136.921757 124.650008,135.15888 L124.650008,133.2954 C124.561828,131.759625 123.732517,130.356269 122.415903,129.514857 L120.772283,128.586094 C120.618088,128.500254 120.563698,128.308755 120.650533,128.157434 C120.740431,128.009325 120.933707,127.956818 121.088832,128.038362 L122.738539,128.967125 C124.254986,129.921867 125.207093,131.533675 125.295281,133.2954 L125.295281,135.15888 C125.38153,136.695218 126.211309,138.099367 127.529387,138.939422 L135.406587,143.392723 C135.556684,143.449387 135.639444,143.607153 135.598958,143.759443 C135.558473,143.911732 135.407622,144.010096 135.248313,143.988084 L135.248313,144 Z" id="Path" fill="#E8F4FF"></path>
            <path d="M138.255196,142.998071 C138.199531,142.998297 138.144826,142.983889 138.096802,142.956353 L130.207569,138.5045 C128.689848,137.546943 127.73895,135.930699 127.654991,134.16588 L127.654991,132.306471 C127.566744,130.76914 126.736807,129.364362 125.4192,128.522098 L123.768249,127.592394 C123.615363,127.502141 123.563991,127.309055 123.652499,127.15734 C123.694546,127.084614 123.764829,127.031577 123.847411,127.010259 C123.929993,126.98894 124.017875,127.001145 124.091129,127.044107 L125.74208,127.973811 C127.259614,128.928755 128.210772,130.543219 128.294658,132.306471 L128.294658,134.16588 C128.381976,135.705074 129.211903,137.112048 130.530449,137.956213 L138.450142,142.408066 C138.603028,142.498319 138.6544,142.691405 138.565891,142.84312 C138.503323,142.950908 138.381118,143.011854 138.255196,142.998071 L138.255196,142.998071 Z" id="Path" fill="#E8F4FF"></path>
            <path d="M141.285737,140.999789 C141.229965,141.00095 141.175018,140.98649 141.127382,140.958115 L133.240111,136.505033 C131.721389,135.551744 130.76831,133.939183 130.682077,132.176969 L130.682077,130.319534 C130.598708,128.782421 129.767799,127.37714 128.446843,126.539176 L126.802393,125.604505 C126.688685,125.555781 126.613642,125.447629 126.609386,125.326344 C126.60513,125.205058 126.672414,125.092135 126.78244,125.03591 C126.892465,124.979684 127.025729,124.990121 127.125192,125.062753 L128.769642,125.991471 C130.288365,126.944759 131.241444,128.55732 131.327676,130.319534 L131.327676,132.200783 C131.412068,133.739187 132.242492,135.14586 133.562911,135.987094 L141.450182,140.434223 C141.603029,140.52438 141.654389,140.717261 141.565902,140.868816 C141.500109,140.954707 141.395439,141.003639 141.285737,140.999789 L141.285737,140.999789 Z" id="Path" fill="#E8F4FF"></path>
            <path d="M144.275849,139 C144.218491,138.997361 144.162315,138.98315 144.110868,138.958263 L136.197922,134.498361 C134.675826,133.54297 133.721809,131.927749 133.637671,130.163671 L133.637671,128.303391 C133.550091,126.763476 132.717669,125.355843 131.39516,124.511282 L129.739246,123.569217 C129.607402,123.473104 129.570397,123.295784 129.653225,123.157014 C129.736052,123.018245 129.912369,122.962159 130.063096,123.026636 L131.71901,123.956775 C133.241106,124.912167 134.195123,126.527387 134.279261,128.291466 L134.279261,130.151746 C134.366841,131.691661 135.199263,133.099294 136.521772,133.943855 L144.434719,138.397794 C144.568692,138.465772 144.636738,138.615076 144.598741,138.757682 C144.560743,138.900288 144.426787,138.998343 144.275849,138.994038 L144.275849,139 Z" id="Path" fill="#E8F4FF"></path>
            <path d="M147.255607,136.999015 C147.199818,137.000174 147.144854,136.985732 147.097204,136.957394 L139.207517,132.51585 C137.688329,131.563759 136.734958,129.953224 136.6487,128.193223 L136.6487,126.2965 C136.564282,124.760028 135.733604,123.355122 134.412781,122.514945 L132.767827,121.587393 C132.615721,121.499639 132.564137,121.308866 132.652071,121.159293 C132.739912,121.008686 132.935876,120.955561 133.090725,121.040376 L134.735679,121.973873 C136.257908,122.923129 137.212273,124.535344 137.294496,126.2965 L137.294496,128.151602 C137.382782,129.686952 138.212523,131.090274 139.530415,131.933158 L147.450564,136.40443 C147.60267,136.492185 147.654254,136.682957 147.56632,136.832531 C147.506006,136.943504 147.383921,137.008919 147.255607,136.999015 L147.255607,136.999015 Z" id="Path" fill="#E8F4FF"></path>
            <path d="M150.23644,135.985017 C150.178913,135.985442 150.122281,135.971067 150.072212,135.943329 L142.2014,131.494698 C140.683161,130.542504 139.730841,128.92856 139.646731,127.165174 L139.646731,125.301156 C139.558622,123.764937 138.729984,122.361177 137.414437,121.519522 L135.77215,120.59049 C135.618081,120.504626 135.563734,120.313071 135.6505,120.161707 C135.691435,120.088022 135.761149,120.033748 135.843695,120.011299 C135.92624,119.988849 136.014556,120 136.088443,120.0426 L137.736812,120.971632 C139.252029,121.926649 140.203364,123.538923 140.291481,125.301156 L140.291481,127.165174 C140.377659,128.701956 141.206765,130.10651 142.523774,130.946808 L150.406752,135.401394 C150.556727,135.458075 150.639419,135.615887 150.598966,135.768221 C150.558514,135.920554 150.407785,136.018946 150.248605,135.996927 L150.23644,135.985017 Z" id="Path" fill="#E8F4FF"></path>
            <path d="M153.296562,134 C153.240547,134.001098 153.185361,133.986619 153.137517,133.958209 L145.185298,129.505426 C143.661345,128.547669 142.70654,126.931088 142.622237,125.1659 L142.622237,123.306103 C142.533627,121.768451 141.700283,120.36338 140.377264,119.52094 L138.768469,118.591042 C138.615747,118.503065 138.563955,118.31181 138.652244,118.161858 C138.693413,118.088105 138.763522,118.03378 138.846537,118.011309 C138.929551,117.988838 139.018369,118 139.092675,118.04264 L140.74429,118.972538 C142.270389,119.926331 143.227869,121.541361 143.313468,123.306103 L143.313468,125.1659 C143.401144,126.705415 144.23448,128.112683 145.558441,128.957024 L153.449489,133.409807 C153.603003,133.500079 153.654585,133.693205 153.565714,133.844952 C153.510036,133.938976 153.407939,133.997765 153.296562,134 L153.296562,134 Z" id="Path" fill="#E8F4FF"></path>
            <path d="M66.948455,166.999606 C66.7966088,167.006988 66.660034,166.909849 66.620404,166.766278 C66.5807741,166.622708 66.6488059,166.471532 66.7838156,166.403155 L74.7109016,161.947665 C76.0306783,161.10281 76.8613797,159.694687 76.948779,158.154236 L76.948779,156.293308 C77.0330993,154.527203 77.9878009,152.910771 79.5098375,151.957109 L81.1562323,151.026645 C81.3066482,150.962146 81.4826011,151.018251 81.5652572,151.157069 C81.6479133,151.295887 81.6109853,151.473268 81.4794135,151.569415 L79.7964322,152.499879 C78.4769782,153.341436 77.6477216,154.748734 77.5646526,156.287344 L77.5646526,158.148271 C77.4783182,159.913798 76.5241123,161.529391 75.003594,162.484471 L67.076508,166.945926 C67.0388629,166.97364 66.9949343,166.992055 66.948455,166.999606 Z" id="Path" fill="#E8F4FF"></path>
            <path d="M63.9314555,164.997706 C63.8153581,164.99609 63.7086915,164.934843 63.6506486,164.83647 C63.5635703,164.684689 63.6181127,164.492608 63.7727386,164.406506 L71.6719598,159.975495 C72.9954013,159.131662 73.8277261,157.720642 73.9123109,156.177485 L73.9123109,154.31431 C73.9987407,152.546651 74.9540013,150.929107 76.4762003,149.972874 L78.1305194,149.041286 C78.2839191,148.955536 78.4793341,149.007672 78.5669911,149.157735 C78.654648,149.307798 78.601353,149.498962 78.4479534,149.584712 L76.7997387,150.5163 C75.4785032,151.362175 74.6468835,152.771998 74.5593877,154.31431 L74.5593877,156.177485 C74.4749742,157.945722 73.5192173,159.564106 71.9954983,160.518921 L64.05965,164.985763 C64.0183525,164.998994 63.9745637,165.003073 63.9314555,164.997706 L63.9314555,164.997706 Z" id="Path" fill="#E8F4FF"></path>
            <path d="M60.9262297,162.999831 C60.8114795,162.999831 60.7060708,162.937959 60.6520707,162.838906 C60.5641372,162.688971 60.6157211,162.497737 60.7678267,162.409771 L68.6879755,157.951538 C70.0063899,157.109872 70.8366077,155.704567 70.9238944,154.166809 L70.9238944,152.307225 C71.0077853,150.543806 71.9589983,148.92919 73.4766193,147.974157 L75.1276657,147.038405 C75.2829167,146.956771 75.4763488,147.009336 75.5663201,147.157609 C75.6542536,147.307544 75.6026698,147.498777 75.4505641,147.586743 L73.7995177,148.516535 C72.480896,149.36078 71.6509215,150.767886 71.5635988,152.307225 L71.5635988,154.166809 C71.4806875,155.944429 70.5164907,157.570683 68.9804118,158.523718 L61.060263,162.97599 C61.0178267,162.993172 60.9721321,163.0013 60.9262297,162.999831 L60.9262297,162.999831 Z" id="Path" fill="#E8F4FF"></path>
            <path d="M57.9344143,161 C57.8195034,161.000767 57.7128058,160.941739 57.6542678,160.844949 C57.6103657,160.773271 57.5978931,160.687279 57.6196786,160.606474 C57.6414641,160.525669 57.6956617,160.456897 57.7699805,160.415756 L65.6871644,155.956917 C67.0058185,155.115817 67.8359602,153.709922 67.9222463,152.171673 L67.9222463,150.305876 C68.0104733,148.54196 68.9629959,146.928147 70.4801057,145.972218 L72.1244439,145.0423 C72.2791646,144.955057 72.4768466,145.0071 72.5659791,145.15854 C72.6551117,145.30998 72.601942,145.503471 72.4472214,145.590713 L70.8028832,146.520631 C69.4842292,147.361732 68.6540874,148.767626 68.5678013,150.305876 L68.5678013,152.171673 C68.4815748,153.936165 67.5285608,155.55081 66.0099419,156.50533 L58.092758,160.958208 C58.045125,160.986619 57.9901818,161.001098 57.9344143,161 L57.9344143,161 Z" id="Path" fill="#E8F4FF"></path>
            <path d="M54.9283874,159.998615 C54.8146027,160.001131 54.7088783,159.941356 54.6542767,159.843638 C54.6103659,159.771965 54.5978908,159.685978 54.6196807,159.605178 C54.6414705,159.524377 54.6956789,159.45561 54.7700123,159.414471 L62.6887647,154.955903 C64.0062153,154.113496 64.8360528,152.70848 64.9242894,151.170888 L64.9242894,149.305204 C65.0101695,147.542227 65.9607234,145.928324 67.4765642,144.97181 L69.1273195,144.041948 C69.2805537,143.955916 69.4759949,144.006385 69.5658966,144.1552 C69.6543944,144.306942 69.6030287,144.50006 69.450161,144.590328 L67.7994057,145.52019 C66.481955,146.362597 65.6521175,147.767612 65.563881,149.305204 L65.563881,151.170888 C65.4786419,152.935562 64.525192,154.550528 63.0055148,155.504283 L55.1233105,159.95689 C55.0643182,159.990212 54.9962094,160.004791 54.9283874,159.998615 L54.9283874,159.998615 Z" id="Path" fill="#E8F4FF"></path>
            <path d="M51.948455,157.998856 C51.7966088,158.006237 51.660034,157.909102 51.620404,157.765539 C51.5807741,157.621975 51.6488059,157.470806 51.7838156,157.402433 L59.7109016,152.947152 C61.0306783,152.102337 61.8613797,150.694279 61.948779,149.1539 L61.948779,147.29306 C62.0330993,145.527038 62.9878009,143.910681 64.5098375,142.957064 L66.1562323,142.026644 C66.3066482,141.962148 66.4826011,142.01825 66.5652572,142.157062 C66.6479133,142.295873 66.6109853,142.473246 66.4794135,142.569389 L64.8330187,143.505773 C63.5105011,144.345272 62.6786096,145.75313 62.5951414,147.29306 L62.5951414,149.171793 C62.508807,150.937237 61.5546011,152.552754 60.0340828,153.507789 L52.1069968,157.969035 C52.0580529,157.993316 52.0031155,158.00365 51.948455,157.998856 L51.948455,157.998856 Z" id="Path" fill="#E8F4FF"></path>
            <path d="M48.9314567,155.996283 C48.8153588,155.994667 48.7086918,155.933449 48.6506488,155.835121 C48.5635702,155.68341 48.6181127,155.491416 48.7727392,155.405355 L56.6719892,150.946531 C57.9954355,150.103085 58.8277634,148.692713 58.9123484,147.150263 L58.9123484,145.311818 C58.9987785,143.544971 59.9540426,141.928169 61.4762472,140.972374 L63.1305723,140.041214 C63.2298049,139.985769 63.351751,139.9863 63.4504746,140.042607 C63.5491983,140.098914 63.6097011,140.202443 63.6091954,140.314195 C63.6086833,140.425947 63.54724,140.528945 63.4480074,140.584391 L61.7997868,141.515551 C60.4901648,142.367625 59.6705054,143.775714 59.5899502,145.311818 L59.5899502,147.174139 C59.5055364,148.941565 58.549776,150.559207 57.0260514,151.513583 L49.0901743,155.978376 C49.0399862,155.998606 48.9850376,156.004805 48.9314567,155.996283 L48.9314567,155.996283 Z" id="Path" fill="#E8F4FF"></path>
            <path d="M45.9323221,155 C45.815756,155.000875 45.7081102,154.939062 45.6520707,154.839064 C45.5641372,154.689127 45.6157211,154.497892 45.7678267,154.409925 L53.6879755,149.951647 C55.0078589,149.111335 55.8385474,147.705218 55.9238944,146.16688 L55.9238944,144.307278 C56.0081409,142.54243 56.9620071,140.92715 58.4827118,139.974166 L60.1276657,139.038405 C60.2829167,138.95677 60.4763488,139.009336 60.5663201,139.15761 C60.6542536,139.307547 60.6026698,139.498782 60.4505641,139.586749 L58.7995177,140.51655 C57.480896,141.360803 56.6509215,142.767924 56.5635988,144.307278 L56.5635988,146.16688 C56.4797079,147.930316 55.5284949,149.544948 54.0108739,150.5 L46.0907251,154.958269 C46.0419171,154.983935 45.9877044,154.998214 45.9323221,155 L45.9323221,155 Z" id="Path" fill="#E8F4FF"></path>
            <path d="M42.9477239,152.999607 C42.796205,153.006979 42.6599244,152.909971 42.6203799,152.766594 C42.5808353,152.623218 42.6487205,152.472246 42.7834393,152.403962 L50.6934425,147.948534 C52.0109006,147.108077 52.8402894,145.703259 52.9264973,144.166186 L52.9264973,142.301816 C53.0116421,140.538386 53.9640386,138.924558 55.4820368,137.971474 L57.1248836,137.042268 C57.2794639,136.955092 57.4769666,137.007094 57.5660183,137.158418 C57.65507,137.309743 57.6019486,137.503085 57.4473683,137.590261 L55.8045215,138.519468 C54.4870634,139.359925 53.6576746,140.764744 53.5714667,142.301816 L53.5714667,144.166186 C53.4833197,145.928752 52.5316611,147.54133 51.0159272,148.496528 L43.105924,152.945999 C43.0596641,152.978597 43.0046712,152.997232 42.9477239,152.999607 L42.9477239,152.999607 Z" id="Path" fill="#E8F4FF"></path>
            <path d="M39.9287767,151 C39.8148532,151.002442 39.7089998,150.942618 39.6543317,150.844818 C39.6103673,150.773086 39.5978771,150.687028 39.6196935,150.606161 C39.6415099,150.525294 39.6957843,150.456469 39.7702085,150.415296 L47.6986198,145.953038 C49.0176774,145.109934 49.8485271,143.703756 49.9368713,142.164892 L49.9368713,140.297663 C50.0206119,138.540296 50.9651386,136.930136 52.4739629,135.972614 L54.1267318,135.041983 C54.2801528,134.95588 54.4758324,135.00639 54.5658438,135.155329 C54.6544496,135.307196 54.6030211,135.500474 54.449967,135.590817 L52.7971982,136.521448 C51.4774083,137.363874 50.6463245,138.770448 50.5589467,140.309595 L50.5589467,142.176823 C50.4736037,143.942956 49.5189908,145.559259 47.9974599,146.513803 L40.0934437,150.958164 C40.0432405,150.98595 39.9864572,151.00035 39.9287767,151 L39.9287767,151 Z" id="Path" fill="#E8F4FF"></path>
            <path d="M36.9326542,149 C36.8180548,148.99964 36.7119102,148.940996 36.6524886,148.845212 C36.5640022,148.693655 36.6153613,148.500772 36.7682092,148.410614 L44.6554802,143.963425 C45.9736982,143.120145 46.8034186,141.714645 46.8907145,140.177064 L46.8907145,138.319604 C46.9749353,136.55679 47.9285094,134.943369 49.4487484,133.991484 L51.0931987,133.062754 C51.1926614,132.990121 51.3259261,132.979683 51.4359513,133.03591 C51.5459764,133.092137 51.6132609,133.205061 51.6090047,133.326348 C51.6047486,133.447635 51.5297063,133.555788 51.4159982,133.604513 L49.7715479,134.539196 C48.4513315,135.377857 47.6206603,136.782755 47.5363136,138.319604 L47.5363136,140.177064 C47.4500811,141.939301 46.4970022,143.551884 44.9782797,144.505185 L37.0605559,148.958326 C37.0218259,148.981768 36.9780275,148.996039 36.9326542,149 L36.9326542,149 Z" id="Path" fill="#E8F4FF"></path>
            <path d="M33.931981,148 C33.8156942,147.998386 33.7088537,147.937245 33.6507162,147.839041 C33.5634959,147.687521 33.6181272,147.49577 33.7730052,147.409817 L41.6606485,142.956619 C42.9862479,142.114237 43.8199298,140.705644 43.9046525,139.16514 L43.9046525,137.30517 C43.9912232,135.540551 44.9480414,133.92579 46.4727224,132.971201 L48.1297389,132.041215 C48.2833887,131.955613 48.4791224,132.007659 48.5669223,132.157463 C48.6547221,132.307268 48.6013402,132.498104 48.4476904,132.583707 L46.7967884,133.513692 C45.4733985,134.358112 44.6404229,135.765511 44.5527844,137.30517 L44.5527844,139.16514 C44.4682333,140.930337 43.5109179,142.545938 41.9847145,143.49911 L34.0664989,147.95827 C34.0249157,147.980681 33.9792014,147.994862 33.931981,148 Z" id="Path" fill="#E8F4FF"></path>
            <path d="M30.9330378,146 C30.8162135,146.000874 30.7083293,145.939122 30.6521656,145.839222 C30.5640374,145.689434 30.6157355,145.498387 30.7681781,145.410507 L38.6692343,140.944722 C39.9920412,140.10524 40.8245697,138.700511 40.9101057,137.163691 L40.9101057,135.305925 C40.9941824,133.544229 41.9475024,131.931191 43.4684848,130.97709 L45.1231883,130.042253 C45.2783097,129.955107 45.4765038,130.007092 45.5658672,130.158363 C45.6552306,130.309635 45.6019232,130.50291 45.4468019,130.590056 L43.7920984,131.518939 C42.470556,132.362359 41.6387431,133.76809 41.551227,135.305925 L41.551227,137.163691 C41.4671503,138.925386 40.5138304,140.538425 38.9928479,141.492525 L31.0551561,145.946401 C31.017976,145.97109 30.9766438,145.989228 30.9330378,146 Z" id="Path" fill="#E8F4FF"></path>
            <path d="M27.948,143.999607 C27.7963575,144.006984 27.6599658,143.909903 27.620389,143.76642 C27.5808122,143.622936 27.6487527,143.471851 27.7835814,143.403515 L35.6878565,138.956675 C37.006389,138.115589 37.8364543,136.709719 37.9227324,135.171496 L37.9227324,133.305731 C38.0109513,131.541846 38.9633861,129.928061 40.4803561,128.972148 L42.1245428,128.042246 C42.2246202,127.985811 42.3478534,127.985925 42.4478214,128.042546 C42.5477894,128.099167 42.6091954,128.203692 42.6091954,128.316748 C42.6091954,128.429804 42.547368,128.534215 42.4472905,128.59065 L40.8031038,129.520552 C39.4845713,130.361638 38.654506,131.767508 38.5682279,133.305731 L38.5682279,135.171496 C38.4682286,136.930162 37.5095153,138.53419 35.9923355,139.481236 L28.0758812,143.934037 C28.0395252,143.966016 27.9955572,143.98856 27.948,143.999607 L27.948,143.999607 Z" id="Path" fill="#E8F4FF"></path>
            <path d="M24.9272886,143 C24.8132588,143.00244 24.7073066,142.94266 24.6525875,142.844934 C24.563899,142.69318 24.6153754,142.500046 24.7685724,142.409771 L32.6738587,137.956799 C33.9950876,137.112422 34.8267032,135.705094 34.9141985,134.165514 L34.9141985,132.305638 C34.9982553,130.541943 35.9513491,128.927073 37.4719707,127.971889 L39.1262816,127.041951 C39.2798458,126.955913 39.475708,127.006385 39.5658033,127.155213 C39.6544918,127.306967 39.6030154,127.500101 39.4498184,127.590376 L37.7955075,128.520314 C36.4752192,129.36279 35.6435943,130.767921 35.5551677,132.305638 L35.5551677,134.165514 C35.4706771,135.932185 34.5151875,137.549481 32.9912911,138.505224 L25.0921092,142.958196 C25.0418592,142.98596 24.9850229,143.000349 24.9272886,143 Z" id="Path" fill="#E8F4FF"></path>
            <path d="M21.9326542,140.999064 C21.8180548,140.998703 21.7119102,140.939975 21.6524886,140.844054 C21.5640022,140.69228 21.6153613,140.499121 21.7682092,140.408833 L29.6554802,135.955277 C30.9670451,135.115701 31.7958744,133.718543 31.8907145,132.187342 L31.8907145,130.327222 C31.9749353,128.561883 32.9285094,126.946152 34.4487484,125.992904 L36.0931987,125.062844 C36.1926614,124.990106 36.3259261,124.979654 36.4359513,125.035961 C36.5459764,125.092269 36.6132609,125.205355 36.6090047,125.326816 C36.6047486,125.448276 36.5297063,125.556584 36.4159982,125.605379 L34.7715479,126.541401 C33.4505922,127.380575 32.6196832,128.787887 32.5363136,130.327222 L32.5363136,132.187342 C32.4500811,133.952102 31.4970022,135.566994 29.9782797,136.52166 L22.0605559,140.981178 C22.0198182,140.996403 21.9761172,141.002514 21.9326542,140.999064 Z" id="Path" fill="#E8F4FF"></path>
            <path d="M18.9311722,139 C18.8151768,138.998387 18.708604,138.937272 18.6506122,138.839111 C18.5636104,138.687657 18.6181048,138.495988 18.7725948,138.410073 L26.6648699,133.958802 C27.9871476,133.116785 28.8187405,131.708803 28.9032508,130.168966 L28.9032508,128.309801 C28.9896047,126.545946 29.9440253,124.931883 31.4648857,123.977707 L33.1177501,123.048125 C33.2147161,122.988516 33.3368659,122.983976 33.4381871,123.036215 C33.5395082,123.088454 33.6046076,123.189536 33.6089628,123.301384 C33.613318,123.413232 33.5562674,123.518855 33.4593015,123.578464 L31.8125362,124.508046 C30.4924625,125.352101 29.6615741,126.758891 29.5741552,128.297883 L29.5741552,130.157048 C29.4898159,131.921481 28.5348994,133.536382 27.0125203,134.489141 L19.0836504,138.94637 C19.0376592,138.975341 18.9855108,138.993683 18.9311722,139 Z" id="Path" fill="#E8F4FF"></path>
            <path d="M15.9323221,137 C15.8170399,137.002028 15.7097019,136.942807 15.6520707,136.845326 C15.5641372,136.695724 15.6157211,136.504916 15.7678267,136.417145 L23.6879755,131.968823 C25.0063899,131.129028 25.8366077,129.726846 25.9238944,128.192506 L25.9238944,126.295428 C26.0081409,124.534521 26.9620071,122.922847 28.4827118,121.971991 L30.1276657,121.038319 C30.2829167,120.956867 30.4763488,121.009315 30.5663201,121.157258 C30.6542536,121.30686 30.6026698,121.497668 30.4505641,121.585439 L28.7995177,122.513164 C27.4692874,123.348909 26.6273458,124.753988 26.5331367,126.295428 L26.5331367,128.150878 C26.4492458,129.910376 25.4980328,131.521403 23.9804118,132.474314 L16.0907251,136.940477 C16.0451074,136.975149 15.9899846,136.995844 15.9323221,137 L15.9323221,137 Z" id="Path" fill="#E8F4FF"></path>
            <path d="M12.9477252,135.999607 C12.7962056,136.006979 12.6599246,135.90997 12.6203799,135.766593 C12.5808352,135.623217 12.6487206,135.472244 12.7834399,135.40396 L20.6934717,130.948517 C22.0109345,130.108058 22.8403264,128.703234 22.9265345,127.166157 L22.9265345,125.301781 C23.0146818,123.539209 23.9663439,121.926625 25.4820832,120.971425 L27.124936,120.042215 C27.2249323,119.985822 27.3480654,119.985936 27.4479523,120.042514 C27.5478392,120.099093 27.6091954,120.20354 27.6091954,120.316512 C27.6091954,120.429484 27.5474182,120.533817 27.4474219,120.59021 L25.8045692,121.51942 C24.4871063,122.35988 23.6577145,123.764703 23.5715063,125.301781 L23.5715063,127.166157 C23.483359,128.928729 22.5316969,130.541312 21.0159576,131.496513 L13.1059258,135.957912 C13.0583359,135.986301 13.0034423,136.000769 12.9477252,135.999607 L12.9477252,135.999607 Z" id="Path" fill="#E8F4FF"></path>
            <path d="M9.92729772,134 C9.81326467,134.002443 9.70730946,133.942577 9.65258873,133.844709 C9.56389771,133.692736 9.6153756,133.499322 9.76857697,133.408915 L17.7046142,128.94949 C19.0258812,128.103889 19.8575207,126.694522 19.9450186,125.152711 L19.9450186,123.290139 C20.0319194,121.538617 20.9716102,119.933818 22.4723412,118.973989 L24.1266997,118.042704 C24.2008544,118 24.2894916,117.988822 24.3723372,118.011326 C24.4551828,118.03383 24.5251496,118.088236 24.5662341,118.162099 C24.654344,118.312275 24.6026567,118.503816 24.4502459,118.591923 L22.7958873,119.523209 C21.475561,120.366906 20.6439122,121.774072 20.555483,123.314019 L20.555483,125.17659 C20.4709899,126.945821 19.5154728,128.565461 17.9915325,129.522589 L10.0921231,133.958135 C10.0418716,133.98594 9.98503371,134.00035 9.92729772,134 L9.92729772,134 Z" id="Path" fill="#E8F4FF"></path>
            <g id="Group" opacity="0.3" transform="translate(0.609195, 0.000000)" fill="#00A4FF">
                <path d="M136.949324,24.0674359 C137.475507,27.0161538 139.692568,34.5353846 148.83277,39.7133333 C161.839527,45.7051282 170.849662,53.5782051 173.864865,62.3771795 C174.094872,63.0210005 174.357312,63.65283 174.651182,64.2702564 C174.976351,63.7394872 174.976351,63.7394872 174.976351,62.4479487 L174.976351,47.704359 C174.976351,39.0351282 174.485642,37.124359 173.864865,34.73 C170.849662,25.9310256 161.839527,18.0579487 148.83277,12.0661538 C138.451014,8.72230769 135.938345,18.4294872 136.949324,24.1146154 L136.949324,24.0674359 Z" id="Path" opacity="0.12014974"></path>
                <path d="M41.5625,6.35153846 C55.3378378,2.35897436 71.6258446,0.123846154 89.0135135,0.265384615 C91.3074324,0.265384615 93.5836149,0.347948718 95.8302365,0.442307692 C111.095439,1.83410256 116.522804,17.9223077 107.32348,24.9579487 C103.096284,28.1897436 98.0059122,28.154359 95.8302365,28.1366667 C93.6545608,28.1189744 91.3074324,27.9774359 89.0135135,27.9597436 C71.6258446,27.8182051 55.3141892,30.0651282 41.5625,34.0458974 C27.6570946,37.4251282 26.8353041,23.3302564 31.7010135,14.7082051 C33.3327703,11.7948718 36.3716216,8.00282051 41.5625,6.35153846 Z" id="Path" opacity="0.13328683"></path>
                <path d="M0,68.9410256 C0.378378378,64.5474359 0.679898649,61.085641 5.16131757,55.0348718 C14.620777,41.1287179 12.6993243,24.9579487 7.47888514,25.7187179 C6.63935811,25.8366667 5.76435811,26.7448718 5.16131757,27.3346154 C1.98648649,31.4569231 0.183277027,35.8917949 0,40.5153846 C0,40.7571795 0,41.0048718 0,41.2466667 L0,68.9646154 L0,68.9410256 Z" id="Path" opacity="0.149586124"></path>
            </g>
            <polygon id="Rectangle" fill="url(#linearGradient-9)" transform="translate(117.281214, 85.569544) rotate(-22.030000) translate(-117.281214, -85.569544) " points="115.656301 71.7059812 118.906128 71.7059812 118.906128 99.4331076 115.656301 99.4331076"></polygon>
            <circle id="Oval" fill="url(#radialGradient-10)" transform="translate(56.379361, 60.122383) rotate(-33.980000) translate(-56.379361, -60.122383) " cx="56.3793611" cy="60.1223827" r="10.0928161"></circle>
            <path d="M108.609195,75.4858142 C108.609195,95.1039642 96.9623772,111 82.6091954,111 C68.2560136,111 56.6091954,95.1039642 56.6091954,75.4858142 C56.6091954,55.8676642 68.2501045,50 82.6091954,50 C96.9682863,50 108.609195,55.8735911 108.609195,75.4858142 Z" id="Path" fill="url(#radialGradient-11)"></path>
            <path d="M108.609195,75.4858142 C108.609195,95.1039642 96.9623772,111 82.6091954,111 C68.2560136,111 56.6091954,95.1039642 56.6091954,75.4858142 C56.6091954,55.8676642 68.2501045,50 82.6091954,50 C96.9682863,50 108.609195,55.8735911 108.609195,75.4858142 Z" id="Path" fill="url(#linearGradient-12)"></path>
            <ellipse id="Oval" fill="#393091" cx="82.6091954" cy="60.5" rx="18" ry="10.5"></ellipse>
            <path d="M69.8793653,55.8954597 C76.9090006,51.762686 88.3074374,51.762686 95.3430656,55.8954597 C98.2436142,57.604731 99.945589,59.7474246 100.44899,62 C101.168134,58.8378481 99.4661595,55.5291873 95.3430656,53.0995803 C88.3074374,48.9668066 76.9090006,48.9668066 69.8793653,53.0995803 C65.7502785,55.5413964 64.0542966,58.8378481 64.767448,61.9938955 C65.2888276,59.7474246 66.9848095,57.604731 69.8793653,55.8954597 Z" id="Path" fill="#453C9E"></path>
            <path d="M61.8188243,36 L65.0866277,30.36969 C67.0442536,28.3015327 68.4873133,25.8026748 69.2992656,23.0749232 L72.6091954,17.3785156 L67.8489146,14.6444803 C67.6947527,14.5417812 67.5339158,14.4494411 67.3674702,14.3680724 L67.3674702,14.3680724 C66.013408,13.7311323 64.2140098,13.8993806 62.23407,15.0410657 C58.0214321,17.4446132 54.6091954,23.3693578 54.6091954,28.2245238 C54.6091954,30.6280713 55.4637591,32.3586255 56.8418935,33.1517962 L56.8418935,33.1517962 L61.8188243,36 Z" id="Path" fill="url(#radialGradient-13)"></path>
            <ellipse id="Oval" fill="#BCBEFF" transform="translate(67.178111, 26.517339) rotate(-60.000000) translate(-67.178111, -26.517339) " cx="67.1781106" cy="26.5173392" rx="10.6078161" ry="6.12672414"></ellipse>
            <circle id="Oval" fill="url(#radialGradient-14)" transform="translate(83.470282, 35.628934) rotate(-21.860000) translate(-83.470282, -35.628934) " cx="83.4702821" cy="35.6289342" r="26.5728161"></circle>
            <circle id="Oval" fill="url(#linearGradient-15)" transform="translate(83.470282, 35.628934) rotate(-21.860000) translate(-83.470282, -35.628934) " cx="83.4702821" cy="35.6289342" r="26.5728161"></circle>
            <circle id="Oval" fill="url(#linearGradient-15)" transform="translate(83.470282, 35.628934) rotate(-21.860000) translate(-83.470282, -35.628934) " cx="83.4702821" cy="35.6289342" r="26.5728161"></circle>
            <path d="M98.782716,54 L102.056537,48.36969 C104.021779,46.3021858 105.474813,43.8039004 106.299266,41.0749232 L109.609195,35.3725068 L104.842897,32.6444803 C104.692201,32.5396065 104.5332,32.4471648 104.36747,32.3680724 L104.36747,32.3680724 C103.00739,31.7311323 101.207992,31.8993806 99.23407,33.0410657 C95.0214321,35.4446132 91.6091954,41.3693578 91.6091954,46.2245238 C91.6091954,48.6280713 92.4637591,50.3586255 93.8418935,51.1517962 L93.8418935,51.1517962 L98.782716,54 Z" id="Path" fill="url(#radialGradient-16)"></path>
            <ellipse id="Oval" fill="#BCBEFF" transform="translate(103.610896, 44.385351) rotate(-60.000000) translate(-103.610896, -44.385351) " cx="103.610896" cy="44.385351" rx="10.6078161" ry="6.12672414"></ellipse>
            <path d="M95.9594722,48.8037629 C95.9594722,44.1126349 99.3897691,38.4112887 103.611208,36.0657247 C104.797982,35.3315003 106.202155,34.9909654 107.609195,35.0961475 C106.401344,34.8348842 104.879452,35.0961475 103.260932,36.0018603 C99.0334531,38.3242009 95.6091954,44.0545764 95.6091954,48.7747336 C95.6091954,51.8402232 97.0767344,53.7155133 99.268984,54 C97.2699906,53.5355319 95.9594722,51.7066887 95.9594722,48.8037629 Z" id="Path" fill="#FFFFFF"></path>
            <ellipse id="Oval" fill="#393091" transform="translate(103.942332, 43.973544) rotate(-60.113473) translate(-103.942332, -43.973544) " cx="103.942332" cy="43.9735443" rx="7.60904717" ry="4.38960645"></ellipse>
            <path d="M106.294102,37 C106.925318,37.8446164 107.240286,38.8842714 107.18406,39.9375971 C107.18406,43.4169643 104.748702,47.64277 101.736075,49.3824535 C100.816527,49.9948893 99.6977148,50.2318146 98.6091954,50.0446168 C99.5833385,51.1943731 101.255016,51.3569041 103.16121,50.2553052 C106.167824,48.5216413 108.609195,44.2898159 108.609195,40.8164684 C108.609195,38.6855066 107.695185,37.3310816 106.294102,37 Z" id="Path" fill="#453C9E"></path>
            <ellipse id="Oval" fill="#393091" transform="translate(67.602773, 42.412961) rotate(-22.600000) translate(-67.602773, -42.412961) " cx="67.6027729" cy="42.4129612" rx="6.74827586" ry="11.6851724"></ellipse>
            <path d="M71.5885626,44.0919565 C71.3261081,45.9705759 69.7705855,46.5635152 68.1254443,45.4128608 C66.3865969,44.0478056 65.4596817,42.0054387 65.6289265,39.9120285 C65.8977822,38.0275384 67.4469035,37.4345992 69.0920448,38.5911242 C70.8343332,39.953883 71.7620088,41.9979254 71.5885626,44.0919565 L71.5885626,44.0919565 Z" id="Path" fill="url(#linearGradient-17)"></path>
            <path d="M68.0668642,50.6231257 C63.8794027,47.4456007 61.0404457,40.6676639 61.7206125,35.4814262 C61.9926792,33.3669918 62.8147938,31.8457738 63.9681201,31 C61.7856719,31.1996966 60.1296137,33.0439532 59.7096846,36.2390985 C59.0295179,41.4253362 61.8743893,48.203273 66.0559364,51.3749246 C68.5341092,53.2602953 70.9235647,53.4541184 72.6091954,52.2206984 C71.2429474,52.3499138 69.669692,51.8389255 68.0668642,50.6231257 Z" id="Path" fill="#453C9E"></path>
            <path d="M66.6872194,52.1852396 C62.3395174,48.9667856 59.3816042,42.1015434 60.0887976,36.8485029 C60.4147215,34.4153278 61.4724368,32.7614827 62.9360197,32 C61.2756526,32.6603482 60.0703491,34.3796333 59.7136776,37.0210263 C59.0064842,42.2740668 61.9643974,49.139309 66.3120994,52.3518139 C68.6489124,54.0829972 70.9057817,54.3982986 72.6091954,53.5416306 C70.9549778,54.1781825 68.8518462,53.785543 66.6872194,52.1852396 Z" id="Path" fill="url(#linearGradient-18)"></path>
            <circle id="Oval" fill="url(#radialGradient-19)" transform="translate(112.084649, 72.714438) rotate(-34.670000) translate(-112.084649, -72.714438) " cx="112.084649" cy="72.7144378" r="10.0928161"></circle>
            <circle id="Oval" fill="url(#radialGradient-10)" transform="translate(112.084649, 72.714438) rotate(-34.670000) translate(-112.084649, -72.714438) " cx="112.084649" cy="72.7144378" r="10.0928161"></circle>
            <path d="M128.532686,106.551817 C127.943093,111.354754 123.745192,120.439472 119.924631,119.983459 C116.10407,119.527447 114.13483,109.696527 114.706735,104.899511 C115.27864,100.102496 118.833885,96.5787626 122.64855,97.0406974 C126.463215,97.5026322 129.098695,101.754801 128.532686,106.551817 Z" id="Path" fill="url(#radialGradient-20)"></path>
            <path d="M128.532686,106.551817 C127.943093,111.354754 123.745192,120.439472 119.924631,119.983459 C116.10407,119.527447 114.13483,109.696527 114.706735,104.899511 C115.27864,100.102496 118.833885,96.5787626 122.64855,97.0406974 C126.463215,97.5026322 129.098695,101.754801 128.532686,106.551817 Z" id="Path" fill="url(#linearGradient-21)" style="mix-blend-mode: lighten;"></path>
            <path d="M29.2279799,75 C28.4829768,75.0010857 27.8337398,74.4963843 27.6560148,73.7779901 C27.4782898,73.0595958 27.8181251,72.3136438 28.478841,71.9718535 L49.2423757,61.1829898 C50.0340161,60.7721686 51.0111684,61.0763593 51.4249064,61.8624188 C51.8386444,62.6484783 51.5322939,63.6187418 50.7406535,64.029563 L29.9771188,74.8184267 C29.7458172,74.938081 29.4887891,75.0003779 29.2279799,75 Z" id="Path" fill="url(#linearGradient-22)"></path>
            <path d="M29.6577465,81.4040828 C25.4784476,83.6990007 15.746234,85.5021504 13.9166947,82.1651525 C12.0871554,78.8281546 18.8441758,71.574575 23.0234748,69.2855115 C27.2027737,66.996448 32.0834935,67.8453334 33.9130327,71.1881857 C35.742572,74.531038 33.8428906,79.109165 29.6577465,81.4040828 Z" id="Path" fill="url(#radialGradient-23)"></path>
            <path d="M29.6577465,81.4040828 C25.4784476,83.6990007 15.746234,85.5021504 13.9166947,82.1651525 C12.0871554,78.8281546 18.8441758,71.574575 23.0234748,69.2855115 C27.2027737,66.996448 32.0834935,67.8453334 33.9130327,71.1881857 C35.742572,74.531038 33.8428906,79.109165 29.6577465,81.4040828 Z" id="Path" fill="url(#linearGradient-24)" style="mix-blend-mode: lighten;"></path>
            <g id="Group" opacity="0.5" transform="translate(0.609195, 40.000000)" fill="#00A4FF">
                <path d="M10.1689189,36.5779661 C9.53631757,41.6915254 6.89358108,44.7347458 4.13851351,40.9322034 C0.591216216,36.05 0.230574324,31.2745763 0,28.4211864 L0,0.539830508 C0,4.8940678 1.44256757,9.1 4.13851351,13.0508475 C10.0092905,22.7974576 10.7069257,32.4135593 10.1925676,36.5601695 L10.1689189,36.5779661 Z" id="Path" opacity="0.149586124"></path>
                <path d="M92.5962838,41.6855932 C90.4048423,41.7449153 88.1936937,41.7666667 85.9628378,41.7508475 C68.504223,41.6025424 52.3344595,39.0635593 38.8369932,34.7983051 C25.3513514,31.1855932 24.535473,45.3398305 29.2415541,54.0838983 C32.59375,60.3127119 37.1283784,62.0152542 38.8369932,62.6559322 C52.3344595,66.9211864 68.504223,69.4601695 85.9628378,69.6084746 C88.1897523,69.6084746 90.4009009,69.5867232 92.5962838,69.5432203 C108.440878,68.3567797 112.585304,53.1050847 105.183277,45.9805085 C103.11402,43.9932203 99.2711149,41.6322034 92.5962838,41.6855932 L92.5962838,41.6855932 Z" id="Path" opacity="0.149586124"></path>
                <path d="M174.964527,19.4754237 C174.887669,31.5237288 174.184122,33.7127119 173.291385,36.4889831 C169.578547,45.2745763 159.953547,53.0338983 146.485642,58.8355932 C134.661318,62.3237288 131.433277,50.0262712 136.228041,40.9084746 C138.547047,36.616357 142.129091,33.1464657 146.485642,30.9720339 C159.953547,25.1762712 169.578547,17.4169492 173.291385,8.63135593 C173.585724,7.97933464 173.925531,7.34895685 174.308277,6.74491525 L174.609797,6.70932203 C174.840372,7.35 174.934966,7.61694915 174.964527,10.9033898 L174.964527,19.4754237 L174.964527,19.4754237 Z" id="Path" opacity="0.12014974"></path>
            </g>
        </g>
    </g>
</svg>