<?xml version="1.0" encoding="UTF-8"?>
<svg width="220px" height="200px" viewBox="0 0 220 200" version="1.1" xmlns="http://www.w3.org/2000/svg" xmlns:xlink="http://www.w3.org/1999/xlink">
    <!-- Generator: Sketch 56.3 (81716) - https://sketch.com -->
    <title>backend</title>
    <desc>Created with Sketch.</desc>
    <defs>
        <linearGradient x1="52.7095775%" y1="63.8830902%" x2="49.0307454%" y2="44.8741779%" id="linearGradient-1">
            <stop stop-color="#8F4888" offset="0%"></stop>
            <stop stop-color="#9F6BA3" offset="14%"></stop>
            <stop stop-color="#C3A4C2" offset="40%"></stop>
            <stop stop-color="#D8CDDB" offset="61%"></stop>
            <stop stop-color="#F2E7EA" offset="78%"></stop>
            <stop stop-color="#FCF0EF" offset="100%"></stop>
        </linearGradient>
        <linearGradient x1="125.802169%" y1="99.9264122%" x2="-34.9413587%" y2="-5.93128127%" id="linearGradient-2">
            <stop stop-color="#1D5CC9" offset="1%"></stop>
            <stop stop-color="#837FF8" offset="36%"></stop>
            <stop stop-color="#AB83F5" offset="51%"></stop>
            <stop stop-color="#BD82F8" offset="77%"></stop>
            <stop stop-color="#D081FC" offset="100%"></stop>
        </linearGradient>
        <linearGradient x1="-36.473323%" y1="36.8907447%" x2="134.181979%" y2="62.7883433%" id="linearGradient-3">
            <stop stop-color="#FBE8FF" offset="0%"></stop>
            <stop stop-color="#ECD6FF" offset="24%"></stop>
            <stop stop-color="#D1B5FF" offset="73%"></stop>
            <stop stop-color="#C7A8FF" offset="100%"></stop>
        </linearGradient>
        <linearGradient x1="0%" y1="49.9438581%" x2="100%" y2="49.9438581%" id="linearGradient-4">
            <stop stop-color="#5761D7" offset="0%"></stop>
            <stop stop-color="#5C66D9" offset="18%"></stop>
            <stop stop-color="#6A73DF" offset="39%"></stop>
            <stop stop-color="#8289E8" offset="61%"></stop>
            <stop stop-color="#A3A7F5" offset="85%"></stop>
            <stop stop-color="#BCBEFF" offset="100%"></stop>
        </linearGradient>
        <linearGradient x1="317.906823%" y1="233.538276%" x2="-215.853389%" y2="-132.027091%" id="linearGradient-5">
            <stop stop-color="#E6DBFF" offset="0%"></stop>
            <stop stop-color="#EBD1FF" offset="21%"></stop>
            <stop stop-color="#F3C2FF" offset="64%"></stop>
            <stop stop-color="#F6BDFF" offset="100%"></stop>
        </linearGradient>
        <linearGradient x1="88.1595071%" y1="44.8814793%" x2="-9.60142747%" y2="44.8810596%" id="linearGradient-6">
            <stop stop-color="#1D5DCC" offset="0%"></stop>
            <stop stop-color="#AB83F5" offset="40%"></stop>
            <stop stop-color="#BD82F8" stop-opacity="0.282943619" offset="72%"></stop>
            <stop stop-color="#D081FC" stop-opacity="0" offset="100%"></stop>
        </linearGradient>
        <linearGradient x1="-55.8582503%" y1="-66.0738139%" x2="158.516058%" y2="169.041167%" id="linearGradient-7">
            <stop stop-color="#D081FC" offset="0%"></stop>
            <stop stop-color="#BD82F8" offset="27%"></stop>
            <stop stop-color="#AB83F5" offset="57%"></stop>
            <stop stop-color="#1F63D9" offset="99%"></stop>
        </linearGradient>
        <linearGradient x1="-36.473323%" y1="36.959022%" x2="134.181979%" y2="62.7217374%" id="linearGradient-8">
            <stop stop-color="#FBE8FF" offset="0%"></stop>
            <stop stop-color="#ECD6FF" offset="24%"></stop>
            <stop stop-color="#D1B5FF" offset="73%"></stop>
            <stop stop-color="#C7A8FF" offset="100%"></stop>
        </linearGradient>
        <linearGradient x1="2.3127144%" y1="47.4793884%" x2="89.8961034%" y2="48.8226223%" id="linearGradient-9">
            <stop stop-color="#FBE8FF" offset="0%"></stop>
            <stop stop-color="#ECD6FF" offset="24%"></stop>
            <stop stop-color="#BC95FC" offset="72.5084459%"></stop>
            <stop stop-color="#A578F6" offset="100%"></stop>
        </linearGradient>
        <linearGradient x1="-0.294742857%" y1="67.5329519%" x2="100.177829%" y2="19.0781156%" id="linearGradient-10">
            <stop stop-color="#5761D7" offset="0%"></stop>
            <stop stop-color="#5C66D9" offset="18%"></stop>
            <stop stop-color="#6A73DF" offset="39%"></stop>
            <stop stop-color="#8289E8" offset="61%"></stop>
            <stop stop-color="#A3A7F5" offset="85%"></stop>
            <stop stop-color="#BCBEFF" offset="100%"></stop>
        </linearGradient>
        <linearGradient x1="51.3715509%" y1="-44.861168%" x2="22.1387404%" y2="61.1324746%" id="linearGradient-11">
            <stop stop-color="#FFFFFF" offset="0%"></stop>
            <stop stop-color="#91C5F3" offset="100%"></stop>
        </linearGradient>
        <linearGradient x1="65.7749168%" y1="-25.8441099%" x2="49.4163271%" y2="52.80679%" id="linearGradient-12">
            <stop stop-color="#FFFFFF" offset="0%"></stop>
            <stop stop-color="#AAD7FF" offset="100%"></stop>
        </linearGradient>
        <linearGradient x1="51.3715509%" y1="-25.1240409%" x2="48.6547085%" y2="123.757932%" id="linearGradient-13">
            <stop stop-color="#FFFFFF" offset="0%"></stop>
            <stop stop-color="#AAD7FF" offset="100%"></stop>
        </linearGradient>
        <linearGradient x1="51.3715509%" y1="31.3478471%" x2="22.1387404%" y2="52.1889317%" id="linearGradient-14">
            <stop stop-color="#FFFFFF" offset="0%"></stop>
            <stop stop-color="#91C5F3" offset="100%"></stop>
        </linearGradient>
        <linearGradient x1="51.1480297%" y1="-57.4364007%" x2="26.6792807%" y2="62.6082466%" id="linearGradient-15">
            <stop stop-color="#FFFFFF" offset="0%"></stop>
            <stop stop-color="#91C5F3" offset="100%"></stop>
        </linearGradient>
    </defs>
    <g id="backend" stroke="none" stroke-width="1" fill="none" fill-rule="evenodd">
        <g id="j;po" transform="translate(18.000000, -24.000000)" fill-rule="nonzero">
            <path d="M52.1952866,190.799995 C38.6088769,190.799995 25.8314654,187.748334 16.2186642,182.214971 C6.34412824,176.51537 0.895287934,168.856531 0.895287934,160.639606 C0.895287934,152.422681 6.34412824,144.763842 16.2186642,139.076115 C36.0629122,127.64129 68.3276609,127.64129 88.171909,139.076115 C98.0583419,144.763842 103.495285,152.434555 103.495285,160.639606 C103.495285,168.844657 98.0583419,176.51537 88.171909,182.214971 C78.5591078,187.748334 65.7816962,190.799995 52.1952866,190.799995 Z M52.1952866,132.355335 C39.5130513,132.355335 26.818919,135.133891 17.1704266,140.667254 C7.89074229,146.01063 2.7869159,153.087634 2.7869159,160.603983 C2.7869159,168.120332 7.89074229,175.268582 17.1704266,180.576335 C26.450111,185.884089 38.9300968,188.888254 52.1952866,188.888254 C65.4604764,188.888254 77.9047711,185.931586 87.2320435,180.576335 C96.559316,175.221085 101.615554,168.144081 101.615554,160.639606 C101.615554,153.135131 96.4998309,146.046252 87.2320435,140.702876 C77.5716542,135.133891 64.8775219,132.355335 52.1952866,132.355335 L52.1952866,132.355335 Z" id="Shape" fill="#E8F4FF"></path>
            <g id="Group" opacity="0.67" transform="translate(13.495288, 138.599996)">
                <ellipse id="Oval" fill="#200F84" cx="38.3934365" cy="22.26454" rx="37.5925771" ry="21.6447562"></ellipse>
                <ellipse id="Oval" fill="url(#linearGradient-1)" opacity="0.5" style="mix-blend-mode: multiply;" cx="38.3934365" cy="22.26454" rx="37.5925771" ry="21.6447562"></ellipse>
            </g>
            <path d="M98.0952854,144.451489 L98.0952854,134.243968 L94.5205191,134.243968 C91.8536076,130.716029 88.4706195,127.794517 84.5945848,125.672039 C66.7207535,115.309316 37.6102402,115.309316 19.6768295,125.672039 C15.8007948,127.794517 12.4178066,130.716029 9.75089518,134.243968 L6.29528779,134.243968 L6.29528779,144.451489 L6.29528779,144.451489 C6.29528779,151.244563 10.7756615,158.037638 19.7364089,163.219 C37.6698197,173.593661 66.7326694,173.593661 84.6541642,163.219 C93.6149116,158.0257 98.0952854,151.232625 98.0952854,144.451489 Z" id="Path" fill="url(#linearGradient-2)"></path>
            <ellipse id="Oval" fill="url(#linearGradient-3)" cx="52.1952866" cy="133.649996" rx="45.8999988" ry="26.5499993"></ellipse>
            <path d="M94.4952855,134.077306 L94.4952855,120.26325 L91.284885,120.26325 C88.8240173,117.034604 85.7085655,114.3583 82.1411888,112.408431 C65.6135715,102.930519 38.8364535,102.930519 22.3088362,112.408431 C18.7414595,114.3583 15.6260077,117.034604 13.16514,120.26325 L9.8952877,120.26325 L9.8952877,134.077306 L9.8952877,134.077306 C9.8952877,140.309032 14.0212468,146.540759 22.2850555,151.291562 C38.8007824,160.769474 65.5897908,160.769474 82.1055177,151.291562 C90.3693263,146.540759 94.4952855,140.309032 94.4952855,134.077306 Z" id="Path" fill="#24126A"></path>
            <g id="Group" opacity="0.51" transform="translate(8.995288, 100.799997)" fill="#453C9E">
                <path d="M85.1437477,29.1719992 L85.1437477,15.1679996 L81.9374978,15.1679996 C79.470732,11.8895399 76.3467701,9.17432543 72.7699981,7.19999981 C56.2637485,-2.39999994 29.5212492,-2.39999994 13.0624997,7.19999981 C9.49973504,9.17498561 6.38831107,11.885764 3.9306249,15.1559996 L0.653124983,15.1559996 L0.653124983,29.1599992 L0.653124983,29.1599992 C0.653124983,35.4599991 4.77374987,41.7719989 13.0268747,46.5839988 C29.5212492,56.1839985 56.2756235,56.1839985 72.7699981,46.5839988 C81.0231229,41.7839989 85.1437477,35.4719991 85.1437477,29.1719992 Z" id="Path"></path>
            </g>
            <ellipse id="Oval" fill="#BCBEFF" cx="52.1952866" cy="119.699997" rx="42.2999989" ry="24.2999994"></ellipse>
            <g id="Group" opacity="0.51" transform="translate(55.795286, 125.999997)" fill="#5351AF">
                <path d="M25.9559993,11.6452797 C19.4356883,19.6172427 10.6616466,25.4825643 0.75599998,28.4911192 C10.2359997,27.9565193 19.4639995,25.6280393 26.7359993,21.4700394 C35.1359991,16.7180396 39.239999,10.4572797 39.239999,4.22027989 L39.239999,0.074159998 C34.0797019,3.01950664 29.5638133,6.95310268 25.9559993,11.6452797 Z" id="Path"></path>
            </g>
            <path d="M98.0952854,119.242537 L98.0952854,109.037311 L94.5205191,109.037311 C91.852883,105.513988 88.4698691,102.597179 84.5945848,100.479244 C66.7207535,90.1069153 37.6102402,90.1069153 19.6768295,100.479244 C15.8034696,102.605111 12.4212294,105.525321 9.75089518,109.049247 L6.29528779,109.049247 L6.29528779,119.254473 L6.29528779,119.254473 C6.29528779,126.093765 10.7756615,132.837569 19.7364089,138.029701 C37.6698197,148.390094 66.7326694,148.390094 84.6541642,138.029701 C93.6149116,132.837569 98.0952854,126.093765 98.0952854,119.242537 Z" id="Path" fill="url(#linearGradient-2)"></path>
            <ellipse id="Oval" fill="url(#linearGradient-3)" cx="52.1952866" cy="109.349997" rx="45.8999988" ry="26.5499993"></ellipse>
            <path d="M94.4952855,108.910831 L94.4952855,95.0499083 L91.284885,95.0499083 C88.8240173,91.8241409 85.7085655,89.1502233 82.1411888,87.2020931 C65.6135715,77.7326328 38.8364535,77.7326328 22.3088362,87.2020931 C18.7414595,89.1502233 15.6260077,91.8241409 13.16514,95.0499083 L9.8952877,95.0499083 L9.8952877,108.910831 L9.8952877,108.910831 C9.8952877,115.125164 14.0212468,121.351334 22.2850555,126.097901 C38.8007824,135.567362 65.5897908,135.567362 82.1055177,126.097901 C90.3693263,121.303987 94.4952855,115.077817 94.4952855,108.910831 Z" id="Path" fill="#24126A"></path>
            <g id="Group" opacity="0.51" transform="translate(8.995288, 76.499998)" fill="#453C9E">
                <path d="M85.1437477,29.1479992 L85.1437477,15.1439996 L81.9374978,15.1439996 C79.4682472,11.8742267 76.3444635,9.167345 72.7699981,7.19999981 C56.2637485,-2.39999994 29.5212492,-2.39999994 13.0624997,7.19999981 C9.49973504,9.17498561 6.38831107,11.885764 3.9306249,15.1559996 L0.653124983,15.1559996 L0.653124983,29.1479992 L0.653124983,29.1479992 C0.653124983,35.4599991 4.74999987,41.7599989 13.0624997,46.5719988 C29.5568742,56.1719985 56.3112485,56.1719985 72.8056231,46.5719988 C81.0231229,41.7599989 85.1437477,35.4599991 85.1437477,29.1479992 Z" id="Path"></path>
            </g>
            <ellipse id="Oval" fill="#BCBEFF" cx="52.1952866" cy="94.4999975" rx="42.2999989" ry="24.2999994"></ellipse>
            <g id="Group" opacity="0.51" transform="translate(50.395287, 98.999997)" fill="#5351AF">
                <path d="M30.6355255,12.1340766 C21.5999994,23.5384609 9.05921029,28.3285377 0.189473679,30.3646146 C11.4394734,30.5764607 22.8197362,28.2461531 31.4052623,23.3030763 C39.6947358,18.5953841 43.7447357,12.4047689 43.7447357,6.21415368 L43.7447357,0.670846136 C38.649732,3.58511945 34.1925962,7.48262161 30.6355255,12.1340766 Z" id="Path"></path>
            </g>
            <path d="M98.0952854,94.0440292 L98.0952854,83.8501664 L94.5205191,83.8501664 C91.8536076,80.3228218 88.4706195,77.4018024 84.5945848,75.2796822 C66.7207535,64.9067702 37.6102402,64.9067702 19.6768295,75.2796822 C15.8007948,77.4018024 12.4178066,80.3228218 9.75089518,83.8501664 L6.29528779,83.8501664 L6.29528779,94.0559658 L6.29528779,94.0559658 C6.29528779,100.847895 10.7756615,107.639825 19.7364089,112.820313 C37.6698197,123.193225 66.7326694,123.193225 84.6541642,112.820313 C93.6149116,107.639825 98.0952854,100.847895 98.0952854,94.0440292 Z" id="Path" fill="url(#linearGradient-2)"></path>
            <ellipse id="Oval" fill="url(#linearGradient-3)" cx="52.1952866" cy="84.1499978" rx="45.8999988" ry="26.5499993"></ellipse>
            <path d="M94.4952855,82.7827326 L94.4952855,68.9599134 L91.284885,68.9599134 C88.8209098,65.7348982 85.7061328,63.0597708 82.1411888,61.1068465 C65.6135715,51.6310493 38.8364535,51.6310493 22.3088362,61.1068465 C18.7414595,63.0562804 15.6260077,65.7319873 13.16514,68.9599134 L9.8952877,68.9599134 L9.8952877,82.7827326 L9.8952877,82.7827326 C9.8952877,89.0130692 13.9974661,95.2315612 22.3207266,99.9931493 C38.8364535,109.468946 65.6254619,109.468946 82.1411888,99.9931493 C90.3693263,95.2315612 94.4952855,89.0130692 94.4952855,82.7827326 Z" id="Path" fill="#24126A"></path>
            <g id="Group" opacity="0.51" transform="translate(8.995288, 50.399999)" fill="#453C9E">
                <path d="M85.1437477,29.2879557 L85.1437477,15.3600648 L81.9374978,15.3600648 C79.4798117,12.1076022 76.3683877,9.41155633 72.8056231,7.44730415 C56.2993735,-2.10052168 29.5568742,-2.10052168 13.0506247,7.44730415 C9.48786004,9.41155633 6.37643607,12.1076022 3.9187499,15.3600648 L0.653124983,15.3600648 L0.653124983,29.2879557 L0.653124983,29.2879557 C0.653124983,35.5537164 4.74999987,41.8314119 13.0624997,46.6172596 C29.5568742,56.1650855 56.3112485,56.1650855 72.8056231,46.6172596 C81.0231229,41.8314119 85.1437477,35.5537164 85.1437477,29.2879557 Z" id="Path"></path>
            </g>
            <ellipse id="Oval" fill="#BCBEFF" cx="52.1952866" cy="69.2999982" rx="42.2999989" ry="24.2999994"></ellipse>
            <path d="M98.0952854,68.8798095 L98.0952854,58.6247009 L94.5205191,58.6247009 C91.8501849,55.104138 88.4679447,52.1867156 84.5945848,50.0628776 C66.7207535,39.7123726 37.6102402,39.7123726 19.6768295,50.0628776 C15.8249668,52.1935712 12.4635418,55.1105479 9.81047461,58.6247009 L6.29528779,58.6247009 L6.29528779,68.8798095 L6.29528779,68.8798095 C6.29528779,75.6648756 10.7756615,82.4499417 19.7364089,87.6371187 C37.6698197,97.9876237 66.7326694,97.9876237 84.6541642,87.6371187 C93.6149116,82.3903189 98.0952854,75.6052529 98.0952854,68.8798095 Z" id="Path" fill="url(#linearGradient-4)"></path>
            <ellipse id="Oval" fill="#BCBEFF" cx="52.1952866" cy="58.9499984" rx="45.8999988" ry="26.5499993"></ellipse>
            <ellipse id="Oval" fill="#BCBEFF" cx="52.1952866" cy="58.9499984" rx="45.8999988" ry="26.5499993"></ellipse>
            <g id="Group" opacity="0.51" transform="translate(48.595287, 72.899998)" fill="#5351AF">
                <path d="M33.2412741,12.0719997 C23.2838994,24.8279993 8.99774976,29.4839992 0.0659249983,31.1999992 C12.1936497,31.8479992 24.7268243,29.4839992 34.0163991,24.0839994 C42.3638989,19.2839995 46.4422488,12.9599997 46.4422488,6.65999982 L46.4422488,0.38399999 C41.3115801,3.35541592 36.8232443,7.32933969 33.2412741,12.0719997 Z" id="Path"></path>
            </g>
            <path d="M98.0952854,68.8798095 L98.0952854,58.6247009 L94.5205191,58.6247009 C91.8501849,55.104138 88.4679447,52.1867156 84.5945848,50.0628776 C66.7207535,39.7123726 37.6102402,39.7123726 19.6768295,50.0628776 C15.8249668,52.1935712 12.4635418,55.1105479 9.81047461,58.6247009 L6.29528779,58.6247009 L6.29528779,68.8798095 L6.29528779,68.8798095 C6.29528779,75.6648756 10.7756615,82.4499417 19.7364089,87.6371187 C37.6698197,97.9876237 66.7326694,97.9876237 84.6541642,87.6371187 C93.6149116,82.3903189 98.0952854,75.6052529 98.0952854,68.8798095 Z" id="Path" fill="url(#linearGradient-2)"></path>
            <ellipse id="Oval" fill="#BCBEFF" cx="52.1952866" cy="58.9499984" rx="45.8999988" ry="26.5499993"></ellipse>
            <ellipse id="Oval" fill="url(#linearGradient-5)" cx="52.1952866" cy="58.9499984" rx="45.8999988" ry="26.5499993"></ellipse>
            <path d="M84.7348246,77.0301027 C66.9001955,87.2670134 37.8535296,87.2670134 19.9594518,77.0301027 C9.00898958,70.7630871 4.77623762,62.1164905 7.23741643,53.9999986 C4.24119875,62.3638727 8.39072244,71.3638725 19.6978773,77.8311498 C37.5919551,88.0562804 66.5910619,88.0562804 84.47325,77.8311498 C91.4049758,73.8612546 95.6377278,68.9371709 97.1952854,63.8010454 C95.4593815,68.6544484 91.3098578,73.2722494 84.7348246,77.0301027 Z" id="Path" fill="#C79FF3"></path>
            <path d="M84.7343166,102.211814 C66.8989606,112.440596 37.8511107,112.440596 19.9563035,102.211814 C9.00539489,95.9497753 4.77247039,87.3688985 7.23374952,79.1999979 C4.23740971,87.533689 8.42277326,96.5383128 19.6947183,103.000455 C37.5895255,113.264549 66.5898144,113.264549 84.4727314,103.012225 C91.4047398,99.0454825 95.6376643,94.125309 97.1952854,88.993262 C95.4593107,93.842811 91.3096179,98.456945 84.7343166,102.211814 Z" id="Path" fill="#C79FF3"></path>
            <path d="M84.7343166,127.432255 C66.8989606,137.658341 37.8511107,137.658341 19.9563035,127.432255 C9.00539489,121.164653 4.77247039,112.505467 7.23374952,104.399997 C4.23740971,112.741091 8.42277326,121.753713 19.6947183,128.221595 C37.5895255,138.459463 66.5898144,138.459463 84.4727314,128.221595 C91.4047398,124.26311 95.6376643,119.338566 97.1952854,114.201961 C95.4593107,119.044036 91.3096179,123.662269 84.7343166,127.432255 Z" id="Path" fill="#C79FF3"></path>
            <path d="M84.7343166,152.630101 C66.8989606,162.867011 37.8511107,162.867011 19.9563035,152.630101 C9.00539489,146.363085 4.77247039,137.716488 7.23374952,129.599997 C4.23740971,137.94031 8.42277326,146.95209 19.6947183,153.431148 C37.5895255,163.656278 66.5898144,163.656278 84.4727314,153.431148 C91.4047398,149.461253 95.6376643,144.537169 97.1952854,139.401043 C95.4593107,144.254446 91.3096179,148.872247 84.7343166,152.630101 Z" id="Path" fill="#C79FF3"></path>
            <path d="M10.5190312,70.1999981 L52.1952866,70.1999981 L52.1952866,45.8999988 L12.626659,45.8999988 C4.95822803,53.3243439 4.25568544,62.4574668 10.5190312,70.1999981 Z" id="Path" fill="url(#linearGradient-6)" opacity="0.371303013"></path>
            <path d="M75.595286,56.6940878 L75.595286,51.5045083 L73.797106,51.5045083 C72.4386479,49.7151363 70.7172499,48.2326888 68.74564,47.1542457 C59.6009487,41.8819166 44.7896245,41.8819166 35.6212729,47.1542457 C33.644164,48.229543 31.9182851,49.7123768 30.5579767,51.5045083 L28.7952872,51.5045083 L28.7952872,56.6940878 L28.7952872,56.6940878 C28.7952872,60.157748 31.0785025,63.6095868 35.6567633,66.2457513 C44.7896245,71.5180804 59.6009487,71.5180804 68.7811304,66.2457513 C73.347561,63.6095868 75.595286,60.1459266 75.595286,56.6940878 Z" id="Path" fill="url(#linearGradient-7)"></path>
            <ellipse id="Oval" fill="#BCBEFF" cx="52.1952866" cy="51.2999986" rx="23.3999994" ry="13.4999996"></ellipse>
            <ellipse id="Oval" fill="url(#linearGradient-8)" cx="52.1952866" cy="51.2999986" rx="23.3999994" ry="13.4999996"></ellipse>
            <path d="M64.012489,57.55047 C57.7432539,61.2165079 47.5798592,61.2165079 41.3106241,57.55047 C39.6160564,56.6484043 38.2107124,55.2748278 37.2597337,53.5911491 C35.6442,50.389476 39.670978,48.0676521 43.9991615,45.5503061 C50.2804528,41.8842682 54.7171423,40.9677587 60.9863774,44.6337966 C65.3025047,47.1633627 69.6668569,50.389476 68.0513232,53.578929 C67.1059414,55.2658369 65.7046484,56.6437823 64.012489,57.55047 Z" id="Path" fill="#52126A"></path>
            <path d="M41.5006407,50.1631566 C47.6627177,46.6105251 57.6332185,46.6105251 63.7834681,50.1631566 C65.4450396,51.034254 66.8206626,52.3663611 67.7456481,53.9999986 C69.3305202,50.8973671 68.0176784,47.4039461 63.7834681,44.9644725 C57.6332185,41.411841 47.6627177,41.411841 41.5006407,44.9644725 C37.2782578,47.4039461 35.9535886,50.885525 37.550288,53.9999986 C38.4704855,52.3667825 39.8422425,51.034442 41.5006407,50.1631566 Z" id="Path" fill="url(#linearGradient-9)"></path>
            <g id="Group" opacity="0.51" transform="translate(72.895286, 90.899998)" fill="#6767C1">
                <path d="M5.62769985,6.78085696 C2.58569993,7.93799979 0.315899992,7.64871408 0.561599985,6.06342841 C0.807299979,4.47814274 3.50999991,2.31428565 6.48179983,1.0645714 C9.45359975,-0.185142852 11.7935997,0.208285709 11.5478997,1.78199995 C11.3021997,3.3557142 8.65799977,5.60057128 5.62769985,6.78085696 Z" id="Path"></path>
            </g>
            <g id="Group" opacity="0.51" transform="translate(72.895286, 116.099997)" fill="#6767C1">
                <path d="M5.62769985,7.31314266 C2.58569993,8.47028549 0.315899992,8.16942836 0.561599985,6.59571411 C0.807299979,5.02199987 3.45149991,2.77714278 6.48179983,1.5968571 C9.51209975,0.416571418 11.7935997,0.740571409 11.5478997,2.31428565 C11.3021997,3.8879999 8.65799977,6.13285698 5.62769985,7.31314266 Z" id="Path"></path>
            </g>
            <g id="Group" opacity="0.51" transform="translate(71.995286, 142.199996)" fill="#6767C1">
                <path d="M6.13636347,6.85028553 C2.94545447,8.00742836 0.576818167,7.70657122 0.822272705,6.13285698 C1.06772724,4.55914274 3.79227263,2.31428565 6.98318163,1.15714283 C10.1740906,0 12.5427269,0.300857135 12.2972724,1.87457138 C12.0518179,3.44828562 9.25363612,5.66999985 6.13636347,6.85028553 Z" id="Path"></path>
            </g>
            <g id="Group" opacity="0.51" transform="translate(85.495286, 88.199998)" fill="#6767C1">
                <path d="M1.73999995,2.96399992 C1.11661295,3.19249046 0.421841509,2.90804229 0.137671771,2.30798659 C-0.146497968,1.70793089 0.0736666025,0.990194388 0.64542997,0.652694857 C1.21719334,0.315195325 1.95196093,0.469256055 2.33999994,1.00799997 C2.69762384,1.71534093 2.43274162,2.57885699 1.73999995,2.96399992 Z" id="Path"></path>
            </g>
            <g id="Group" opacity="0.51" transform="translate(85.495286, 114.299997)" fill="#6767C1">
                <path d="M1.73999995,2.47499993 C1.11661295,2.68920982 0.421841509,2.42253965 0.137671771,1.85998743 C-0.146497968,1.29743522 0.0736666025,0.624557247 0.64542997,0.308151436 C1.21719334,-0.00825437447 1.95196093,0.136177559 2.33999994,0.641249983 C2.69762384,1.30438213 2.43274162,2.11392844 1.73999995,2.47499993 Z" id="Path"></path>
            </g>
            <g id="Group" opacity="0.51" transform="translate(84.595286, 139.499996)" fill="#6767C1">
                <path d="M2.63999993,3.01199992 C2.29791446,3.43138601 1.72958786,3.59124495 1.21903217,3.41168981 C0.708476472,3.23213467 0.365324352,2.7517217 0.361060528,2.21052951 C0.356796703,1.66933733 0.692336754,1.18357723 1.19999997,0.995999974 C1.54208544,0.57661388 2.11041204,0.416754945 2.62096773,0.596310084 C3.13152343,0.775865222 3.47467555,1.25627819 3.47893937,1.79747038 C3.4832032,2.33866257 3.14766314,2.82442267 2.63999993,3.01199992 L2.63999993,3.01199992 Z" id="Path"></path>
            </g>
            <path d="M36.7979122,227.699532 C36.5152806,227.701385 36.2538203,227.548409 36.1146817,227.299785 C36.001507,227.115949 35.9669494,226.893585 36.0189104,226.683538 C36.0708713,226.473492 36.2049074,226.293724 36.3903712,226.185338 L66.2727156,208.01502 C66.6566733,207.784211 67.1530782,207.911661 67.3814668,208.299689 C67.6098555,208.687716 67.4837418,209.189382 67.0997841,209.420191 L37.2174397,227.59051 C37.0908642,227.666825 36.9452143,227.704675 36.7979122,227.699532 Z" id="Path" fill="#E8F4FF"></path>
            <path d="M80.1836742,215.998911 C79.1813014,216.007049 78.1933357,215.759659 77.3127125,215.280013 L56.3666544,203.154595 C55.5322914,202.762752 54.9709989,201.953736 54.8952865,201.033845 C54.9315829,200.259306 55.3916729,199.568057 56.0915206,199.236599 L156.898164,140.933948 C158.550844,140.159554 160.474934,140.230932 162.065895,141.125654 L183.023915,153.23909 C183.858278,153.630933 184.419571,154.439949 184.495283,155.35984 C184.458987,156.134379 183.998897,156.825628 183.299049,157.157086 L82.492406,215.459737 L82.492406,215.459737 C81.7801654,215.830588 80.9862218,216.016003 80.1836742,215.998911 L80.1836742,215.998911 Z M159.147084,142.060222 C158.633598,142.044181 158.124094,142.1553 157.663753,142.383726 L56.8331857,200.590524 C56.6059012,200.710341 56.4743154,200.866102 56.4743154,200.985918 C56.4743154,201.105735 56.6896376,201.441221 57.1442065,201.716798 L78.1261517,213.878161 C79.2296811,214.492777 80.5556188,214.55918 81.7148538,214.057886 L182.533459,155.755234 C182.748781,155.635418 182.880367,155.479657 182.880367,155.35984 C182.880367,155.240024 182.677007,154.904538 182.222438,154.62896 L161.264418,142.515524 C160.613673,142.167976 159.884348,141.994637 159.147084,142.012295 L159.147084,142.060222 Z" id="Shape" fill="#E8F4FF"></path>
            <path d="M142.47197,107.232498 C139.696108,108.90086 137.206314,111.007246 135.098347,113.47064 C132.008107,103.520743 122.59421,100.431606 111.450256,106.885269 C102.227262,112.225406 94.1854797,122.738053 89.9736856,133.873316 C88.3300215,133.976911 86.7365807,134.482522 85.33236,135.346045 C79.3666459,138.830305 74.438966,147.319446 74.438966,154.287966 C74.438966,154.431647 74.438966,154.575328 74.438966,154.719009 C72.4532064,154.917184 70.5369703,155.55954 68.8311947,156.598833 C61.1354235,161.064911 54.8952865,171.90084 54.8952865,180.821024 C54.8952865,189.741208 61.1115606,193.345202 68.8073318,188.891097 L142.47197,146.217893 C151.754621,140.841836 159.295284,127.742935 159.295284,116.978847 C159.295284,106.214759 151.754621,101.85644 142.47197,107.232498 Z" id="Path" fill="url(#linearGradient-10)"></path>
            <path d="M142.512023,107.248975 C140.931032,108.183271 139.447418,109.274184 138.083439,110.505349 L129.846988,105.716564 L129.846988,105.716564 C125.322909,102.520051 118.769559,102.663715 111.476122,106.91376 C102.24891,112.253255 94.2034492,122.764636 89.9897287,133.898559 C88.345313,134.002141 86.7511434,134.507692 85.3462804,135.37111 C79.3778379,138.854951 74.4479043,147.34307 74.4479043,154.310751 C74.4479043,154.454415 74.4479043,154.598078 74.4479043,154.741742 C72.4612365,154.939893 70.544124,155.582172 68.8375683,156.62134 C61.1382774,161.086881 54.8952865,171.921505 54.8952865,180.840615 C54.8952865,185.258269 56.4351447,188.370979 58.9180168,189.84353 L58.9180168,189.84353 L58.9180168,189.84353 L58.9180168,189.84353 L79.1032895,201.599995 L83.5080001,180.325821 L142.464276,146.193762 C151.751172,140.818352 159.295284,127.721028 159.295284,116.958235 C159.295284,106.195443 151.79892,101.873565 142.512023,107.248975 Z" id="Path" fill="url(#linearGradient-11)"></path>
            <path d="M174.595283,118.107543 L154.198775,106.135583 L154.198775,106.135583 C151.162518,104.303873 146.923664,104.53134 142.291882,107.248975 C140.714863,108.183271 139.234977,109.274184 137.874425,110.505349 L129.658669,105.716564 L129.658669,105.716564 C125.145956,102.520051 118.609072,102.663715 111.33396,106.91376 C102.129932,112.253255 94.1046856,122.764636 89.9015524,133.898559 C88.2612683,134.002141 86.6711041,134.507692 85.2697709,135.37111 C79.3163244,138.854951 74.3987775,147.34307 74.3987775,154.310751 C74.3987775,154.454415 74.3987775,154.598078 74.3987775,154.741742 C72.4171013,154.939893 70.5048056,155.582172 68.8025377,156.62134 C61.1225916,161.086881 54.8952865,171.921505 54.8952865,180.840615 C54.8952865,185.258269 56.4312757,188.370979 58.9079095,189.84353 L58.9079095,189.84353 L58.9079095,189.84353 L58.9079095,189.84353 L79.0424658,201.599995 L83.4361094,180.325821 L142.244255,146.193762 C149.757504,141.835969 156.115785,132.402064 158.259026,123.255486 L174.595283,118.107543 Z" id="Path" fill="url(#linearGradient-12)"></path>
            <path d="M162.261962,118.935304 C159.487723,120.60054 157.001681,122.70733 154.901112,125.173237 C151.811225,115.211702 142.386474,112.134641 131.243793,118.588087 C122.021853,123.928045 113.992919,134.440339 109.769677,145.575228 C108.124382,145.668958 106.52878,146.175295 105.128881,147.047907 C99.1638489,150.53205 94.2367322,159.020907 94.2367322,165.977219 C94.2367322,166.132868 94.2367322,166.264571 94.2367322,166.408247 C92.2485888,166.602327 90.3308277,167.249341 88.6296017,168.299981 C80.9347099,172.753937 74.695286,183.601474 74.695286,192.521359 C74.695286,201.441244 80.9347099,205.045116 88.6296017,200.591161 L162.273892,157.919391 C171.567412,152.531541 179.095283,139.445052 179.095283,128.681326 C179.095283,117.917599 171.555482,113.559428 162.261962,118.935304 Z" id="Path" fill="url(#linearGradient-13)"></path>
            <path d="M155.072361,125.099997 C157.193493,122.660407 159.703872,120.576102 162.505267,118.928638 C168.251614,115.671203 173.347431,116.02656 176.395283,119.236614 C173.395618,115.529061 168.082958,114.9368 162.023393,118.383758 C159.308395,119.966559 156.868228,121.965996 154.795284,124.306367 C154.891659,124.566962 154.988033,124.827557 155.072361,125.099997 Z" id="Path" fill="url(#linearGradient-14)"></path>
            <path d="M75.1726218,192.568639 C75.1726218,183.70785 81.4137872,172.932178 89.1108268,168.50773 C90.8125276,167.464051 92.730824,166.821323 94.7195223,166.628529 C94.7195223,166.485805 94.7195223,166.354975 94.7195223,166.200357 C94.7195223,159.278237 99.6002807,150.857513 105.614712,147.396453 C107.015001,146.529622 108.611048,146.026639 110.256802,145.933531 C114.517024,134.872411 122.548199,124.429763 131.736913,119.125183 C140.185756,114.260669 147.632194,114.855352 152.095284,119.719866 C147.703795,114.343924 140.006755,113.535154 131.259577,118.530499 C122.035063,123.846972 113.991955,134.277727 109.779466,145.338847 C108.135531,145.441752 106.541828,145.943997 105.137376,146.801769 C99.1706785,150.262829 94.2421865,158.695446 94.2421865,165.617567 C94.2421865,165.760291 94.2421865,165.903015 94.2421865,166.045739 C92.2519041,166.240454 90.3310026,166.878623 88.6215576,167.913046 C80.924518,172.349388 74.695286,183.113166 74.695286,191.973955 C74.695286,195.458803 75.6618909,198.111093 77.296766,199.799995 C75.8016564,197.692001 75.0542145,195.147439 75.1726218,192.568639 Z" id="Path" fill="url(#linearGradient-15)"></path>
        </g>
    </g>
</svg>