<?xml version="1.0" encoding="UTF-8"?>
<svg width="220px" height="200px" viewBox="0 0 220 200" version="1.1" xmlns="http://www.w3.org/2000/svg" xmlns:xlink="http://www.w3.org/1999/xlink">
    <!-- Generator: Sketch 56.3 (81716) - https://sketch.com -->
    <title>blockchain</title>
    <desc>Created with Sketch.</desc>
    <defs>
        <linearGradient x1="0%" y1="49.983824%" x2="100%" y2="49.983824%" id="linearGradient-1">
            <stop stop-color="#FCB0AA" offset="0%"></stop>
            <stop stop-color="#F8A0A2" offset="46%"></stop>
            <stop stop-color="#F4919A" offset="100%"></stop>
        </linearGradient>
        <linearGradient x1="103.336659%" y1="42.1949044%" x2="5.42068507%" y2="63.9976384%" id="linearGradient-2">
            <stop stop-color="#4E0F82" offset="0%"></stop>
            <stop stop-color="#FFFFFF" stop-opacity="0" offset="100%"></stop>
        </linearGradient>
        <linearGradient x1="50.1894537%" y1="111.545079%" x2="50.1894537%" y2="50.9154715%" id="linearGradient-3">
            <stop stop-color="#3E0085" offset="0%"></stop>
            <stop stop-color="#B300AB" offset="100%"></stop>
        </linearGradient>
        <linearGradient x1="100.691534%" y1="46.4241887%" x2="-18.2640736%" y2="54.8117741%" id="linearGradient-4">
            <stop stop-color="#4C51CF" offset="0%"></stop>
            <stop stop-color="#000001" offset="100%"></stop>
        </linearGradient>
        <radialGradient cx="54.3462867%" cy="-42.4471847%" fx="54.3462867%" fy="-42.4471847%" r="156.161534%" gradientTransform="translate(0.543463,-0.424472),scale(0.573156,1.000000),rotate(89.910880),translate(-0.543463,0.424472)" id="radialGradient-5">
            <stop stop-color="#FFFFA2" offset="0%"></stop>
            <stop stop-color="#FFFE9F" offset="13%"></stop>
            <stop stop-color="#FFFB94" offset="25%"></stop>
            <stop stop-color="#FFF682" offset="36%"></stop>
            <stop stop-color="#FFEF69" offset="47%"></stop>
            <stop stop-color="#FFE648" offset="57%"></stop>
            <stop stop-color="#FFDC20" offset="68%"></stop>
            <stop stop-color="#FFD301" offset="74%"></stop>
            <stop stop-color="#FFCE06" offset="77%"></stop>
            <stop stop-color="#FFC115" offset="81%"></stop>
            <stop stop-color="#FFAB2E" offset="85%"></stop>
            <stop stop-color="#FF8B50" offset="89%"></stop>
            <stop stop-color="#FF637C" offset="93%"></stop>
            <stop stop-color="#FF33B1" offset="98%"></stop>
            <stop stop-color="#FF17D0" offset="100%"></stop>
        </radialGradient>
        <linearGradient x1="153.046595%" y1="59.6039394%" x2="-170.967742%" y2="24.3848215%" id="linearGradient-6">
            <stop stop-color="#FFFFFF" offset="0%"></stop>
            <stop stop-color="#FFFFFF" stop-opacity="0" offset="100%"></stop>
        </linearGradient>
        <linearGradient x1="539.29558%" y1="95.432951%" x2="-22.6519337%" y2="44.0357103%" id="linearGradient-7">
            <stop stop-color="#FFFFFF" offset="0%"></stop>
            <stop stop-color="#FFFFFF" stop-opacity="0" offset="100%"></stop>
        </linearGradient>
        <linearGradient x1="754.357798%" y1="175.803804%" x2="-1111.92661%" y2="-157.198468%" id="linearGradient-8">
            <stop stop-color="#FFFFFF" offset="0%"></stop>
            <stop stop-color="#FFFFFF" stop-opacity="0" offset="100%"></stop>
        </linearGradient>
        <linearGradient x1="172.544221%" y1="59.6107805%" x2="-20.7100566%" y2="40.7841223%" id="linearGradient-9">
            <stop stop-color="#FFFFFF" offset="0%"></stop>
            <stop stop-color="#FFFFFF" stop-opacity="0" offset="100%"></stop>
        </linearGradient>
        <linearGradient x1="279.428304%" y1="76.1886588%" x2="-101.874414%" y2="30.1845253%" id="linearGradient-10">
            <stop stop-color="#FFFFFF" offset="0%"></stop>
            <stop stop-color="#FFFFFF" stop-opacity="0" offset="100%"></stop>
        </linearGradient>
        <linearGradient x1="670.114943%" y1="160.664067%" x2="2.05254516%" y2="41.4581766%" id="linearGradient-11">
            <stop stop-color="#FFFFFF" offset="0%"></stop>
            <stop stop-color="#FFFFFF" stop-opacity="0" offset="100%"></stop>
        </linearGradient>
        <linearGradient x1="113.105413%" y1="61.5509411%" x2="-1045.86895%" y2="-147.950605%" id="linearGradient-12">
            <stop stop-color="#FFFFFF" offset="0%"></stop>
            <stop stop-color="#FFFFFF" stop-opacity="0" offset="100%"></stop>
        </linearGradient>
        <linearGradient x1="112.278858%" y1="54.6333271%" x2="-166.737876%" y2="15.9829006%" id="linearGradient-13">
            <stop stop-color="#FFFFFF" offset="0%"></stop>
            <stop stop-color="#FFFFFF" stop-opacity="0" offset="100%"></stop>
        </linearGradient>
        <linearGradient x1="214.503817%" y1="79.6168055%" x2="-1027.63359%" y2="-143.463901%" id="linearGradient-14">
            <stop stop-color="#FFFFFF" offset="0%"></stop>
            <stop stop-color="#FFFFFF" stop-opacity="0" offset="100%"></stop>
        </linearGradient>
        <linearGradient x1="89.8787525%" y1="46.2249479%" x2="28.4616436%" y2="63.1455482%" id="linearGradient-15">
            <stop stop-color="#F0B426" offset="0%"></stop>
            <stop stop-color="#FEB358" offset="100%"></stop>
        </linearGradient>
        <linearGradient x1="55.9363196%" y1="37.2099408%" x2="46.7938173%" y2="94.5377536%" id="linearGradient-16">
            <stop stop-color="#F0B426" offset="0%"></stop>
            <stop stop-color="#FEB358" offset="100%"></stop>
        </linearGradient>
        <linearGradient x1="89.8787525%" y1="47.0836586%" x2="28.4616436%" y2="60.1553317%" id="linearGradient-17">
            <stop stop-color="#F0B426" offset="0%"></stop>
            <stop stop-color="#FEB358" offset="100%"></stop>
        </linearGradient>
        <linearGradient x1="50%" y1="33.2256199%" x2="48.2827312%" y2="66.7743801%" id="linearGradient-18">
            <stop stop-color="#FFF1A5" offset="0%"></stop>
            <stop stop-color="#F0CA43" offset="100%"></stop>
        </linearGradient>
        <linearGradient x1="50%" y1="13.10903%" x2="48.2827312%" y2="86.89097%" id="linearGradient-19">
            <stop stop-color="#F4DD5F" offset="0%"></stop>
            <stop stop-color="#F0CA43" offset="100%"></stop>
        </linearGradient>
        <linearGradient x1="50%" y1="0%" x2="49.788007%" y2="100%" id="linearGradient-20">
            <stop stop-color="#F4DD5F" offset="0%"></stop>
            <stop stop-color="#F0CA43" offset="100%"></stop>
        </linearGradient>
        <linearGradient x1="50%" y1="0%" x2="49.7883082%" y2="100%" id="linearGradient-21">
            <stop stop-color="#F4DD5F" offset="0%"></stop>
            <stop stop-color="#F0CA43" offset="100%"></stop>
        </linearGradient>
        <linearGradient x1="50%" y1="0%" x2="48.7546033%" y2="100%" id="linearGradient-22">
            <stop stop-color="#F4DD5F" offset="0%"></stop>
            <stop stop-color="#F0CA43" offset="100%"></stop>
        </linearGradient>
        <linearGradient x1="68.4317098%" y1="37.2099408%" x2="40.0451065%" y2="94.5377536%" id="linearGradient-23">
            <stop stop-color="#FED061" offset="0%"></stop>
            <stop stop-color="#FEB358" offset="100%"></stop>
        </linearGradient>
        <radialGradient cx="49.7733612%" cy="17.7533705%" fx="49.7733612%" fy="17.7533705%" r="1396.06065%" gradientTransform="translate(0.497734,0.177534),scale(1.000000,0.346016),rotate(85.930975),translate(-0.497734,-0.177534)" id="radialGradient-24">
            <stop stop-color="#FFFFA2" offset="0%"></stop>
            <stop stop-color="#FFFE9F" offset="13%"></stop>
            <stop stop-color="#FFFB94" offset="25%"></stop>
            <stop stop-color="#FFF682" offset="36%"></stop>
            <stop stop-color="#FFEF69" offset="47%"></stop>
            <stop stop-color="#FFE648" offset="57%"></stop>
            <stop stop-color="#FFDC20" offset="68%"></stop>
            <stop stop-color="#FFD301" offset="74%"></stop>
            <stop stop-color="#FFCE06" offset="77%"></stop>
            <stop stop-color="#FFC115" offset="81%"></stop>
            <stop stop-color="#FFAB2E" offset="85%"></stop>
            <stop stop-color="#FF8B50" offset="89%"></stop>
            <stop stop-color="#FF637C" offset="93%"></stop>
            <stop stop-color="#FF33B1" offset="98%"></stop>
            <stop stop-color="#FF17D0" offset="100%"></stop>
        </radialGradient>
        <linearGradient x1="56.972197%" y1="37.2099408%" x2="46.234344%" y2="94.5377536%" id="linearGradient-25">
            <stop stop-color="#F0B426" offset="0%"></stop>
            <stop stop-color="#FEB358" offset="100%"></stop>
        </linearGradient>
        <linearGradient x1="57.1415594%" y1="37.2099408%" x2="46.1428721%" y2="94.5377536%" id="linearGradient-26">
            <stop stop-color="#F0B426" offset="0%"></stop>
            <stop stop-color="#FEB358" offset="100%"></stop>
        </linearGradient>
        <radialGradient cx="49.7733612%" cy="17.7533705%" fx="49.7733612%" fy="17.7533705%" r="106.977562%" gradientTransform="translate(0.497734,0.177534),scale(0.788486,1.000000),translate(-0.497734,-0.177534)" id="radialGradient-27">
            <stop stop-color="#FFFFA2" offset="0%"></stop>
            <stop stop-color="#FFFE9F" offset="13%"></stop>
            <stop stop-color="#FFFB94" offset="25%"></stop>
            <stop stop-color="#FFF682" offset="36%"></stop>
            <stop stop-color="#FFEF69" offset="47%"></stop>
            <stop stop-color="#FFE648" offset="57%"></stop>
            <stop stop-color="#FFDC20" offset="68%"></stop>
            <stop stop-color="#FFD301" offset="74%"></stop>
            <stop stop-color="#FFCE06" offset="77%"></stop>
            <stop stop-color="#FFC115" offset="81%"></stop>
            <stop stop-color="#FFAB2E" offset="85%"></stop>
            <stop stop-color="#FF8B50" offset="89%"></stop>
            <stop stop-color="#FF637C" offset="93%"></stop>
            <stop stop-color="#FF33B1" offset="98%"></stop>
            <stop stop-color="#FF17D0" offset="100%"></stop>
        </radialGradient>
        <linearGradient x1="50%" y1="0%" x2="49.7916844%" y2="100%" id="linearGradient-28">
            <stop stop-color="#F4DD5F" offset="0%"></stop>
            <stop stop-color="#F0CA43" offset="100%"></stop>
        </linearGradient>
        <linearGradient x1="60.3766683%" y1="37.2099408%" x2="44.3956025%" y2="94.5377536%" id="linearGradient-29">
            <stop stop-color="#F0B426" offset="0%"></stop>
            <stop stop-color="#FEB358" offset="100%"></stop>
        </linearGradient>
        <radialGradient cx="49.7733612%" cy="17.7533705%" fx="49.7733612%" fy="17.7533705%" r="123.172617%" gradientTransform="translate(0.497734,0.177534),scale(0.684814,1.000000),translate(-0.497734,-0.177534)" id="radialGradient-30">
            <stop stop-color="#FFFFA2" offset="0%"></stop>
            <stop stop-color="#FFFE9F" offset="13%"></stop>
            <stop stop-color="#FFFB94" offset="25%"></stop>
            <stop stop-color="#FFF682" offset="36%"></stop>
            <stop stop-color="#FFEF69" offset="47%"></stop>
            <stop stop-color="#FFE648" offset="57%"></stop>
            <stop stop-color="#FFDC20" offset="68%"></stop>
            <stop stop-color="#FFD301" offset="74%"></stop>
            <stop stop-color="#FFCE06" offset="77%"></stop>
            <stop stop-color="#FFC115" offset="81%"></stop>
            <stop stop-color="#FFAB2E" offset="85%"></stop>
            <stop stop-color="#FF8B50" offset="89%"></stop>
            <stop stop-color="#FF637C" offset="93%"></stop>
            <stop stop-color="#FF33B1" offset="98%"></stop>
            <stop stop-color="#FF17D0" offset="100%"></stop>
        </radialGradient>
        <linearGradient x1="-54.1293249%" y1="74.4817864%" x2="17.8238342%" y2="55.9013801%" id="linearGradient-31">
            <stop stop-color="#FCB0AA" offset="0%"></stop>
            <stop stop-color="#F8A0A2" offset="46%"></stop>
            <stop stop-color="#E57B85" offset="100%"></stop>
        </linearGradient>
    </defs>
    <g id="blockchain" stroke="none" stroke-width="1" fill="none" fill-rule="evenodd">
        <g id="Asset-1" transform="translate(-18.000000, 41.000000)" fill-rule="nonzero">
            <path d="M121.7018,157.759799 L244.738399,86.6487994 C247.338362,85.1329153 248.937246,82.3499022 248.937246,79.3402994 C248.937246,76.3306965 247.338362,73.5476835 244.738399,72.0317994 L137.3998,9.39959957 C134.782267,7.88836612 131.557333,7.88836612 128.9398,9.39959957 L4.89739999,80.5199994 C2.27915904,82.0310431 0.666143867,84.8243143 0.666143867,87.8472994 C0.666143867,90.8702844 2.27915904,93.6635557 4.89739999,95.1745993 L113.2606,157.740999 C115.87,159.250831 119.0857,159.257992 121.7018,157.759799 L121.7018,157.759799 Z" id="Path"></path>
            <polygon id="Path" fill="#FFCAC5" points="211.894799 36.2459995 149.8172 0.413199588 65.0197998 13.5261996 65.0197998 13.5261996 42.2999999 62.4813994 42.2999999 62.4813994 104.3776 98.3235993 189.175 85.2105994 189.175 85.2105994"></polygon>
            <polygon id="Path" fill="#FCB0AA" points="211.894799 36.2459995 189.175 85.2105994 189.175 109.772799 211.894799 60.8175994"></polygon>
            <polygon id="Path" fill="url(#linearGradient-1)" points="42.2999999 62.4813994 42.2999999 87.0529994 104.3776 122.885799 104.3776 98.3235993"></polygon>
            <polygon id="Path" fill="#FCB0AA" points="104.3776 98.3235993 189.175 85.2105994 189.175 109.772799 104.3776 122.885799"></polygon>
            <polygon id="Path" fill="url(#linearGradient-2)" style="mix-blend-mode: overlay;" points="211.358999 37.4021995 211.358999 59.7459994 188.6392 108.710599 103.8418 121.823599 42.2999999 86.2915994 42.2999999 87.0529994 104.3776 122.885799 189.175 109.772799 211.894799 60.8175994 211.894799 36.2459995"></polygon>
            <polygon id="Path" fill="url(#linearGradient-3)" points="59.3327998 60.0091994 72.2859998 32.0911995 147.7398 20.4257995 194.862 47.6293995 181.9182 75.5661994 106.4644 87.2597994"></polygon>
            <path d="M154.0942,24.1199995 L75.6041998,69.4373994 L76.7885998,70.1235994 L155.2786,24.8061995 L154.0942,24.1199995 Z M151.5092,22.6253995 L73.0191998,67.9427994 L74.2035998,68.6289994 L152.6936,23.3115995 L151.5092,22.6253995 Z M148.9148,21.1307995 L70.4247998,66.4199994 L71.6091998,67.1061994 L150.0992,21.7887995 L148.9148,21.1307995 Z M143.8952,21.0461995 L67.8397998,64.9535994 L69.0241998,65.6397994 L147.1288,20.5197995 L143.8952,21.0461995 Z M136.817,22.1365995 L65.2453998,63.4965994 L66.4297998,64.1827994 L140.06,21.6383995 L136.817,22.1365995 Z M164.453,30.0983995 L85.9629998,75.4157994 L87.1473998,76.1019994 L165.6374,30.7845995 L164.453,30.0983995 Z M161.8586,28.6037995 L83.3685998,73.9399994 L84.5529998,74.6261994 L163.043,29.3087995 L161.8586,28.6037995 Z M159.2736,27.1091995 L80.7835998,72.4265994 L81.9679998,73.1127994 L160.458,27.7953995 L159.2736,27.1091995 Z M156.6886,25.6145995 L78.1891998,70.9319994 L79.3735998,71.6181994 L157.92,26.3007995 L156.6886,25.6145995 Z M87.3071998,29.7599995 L68.2533998,40.7579995 L67.3885998,42.6379995 L90.5407998,29.2711995 L87.3071998,29.7599995 Z M101.4542,27.5697995 L64.4651998,48.9265995 L63.6003998,50.8065995 L104.6878,27.0809995 L101.4542,27.5697995 Z M80.2383998,30.8503995 L70.1521998,36.6783995 L69.2873998,38.5583995 L83.4719998,30.3709995 L80.2383998,30.8503995 Z M73.1601998,31.9501995 L72.0415998,32.5893995 L71.1767998,34.4693995 L76.4031998,31.4519995 L73.1601998,31.9501995 Z M115.6012,25.3701995 L60.6769998,57.1327994 L59.8121998,59.0127994 L118.8348,24.9283995 L115.6012,25.3701995 Z M122.67,24.2797995 L60.0753998,60.4697994 L61.2597998,61.1559994 L125.96,23.8285995 L122.67,24.2797995 Z M129.7482,23.1799995 L62.6603998,61.9173994 L63.8447998,62.6035994 L132.9818,22.6817995 L129.7482,23.1799995 Z M108.5324,26.4699995 L62.5663998,52.9967995 L61.7015998,54.8767994 L111.766,25.9999995 L108.5324,26.4699995 Z M94.3853998,28.6507995 L66.3639998,44.8845995 L65.4897998,46.7645995 L97.6189998,28.2183995 L94.3853998,28.6507995 Z M166.8782,77.8503994 L185.932,66.8523994 L186.7968,64.9723994 L163.6446,78.3391994 L166.8782,77.8503994 Z M173.947,76.7599994 L184.0332,70.9319994 L184.898,69.0519994 L170.7134,77.2487994 L173.947,76.7599994 Z M181.0252,75.6601994 L182.1344,75.0209994 L183.0086,73.1409994 L177.7822,76.1489994 L181.0252,75.6601994 Z M192.9256,46.5201995 L128.2724,83.8475994 L131.5154,83.3493994 L194.11,47.2063995 L192.9256,46.5201995 Z M135.36,82.7759994 L138.5936,82.2777994 L193.5178,50.5621995 L194.3826,48.6821995 L135.36,82.7759994 Z M145.7,81.1779994 L191.6566,54.6417995 L192.5308,52.7617995 L142.4664,81.6573994 L145.7,81.1779994 Z M167.038,31.6399995 L88.5479998,76.9573994 L89.7323998,77.6435994 L168.26,32.2791995 L167.038,31.6399995 Z M152.7312,80.1345994 L189.7202,58.7777994 L190.585,56.8977994 L149.46,80.5857994 L152.7312,80.1345994 Z M159.8,79.0347994 L187.8214,62.8573994 L188.6862,60.9773994 L156.5664,79.5235994 L159.8,79.0347994 Z M190.3406,45.0913995 L121.2036,85.0131994 L124.4372,84.5055994 L191.525,45.7399995 L190.3406,45.0913995 Z M172.2174,34.6291995 L93.7273998,79.9465994 L94.9117998,80.6327994 L173.4018,35.3153995 L172.2174,34.6291995 Z M177.3968,37.6183995 L98.9067997,82.9357994 L100.0912,83.6219994 L178.6,38.2199995 L177.3968,37.6183995 Z M174.84,36.0767995 L96.3499998,81.3941994 L97.5343998,82.0803994 L176.0244,36.7629995 L174.84,36.0767995 Z M169.67,33.0875995 L91.1799998,78.4049994 L92.3643998,79.0911994 L170.8544,33.7737995 L169.67,33.0875995 Z M185.18,42.0551995 L107.0754,87.1751994 L110.309,86.6769994 L186.3644,42.7695995 L185.18,42.0551995 Z M187.765,43.5497995 L114.1442,86.0565994 L117.3872,85.5583994 L188.9494,44.1983995 L187.765,43.5497995 Z M180.0006,39.0659995 L101.52,84.3833994 L102.7044,85.0695994 L181.1944,39.7521995 L180.0006,39.0659995 Z M182.595,40.5605995 L104.105,85.8779994 L105.2894,86.5641994 L183.7794,41.2467995 L182.595,40.5605995 Z" id="Shape" fill="url(#linearGradient-4)" style="mix-blend-mode: overlay;"></path>
            <path d="M139.308,40.5229995 C142.9928,35.3905995 142.3254,31.3736662 137.3058,28.4721995 C133.6586,26.3665995 129.271933,25.7618662 124.1458,26.6579995 C120.213515,27.4341765 116.399363,28.7203073 112.8,30.4837995 L106.7182,26.9399995 L102.0746,29.6189995 L107.8556,32.9653995 L106.1824,33.9053995 L104.3024,35.0145995 L104.3024,35.0145995 L98.5401998,31.6869995 L93.8965998,34.3753995 L99.6587997,37.6935995 L87.8617998,44.5085995 L92.4677998,47.1687995 L93.0599998,46.8303995 L93.0599998,46.8303995 L96.9327998,44.6025995 C99.9595997,46.1880661 105.9568,49.5689328 114.9244,54.7451995 C124.8508,60.4791994 131.208333,64.2391994 133.997,66.0251994 L131.5154,67.4539994 L131.5154,67.4539994 L129.5414,68.5819994 L134.1944,71.2703994 L145.982,64.5399994 L151.7912,67.8957994 L156.4348,65.2167994 L150.6256,61.8609994 L150.6256,61.8609994 L151.1144,61.5695994 C152.179733,60.9429328 153.185533,60.3413328 154.1318,59.7647994 L160.035,63.1769994 L164.6786,60.4885994 L158.4276,56.8883994 C162.7704,53.7487995 165.346,50.9757995 166.0604,48.5881995 C167.1132,45.0788661 165.706333,42.2087328 161.8398,39.9777995 C156.137133,36.6564662 148.626533,36.8381995 139.308,40.5229995 Z M113.646,37.1483995 C115.883731,35.7742372 118.423273,34.967521 121.0438,34.7983995 C123.54065,34.7328352 126.00385,35.3853387 128.1408,36.6783995 C130.315333,37.9317328 131.311733,39.1850662 131.13,40.4383995 C130.9514,41.6979995 129.4944,43.1173995 126.7872,44.6871995 C125.7156,45.3075995 124.7192,45.8151995 123.7698,46.2569995 L110.967,38.8685995 C111.86,38.2857995 112.7154,37.6935995 113.646,37.1483995 L113.646,37.1483995 Z M153.3892,50.8253995 C153.1448,52.1915328 151.596933,53.6955328 148.7456,55.3373994 C147.063739,56.4391465 145.17242,57.1815929 143.1902,57.5181994 L129.6448,49.6973995 C130.5848,49.0017995 131.6094,48.3343995 132.6528,47.7327995 C135.458522,45.9854181 138.64437,44.9406661 141.94,44.6871995 C144.821717,44.5400318 147.682809,45.2463128 150.165,46.7175995 C152.562,48.0993995 153.643,49.4999995 153.3892,50.8253995 L153.3892,50.8253995 Z" id="Shape" fill="url(#radialGradient-5)"></path>
            <g id="Group" style="mix-blend-mode: overlay;" transform="translate(87.420000, 26.000000)">
                <path d="M65.4991998,25.9251999 C64.3775507,27.3573415 62.952091,28.5227512 61.3255998,29.3373999 C59.6437389,30.439147 57.7524206,31.1815934 55.7701999,31.5181999 L42.6101999,23.9041999 L41.8957999,24.3929999 L55.4599999,32.2137999 C57.4396864,31.8785789 59.3282091,31.1359733 61.0059998,30.0329999 C63.5439998,28.5477999 65.0479998,27.1753999 65.4991998,25.9251999 Z" id="Path" fill="url(#linearGradient-6)"></path>
                <path d="M10.7348,6.42019998 L16.497,9.74779998 L16.497,9.74779998 L18.377,8.63859998 C18.941,8.30959998 19.4956,8.00879998 20.0501999,7.69859998 L19.6084,7.44479998 L18.7248,7.93359998 L16.8448,9.04279998 L16.8448,9.04279998 L11.0826,5.71519999 L6.43899998,8.40359998 L6.87139998,8.64799998 L10.7348,6.42019998 Z" id="Path" fill="url(#linearGradient-7)"></path>
                <polygon id="Path" fill="url(#linearGradient-8)" points="43.7663999 42.1589999 46.2385999 40.7301999 45.8249999 40.4763999 44.1141999 41.4633999 44.1141999 41.4633999 42.1401999 42.5913999 42.5725999 42.8451999 43.7663999 42.1589999"></polygon>
                <path d="M18.9504,1.6732 L25.0227999,5.17939999 C28.6297692,3.41841731 32.4497988,2.1324355 36.3873999,1.3536 C41.5072666,0.463733332 45.8939332,1.06846666 49.5473999,3.16779999 C53.7335332,5.58046665 54.8897332,8.77333331 53.0159999,12.7464 C55.3597332,8.45373331 54.3194665,5.02899999 49.8951999,2.47219999 C46.2479999,0.366599999 41.8613332,-0.238133333 36.7351999,0.657999998 C32.7996941,1.43338912 28.9823336,2.71953622 25.3799999,4.48379999 L19.2982,0.939999998 L14.6546,3.61899999 L15.0776,3.87279999 L18.9504,1.6732 Z" id="Path" fill="url(#linearGradient-9)"></path>
                <path d="M35.9925999,20.9995999 C37.0242744,20.5276456 38.0313662,20.0037069 39.0099999,19.4298 C41.4539999,18.0292 42.8639999,16.7414 43.2587999,15.5758 C42.2027978,16.8951877 40.8756502,17.9722931 39.3671999,18.7342 C38.2955999,19.3546 37.2991999,19.8621999 36.3497999,20.3039999 L23.9041999,13.16 L23.1991999,13.6488 L35.9925999,20.9995999 Z" id="Path" fill="url(#linearGradient-10)"></path>
                <polygon id="Path" fill="url(#linearGradient-11)" points="11.8534 12.4268 11.421 12.173 0.404199999 18.5368 0.827199998 18.7906"></polygon>
                <polygon id="Path" fill="url(#linearGradient-12)" points="70.6315998 31.5181999 76.4501998 34.8739999 77.2303998 34.4227999 71.3083998 31.0105999"></polygon>
                <path d="M74.3915998,13.912 C68.7515998,10.6533333 61.3036665,10.8350666 52.0477999,14.4572 C51.8848665,14.7141333 51.7156665,14.9679333 51.5401999,15.2186 C60.8524665,11.5338 68.3505332,11.3332666 74.0343998,14.617 C77.9071998,16.8416666 79.3171998,19.7118 78.2643998,23.2273999 C78.1914403,23.4554131 78.103516,23.678364 78.0011998,23.8947999 C78.2540109,23.4608331 78.4588818,23.0006616 78.6121998,22.5223999 C79.6649998,19.0130666 78.2581331,16.1429333 74.3915998,13.912 Z" id="Path" fill="url(#linearGradient-13)"></path>
                <polygon id="Path" fill="url(#linearGradient-14)" points="63.3089998 36.2087999 62.8201998 36.4907999 62.8201998 36.4907999 68.1969998 39.6021999 68.9771998 39.1509999 63.5627998 36.0207999"></polygon>
            </g>
            <path d="M131.13,40.4853995 C131.305466,39.2320662 130.309066,37.9787328 128.1408,36.7253995 C126.00385,35.4323387 123.54065,34.7798352 121.0438,34.8453995 C118.423273,35.014521 115.883731,35.8212372 113.646,37.1953995 C112.706,37.7405995 111.8318,38.3327995 110.967,38.9625995 L122.2,45.3827995 C123.080968,45.4264816 123.954308,45.56836 124.8038,45.8057995 C125.4524,45.4861995 126.1104,45.1383995 126.8154,44.7341995 C129.4944,43.1643995 130.9514,41.7449995 131.13,40.4853995 Z" id="Path" fill="url(#linearGradient-15)"></path>
            <path d="M141.6486,34.4599995 L141.6486,34.4599995 C141.698733,36.2710662 140.918533,38.2951995 139.308,40.5323995 C140.0976,40.2127995 140.8778,39.9401995 141.6486,39.6769995 L141.6486,34.4599995 Z" id="Path" fill="url(#linearGradient-16)"></path>
            <path d="M153.3892,50.8253995 C153.643,49.4717995 152.562,48.0993995 150.165,46.7175995 C147.682809,45.2463128 144.821717,44.5400318 141.94,44.6871995 C138.64437,44.9406661 135.458522,45.9854181 132.6528,47.7327995 C131.6094,48.3343995 130.613,49.0017995 129.6448,49.6973995 L139.6934,55.4971994 C140.435479,55.3571715 141.185966,55.2661083 141.94,55.2245994 C143.816594,55.1339342 145.693106,55.4051986 147.4672,56.0235994 C147.8808,55.8073994 148.2944,55.5911994 148.7456,55.3373994 C151.596933,53.6892661 153.1448,52.1852661 153.3892,50.8253995 Z" id="Path" fill="url(#linearGradient-17)"></path>
            <polygon id="Path" fill="url(#linearGradient-18)" points="102.084 33.7831995 98.5025998 31.7151995 104.2648 35.0427995 104.2648 35.0427995 106.1448 33.9335995 107.818 32.9935995 102.037 29.6471995"></polygon>
            <polygon id="Path" fill="url(#linearGradient-19)" points="93.8871998 41.0399995 87.8241998 44.5367995 99.6211997 37.7217995 93.8589998 34.4035995"></polygon>
            <polygon id="Path" fill="url(#linearGradient-20)" points="156.4348 65.1697994 151.7912 67.8487994 151.7912 78.3861994 156.4348 75.7071994"></polygon>
            <polygon id="Path" fill="url(#linearGradient-21)" points="160.0068 63.1111994 160.0068 73.6485994 164.6504 70.9695994 164.6504 60.4227994"></polygon>
            <polygon id="Path" fill="url(#linearGradient-22)" points="154.1036 59.6989994 154.1036 63.8161994 150.5974 61.7951994"></polygon>
            <polygon id="Path" fill="url(#linearGradient-23)" points="145.982 64.4929994 145.982 75.0303994 134.185 81.8453994 134.185 71.3079994"></polygon>
            <polygon id="Path" fill="url(#radialGradient-24)" points="92.4207998 47.1969995 92.4207998 57.7343994 96.9515998 55.1775994 96.9515998 44.6401995"></polygon>
            <polygon id="Path" fill="url(#linearGradient-25)" points="145.982 64.4929994 151.7912 67.8487994 151.7912 78.3861994 145.982 75.0303994"></polygon>
            <polygon id="Path" fill="url(#linearGradient-26)" points="154.1036 59.6989994 154.1036 63.8161994 156.4348 65.1697994 156.4348 71.5805994 160.0068 73.6485994 160.0068 63.1111994"></polygon>
            <polygon id="Path" fill="url(#linearGradient-21)" points="129.5414 68.6195994 129.5414 79.1663994 134.185 81.8453994 134.185 71.3079994"></polygon>
            <polygon id="Path" fill="url(#radialGradient-27)" points="96.9515998 44.6401995 96.9515998 55.1775994 129.5602 73.8647994 129.5602 68.6195994 134.0158 66.0345994 116.9548 55.9483994"></polygon>
            <polygon id="Path" fill="url(#linearGradient-28)" points="87.8241998 44.5367995 92.4207998 47.1969995 92.4207998 57.7343994 87.8241998 55.0835994"></polygon>
            <path d="M166.0322,48.5599995 C165.3178,50.9475995 162.7422,53.7205995 158.3994,56.8601994 L164.6504,60.4603994 L164.6504,61.6635994 C165.255039,60.8974219 165.722536,60.0323937 166.0322,59.1067994 C166.288194,58.2927343 166.399545,57.4401046 166.3612,56.5875994 L166.3612,46.0407995 C166.39974,46.8933129 166.288385,47.7459763 166.0322,48.5599995 L166.0322,48.5599995 Z" id="Path" fill="url(#linearGradient-29)"></path>
            <path d="M118.5528,35.1743995 C119.369911,34.9732726 120.203728,34.8474134 121.0438,34.7983995 C121.946485,34.7719563 122.849081,34.8540104 123.7322,35.0427995 L123.7322,26.7519995 C121.975013,27.0926961 120.244204,27.5575959 118.5528,28.1431995 L118.5528,35.1743995 Z M102.0746,29.6565995 L107.8556,33.0029995 L106.1824,33.9429995 L104.3024,35.0521995 L104.3024,35.0521995 L98.5401998,31.7245995 L94.7237998,33.9335995 L94.7237998,34.8735995 L99.6587997,37.6935995 L94.7237998,40.5135995 L94.7237998,45.8903995 L96.9891998,44.5837995 C99.4049997,45.8527995 103.7196,48.2685995 109.886,51.8029995 L109.886,28.8199995 L106.7182,26.9399995 L102.0746,29.6565995 Z M118.5528,56.9165994 L123.7322,59.9245994 L123.7322,46.2851995 L118.5528,43.2959995 L118.5528,56.9165994 Z M160.3358,39.1599995 C159.499721,38.7724454 158.631686,38.4579398 157.7414,38.2199995 L157.7414,61.7199995 L160.0068,63.0265994 L160.3358,62.8291994 L160.3358,57.9599994 L158.3994,56.8507994 C159.095,56.3431994 159.7248,55.8543994 160.3358,55.3749994 L160.3358,39.1599995 Z M143.1902,57.5087994 L130.2464,50.0357995 L130.2464,63.7221994 C131.8632,64.6935328 133.116533,65.4611994 134.0064,66.0251994 L131.5248,67.4539994 L131.5248,67.4539994 L130.2652,68.1777994 L130.2652,68.9955994 L134.2038,71.2703994 L145.982,64.5399994 L151.7912,67.8957994 L152.2894,67.6043994 L152.2894,62.8197994 L150.6256,61.8797994 L150.6256,61.8797994 L151.1144,61.5883994 L152.28,60.7799994 L152.28,52.6865995 C151.229425,53.7274313 150.036221,54.6136301 148.7362,55.3185994 C147.058673,56.4257834 145.17058,57.1746203 143.1902,57.5181994 L143.1902,57.5087994 Z M137.3058,28.4627995 C135.141508,27.234804 132.728958,26.5087902 130.2464,26.3383995 L130.2464,38.2857995 C130.867854,38.8370788 131.19493,39.6478099 131.13,40.4759995 C130.998826,41.0948062 130.692044,41.6626795 130.2464,42.1115995 L130.2464,49.2743995 C131.0266,48.7291995 131.8256,48.2027995 132.6528,47.7233995 C135.458522,45.9760181 138.64437,44.9312661 141.94,44.6777995 C144.821717,44.5306318 147.682809,45.2369128 150.165,46.7081995 C150.93522,47.1268142 151.64908,47.6416774 152.2894,48.2403995 L152.2894,37.6089995 C147.821519,37.7862968 143.422995,38.7736555 139.308,40.5229995 C142.9928,35.3905995 142.3254,31.3736662 137.3058,28.4721995 L137.3058,28.4627995 Z" id="Shape" fill="url(#radialGradient-30)"></path>
            <polygon id="Path" fill="url(#linearGradient-31)" points="72.2859998 32.0911995 147.7398 20.4257995 194.862 47.6293995 198.123799 40.6075995 147.7398 11.5145996 72.2859998 23.1893995 56.0709999 58.1291994 59.3327998 60.0091994"></polygon>
        </g>
    </g>
</svg>