<?xml version="1.0" encoding="UTF-8"?>
<svg width="130px" height="130px" viewBox="0 0 130 130" version="1.1" xmlns="http://www.w3.org/2000/svg" xmlns:xlink="http://www.w3.org/1999/xlink">
    <!-- Generator: Sketch 56.3 (81716) - https://sketch.com -->
    <title>vr</title>
    <desc>Created with Sketch.</desc>
    <g id="vr" stroke="none" stroke-width="1" fill="none" fill-rule="evenodd">
        <g id="iconfinder_66_3339432" transform="translate(3.000000, 6.000000)" fill-rule="nonzero">
            <path d="M25.0689655,49.1367879 L25.0689655,83 C10.4877155,78.160345 1.06896552,70.4768536 1.06896552,61.8508923 L1.06896552,28 C1.06896552,36.6280146 10.4877155,44.2971328 25.0689655,49.1367879 Z" id="Path" fill="#D3D6DD"></path>
            <path d="M121.068966,28 L121.068966,61.8501027 C121.068966,70.476386 111.650216,78.1601643 97.0689655,83 L97.0689655,49.137577 C111.650216,44.2977413 121.068966,36.6283368 121.068966,28 Z" id="Path" fill="#D3D6DD"></path>
            <path d="M82.9694194,118 L39.1705949,118 C35.8062618,118 33.0689655,115.267519 33.0689655,111.909105 L33.0689655,31.0908949 C33.0689655,27.7324807 35.8062618,25 39.1705949,25 L82.9673362,25 C86.3316692,25 89.0689655,27.7324807 89.0689655,31.0908949 L89.0689655,111.909105 C89.0689655,115.267519 86.3316692,118 82.9694194,118 Z M39.1705949,28.1192702 C37.5290503,28.1192702 36.193733,29.4522383 36.193733,31.0908949 L36.193733,111.909105 C36.193733,113.547762 37.5290503,114.88073 39.1705949,114.88073 L82.9673362,114.88073 C84.6088807,114.88073 85.944198,113.547762 85.944198,111.909105 L85.944198,31.0908949 C85.944198,29.4522383 84.6088807,28.1192702 82.9673362,28.1192702 L39.1705949,28.1192702 Z" id="Shape" fill="#000000"></path>
            <path d="M88.0689655,40 L88.0689655,31.4337142 C88.0689655,28.9859133 86.0330739,27 83.5190089,27 L39.6189222,27 C37.1069452,27 35.0689655,28.9859133 35.0689655,31.4337142 L35.0689655,40 L88.0689655,40 Z" id="Path" fill="#D3D6DD"></path>
            <path d="M35.0689655,104 L35.0689655,112.566286 C35.0689655,115.014087 37.1069452,117 39.6189222,117 L83.5190089,117 C86.0309858,117 88.0689655,115.016121 88.0689655,112.566286 L88.0689655,104 L35.0689655,104 Z" id="Path" fill="#D3D6DD"></path>
            <circle id="Oval" fill="#020202" cx="61.0689655" cy="110" r="3"></circle>
            <path d="M71.5367272,35 L49.6012038,35 C48.7554083,35 48.0689655,34.328 48.0689655,33.5 C48.0689655,32.672 48.7554083,32 49.6012038,32 L71.5367272,32 C72.3825228,32 73.0689655,32.672 73.0689655,33.5 C73.0689655,34.328 72.3825228,35 71.5367272,35 Z" id="Path" fill="#000000"></path>
            <path d="M70.5184704,87 C70.120881,87 69.7232916,86.8460051 69.420958,86.5359058 L50.0653948,66.8182298 L35.7211146,81.4308693 C35.1143766,82.0489584 34.130757,82.0489584 33.524019,81.4308693 C32.917281,80.8127802 32.917281,79.8128681 33.524019,79.1947789 L48.9658116,63.4640942 C49.2577913,63.166652 49.6533099,63 50.063324,63 L50.063324,63 C50.4754088,63 50.8709274,63.166652 51.1608364,63.4640942 L71.613912,84.2998154 C72.22065,84.9179045 72.22065,85.9199262 71.613912,86.5380153 C71.3136492,86.8460051 70.9160598,87 70.5184704,87 Z" id="Path" fill="#1EB975"></path>
            <path d="M87.5070615,79 C87.1081448,79 86.7092282,78.8446344 86.4058853,78.5317748 L74.9868967,66.834658 L63.7278903,78.3700243 C63.1191269,78.9936151 62.1322238,78.9936151 61.5255381,78.3700243 C60.9167747,77.7464334 60.9167747,76.7354927 61.5255381,76.1119018 L73.8877983,63.4485385 C74.4716294,62.8504872 75.5063194,62.8504872 76.0922282,63.4485385 L88.612393,76.2736524 C89.2211564,76.8972432 89.2211564,77.908184 88.612393,78.5317748 C88.3048947,78.8446344 87.9059781,79 87.5070615,79 Z" id="Path" fill="#1EB975"></path>
            <circle id="Oval" fill="#F9AE5B" cx="57.0689655" cy="55" r="6"></circle>
            <path d="M123.046266,27.8237113 C122.584015,12.1901834 95.7507654,0 61.5586474,0 C27.0796863,0 0.0689655172,12.4010004 0.0689655172,28.2329443 L0.0689655172,62.3046929 C0.0689655172,71.4442302 9.11793874,79.7404995 24.8943128,85.0625955 C25.0552752,85.1163332 25.2224284,85.143202 25.387518,85.143202 C25.707379,85.143202 26.0251765,85.043994 26.2893199,84.8517785 C26.6937894,84.560355 26.9352329,84.0932507 26.9352329,83.593077 L26.9352329,59.363589 C28.1961046,58.9750243 30.5816492,58.2888356 33.8462959,57.5385751 C33.8462959,78.0994338 33.8462959,91.1742219 33.8462959,112.644487 L33.8462959,112.946245 C33.8462959,116.284181 36.5578924,119 39.8906386,119 L83.2782468,119 C86.6109929,119 89.3225894,116.284181 89.3225894,112.946245 L89.3225894,112.644487 C89.3225894,91.1742219 89.3225894,77.9712901 89.3225894,57.3380923 C91.6627344,57.9312734 93.9636706,58.6029943 96.2006345,59.3594553 C96.2006345,82.3323086 95.3297869,85.7467174 98.2415546,84.7608378 C114.019992,79.4387418 123.068966,71.1445394 123.068966,62.0029353 L123.068966,27.9332534 C123.068966,27.8939836 123.050393,27.8609143 123.046266,27.8237113 Z M23.8418667,81.4043004 C10.8493158,76.6030464 3.16439535,69.5468772 3.16439535,62.3067598 L3.16439535,37.2402043 C7.74975875,43.657722 16.4375985,48.0063394 23.8418667,50.6146832 L23.8418667,58.2288975 L23.8418667,81.4043004 Z M39.8906386,29.6673267 L83.2782468,29.6673267 C84.8981884,29.6673267 86.2271596,30.9838995 86.2271596,32.6208316 L86.2271596,39.7720752 L36.9437894,39.7720752 L36.9437894,32.6208316 C36.9437894,31.0045679 38.2583152,29.6673267 39.8906386,29.6673267 Z M86.2271596,42.8723253 L86.2271596,102.39506 L36.9437894,102.39506 L36.9437894,42.8723253 L86.2271596,42.8723253 Z M86.2271596,112.644487 C86.2271596,114.273152 84.9043792,115.597992 83.2782468,115.597992 L39.8906386,115.597992 C38.2645061,115.597992 36.9417257,114.273152 36.9417257,112.644487 L36.9417257,105.493244 L86.225096,105.493244 L86.225096,112.644487 L86.2271596,112.644487 Z M89.3225894,54.1303668 L89.3225894,41.3222002 C89.3225894,32.3480096 89.9313573,29.8202723 86.6543289,27.6025601 C85.6885548,26.9494407 84.5267368,26.5670766 83.2761832,26.5670766 L39.8906386,26.5670766 C36.5620197,26.5670766 33.8462959,29.278762 33.8462959,32.6208316 L33.8462959,41.3222002 L33.8462959,54.3597853 C30.8313472,55.0356398 28.4643752,55.6763582 26.9352329,56.1248611 L26.9352329,49.5089273 C26.9352329,48.843407 26.5101272,48.2522926 25.8807231,48.0394088 C11.6561912,43.2402216 3.16233173,35.8368244 3.16233173,28.2329443 C3.16233173,14.6104453 29.9047819,3.1002501 61.5565838,3.1002501 C93.0969502,3.1002501 119.752728,14.5195047 119.961154,28.0737981 C119.855909,35.6260074 111.388877,42.9694664 97.2510171,47.7376511 C96.621613,47.9505349 96.1965073,48.5416493 96.1965073,49.2071697 L96.1965073,56.0690566 C93.9595433,55.3394644 91.6524163,54.698746 89.3225894,54.1303668 Z M119.973536,62.0050021 C119.973536,69.2451195 112.288615,76.3012887 99.2960644,81.1025427 L99.2960644,58.2412985 L99.3497185,50.5878144 C109.164295,47.1300021 116.221875,42.4858274 119.973536,37.2092018 L119.973536,62.0050021 Z" id="Shape" fill="#000000"></path>
        </g>
    </g>
</svg>