<?xml version="1.0" encoding="UTF-8"?>
<svg width="110px" height="100px" viewBox="0 0 110 100" version="1.1" xmlns="http://www.w3.org/2000/svg" xmlns:xlink="http://www.w3.org/1999/xlink">
    <!-- Generator: Sketch 56.3 (81716) - https://sketch.com -->
    <title>web</title>
    <desc>Created with Sketch.</desc>
    <g id="web" stroke="none" stroke-width="1" fill="none" fill-rule="evenodd">
        <g id="iconfinder_102_2931403" transform="translate(4.000000, 2.000000)" fill-rule="nonzero">
            <path d="M1.5,61 L1.5,69.444844 C1.5,71.4081161 3.1528,73 5.1912,73 L97.8088,73 C99.8472,73 101.5,71.4081161 101.5,69.444844 L101.5,61 L1.5,61 Z" id="Path" fill="#D3D6DD"></path>
            <path d="M89.5,47.7591294 C86.8462868,50.3695168 83.1868358,52 79.1410641,52 C71.0527809,52 64.5,45.5119684 64.5,37.5 C64.5,29.4880316 71.0332203,23.0193721 79.1215036,23 L79.1215036,37.5 L89.5,47.7591294 Z" id="Path" fill="#D3D6DD"></path>
            <path d="M95.5,35.9785495 C95.5,39.407014 94.1996691,42.5551243 92.0274879,45 L82.5,35.9785495 L82.5,22 C89.8172563,22.8786517 95.5,28.8036772 95.5,35.9785495 Z" id="Path" fill="#86D2FF"></path>
            <circle id="Oval" fill="#000000" cx="51.5" cy="67" r="2"></circle>
            <path d="M47.7232179,25 C48.0360489,25 48.3488798,24.8810639 48.5867617,24.6415625 L56.1419552,17.0866767 C56.6193483,16.6093031 56.6193483,15.8354039 56.1419552,15.3580302 C55.6645621,14.8806566 54.8906314,14.8806566 54.4132383,15.3580302 L46.8580448,22.912916 C46.3806517,23.3902896 46.3806517,24.1625596 46.8580448,24.6415625 C47.097556,24.8794346 47.410387,25 47.7232179,25 Z" id="Path" fill="#000000"></path>
            <path d="M42.4011073,24.6398397 C42.6407462,24.8799466 42.9558877,25 43.2693878,25 C43.5845293,25 43.9013122,24.8799466 44.140951,24.6381952 C44.6202287,24.1563369 44.6202287,23.3751674 44.1376683,22.8949537 L36.6005341,15.3611905 C36.1212564,14.8776877 35.3383267,14.8809768 34.859049,15.362835 C34.3797713,15.8446933 34.3797713,16.6258628 34.8623317,17.1077211 L42.4011073,24.6398397 Z" id="Path" fill="#000000"></path>
            <path d="M24.6021748,24.6391126 L32.1393106,17.1021316 C32.6202298,16.6212223 32.6202298,15.8415912 32.1393106,15.360682 C31.6583915,14.8797727 30.8787444,14.8797727 30.3978252,15.360682 L22.8606894,22.8993043 C22.3797702,23.3802136 22.3797702,24.1598447 22.8606894,24.6407539 C23.3416085,25.1200219 24.1212556,25.1200219 24.6021748,24.6391126 Z" id="Path" fill="#000000"></path>
            <path d="M18.4116084,24.6423863 C18.8841133,25.115672 19.6596733,25.1221776 20.1403249,24.6440127 C20.6193472,24.1691005 20.6193472,23.396555 20.1435836,22.9183901 L12.5883916,15.3588294 C12.112628,14.8822908 11.3386974,14.879038 10.8596751,15.357203 C10.3806528,15.8321151 10.3806528,16.6046606 10.8564164,17.0828256 L18.4116084,24.6423863 Z" id="Path" fill="#000000"></path>
            <path d="M91.0849359,45.6465985 C91.3108974,45.8730967 91.6169872,46 91.9342949,46 C91.9519231,46 91.9679487,46 91.9855769,45.9983936 C92.3221154,45.9839363 92.6362179,45.8281184 92.8541667,45.5694927 C95.2051282,42.7679827 96.5,39.2082658 96.5,35.5425285 C96.5,27.6777388 90.6346154,20.9984506 82.8541667,20.0089264 C82.5,19.9671608 82.1650641,20.0731812 81.9070513,20.3012858 C81.6490385,20.5293904 81.5,20.8586963 81.5,21.204066 L81.5,35.5425285 C81.5,35.8621962 81.6266026,36.1690129 81.8525641,36.3939048 L91.0849359,45.6465985 Z M83.9054487,22.6449803 C89.8028846,24.0312779 94.0961538,29.3531832 94.0961538,35.5441348 C94.0961538,38.1994652 93.2916667,40.7921471 91.8092949,42.968779 L83.9038462,35.04616 L83.9038462,22.6449803 L83.9054487,22.6449803 Z" id="Shape" fill="#000000"></path>
            <path d="M65.2785103,44.6893753 C65.2849252,44.7021167 65.2993585,44.7053021 65.3057733,44.7180436 C67.9246258,49.6362515 73.1238418,53 79.1056664,53 C83.2624733,53 87.1819316,51.3913892 90.1439772,48.4688142 C90.3717035,48.2442458 90.5,47.9416358 90.5,47.6230991 C90.5,47.3045623 90.3733072,47.0003596 90.1471846,46.7757912 L80.2924091,37.0046753 L80.2924091,23.1945129 C80.2924091,22.8775688 80.1657163,22.5733662 79.93799,22.3487978 C79.7118674,22.1242293 79.4071632,22 79.0896294,22 C79.0880257,22 79.0880257,22 79.086422,22 C70.4937634,22.0191122 63.5,28.9727702 63.5,37.5 C63.5,40.0674065 64.1414825,42.483508 65.2592659,44.6177045 C65.2672844,44.6415947 65.2656807,44.665485 65.2785103,44.6893753 Z M87.5523877,47.5800966 C85.1740912,49.5406905 82.2168567,50.6093814 79.1040627,50.6093814 C74.4629366,50.6093814 70.3815039,48.2123921 68.027263,44.604963 L78.8635068,38.9636765 L87.5523877,47.5800966 Z M77.8852459,24.4463625 L77.8852459,36.7785142 L66.9046686,42.4946568 C66.263186,40.9545314 65.9039558,39.2694718 65.9039558,37.5015927 C65.9039558,30.6896835 71.178546,25.0675092 77.8852459,24.4463625 Z" id="Shape" fill="#000000"></path>
            <path d="M97.6312459,0 L5.3671604,0 C2.68336927,0 0.5,2.19311687 0.5,4.88888971 L0.5,61.071101 L0.5,69.8435685 L0.5,69.8499717 C0.5,72.5457446 2.68336927,74.7372606 5.3671604,74.7372606 L5.3735352,74.7372606 L39.9663917,74.7372606 L34.0872316,88.7123776 L30.2448205,88.7123776 C26.9028312,88.7123776 24.1839786,91.4433684 24.1839786,94.7986771 C24.1839786,95.4614146 24.7194619,96 25.3792538,96 L77.6064029,96 C77.6191525,96 77.6319021,96 77.6382769,96 C78.2996625,96 78.8335521,95.4614146 78.8335521,94.7986771 C78.8335521,91.5794377 76.1752601,88.7123776 72.7440236,88.7123776 L68.9016124,88.7123776 L63.019265,74.7372606 L97.6280585,74.7372606 L97.6344333,74.7372606 C100.318224,74.7372606 102.5,72.5441438 102.5,69.8499717 L102.5,69.8435685 L102.5,61.071101 L102.5,4.88888971 C102.496813,2.19311687 100.315037,0 97.6312459,0 Z M5.3671604,2.40122284 L97.6328396,2.40122284 C98.997047,2.40122284 100.107856,3.51699106 100.107856,4.88888971 L100.107856,59.8704896 L58.8103028,59.8704896 L58.8103028,26.2325592 C58.8103028,25.5698217 58.2748195,25.0319478 57.6150277,25.0319478 C56.9552358,25.0319478 56.4197525,25.5698217 56.4197525,26.2325592 L56.4197525,59.8704896 L46.9101434,59.8704896 L46.9101434,33.4090138 C46.9101434,32.7462763 46.3746602,32.2084024 45.7148683,32.2084024 C45.0550764,32.2084024 44.5195931,32.7462763 44.5195931,33.4090138 L44.5195931,59.8704896 L35.0099841,59.8704896 L35.0099841,26.2325592 C35.0099841,25.5698217 34.4745008,25.0319478 33.8147089,25.0319478 C33.154917,25.0319478 32.6194338,25.5698217 32.6194338,26.2325592 L32.6194338,59.8704896 L23.1114184,59.8704896 L23.1114184,33.4090138 C23.1114184,32.7462763 22.5759351,32.2084024 21.9161432,32.2084024 C21.2563514,32.2084024 20.7208681,32.7462763 20.7208681,33.4090138 L20.7208681,59.8704896 L11.2128527,59.8704896 L11.2128527,26.2325592 C11.2128527,25.5698217 10.6773695,25.0319478 10.0175776,25.0319478 C9.35778569,25.0319478 8.82230243,25.5698217 8.82230243,26.2325592 L8.82230243,59.8704896 L2.8905503,59.8704896 L2.8905503,4.88888971 C2.8905503,3.51699106 4.00135933,2.40122284 5.3671604,2.40122284 Z M76.2103216,93.5980657 L26.7737414,93.5980657 C27.2725696,92.1541303 28.6399644,91.1136004 30.2448205,91.1136004 L34.8793006,91.1136004 L68.1079498,91.1136004 C68.1206994,91.1152013 68.1318553,91.1136004 68.1398238,91.1136004 L72.7440236,91.1136004 C74.3456923,91.1136004 75.7114934,92.1541303 76.2103216,93.5980657 Z M66.3038811,88.7123776 L36.6801819,88.7123776 L42.5593419,74.7372606 L60.4231274,74.7372606 L66.3038811,88.7123776 Z M61.2151964,72.3360378 L41.7688666,72.3360378 L5.3735352,72.3360378 C4.00614043,72.3360378 2.8905503,71.217068 2.8905503,69.8435685 L2.8905503,62.2717124 L100.106262,62.2717124 L100.106262,69.8435685 C100.106262,71.217068 98.9938596,72.3360378 97.6248711,72.3360378 L61.2151964,72.3360378 Z" id="Shape" fill="#000000"></path>
            <circle id="Oval" fill="#F86868" cx="56.5" cy="14" r="4"></circle>
            <circle id="Oval" fill="#4B7BDF" cx="45.5" cy="24" r="4"></circle>
            <circle id="Oval" fill="#1EB975" cx="33.5" cy="16" r="4"></circle>
            <circle id="Oval" fill="#F86868" cx="9.5" cy="14" r="4"></circle>
            <circle id="Oval" fill="#FEDA7C" cx="21.5" cy="24" r="4"></circle>
        </g>
    </g>
</svg>